/* XPM */
static char *ac07891a8c69434be073e19719119a963E4OVMF2coUz0xXV[] = {
/* columns rows colors chars-per-pixel */
"64 64 213 2 ",
"   c None",
".  c black",
"X  c #1D1F23",
"o  c #1E2125",
"O  c #202326",
"+  c #23252A",
"@  c #26292C",
"#  c #292C2F",
"$  c #2A2E31",
"%  c #222430",
"&  c #2D3134",
"*  c #2E353B",
"=  c #2C3B3E",
"-  c #313639",
";  c #353A3D",
":  c #1D204F",
">  c #182053",
",  c #2D344B",
"<  c #2E384B",
"1  c #313640",
"2  c #343D44",
"3  c #393E42",
"4  c #313B4C",
"5  c #2F3A51",
"6  c #2C3759",
"7  c #313F5A",
"8  c #262C4C",
"9  c #1A2466",
"0  c #1F2E75",
"q  c #2C3968",
"w  c #353E62",
"e  c #273776",
"r  c #374144",
"t  c #3B4144",
"y  c #3D4549",
"u  c #39484C",
"i  c #2E485D",
"p  c #3D4851",
"a  c #3A4555",
"s  c #394563",
"d  c #36446B",
"f  c #3E546D",
"g  c #204C7E",
"h  c #344A7B",
"j  c #365277",
"k  c #306371",
"l  c #424748",
"z  c #434A4C",
"x  c #454D51",
"c  c #414C5E",
"v  c #484F51",
"b  c #4A5355",
"n  c #44535A",
"m  c #4C575A",
"M  c #4C595B",
"N  c #465255",
"B  c #515B5D",
"V  c #445768",
"C  c #555F61",
"Z  c #465971",
"A  c #445878",
"S  c #434C71",
"D  c #496469",
"F  c #556263",
"G  c #596465",
"H  c #5C6669",
"J  c #5D696B",
"K  c #54686D",
"L  c #4B6B74",
"P  c #586973",
"I  c #54747A",
"U  c #5E7678",
"Y  c #4E7379",
"T  c #616C6E",
"R  c #626E71",
"E  c #667274",
"W  c #697475",
"Q  c #647B7C",
"!  c #6D7A7C",
"~  c #6A7778",
"^  c #727E7F",
"/  c #121B85",
"(  c #1B3294",
")  c #2A3487",
"_  c #243796",
"`  c #313E96",
"'  c #222E98",
"]  c #1C2DA6",
"[  c #2331A9",
"{  c #3A5984",
"}  c #224893",
"|  c #375698",
" . c #2C5E86",
".. c #116D9E",
"X. c #1A7698",
"o. c #39638A",
"O. c #2C7F8D",
"+. c #397F88",
"@. c #376F9B",
"#. c #2B7B92",
"$. c #397797",
"%. c #27639B",
"&. c #3753A7",
"*. c #3575A4",
"=. c #42528A",
"-. c #4C6281",
";. c #44658B",
":. c #556E81",
">. c #457688",
",. c #547B83",
"<. c #5A7783",
"1. c #587C97",
"2. c #627C83",
"3. c #6E7E82",
"4. c #427BA7",
"5. c #6679A4",
"6. c #2279C6",
"7. c #4A79CA",
"8. c #17859A",
"9. c #388A9B",
"0. c #38909F",
"q. c #3D8186",
"w. c #1B8EB2",
"e. c #3999AA",
"r. c #3794B4",
"t. c #2F93AB",
"y. c #3DA0AD",
"u. c #3AA6B5",
"i. c #49858B",
"p. c #5A868B",
"a. c #4A8696",
"s. c #5D849F",
"d. c #5A8C98",
"f. c #4A939E",
"g. c #57949A",
"h. c #6D8386",
"j. c #648488",
"k. c #7B898B",
"l. c #768587",
"z. c #648A91",
"x. c #6D8B96",
"c. c #7D8F91",
"v. c #728B95",
"b. c #63969C",
"n. c #799296",
"m. c #4A98A7",
"M. c #5499A6",
"N. c #4991B3",
"B. c #628FA2",
"V. c #689AA7",
"C. c #7D9FA5",
"Z. c #44A5AB",
"A. c #5CA1A7",
"S. c #57A4AB",
"D. c #46A8B6",
"F. c #50ABBA",
"G. c #44B4BB",
"H. c #73A4B3",
"J. c #7AAEB3",
"K. c #71A5AB",
"L. c #2D93CF",
"P. c #338FD7",
"I. c #1AB8D1",
"U. c #2CAECE",
"Y. c #3DADCE",
"T. c #37BAC7",
"R. c #29B0D1",
"E. c #089CEF",
"W. c #3283E3",
"Q. c #1BB3E4",
"!. c #4294C7",
"~. c #49ADCF",
"^. c #5AA8C8",
"/. c #46BFCD",
"(. c #5BBDD3",
"). c #6FACC3",
"_. c #73BDCB",
"`. c #2DC4D4",
"'. c #27CCDA",
"]. c #3AC6D7",
"[. c #2DD2DF",
"{. c #38D1DD",
"}. c #15D8EA",
"|. c #16D0EB",
" X c #2ADAEB",
".X c #35D2E9",
"XX c #22CBEB",
"oX c #13E1ED",
"OX c #0EE2F3",
"+X c #2FE1EC",
"@X c #24E3F1",
"#X c #42C7D8",
"$X c #50C1DE",
"%X c #6BC4CE",
"&X c #62D0D8",
"*X c #69D4E9",
"=X c #818F92",
"-X c #859497",
";X c #82999C",
":X c #8E9D9E",
">X c #839698",
",X c #8EA09E",
"<X c #839DA1",
"1X c #8EADB0",
"2X c #88B4BA",
"3X c #93A2A4",
"4X c #88B8C5",
"5X c #A5BEC8",
"6X c #80C2C7",
"7X c #9EC9D4",
"8X c #93CCD7",
"9X c #A8CCD6",
"0X c #C0DCE8",
/* pixels */
". . . . . . . . . . . . . . . . . . . . . . . . . . . . . .   8X*X!.5.  . . . . . . . . . . . . . . . . . . . . . . . . . . . . ",
". . . . . . . . . . . . . . . . . . . . . . . . . . . . .   $X6X#Xm.' 7   . . . . . . . . . . . . . . . . . . . . . . . . . . . ",
". . . . . . . . . . . . . . . . . . . . . . . . . . . . .   2X4XC.2.A >   . . . . . . . . . . . . . . . . . . . . . . . . . . . ",
". . . . . . . . . . . . . . . . . . . . . . . . . . . . .   K._.F.B.9 /   . . . . . . . . . . . . . . . . . . . . . . . . . . . ",
". . . . . . . . . . . . . . . . . . . . . . . . . . . . .   B.9Xs.H.i :   . . . . . . . . . . . . . . . . . . . . . . . . . . . ",
". . . . . . . . . . . . . . . . . . . . . . . . . . . . .   5X0X9X9X1.0   . . . . . . . . . . . . . . . . . . . . . . . . . . . ",
". . . . . . . . . . . . . . . . . . . . . . . . . . . . . .   7X7X4X1.d   . . . . . . . . . . . . . . . . . . . . . . . . . . . ",
". . . . . . . . . . . . . . . . . . . . . . . . . . . . . .   V.4XH.j V . . . . . . . . . . . . . . . . . . . . . . . . . . . . ",
". . . . . . . . . . . . . . . . . . . . . . . . . . . . . . . 2XH. .6 i   . . . . . . . . . . . . . . . . . . . . . . . . . . . ",
". . . . . . . . . . . . . . . . . . . . . . . . . . . . . . . . e.t.q.i.p.1X8X  . . . . . . . . . . . . . . . . . . . . . . . . ",
". . . . . . . . . . . . . . . . . . . . . . . . . . .   ).^.{.{. X+X Xm.$.F.+X&X  . . . . . . . . . . . . . . . . . . . . . . . ",
". . . . . . . . . . . . . . . . . . . . . . . . . .   3.N.{.%X%X&X].P.!.`.e.M.C.  . . . . . . . . . . . . . . . . . . . . . . . ",
". . . . . . . . . . . . . . . . . . . . . . . . .   j.@.Y.]. X.X1X7.W.@X(.D.Z &.  . . . . . . . . . . . . . . . . . . . . . . . ",
". . . . . . . . . . . . . . . . . . . . . . . . . C Q H.#X0.Q -X=Xv.%X_.B.-.l B . . . . . . . . . . . . . . . . . . . . . . . . ",
". . . . . . . . . . . . . . . . . . . . . . . . . c.H.g.q.8.D 3.R J.).v.=.1 +   . . . . . . . . . . . . . . . . . . . . . . . . ",
". . . . . . . . . . . . . . . . . . . . . . .   ,Xk.p.o.#.O.I 9.V.C.1.S 8 o ; . . . . . . . . . . . . . . . . . . . . . . . . . ",
". . . . . . . . . . . . . . . . . . . . . .   ;Xm.L y ; N n.K..Xh.P S 1 + & . . . . . . . . . . . . . . . . . . . . . . . . . . ",
". . . . . . . . . . . . . . . . . . . . . . x.>.%.r 4 y a.a.a.oXq.q 8 + @ t . . . . . . . . . . . . . . . . . . . . . . . . . . ",
". . . . . . . . . . . . . . . . . . . . . . Z } e 5 5 h | A o.w.E...9 O &   . . . . . . . . . . . . . . . . . . . . . . . . . . ",
". . . . . . . . . . . . . . . . . . . . . .   e 1   . e a u i r w.X.+ o ; . . . . . . . . . . . . . . . . . . . . . . . . . . . ",
". . . . . . . . . . . . . . . . . . . . . . . . . . . m Q h.E B p ; & + t . . . . . . . . . . . . . . . . . . . . . . . . . . . ",
". . . . . . . . . . . . . . . . . . . . . . . . . . . 6.|.}.}.R.| 5 @ @   . . . . . . . . . . . . . . . . . . . . . . . . . . . ",
". . . . . . . . . . . . . . . . . . . . . . . . . . . r.OX}.'.Z.4.A y <   . . . . . . . . . . . . . . . . . . . . . . . . . . . ",
". . . . . . . . . . . . . . . . . . . . . . . . . .   Q.'.}.G.Z.a.Z y r   . . . . . . . . . . . . . . . . . . . . . . . . . . . ",
". . . . . . . . . . . . . . . . . . . . . . . . . .   D.b.h.m.g.r.C z 3   . . . . . . . . . . . . . . . . . . . . . . . . . . . ",
". . . . . . . . . . . . . . . . . . . . . . . . . .   I.h.3.g.D.y.K x '   . . . . . . . . . . . . . . . . . . . . . . . . . . . ",
". . . . . . . . . . . . . . . . . . . . . . . . . .   T.! 3.g.`.u.*.b ] _ . . . . . . . . . . . . . . . . . . . . . . . . . . . ",
". . . . . . . . . . . . . . . . . . . . . . . . . . I.I E W Q }.R.@.V 2 _ . . . . . . . . . . . . . . . . . . . . . . . . . . . ",
". . . . . . . . . . . . . . . . . . . . . . . . . . i.F G G H Z.f.*.M 3 ( . . . . . . . . . . . . . . . . . . . . . . . . . . . ",
". . . . . . . . . . . . . . . . . . . . . . . . . . 9.b b N m i.Z.t.-.y 7 . . . . . . . . . . . . . . . . . . . . . . . . . . . ",
". . . . . . . . . . . . . . . . . . . . . . . . . . K u ; ; l I Z.f.P p ) . . . . . . . . . . . . . . . . . . . . . . . . . . . ",
". . . . . . . . . . . . . . . . . . . . . . . . . . H l & + - K u.M.:.c w   . . . . . . . . . . . . . . . . . . . . . . . . . . ",
". . . . . . . . . . . . . . . . . . . . . . . . . . G z & O # B T.~.j.B 3 a . . . . . . . . . . . . . . . . . . . . . . . . . . ",
". . . . . . . . . . . . . . . . . . . . . . . . . . J b ; O O m g.M.d.| 3 [ . . . . . . . . . . . . . . . . . . . . . . . . . . ",
". . . . . . . . . . . . . . . . . . . . . . . . . . T B ; O o z j.T.L.&.y [ . . . . . . . . . . . . . . . . . . . . . . . . . . ",
". . . . . . . . . . . . . . . . . . . . . . . . . .   G t + o # Q S.p.J y ) . . . . . . . . . . . . . . . . . . . . . . . . . . ",
". . . . . . . . . . . . . . . . . . . . . . . . . .   T y @ O & R D.d.P p d . . . . . . . . . . . . . . . . . . . . . . . . . . ",
". . . . . . . . . . . . . . . . . . . . . . . . . .   E z # @ - H G.M.I f 5 . . . . . . . . . . . . . . . . . . . . . . . . . . ",
". . . . . . . . . . . . . . . . . . . . . . . . . .   ! N # @ ;   d.D.,.h 3 . . . . . . . . . . . . . . . . . . . . . . . . . . ",
". . . . . . . . . . . . . . . . . . . . . . . . . . . l.M * #   . j.XXz.=.t . . . . . . . . . . . . . . . . . . . . . . . . . . ",
". . . . . . . . . . . . . . . . . . . . . . . . . . . c.G ; $   . j.T.b.;.y . . . . . . . . . . . . . . . . . . . . . . . . . . ",
". . . . . . . . . . . . . . . . . . . . . . . . . . . >XR ; &   .   S.Y.:.a . . . . . . . . . . . . . . . . . . . . . . . . . . ",
". . . . . . . . . . . . . . . . . . . . . . . . . . . >XT ; -   . . B.~.3.w . . . . . . . . . . . . . . . . . . . . . . . . . . ",
". . . . . . . . . . . . . . . . . . . . . . . . . . .   J 3 ;   . . 2.A.4.x . . . . . . . . . . . . . . . . . . . . . . . . . . ",
". . . . . . . . . . . . . . . . . . . . . . . . . . .   r.i 1 n . .   R.*.N } . . . . . . . . . . . . . . . . . . . . . . . . . ",
". . . . . . . . . . . . . . . . . . . . . . . . . . .   f.k } #.. .   u.e.+.k   . . . . . . . . . . . . . . . . . . . . . . . . ",
". . . . . . . . . . . . . . . . . . . . . . . . . . .   P b 2 9.  .   Q l.E M I . . . . . . . . . . . . . . . . . . . . . . . . ",
". . . . . . . . . . . . . . . . . . . . . . . . . . .   E b ; 3   . . R ^ ! B z   . . . . . . . . . . . . . . . . . . . . . . . ",
". . . . . . . . . . . . . . . . . . . . . . . . . . . . W m < 2   . .   ^ ! C c   . . . . . . . . . . . . . . . . . . . . . . . ",
". . . . . . . . . . . . . . . . . . . . . . . . . . . . W M 6 1   . . . ~ ! T z   . . . . . . . . . . . . . . . . . . . . . . . ",
". . . . . . . . . . . . . . . . . . . . . . . . . . . . W C 6 *   . . . R ! T z   . . . . . . . . . . . . . . . . . . . . . . . ",
". . . . . . . . . . . . . . . . . . . . . . . . . . . .   C 7 *   . . . T W T z ` . . . . . . . . . . . . . . . . . . . . . . . ",
". . . . . . . . . . . . . . . . . . . . . . . . . . . . . C i &   . . .   T T b f . . . . . . . . . . . . . . . . . . . . . . . ",
". . . . . . . . . . . . . . . . . . . . . . . . . . . . . C r =   . . . . J T m c . . . . . . . . . . . . . . . . . . . . . . . ",
". . . . . . . . . . . . . . . . . . . . . . . . . . . . . C t 2   . . . .   J F f . . . . . . . . . . . . . . . . . . . . . . . ",
". . . . . . . . . . . . . . . . . . . . . . . . . . . . . B 3 *   . . . .   R G o.. . . . . . . . . . . . . . . . . . . . . . . ",
". . . . . . . . . . . . . . . . . . . . . . . . . . . .   i.y }   . . . .   R H @.. . . . . . . . . . . . . . . . . . . . . . . ",
". . . . . . . . . . . . . . . . . . . . . . . . . .     ;XM.n q l . . . . . ! Q D . . . . . . . . . . . . . . . . . . . . . . . ",
". . . . . . . . . . . . . . . . . . . . . . . . .   -X,Xk.C ' < - . . . .   ].}.L . . . . . . . . . . . . . . . . . . . . . . . ",
". . . . . . . . . . . . . . . . . . . . . . .   l.=Xk.T z 3 w w   . . . . c.;Xn.Y . . . . . . . . . . . . . . . . . . . . . . . ",
". . . . . . . . . . . . . . . . . . . . . . .   B v b y 3 m   . . . . .   <X3Xk.=.. . . . . . . . . . . . . . . . . . . . . . . ",
". . . . . . . . . . . . . . . . . . . . . . . . . . . . . . . . . . . . -X3X:X~ c . . . . . . . . . . . . . . . . . . . . . . . ",
". . . . . . . . . . . . . . . . . . . . . . . . . . . . . . . . . . . . ^ =X! v 3 . . . . . . . . . . . . . . . . . . . . . . . ",
". . . . . . . . . . . . . . . . . . . . . . . . . . . . . . . . . . . . B B v     . . . . . . . . . . . . . . . . . . . . . . . "
};
