/* XPM */
static char *_f24671c98b9485ab5384a4436b91effRpRjBfUCCP8X7xXx[] = {
/* columns rows colors chars-per-pixel */
"64 64 2 1 ",
"  c gray15",
". c #CDDC39",
/* pixels */
"................................................................",
"................................................................",
"................................................................",
"................................................................",
"................................................................",
"................................................................",
"................................................................",
"................................................................",
"................................................................",
"................................................................",
"................................................................",
"................................................................",
"................................................................",
"................................................................",
"................................................................",
"................................................................",
"................................................................",
"................................................................",
"................................................................",
"................................................................",
".............    ......    ....  ......  ..        .............",
".............    ......    ....  ......  ..        .............",
"...........  ........  ....  ..    ..    ..  ...................",
"...........  ........  ....  ..    ..    ..  ...................",
"...........  ..    ..        ..  ..  ..  ..      ...............",
"...........  ..    ..        ..  ..  ..  ..      ...............",
"...........  ....  ..  ....  ..  ......  ..  ...................",
"...........  ....  ..  ....  ..  ......  ..  ...................",
".............    ....  ....  ..  ......  ..        .............",
".............    ....  ....  ..  ......  ..        .............",
"................................................................",
"................................................................",
"................................................................",
".............    ....  ......  ..        ..      ...............",
".............    ....  ......  ..        ..      ...............",
"...........  ....  ..  ......  ..  ........  ....  .............",
"...........  ....  ..  ......  ..  ........  ....  .............",
"...........  ....  ....  ..  ....      ....      ...............",
"...........  ....  ....  ..  ....      ....      ...............",
"...........  ....  ....  ..  ....  ........  ....  .............",
"...........  ....  ....  ..  ....  ........  ....  .............",
".............    ........  ......        ..  ....  .............",
".............    ........  ......        ..  ....  .............",
"................................................................",
"................................................................",
"................................................................",
"................................................................",
"................................................................",
"................................................................",
"................................................................",
"................................................................",
"................................................................",
"................................................................",
"................................................................",
"................................................................",
"................................................................",
"................................................................",
"................................................................",
"................................................................",
"................................................................",
"................................................................",
"................................................................",
"................................................................",
"................................................................"
};
