/* XPM */
static char *_5d9c511839a47fbd652841d245636aabk5SqsVqnK9zu1LI[] = {
/* columns rows colors chars-per-pixel */
"64 64 199 2 ",
"   c #191C1F",
".  c #1B1E22",
"X  c #1D2125",
"o  c #1E2328",
"O  c #212326",
"+  c #22262A",
"@  c #26292D",
"#  c #292B2E",
"$  c #2C312F",
"%  c #262B31",
"&  c #2A2E32",
"*  c #2A2F38",
"=  c #2D3135",
"-  c #2D323A",
";  c #323435",
":  c #3E3735",
">  c #32363B",
",  c #35393E",
"<  c #3B3C3D",
"1  c #3D413C",
"2  c #42442D",
"3  c #42413E",
"4  c #2E3641",
"5  c #2E3849",
"6  c #313740",
"7  c #353B43",
"8  c #3A3E43",
"9  c #353D4A",
"0  c #393F48",
"q  c #343F52",
"w  c #3D4145",
"e  c #37404F",
"r  c #3D434A",
"t  c #3C4453",
"y  c #3C475A",
"u  c #3E495D",
"i  c #374560",
"p  c #384763",
"a  c #3D4A63",
"s  c #3D4C6A",
"d  c #3E5070",
"f  c #424444",
"g  c #494746",
"h  c #4B4A45",
"j  c #42464A",
"k  c #46494C",
"l  c #4A4C4D",
"z  c #534C45",
"x  c #504F4B",
"c  c #585846",
"v  c #53524D",
"b  c #444A54",
"n  c #4B4E52",
"m  c #444D5B",
"M  c #4E5153",
"N  c #4C535D",
"B  c #535453",
"V  c #585651",
"C  c #575857",
"Z  c #5B5A55",
"A  c #52555A",
"S  c #56595E",
"D  c #5C5C5B",
"F  c #625F5A",
"G  c #5F605F",
"H  c #63615C",
"J  c #68675F",
"K  c #65685A",
"L  c #434E63",
"P  c #414F68",
"I  c #445065",
"U  c #4B5464",
"Y  c #44526C",
"T  c #4A566C",
"R  c #4D596D",
"E  c #505762",
"W  c #545A63",
"Q  c #5A5D62",
"!  c #535C6B",
"~  c #455573",
"^  c #465775",
"/  c #4C5A74",
"(  c #46597C",
")  c #495B7C",
"_  c #525D72",
"`  c #515F7A",
"'  c #5E6064",
"]  c #57606F",
"[  c #5C626C",
"{  c #566174",
"}  c #5C6573",
"|  c #53627B",
" . c #5C6779",
".. c #5D687C",
"X. c #636463",
"o. c #686661",
"O. c #6C6B65",
"+. c #64666B",
"@. c #66696C",
"#. c #6B6B6C",
"$. c #736D6C",
"%. c #7B6E69",
"&. c #6F716F",
"*. c #77766A",
"=. c #73726D",
"-. c #646B75",
";. c #6A6D72",
":. c #646D7D",
">. c #6D7175",
",. c #66707F",
"<. c #69717D",
"1. c #737474",
"2. c #7A7575",
"3. c #7C7A74",
"4. c #74767A",
"5. c #74787B",
"6. c #7C7D7C",
"7. c #827D6F",
"8. c #867A74",
"9. c #9BA63F",
"0. c #ACB83D",
"q. c #CDDC37",
"w. c #C5D33E",
"e. c #CDDC39",
"r. c #838757",
"t. c #AAB557",
"y. c #B2BE59",
"u. c #8A946D",
"i. c #858273",
"p. c #8B8B76",
"a. c #82827E",
"s. c #928C7B",
"d. c #8E947E",
"f. c #98927E",
"g. c #A4AC6F",
"h. c #A9AE7C",
"j. c #B2BA7B",
"k. c #B9C642",
"l. c #B8C25C",
"z. c #BBC479",
"x. c #C0CB45",
"c. c #C7D447",
"v. c #CDDB43",
"b. c #CDDB4B",
"n. c #D0DE47",
"m. c #CBD656",
"M. c #CEDB52",
"N. c #D2DF58",
"B. c #C3CD68",
"V. c #CCD761",
"C. c #C6D16D",
"Z. c #D2DE62",
"A. c #D5E161",
"S. c #495C80",
"D. c #5B6986",
"F. c #5F7092",
"G. c #626E84",
"H. c #6C7582",
"J. c #667188",
"K. c #6B778E",
"L. c #727983",
"P. c #7A7E83",
"I. c #757D8C",
"U. c #687591",
"Y. c #8C7F81",
"T. c #7D8184",
"R. c #7C8494",
"E. c #828382",
"W. c #858687",
"Q. c #8D8C84",
"!. c #86898B",
"~. c #8B8C8C",
"^. c #928F89",
"/. c #8E9184",
"(. c #96948C",
"). c #999688",
"_. c #8C8F91",
"`. c #979897",
"'. c #A49F87",
"]. c #A49E8B",
"[. c #9BA399",
"{. c #AAA48E",
"}. c #A7AB8D",
"|. c #A8B484",
" X c #A6A798",
".X c #A5A49B",
"XX c #B2AD95",
"oX c #BAB799",
"OX c #A3A4A3",
"+X c #AAAAA5",
"@X c #B6B8AA",
"#X c #B7B9BD",
"$X c #C3BEA4",
"%X c #BDC1AA",
"&X c #C7C6AD",
"*X c #CECDB7",
"=X c #BBBDC0",
"-X c #C6C7C9",
";X c #D8D9C5",
/* pixels */
"e.e.e.e.e.e.e.e.e.e.e.e.e.e.e.e.e.e.e.e.e.e.e.e.e.e.e.e.e.e.e.e.e.e.e.e.e.e.e.e.e.e.e.e.e.e.e.e.e.e.e.e.e.e.e.e.e.e.e.e.e.e.e.e.",
"e.e.e.e.e.e.e.e.e.e.e.e.e.e.e.e.e.e.e.e.q.e.e.e.e.e.e.e.e.e.e.e.e.e.e.e.e.e.e.e.e.e.e.e.e.e.e.e.e.e.e.e.e.e.e.e.e.e.e.e.e.e.q.e.",
"e.e.e.e.e.e.e.e.e.e.e.e.e.e.e.e.e.e.e.e.e.e.e.e.e.e.e.e.e.e.e.e.e.e.e.e.e.e.e.e.e.e.e.e.e.q.e.e.e.e.e.e.e.e.e.e.e.e.e.e.e.e.e.e.",
"e.e.e.e.e.e.q.e.e.e.e.q.e.e.e.e.e.e.e.e.e.e.e.e.e.e.e.q.e.e.e.e.e.e.e.e.e.e.e.e.e.e.e.q.e.e.e.e.e.e.e.e.e.e.e.e.e.e.e.e.e.e.e.e.",
"e.e.e.e.e.e.e.e.e.e.e.e.e.e.e.e.e.q.e.e.e.e.e.e.e.e.e.e.e.e.e.e.e.e.e.e.e.e.q.q.e.e.e.e.e.e.e.e.e.e.e.e.e.e.e.e.e.e.e.e.e.e.e.e.",
"e.e.e.e.e.e.e.e.e.e.e.e.e.q.e.e.e.e.e.e.e.e.q.e.e.e.e.e.e.e.e.e.e.e.e.e.e.e.e.e.e.e.e.e.e.q.e.e.e.e.e.e.e.e.e.e.e.e.e.e.e.e.e.e.",
"e.e.e.q.e.e.e.e.e.e.e.e.e.e.e.e.e.e.e.e.e.e.e.e.e.e.e.e.e.e.e.q.e.e.q.e.e.e.e.e.e.e.e.e.e.e.e.e.e.e.e.e.e.e.e.e.e.e.e.e.q.e.e.e.",
"e.e.e.e.e.e.e.e.e.e.e.e.e.e.e.e.e.e.e.e.e.e.e.%Xe.e.e.e.e.e.e.e.e.e.e.e.e.e.e.e.e.e.e.e.e.e.e.e.e.e.e.e.e.e.e.e.e.e.e.e.e.e.e.e.",
"e.e.e.e.e.q.e.e.e.e.e.e.e.e.e.e.q.e.e.e.e.e.e.%Xn.e.e.e.e.e.e.e.e.e.e.e.e.e.e.e.e.e.e.e.e.e.e.e.e.e.e.q.e.e.e.e.e.e.e.e.e.e.e.e.",
"e.e.e.e.e.e.e.e.e.e.e.e.e.e.e.e.e.e.e.e.e.e.q.p.V.e.e.e.e.e.e.e.e.e.e.e.e.e.e.e.e.q.e.e.e.e.e.e.e.e.e.e.e.e.e.e.e.e.e.e.e.e.e.e.",
"e.e.e.e.e.e.e.e.e.e.e.e.e.e.e.e.e.e.e.e.e.e.e.k `.v.e.e.e.e.e.e.e.e.e.q.e.e.e.e.e.e.e.e.e.e.q.e.e.e.e.e.e.e.e.e.e.e.e.e.e.e.e.e.",
"e.e.e.e.e.e.e.e.e.e.e.e.e.e.e.e.e.e.e.e.e.e.j.U R._.W /.e.e.e.e.e.e.e.e.e.e.e.e.e.e.e.e.e.e.q.e.e.e.e.e.e.e.e.e.e.q.e.e.e.e.e.e.",
"q.q.e.e.e.e.e.e.e.e.e.e.e.e.e.e.e.e.e.e.e.e.=Xm [ M k M `.e.e.e.e.e.e.e.e.e.e.e.e.e.e.e.e.e.e.e.e.e.e.e.e.e.e.e.e.e.e.e.e.e.e.e.",
"q.q.e.e.e.e.e.e.e.e.e.e.e.e.e.e.e.e.e.e.e.e.e.u.N m f M M h.A.e.e.e.e.e.e.e.e.e.e.e.e.e.e.e.e.e.e.e.e.e.e.e.e.e.e.e.e.e.e.e.e.e.",
"e.e.e.e.e.e.e.q.e.e.e.e.e.e.e.e.e.e.e.e.e.e.w.z.K t , M M B OXv.e.e.e.e.e.e.e.e.e.e.e.e.e.e.e.e.e.q.e.e.e.e.e.e.e.e.e.e.e.e.e.e.",
"e.e.e.e.e.e.e.e.e.e.e.e.e.e.e.e.e.e.e.e.e.v.D z g f ; 7 B j M }.e.e.e.e.e.e.e.q.e.e.e.e.e.e.e.e.e.e.e.e.e.e.e.e.e.e.e.e.e.e.e.e.",
"e.e.e.e.e.e.e.e.e.e.e.e.e.e.e.e.e.e.q.e.e.v.h : : $ + & r B r C j.e.e.e.e.e.e.e.e.e.e.e.e.e.e.e.e.e.e.e.e.e.e.e.e.e.e.e.e.e.e.e.",
"e.e.e.e.e.e.e.e.e.e.e.e.e.e.e.e.e.e.q.q.C.d.C B u w = & > b k k W j.e.e.e.e.e.e.e.e.e.e.e.q.e.e.e.e.e.e.e.e.e.e.e.e.e.e.e.e.e.e.",
"e.q.e.e.e.e.e.e.e.e.e.e.e.e.e.e.e.e.e.N.#.A Z 1 e m N > = 1 N -.U ! [.V.e.e.e.e.e.e.e.e.e.e.e.e.e.e.e.e.e.e.e.e.e.e.e.e.e.e.e.e.",
"e.e.e.e.e.e.e.e.e.e.e.e.e.e.e.e.e.e.e.XX6.=.C 7 t R } t = = t H.U.D.F.F.|.e.e.e.q.e.e.e.e.e.e.e.e.e.e.e.e.e.e.e.e.e.e.e.e.e.q.e.",
"e.e.e.e.e.e.e.e.e.e.e.e.e.e.e.e.e.e.v.W.J O.M 6 / |  .R > = > R K.K.U.U.D.y.v.e.e.e.e.e.e.e.e.e.e.e.e.e.e.e.e.e.e.e.e.e.e.e.e.e.",
"e.e.e.e.e.e.e.e.e.e.e.e.e.e.e.e.e.e.X.C H o.M > | ..] } t = e ~ | I.I.J.J.J.`.A.e.e.e.e.e.e.e.e.e.e.e.e.e.e.e.e.e.e.e.e.e.e.e.e.",
"e.e.e.e.e.e.e.e.e.e.e.e.e.e.e.e.e.v.k o.O.D M 7 | } U } U > 5 I / ..!.:.W  .:.R.M.M.e.e.e.e.e.e.q.e.e.e.e.e.e.e.e.e.q.e.e.e.e.e.",
"e.e.e.e.e.e.e.e.e.e.e.e.e.e.e.e.e.e.j f C B l 0 T m s { } m 9 u Y / [ w < 0 S b Q c ;.e.q.e.e.e.q.q.e.e.e.e.e.e.e.e.e.e.e.e.e.e.",
"e.e.e.e.e.e.q.e.e.e.e.e.e.e.e.e.e.e.r 7 w l r 6 e r I / } [ m e Y / t ; w 7 k b l F %.8.-Xn.e.e.e.e.e.e.e.e.e.e.e.e.e.e.e.e.e.e.",
"e.e.e.e.e.e.e.e.e.e.e.e.e.e.e.e.e.e.f , = w w > - 7 Y ^ ] ] w 7 Y R r = 1 e - 7 A A %.8.3.=XZ.e.e.e.e.e.e.e.e.e.e.e.q.q.e.e.e.e.",
"e.e.e.e.e.e.e.e.e.e.e.e.e.e.e.e.e.e.8 > = > f w - 7 Y ) R T - 5 ~ / r $ > 4 - 4 6 N B =.8.%.+Xe.q.q.e.e.e.e.e.e.e.e.e.q.e.e.e.e.",
"e.e.e.e.e.e.e.e.e.e.e.e.e.e.e.e.e.9.> - = = w j w 6 Y S.~ I = 4 ~ ] r , - 4 - - % 6 A l 2.Y.$..Xe.e.e.e.e.e.e.e.e.e.e.q.e.e.e.e.",
"e.e.e.e.e.e.e.e.e.e.e.e.e.e.e.e.e.> = = & & = w k 9 p ( ( u - 9 Y { r > 7 > 6 * o o e N W ' W N ).v.q.e.e.e.e.e.e.e.e.e.q.e.e.e.",
"e.e.e.e.e.e.e.e.e.e.e.e.e.e.e.e.e.- ; # # @ @ ; r 9 t ~ ) L y N U / 7 % = w - - $ o o w ;.W.N m u p.e.e.q.e.e.e.e.e.e.e.e.e.e.e.",
"e.e.e.e.e.q.q.e.q.e.e.e.e.e.e.q.e., > & @ @ + = , r 9 d ( ~ R W k ! 6 % @ w w 4 w = o % r >.M 5 6 v >.G V n.e.e.e.e.e.e.e.e.e.e.",
"e.e.e.e.e.q.q.e.e.e.e.e.e.e.e.e.e.=.H > @ O O + = 7 9 s ^ ) U G C N - @ o & l w e w & % w D A e - z h c c e.e.e.e.e.e.e.e.e.e.e.",
"e.e.e.e.e.q.e.e.q.e.e.e.e.e.e.e.+.2.O.M : O O O @ * 5 s ^ S.L Q 3.C - @ X . > x 7 r 8 & e j r m , ; 1 > - |.N.e.e.e.e.e.e.e.e.e.",
"e.e.e.e.e.e.e.e.e.e.e.e.e.e.e.e.7.' C g w # X O O % 5 P ~ ( q L 6.O., + X   o j l > w > [ b - k r @ @ % @ r #Xe.e.e.e.e.e.e.e.e.",
"e.e.e.e.e.e.e.e.e.e.e.e.e.e.q.e.J F M j 8 > @ X O @ 0 P ~ Y t L <.Q.G < # X X = B f - 6 ' M = e , @ & @ & % ;.e.e.e.e.e.e.e.e.e.",
"e.e.e.e.e.e.e.e.e.e.e.e.e.e.e.r.F F k 8 > - = X O @ 9 q d P q m  .a.*.k 1 = + o 7 V 7 - b j = 7 - @ # = & o n q.e.e.e.e.e.e.e.e.",
"q.e.e.e.e.e.e.e.e.e.e.e.e.e.e.j g l j 7 - * ; @ + # > t P L q q | L.3.G f < # @ @ j B - n n & 7 , # $ $ # @ e M.q.e.e.e.e.e.e.e.",
"e.e.e.e.e.e.e.e.e.e.e.e.q.w.j j f , , , > & * * @ + * 0 i L t q / G.E.=.M f ; # @ = V j W Q # x , $ + # # o = %Xe.e.e.e.e.e.e.e.",
"e.e.e.e.e.e.e.q.e.e.e.e.v.c k l x 8 = = ; * & * + + 7 ; m p i 9 Y | L.3.H f < & @ & , Z w 6 & H 6 $ @ @ @ o % [.e.e.e.e.e.e.e.e.",
"e.e.e.e.e.e.e.e.e.e.e.e.6.= , 8 f w : # & * & * + % 0 % r p Y m L _ ,.T.=.k f ; & @ @ k v & @ l , = o + + o @ T.e.e.e.e.e.e.e.e.",
"e.e.e.e.e.e.e.e.e.e.e.e.w % O..X;.w 8 ; # & & & % @ 6 + 0 i P I b T ..L.3.Z w 1 # % . & v f & - > ; + + + o o [ e.e.e.e.e.e.e.e.",
"e.e.e.e.e.e.e.e.e.e.e.`.@ > `..X8.Q 7 : = # & & % & - + 8 t i T b L | <.6.*.n 8 ; @ . . , Z k 4 - = $ @ # + o A e.e.e.e.e.e.e.e.",
"e.e.q.e.e.e.e.e.e.e.e.M @ A .X4.-.#.U , > # # = % = 6 X > j q Y U N _ :.T./.O.w < # .   O j F , - - # @ $ o o w v.e.e.e.e.q.e.e.",
"e.e.e.e.q.e.e.e.e.e.e.$ & Q.+X1.6.4.1.A > & % % 0 j 6 X - t 9 L _ m U  .T.].f.M 1 $ .   . % B x - - + o @ o o - v.e.e.e.e.e.e.e.",
"e.e.e.e.e.e.e.e.e.e.+.@ l +X.X`.^.^.W.;.g & @ % Q t.n X * 4 8 5 / N U ] H.{.'.J 8 : O . . . , F w - @ X O o X # e.e.e.q.e.e.e.e.",
"e.e.q.e.e.e.e.e.e.C.> @ 1.2.F $.;.2.~.Y.Q - % % t.e.%.8 6 & 7 6 ^ R N ! :.!.).7.l 8 ; O X X + k K , $ O + + + o e.e.e.e.e.e.e.e.",
"e.e.e.e.e.e.e.e.oXo.3 < H h ; C 1.o.$.4.+.8 @ & e.e.n < * & 6 * I { N U { L.Q.s.o.8 < & + O + * V Z = $ # = = @ k.e.e.e.e.e.e.e.",
"e.e.e.e.e.e.e.e.*.K v f g v g 3 1.;.$.2.' M * ; e.e.; ; % ; ; * s ` ! N U ,.W.).p.n < : # + + @ > j f ; = 7 1 - 1 w.e.e.e.e.e.e.",
"e.e.e.e.q.e.e.(.D v g 1 3 h c v #.1.4.8.Q A < f e.x.; ; # * & w u ~  .A U -.P.).{.O.8 1 ; @ @ + @ @ @ + @ = - % @ 0.e.e.e.e.e.e.",
"e.e.e.e.e.e.e.O.V v h 3 3 h h h F 6.6.4.Q +.b ;.e.w.= $ # * % 0 b P  .Q U R H.).{.s.M , < @ @ O @ @ O + X X o . o - e.e.e.e.e.e.",
"q.e.e.e.e.e.e.Z Z H V h 3 h h h h C O.#.W ' n e.q.q.2 # # & + 7 t P | +.U U  .W.'.'.*.w < ; @ @ @ @ + X X . X . X o e.e.e.e.e.e.",
"e.e.e.e.e.q.c.V V v v v v v v h z 1 f D D C Q e.e.q.O # # * + * j a ~ :.Q U E L.).'.f.V , < # + @ # + X X . . X X o k.v.e.e.e.e.",
"e.e.e.e.e.e.O.c v f 1 < h v c v g 3 v ;.D D e.e.e.m.= # @ = + + k u Y ..+.N U :.W.].XX3.w < ; @ @ @ @ O X   X . . o Q e.e.e.e.e.",
"e.e.e.e.e.e.v h < ; , ; : 1 f < ; ; g 8.X.' e.e.e.e.W + w g % X 8 b s ` 4.Q U  .P.).oX'.G , < # @ @ @ O X     X X o w e.e.e.e.e.",
"e.e.e.e.e.G v 1 $ # = ; ; ; ; # # @ ; ;.4.' e.e.e.e.N + #.C @ X ; b s ~ L.;.! ! K.(.XX$Xi.k < ; @ @ @ O X       . o = e.e.e.e.e.",
"e.e.e.q.k.w < = # @ @ ; ; ; & @ $ = ; +.~.;.e.e.e.^.j f k < + X % b y s  .>.-.!  .P.XX$X{.D , < = @ O X X     O . o + _.e.e.e.e.",
"e.e.e.v.j & & % @ @ @ & ; ; & @ @ ; 3 O.OX6.e.e.B.#.F k M : % . o n P p ` 4.;._ U <..X&X&Xi.j , ; + + O .   . . . . o [ e.e.e.e.",
"e.e.e.P.; % % & & = # & & # = # O # M #.@Xl.e.e.g.>.a.O.l n & + X b m i ~ P.4.! R -.~.*X;XXXH , : + O . . . . . . . o t b.q.q.e.",
"e.e.e.k & % % % & = $ & @ @ # # ; # N ;.OXe.e.e.@.r @.D H 3.l l g A N i P :.8.{ U -.L.@X;X*Xi.M = @ O . .   . . . . o + `.e.e.e.",
"e.e.e.8 7 , , 8 < w f < > ; ; > f g Q T.`.e.e.e.g.r b f D 1.X.+.Q Q Q P Y D.!.5.] G.H.`.;X;X{.1.k < = # @ + @ % % % * * U e.e.e.",
"e.e.e.e.e.e.e.e.e.b.M.v.v.e.e.v.e.v.e.n.b.e.n.n.e.e.e.v.e.v.e.v.v.v.v.b.b.M.e.e.e.e.e.e.v.e.e.e.e.v.e.e.e.e.e.e.v.e.v.e.e.e.e.e.",
"q.e.e.e.e.e.e.e.e.e.e.e.q.e.e.e.e.e.e.e.e.e.q.e.e.e.e.e.e.e.e.e.e.e.e.e.e.e.e.e.e.e.e.e.e.e.e.e.e.e.e.e.e.e.e.e.e.e.e.e.e.e.e.e.",
"e.q.e.e.e.e.e.e.e.e.e.e.e.e.e.e.e.e.e.e.e.e.e.e.e.e.e.e.e.e.e.e.e.e.v.e.e.e.e.e.e.e.e.e.e.e.e.e.e.e.e.v.e.v.e.e.e.e.e.e.e.e.e.e.",
"e.e.e.e.e.e.e.e.e.e.e.q.e.e.e.e.e.e.e.e.e.q.e.e.e.e.e.e.e.e.e.e.e.e.e.e.e.e.e.e.e.e.e.e.e.e.e.e.e.e.e.e.e.e.e.e.e.e.e.e.e.e.e.e."
};
