/* XPM */
static char *b63680e64fd14831d34e9c5390186f8cSYygp7gTHlOR0Fiy[] = {
/* columns rows colors chars-per-pixel */
"64 64 184 2 ",
"   c #191C1F",
".  c #1B1E22",
"X  c #1D2125",
"o  c #1E2328",
"O  c #212326",
"+  c #22262A",
"@  c #26292D",
"#  c #292C2E",
"$  c #2C312F",
"%  c #262B31",
"&  c #2A2E32",
"*  c #2A2F38",
"=  c #2D3135",
"-  c #2D323A",
";  c #323435",
":  c #3E3735",
">  c #32363B",
",  c #35393E",
"<  c #3B3C3D",
"1  c #3D413C",
"2  c #44452C",
"3  c #42413E",
"4  c #2E3641",
"5  c #2E3849",
"6  c #313740",
"7  c #353B43",
"8  c #3A3E43",
"9  c #353D4A",
"0  c #393F48",
"q  c #343F52",
"w  c #3D4145",
"e  c #37404F",
"r  c #3D434A",
"t  c #3C4453",
"y  c #3C475A",
"u  c #3E495D",
"i  c #374560",
"p  c #384763",
"a  c #3D4A63",
"s  c #3D4C6A",
"d  c #3E5070",
"f  c #424444",
"g  c #4A4744",
"h  c #4B4A45",
"j  c #42464A",
"k  c #484749",
"l  c #46494C",
"z  c #4A4C4D",
"x  c #534C45",
"c  c #504F4B",
"v  c #585846",
"b  c #53524D",
"n  c #444A54",
"m  c #4B4E52",
"M  c #444D5B",
"N  c #4E5153",
"B  c #4C535D",
"V  c #535453",
"C  c #585651",
"Z  c #575857",
"A  c #5B5A55",
"S  c #52555A",
"D  c #56595E",
"F  c #5C5C5B",
"G  c #625F5A",
"H  c #5D625C",
"J  c #63615C",
"K  c #68675F",
"L  c #65685A",
"P  c #434E63",
"I  c #414F68",
"U  c #445065",
"Y  c #4B5464",
"T  c #44526C",
"R  c #4A566C",
"E  c #4D596D",
"W  c #505762",
"Q  c #545A63",
"!  c #5A5D62",
"~  c #535C6B",
"^  c #455573",
"/  c #465775",
"(  c #4C5A74",
")  c #46597C",
"_  c #495B7C",
"`  c #525D72",
"'  c #515F7A",
"]  c #5E6064",
"[  c #57606F",
"{  c #5C626C",
"}  c #566174",
"|  c #5C6573",
" . c #53627B",
".. c #5C6779",
"X. c #5D687C",
"o. c #636463",
"O. c #686661",
"+. c #6C6B65",
"@. c #64666B",
"#. c #66696C",
"$. c #6B6B6C",
"%. c #736D6C",
"&. c #7B6E69",
"*. c #737065",
"=. c #73726D",
"-. c #7C796E",
";. c #646B75",
":. c #6A6D72",
">. c #646D7D",
",. c #6D7175",
"<. c #66707F",
"1. c #69717D",
"2. c #737474",
"3. c #7A7575",
"4. c #7C7A74",
"5. c #74767A",
"6. c #74787B",
"7. c #7D7D7C",
"8. c #827D6F",
"9. c #867A74",
"0. c #CBDA37",
"q. c #C6D539",
"w. c #CDDC39",
"e. c #838757",
"r. c #858273",
"t. c #8D8877",
"y. c #82827E",
"u. c #928C7B",
"i. c #98927E",
"p. c #495C80",
"a. c #5B6986",
"s. c #5E6E90",
"d. c #677182",
"f. c #6C7582",
"g. c #66718C",
"h. c #6B778E",
"j. c #727983",
"k. c #7A7E83",
"l. c #757D8C",
"z. c #667492",
"x. c #6D7890",
"c. c #8C7F81",
"v. c #7D8184",
"b. c #7C8494",
"n. c #828382",
"m. c #888884",
"M. c #8D8C84",
"N. c #82858B",
"B. c #86898B",
"V. c #8B8C8C",
"C. c #928F89",
"Z. c #969283",
"A. c #9C9687",
"S. c #96948C",
"D. c #9A968A",
"F. c #9F998B",
"G. c #8C8F91",
"H. c #949594",
"J. c #979896",
"K. c #9D9B94",
"L. c #92969C",
"P. c #999B9C",
"I. c #A49F87",
"U. c #A49E8B",
"Y. c #9BA399",
"T. c #AAA48E",
"R. c #A7AB8D",
"E. c #A3A691",
"W. c #A5A49B",
"Q. c #A8A79F",
"!. c #B1AC93",
"~. c #B4AF9A",
"^. c #BAB59B",
"/. c #A3A4A3",
"(. c #ACABA3",
"). c #A7A8AB",
"_. c #B4B5AC",
"`. c #B7B9BD",
"'. c #C3BEA4",
"]. c #CAC6AD",
"[. c #CECDB7",
"{. c #BBBDC0",
"}. c #C6C7C9",
"|. c #D9DAC6",
/* pixels */
"w.w.w.w.w.w.w.w.w.w.w.w.w.w.w.w.w.w.w.w.w.w.w.w.w.w.w.w.w.w.w.w.w.w.w.w.w.w.w.w.w.w.w.w.w.w.w.w.w.w.w.w.w.w.w.w.w.w.w.w.w.w.w.w.",
"w.w.w.w.w.w.w.w.w.w.w.w.w.w.w.w.w.w.w.w.w.w.w.w.w.w.w.w.w.w.w.w.w.w.w.w.w.w.w.w.w.w.w.w.w.w.w.w.w.w.w.w.w.w.w.w.w.w.w.w.w.w.w.w.",
"w.w.w.w.w.w.w.w.w.w.w.w.w.w.w.w.w.w.w.w.w.w.w.w.w.w.w.w.w.w.w.w.w.w.w.w.w.w.w.w.w.w.w.w.w.w.w.w.w.w.w.w.w.w.w.w.w.w.w.w.w.w.w.w.",
"w.w.w.w.w.w.w.w.w.w.w.w.w.w.w.w.w.w.w.w.w.w.w.w.w.w.w.w.w.w.w.w.w.w.w.w.w.w.w.w.w.w.w.w.w.w.w.w.w.w.w.w.w.w.w.w.w.w.w.w.w.w.w.w.",
"w.w.w.w.w.w.w.w.w.w.w.w.w.w.w.w.w.w.w.w.w.w.w.w.w.w.w.w.w.w.w.w.w.w.w.w.w.w.w.w.w.w.w.w.w.w.w.w.w.w.w.w.w.w.w.w.w.w.w.w.w.w.w.w.",
"w.w.w.w.w.w.w.w.w.w.w.w.w.w.w.w.w.w.w.w.w.w.w.w.w.w.w.w.w.w.w.w.w.w.w.w.w.w.w.w.w.w.w.w.w.w.w.w.w.w.w.w.w.w.w.w.w.w.w.w.w.w.w.w.",
"w.w.w.w.w.w.w.w.w.w.w.w.w.w.w.w.w.w.w.w.w.w.w.w.w.w.w.w.w.w.w.w.w.w.w.w.w.w.w.w.w.w.w.w.w.w.w.w.w.w.w.w.w.w.w.w.w.w.w.w.w.w.w.w.",
"w.w.w.w.w.w.w.w.w.w.w.w.w.w.w.w.w.w.w.w.w.w.w.w.w.w.w.w.w.w.w.w.w.w.w.w.w.w.w.w.w.w.w.w.w.w.w.w.w.w.w.w.w.w.w.w.w.w.w.w.w.w.w.w.",
"w.w.w.w.w.w.w.w.w.w.w.w.w.w.w.w.w.w.w.w.w.w.w.w.w.w.w.w.w.w.w.w.w.w.w.w.w.w.w.w.w.w.w.w.w.w.w.w.w.w.w.w.w.w.w.w.w.w.w.w.w.w.w.w.",
"w.w.w.w.w.w.w.w.w.w.w.w.w.w.w.w.w.w.w.w.w.w.w.w.w.w.w.w.w.w.w.w.w.w.w.w.w.w.w.w.w.w.w.w.w.w.w.w.w.w.w.w.w.w.w.w.w.w.w.w.w.w.w.w.",
"w.w.w.w.w.w.w.w.w.w.w.w.w.w.w.w.w.w.w.w.w.w.w.n L.w.0.w.w.w.w.w.w.w.w.w.w.w.w.w.w.w.w.w.w.w.w.w.w.w.w.w.w.w.w.w.w.w.w.w.w.w.w.w.",
"w.w.w.w.w.w.w.w.w.w.w.w.w.w.w.w.w.w.w.w.w.w.w.B v.G.H w.w.w.w.w.w.w.w.w.w.w.w.w.w.w.w.w.w.w.w.w.w.w.w.w.w.w.w.w.w.w.w.w.w.w.w.w.",
"w.w.w.w.w.w.w.w.w.w.w.w.w.w.w.w.w.w.w.w.w.w.{.M | N l b J.w.w.w.w.w.w.w.w.w.w.w.w.w.w.w.w.w.w.w.w.w.w.w.w.w.w.w.w.w.w.w.w.w.w.w.",
"w.w.w.w.w.w.w.w.w.w.w.w.w.w.w.w.w.w.w.w.w.w.w.w.H M r N V w.w.w.w.w.w.w.w.w.w.w.w.w.w.w.w.w.w.w.w.w.w.w.w.w.w.w.w.w.w.w.w.w.w.w.",
"w.w.w.w.w.w.w.w.w.w.w.w.w.w.w.w.w.w.w.w.w.w.w.w.H y , N m V /.w.w.w.w.w.w.w.w.w.w.w.w.w.w.w.w.w.w.w.w.w.w.w.w.w.w.w.w.w.w.w.w.w.",
"w.w.w.w.w.w.w.w.w.w.w.w.w.w.w.w.w.w.w.w.w.w.F x h 3 ; w S j N R.w.w.w.w.w.w.w.w.w.w.w.w.w.w.w.w.w.w.w.w.w.w.w.w.w.w.w.w.w.w.w.w.",
"w.w.w.w.w.w.w.w.w.w.w.w.w.w.w.w.w.w.w.w.w.w.k : : $ @ % l N r Z w.w.w.w.w.w.w.w.w.w.w.w.w.w.w.w.w.w.w.w.w.w.w.w.w.w.w.w.w.w.w.w.",
"w.w.w.w.w.w.w.w.w.w.w.w.w.w.w.w.w.w.w.w.w.w.V V u w = % > z l l H w.w.w.w.w.w.w.w.w.w.w.w.w.w.w.w.w.w.w.w.w.w.w.w.w.w.w.w.w.w.w.",
"w.w.w.w.w.w.w.w.w.w.w.w.w.w.w.w.w.w.w.w.$.S A 8 e M B > = , D :.Y ~ Y.w.w.w.w.w.w.w.w.w.w.w.w.w.w.w.w.w.w.w.w.w.w.w.w.w.w.w.w.w.",
"w.w.w.w.w.w.w.w.w.w.w.w.w.w.w.w.w.w.w.W.7.%.Z 8 t E | t * - t <.x.a.s.s.w.w.w.w.w.w.w.w.w.w.w.w.w.w.w.w.w.w.w.w.w.w.w.w.w.w.w.w.",
"w.w.w.w.w.w.w.w.w.w.w.w.w.w.w.w.w.w.w.m.K +.N , E  ...E - - , ( h.x.z.z.a.w.w.w.w.w.w.w.w.w.w.w.w.w.w.w.w.w.w.w.w.w.w.w.w.w.w.w.",
"w.w.w.w.w.w.w.w.w.w.w.w.w.w.w.w.w.w.O.V J O.N 4  .X.[ | t = 9 R  .l.l.g.g.g.P.w.w.w.w.w.w.w.w.w.w.w.w.w.w.w.w.w.w.w.w.w.w.w.w.w.",
"w.w.w.w.w.w.w.w.w.w.w.w.w.w.w.w.w.w.l O.+.A m 7 ' ..Y ..Y > 6 T ( X.B.>.Q ..>.b.w.w.w.w.w.w.w.w.w.w.w.w.w.w.w.w.w.w.w.w.w.w.w.w.",
"w.w.w.w.w.w.w.w.w.w.w.w.w.w.w.w.w.w.j f Z V m 8 T B s } { M 9 u R ( { f < 0 S m ] v :.w.w.w.w.w.w.w.w.w.w.w.w.w.w.w.w.w.w.w.w.w.",
"w.w.w.w.w.w.w.w.w.w.w.w.w.w.w.w.w.w.j 8 w z r , q 8 s ( | | m e T ( t ; w 7 t n z G &.9.}.w.w.w.w.w.w.w.w.w.w.w.w.w.w.w.w.w.w.w.",
"w.w.w.w.w.w.w.w.w.w.w.w.w.w.w.w.w.w.r , = w w , - 7 T ( } ~ r 6 T R r $ w w - 7 S N &.9.9.{.w.w.w.w.w.w.w.w.w.w.w.w.w.w.w.w.w.w.",
"w.w.w.w.w.w.w.w.w.w.w.w.w.w.w.w.w.w.w > = , w r - 7 T _ E R - 6 R ( t # 4 4 - > 9 B N %.9.%.).w.w.w.w.w.w.w.w.w.w.w.w.w.w.w.w.w.",
"w.w.w.w.w.w.w.w.w.w.w.w.w.w.w.w.w.w.> = & ; 8 l w 6 T p.^ U - 6 ^ ( j < - 4 - - @ 7 S m 3.c.%.W.w.w.w.w.w.w.w.w.w.w.w.w.w.w.w.w.",
"w.w.w.w.w.w.w.w.w.w.w.w.w.w.w.w.w.> = = # = = 1 l 9 p ) ) u - e T ( r - 1 > 5 % + o 9 S ! ] Q Y w.w.w.w.w.w.w.w.w.w.w.w.w.w.w.w.",
"w.w.w.w.w.w.w.w.w.w.w.w.w.w.w.w.w.= = & # @ @ , j 9 t ^ _ P t U Y E w % * w - - & + + 7 ;.N.n M n y.w.w.w.w.w.w.w.w.w.w.w.w.w.w.",
"w.w.w.w.w.w.w.w.w.w.w.w.w.w.w.w.w., - & @ @ O # , 9 9 T ) ( R Q n ~ , % @ w w 6 f & + % r 2.B 7 7 c :.J z w.w.w.w.w.w.w.w.w.w.w.",
"w.w.w.w.w.w.w.w.w.w.w.w.w.w.w.w.w.-.H , @ O O @ & 9 9 s / ) Y H A B > @ o % z r 9 f % % 0 F S 7 > x k v k w.w.w.w.w.w.w.w.w.w.w.",
"w.w.w.w.w.w.w.w.w.w.w.w.w.w.w.w.@.9.%.z ; O O O % = 5 p ^ p.u ! 4.Z - + X . , c 7 w w * e r r n 1 > , , > R.w.w.w.w.w.w.w.w.w.w.",
"w.w.w.w.w.w.w.w.w.w.w.w.w.w.w.w.&.] V k f & O X O % 9 s ^ ) i B 7.+., + X   o j m > w - { n = t r @ @ @ @ l `.w.w.w.w.w.w.w.w.w.",
"w.w.w.w.w.w.w.w.w.w.w.w.w.w.w.w.O.G N k 7 6 # X O % 0 a ^ T y u 1.M.H < # X X & V f - 6 ] N = e > @ $ # % % ;.w.w.w.w.w.w.w.w.w.",
"w.w.w.w.w.w.w.w.w.w.w.w.w.w.w.e.o.G k 8 6 = = O O % 9 i T p e y ..y.=.z 1 & + + , Z 7 - l j * w > # $ % % o N w.w.w.w.w.w.w.w.w.",
"w.w.w.w.w.w.w.w.w.w.w.w.w.w.w.f k l j 9 ; * - + O # 6 t s u t y  .j.7.F j < & + % j V - M N & 8 > % $ $ # + w 0.w.w.w.w.w.w.w.w.",
"w.w.w.w.w.w.w.w.w.w.w.w.w.0.l l f : : , - = & - + + = 8 a u t e ( >.y.=.c f ; # @ = C k D F # z , = + # # o - w.w.w.w.w.w.w.w.w.",
"w.w.w.w.w.w.w.w.w.w.w.w.w.v l z c 8 & > = = & - + + 6 > t s a 0 R  .j.7.J w < = @ % , A r , & J , $ @ # @ o $ Y.w.w.w.w.w.w.w.w.",
"w.w.w.w.w.w.w.w.w.w.w.w.w.& 7 8 f w , @ & * & & + % 9 & t p T t P ( <.y.=.l f ; # # @ l b % % z 4 - o + + o o v.w.w.w.w.w.w.w.w.",
"w.w.w.w.w.w.w.w.w.w.w.w.w % #.E.%.0 w ; # & & & % # 6 + 0 i s R t R ..k.4.Z w < # # . & b f & - > = + + + o o { w.w.w.w.w.w.w.w.",
"w.w.w.w.w.w.w.w.w.w.w.H.@ , K.W.9.D , , & # & & % & 6 X 8 t i R M U  .1.7.=.m w ; @ . X , A l - - = $ @ @ @ o S w.w.w.w.w.w.w.w.",
"w.w.w.w.w.w.w.w.w.w.w.N @ S Q.2.;.#.S 7 > # # & % * 6 X 6 j q T Y U ~ >.v.Z.*.w < # .   + j A , - > # @ $ o o w w.w.w.w.w.w.w.w.",
"w.w.w.w.w.w.w.w.w.w.w.= % M.(.2.7.7.2.S > & @ * 0 j 6 X ; t 9 u [ M Y ..v.U.i.N < =     . % V b - - @ X @ o o - w.w.w.w.w.w.w.w.",
"w.w.w.w.w.w.w.w.w.w.] + z (.W.J.C.C.n.1.k & @ % Q w.n O * 4 7 9 ( B B [ j.Y.U.O.8 : O     X , G w - # X + X X @ w.w.w.w.w.w.w.w.",
"w.w.w.w.w.w.w.w.w.0., # =.3.F %.%.2.C.c.! ; @ % w.w.w.< 6 * 7 6 ^ E B Q >.m.A.8.m , ; O X O @ l L > # + @ o o @ w.w.w.w.w.w.w.w.",
"w.w.w.w.w.w.w.w.w.+.1 1 o.k ; F 2.o.%.5.@.w % & w.w.q.8 = & > * T } B R } j.M.u.L w < # + O + & C A = $ $ % $ @ w.w.w.w.w.w.w.w.",
"w.w.w.w.w.w.w.w.4.L b 3 g b g 0 2.%.%.3.] m & - w.w.; ; @ = = * a  .~ B W d.n.Z.t.N , < # + + @ > l 1 ; * 1 w > 1 w.w.w.w.w.w.w.",
"w.w.w.w.w.w.w.D.J b j 3 3 x v b $.2.3.7.! S , j 0.w.; ; # - & w u / | S Y | k.A.I.+.8 1 = @ + + @ @ # @ @ = - % @ w.w.w.w.w.w.w.",
"w.w.w.w.w.w.w.+.A c h g 3 3 h z F 7.k.4.! @.m :.w.w.; & # * % 0 t ^ ..Q Y E f.S.T.u.N < < # @ + @ @ o o X X o X o - w.w.w.w.w.w.",
"w.w.w.w.w.w.w.A C A v h g h h h h A +.+.D ] m w.w.w.0.2 @ & + 6 j s  .#.D Y ..B.U.U.*.w < ; @ @ @ @ O o X . . X X o w.w.w.w.w.w.",
"w.w.w.w.w.w.w.C C C b c c b x x h < k F F Z ! w.w.w.q.+ # - + * j a / ;.! Y W j.D.U.i.A , < # + @ # + O X   X X . o w.w.w.w.w.w.",
"w.w.w.w.w.w.L C b h < 1 h C C c g 3 b $.F F w.w.w.w.= # @ = @ + l y d X.{ B W <.B.F.!.-.w < ; @ @ @ @ O .   . X . o ! w.w.w.w.w.",
"w.w.w.w.w.w.A h < ; ; ; ; 1 3 1 ; : k 7.o.o.w.w.w.w.Q + w k @ X j n s ' 6.! Y ..k.F.^.U.H , < # + # @ O O .   . X o w w.w.w.w.w.",
"w.w.w.w.w.H c < = @ = ; ; ; ; $ # @ ; :.2.o.w.w.w.w.N + $.Z @ X > n a ^ j.:.~ E f.S.~.'.r.l < ; @ @ @ O .     . . o - w.w.w.w.w.",
"w.w.w.w.w.w < ; # @ # = ; ; $ + & & ; @.V.:.w.w.w.C.j f k 8 + X @ n p s ..2.;.~ ..v.!.'.T.F , < = + + X O   . . . X o G.w.w.w.w.",
"w.w.w.w.j = & & # @ # = = = # # # ; 3 +./.7.w.w.w.$.H k V , @ X + m P s ( 5.,.~ W d.W.[.].r.j , : O O O X   . . . o o { w.w.w.w.",
"w.w.w.7.= % @ % = % @ & # = & $ O # m $._.w.w.w.w.,.y.+.h z & + X j M p ^ k.2.` W | V.[.[.R.J 8 ; @ O X . .   . . . o t w.w.w.w.",
"w.w.w.l % % & & $ = = # @ @ # # ; # m :./.w.w.w.w.t #.H o.4.z z k S B i s >.c.~ R ;.j._.|.[.t.N = # o   .     . . . o o L.w.w.w.",
"w.w.w.9 8 , , < < w w < > ; ; > f k ! k.P.w.w.w.w.j n w F =.o.@.! ! ! I ^ X.B.6.[ >.f.Y.|.|.T.2.j < = # # # @ # % % * * Y w.w.w.",
"w.w.w.w.w.w.w.w.w.w.w.w.w.w.w.w.w.w.w.w.w.w.w.w.w.w.w.w.w.w.w.w.w.w.w.w.w.w.w.w.w.w.w.w.w.w.w.w.w.w.w.w.w.w.w.w.w.w.w.w.w.w.w.w.",
"w.w.w.w.w.w.w.w.w.w.w.w.w.w.w.w.w.w.w.w.w.w.w.w.w.w.w.w.w.w.w.w.w.w.w.w.w.w.w.w.w.w.w.w.w.w.w.w.w.w.w.w.w.w.w.w.w.w.w.w.w.w.w.w.",
"w.w.w.w.w.w.w.w.w.w.w.w.w.w.w.w.w.w.w.w.w.w.w.w.w.w.w.w.w.w.w.w.w.w.w.w.w.w.w.w.w.w.w.w.w.w.w.w.w.w.w.w.w.w.w.w.w.w.w.w.w.w.w.w.",
"w.w.w.w.w.w.w.w.w.w.w.w.w.w.w.w.w.w.w.w.w.w.w.w.w.w.w.w.w.w.w.w.w.w.w.w.w.w.w.w.w.w.w.w.w.w.w.w.w.w.w.w.w.w.w.w.w.w.w.w.w.w.w.w."
};
