/* XPM */
static char *db84440f0cd1433aca652d1198cf76fekpMaps3GgRUSEjdP[] = {
/* columns rows colors chars-per-pixel */
"64 64 233 2 ",
"   c #161B1D",
".  c #181C1D",
"X  c #1C201E",
"o  c #1F2614",
"O  c #25281F",
"+  c #1A1E23",
"@  c #1C1D29",
"#  c #151925",
"$  c #201F2F",
"%  c #1D2225",
"&  c #1E222A",
"*  c #1F2A22",
"=  c #1D2532",
"-  c #222524",
";  c #242A24",
":  c #22252A",
">  c #25292D",
",  c #2A2C2D",
"<  c #292B28",
"1  c #2D332A",
"2  c #2D3325",
"3  c #31352E",
"4  c #333829",
"5  c #242631",
"6  c #262B32",
"7  c #2A2D32",
"8  c #262B39",
"9  c #2B2D3B",
"0  c #27273A",
"q  c #312E36",
"w  c #2D3135",
"e  c #2D323B",
"r  c #323434",
"t  c #343934",
"y  c #33353B",
"u  c #35393C",
"i  c #3B3C3D",
"p  c #3A3B34",
"a  c #302C29",
"s  c #453C35",
"d  c #3E433B",
"f  c #3B4134",
"g  c #3C4528",
"h  c #43433D",
"j  c #474939",
"k  c #53553D",
"l  c #2B2B44",
"z  c #2D3544",
"x  c #333543",
"c  c #343A43",
"v  c #3B3C43",
"b  c #353C4B",
"n  c #3B3B4C",
"m  c #353548",
"M  c #3B3E52",
"N  c #433D45",
"B  c #433F54",
"V  c #3D4145",
"C  c #3C424C",
"Z  c #344048",
"A  c #3B4453",
"S  c #3C445B",
"D  c #3C4A5C",
"F  c #384352",
"G  c #3B4562",
"H  c #3C4A63",
"J  c #3C4A69",
"K  c #3E4A72",
"L  c #424343",
"P  c #4B4B44",
"I  c #43454A",
"U  c #45494D",
"Y  c #4B4C4C",
"T  c #494647",
"R  c #514D49",
"E  c #475348",
"W  c #52524C",
"Q  c #585A4B",
"!  c #434B55",
"~  c #4B4C53",
"^  c #4C4C5B",
"/  c #464859",
"(  c #4C5153",
")  c #4C525B",
"_  c #49585B",
"`  c #545453",
"'  c #595A54",
"]  c #53545A",
"[  c #555B5C",
"{  c #5C5C5B",
"}  c #585854",
"|  c #554E5C",
" . c #625E5A",
".. c #5D635B",
"X. c #62635C",
"o. c #67685A",
"O. c #747250",
"+. c #424C6C",
"@. c #444C63",
"#. c #445265",
"$. c #4C5564",
"%. c #44546D",
"&. c #4C596D",
"*. c #4A576A",
"=. c #535564",
"-. c #555B63",
";. c #5B5D62",
":. c #535C6B",
">. c #5B5C6C",
",. c #555369",
"<. c #434C71",
"1. c #445373",
"2. c #495573",
"3. c #4D5C73",
"4. c #465778",
"5. c #4C5A7A",
"6. c #4A5679",
"7. c #535E73",
"8. c #575E79",
"9. c #625C63",
"0. c #605C6B",
"q. c #665F71",
"w. c #5B636A",
"e. c #5C6676",
"r. c #5C657B",
"t. c #566477",
"y. c #4F6165",
"u. c #626262",
"i. c #63646A",
"p. c #6B6C6C",
"a. c #696865",
"s. c #736C6B",
"d. c #73716C",
"f. c #797868",
"g. c #6D6C73",
"h. c #656C7A",
"j. c #676977",
"k. c #6C757C",
"l. c #747373",
"z. c #7D7E7C",
"x. c #777878",
"c. c #FC0903",
"v. c #F91707",
"b. c #F23B0D",
"n. c #EE2A17",
"m. c #EC3817",
"M. c #DB3A39",
"N. c #DD3934",
"B. c #E72725",
"V. c #E03330",
"C. c #ED4714",
"Z. c #E9561A",
"A. c #E6761C",
"S. c #E4671B",
"D. c #DB4239",
"F. c #DA4B39",
"G. c #DD4433",
"H. c #D95439",
"J. c #D85C39",
"K. c #E05C32",
"L. c #E2422B",
"P. c #D86239",
"I. c #D76A39",
"U. c #D86B35",
"Y. c #D67A38",
"T. c #E16F2C",
"R. c #857B78",
"E. c #7C8177",
"W. c #DC9829",
"Q. c #D48739",
"!. c #D49938",
"~. c #DF8D2E",
"^. c #E28C26",
"/. c #D9A52B",
"(. c #D2A339",
"). c #D1AB39",
"_. c #CFBA39",
"`. c #D0B838",
"'. c #D5B82F",
"]. c #EAAF22",
"[. c #F48512",
"{. c #ECCF1E",
"}. c #EDC31E",
"|. c #DED429",
" X c #D6D729",
".X c #CFC239",
"XX c #CECB39",
"oX c #D3C535",
"OX c #CDDC39",
"+X c #CED937",
"@X c #D5D531",
"#X c #E4D225",
"$X c #E3D225",
"%X c #E7CB22",
"&X c #D0E138",
"*X c #828155",
"=X c #87867B",
"-X c #9A927F",
";X c #8A8773",
":X c #D3DC71",
">X c #5B6983",
",X c #5C6C93",
"<X c #687385",
"1X c #767A86",
"2X c #6C6F8D",
"3X c #596796",
"4X c #837E9C",
"5X c #7B8487",
"6X c #838383",
"7X c #8B8D8B",
"8X c #858688",
"9X c #989489",
"0X c #898A93",
"qX c #9B9995",
"wX c #948E80",
"eX c #A49E90",
"rX c #9FA29B",
"tX c #A7A48D",
"yX c #A5A597",
"uX c #B3AC95",
"iX c #BBB49A",
"pX c #9F9AA0",
"aX c #A19FA0",
"sX c #A6A5A7",
"dX c #B5B2B2",
"fX c #C1BA9D",
"gX c #C3BCAE",
"hX c #CAC89A",
"jX c #D7DD8E",
"kX c #CECDBB",
"lX c #CECDB2",
"zX c #ECCF93",
"xX c #D7D6C2",
/* pixels */
"OXOXOXOXOXOXOXOXOXOXOXOXOXOXOXOXOXOXOXOXOXOXOXOXOXOXOXOXOXOXOXOXOXOXOXOXOXOXOXOXOXOXOXOXOXOXOXOXOXOXOXOXOXOXOXOXOXOXOXOXOXOXOXOX",
"OXOXOXOXOXOXOXOXOXOXOXOXOXOXOX_.OXOXOXOXOXOXOXOXOXOXOXOXOXOXOXOXOXOXOXOXOXOXOXOXOXOXOXOXOXOXOXOXOXOXOXOXOXOXOXOXOXOXOXOXOXOXOXOX",
"OXOXOXOXOXOXOXOXOXOXOXOXOXOXP.D.F.H..XOXOXOXOX)..XOXOXOXOXOXOXOXOXOXOXOXOXOXOXOXOXOXOXOXOXOXOXOXOXOXOXOXOXOXOXOXOXOXOXOXOXOXOXOX",
"OXOXOXOXOXOXOXOXOXOXOXOXOXOXOXOX(.J.(.OX.XF.J.F.!.OXOXOX(.P.M.D..XOXOXOXOXOXOXOXOXOXOXOXOXOXOXOXOXOXOXOXOXOXOXOXOXOXOXOXOXOXOXOX",
"OXOXOXOXOXOXOXOXOXOXOXOXOXOXOXOX&XOX~.W.).N.N.F.(.OXOXOXY.H.P..XOXOXOXOXOXOXOXOXOXOXOXOXOXOXOXOXOXOXOXOXOXOXOXOXOXOXOXOXOXOXOXOX",
"OXOXOXOXOXOXOXOXOXOXOXOXOXOXOXXXH.J..XOXA././.F.Q.J.OX(.C.Y.OX&XOXOXOXOXOXOXOXOXOXOXOXOXOXOXOXOXOXOXOXOXOXOXOXOXOXOXOXOXOXOXOXOX",
"OXOXOXOXOXOXOXOXOXOXOXOXOXOX#XA.v.T.~..XV.G.oXG._.XX!.M.C.Y.@X&XOX|.+XOXOXOXOXOXOXOXOXOXOXOXOXOXOXOXOXOXOXOXOXOXOXOXOXOXOXOXOXOX",
"OXOXOXOXOXOXOXOXOXOXOXOXOX{.{.@X&X}.}.K.B.B.].K.F.B.].W.).XX{.$XOX$X{.OXOXOXOXOXOXOXOXOXOXOXOXOXOXOXOXOXOXOXOXOXOXOXOXOXOXOXOXOX",
"OXOXOXOXOXOXOXOXOXOX+X{.#X|.&XOX@X].`.M.M.M.M.V.M.M.|.~.M.!.@X|.OXOX$XOXOXOXOXOXOXOXOXOXOXOXOXOXOXOXOXOXOXOXOXOXOXOXOXOXOXOXOXOX",
"OXOXOXOXOXOXOXOXOXOX+X{.{.W.OXOXD.D.D.M.D.M.M.N._.b.v.Z.OXOX|.{.Q.H.OXOXOXOXOXOXOXOXOXOXOXOXOXOXOXOXOXOXOXOXOXOXOXOXOXOXOXOXOXOX",
"OXOXOXOXOXOXOXOXOXOXOXOX!.M.c.n.M..XY.m.B.N.$X^ 9X/.S.b.c.A.OX{.%XD.).OXOXOXOXOXOXOXOXOXOXOXOXOXOXOXOXOXOXOXOXOXOXOXOXOXOXOXOXOX",
"OXOXOXOXOXOXOXOXOXOXOXOXOXW.c.Y.I.P.OXZ.b.T.|.~ 4X0X..&XW.zXOX|.].XXD.XXOXOXOXOXOXOXOXOXOXOXOXOXOXOXOXOXOXOXOXOXOXOXOXOXOXOXOXOX",
"OXOXOXOXOXOXOXOXOXOXOXOXOX^.c.OX+XD.P.v.[._.gX) ..@.( k qXOXOX(.D.OXH.Y.OXOXOXOXOXOXOXOXOXOXOXOXOXOXOXOXOXOXOXOXOXOXOXOXOXOXOXOX",
"OXOXOXOXOXOXOXOXOXOX(.Y.OXOX'.OXXXm.N.V.U.n.|. X../ V ] W OXOXOXOXD.P.OXOXOXOXOXOXOXOXOXOXOXOXOXOXOXOXOXOXOXOXOXOXOXOXOXOXOXOXOX",
"OXOXOXOXOXOXOXOXOXOXQ.I.OXOXU.N..XC.W..XD.G.@X X..^ m ! ~ W yX&XOX_.D.I.OXOXOXOXOXOXOXOXOXOXOXOXOXOXOXOXOXOXOXOXOXOXOXOXOXOXOXOX",
"OXOXOXOXOXOXOXOXOXOXOXOXOXOX/.L.I.OXOXJ.H.&X9.P P i y h =./ ) tXOXOX_.I.OXOXOXOXOXOXOXOXOXOXOXOXOXOXOXOXOXOXOXOXOXOXOXOXOXOXOXOX",
"OXOXOXOXOXOXOXOXOXOXOXOXOXOXOXOXOXOXOXOXOXOXU p i 7 > 6 U ] i [ OXOXOXOXOXOXOXOXOXOXOXOXOXOXOXOXOXOXOXOXOXOXOXOXOXOXOXOXOXOXOXOX",
"OXOXOXOXOXOXOXOXOXOXOXOXOXQ.OXOX(.XXOXOXOXOXR | Y V e 5 y Y ( U >.OXOXOXOXOXOXOXOXOXOXOXOXOXOXOXOXOXOXOXOXOXOXOXOXOXOXOXOXOXOXOX",
"OXOXOXOXOXOXOXOXOXOXOXOXOX.X.XI.M.XXOXOXa.=.] h b ) $.y w u ) j._ _ aXOXOXOXOXOXOXOXOXOXOXOXOXOXOXOXOXOXOXOXOXOXOXOXOXOXOXOXOXOX",
"OXOXOXOXOXOXOXOXOXOXOXOXOXOX).H.Y.OXOXsXR.f.[ u S &.t.A e w C <X<X3X2X,XOXOXOXOXOXOXOXOXOXOXOXOXOXOXOXOXOXOXOXOXOXOXOXOXOXOXOXOX",
"OXOXOXOXOXOXOXOXOXOXOXOXOXOXOXOXOXOX&X6XX.g.Y c 3.t.t.$.e e n $.2X5X,X3X<XOXOXOXOXOXOXOXOXOXOXOXOXOXOXOXOXOXOXOXOXOXOXOXOXOXOXOX",
"OXOXOXOXOXOXOXOXOXOXOXOXOXOXOXOXOXOXX.Q X.X.( x 5.<Xt.e.C 8 b &.r.1X5X2X,X2XrXOXOXOXOXOXOXOXOXOXOXOXOXOXOXOXOXOXOXOXOXOXOXOXOXOX",
"OXOXOXOXOXOXOXOXOXOXOXOXOXOXOXOXOXOXP ;.a.{ ~ b 7.r.#.e.:.z z *.5.t.0X<X[ r.j.4X+X@XOXOXOXOXOXOXOXOXOXOXOXOXOXOXOXOXOXOXOXOXOXOX",
"OXOXOXOXOXOXOXOXOXOXOXOXOXOXOXOXOXOXB T ' ] ( p $.%.@.7.w./ Z D *.t.t.C i B =.! 0.k 1XOXOXOXOXOXOXOXOXOXOXOXOXOXOXOXOXOXOXOXOXOX",
"OXOXOXOXOXOXOXOXOXOXOXOXOXOXOXOXOXOX/ v V ^ c i b b +.3.w.e.! A J y.C u V v Z ! E  .s.R.hX+XOXOXOXOXOXOXOXOXOXOXOXOXOXOXOXOXOXOX",
"OXOXOXOXOXOXOXOXOXOXOXOXOXOXOXOXOXOXB 3 w L I t e c +.3.:.y.V z %.*.D * I C e c =.] O.R.R.gXOX+XOXOXOXOXOXOXOXOXOXOXOXOXOXOXOXOX",
"OXOXOXOXOXOXOXOXOXOXOXOXOXOXOXOXOXOXN t 9 r n L e x 2.5.3.*.y e 5.&.F 6 e u w z b / ` s.=Xg.sX+XOXOXOXOXOXOXOXOXOXOXOXOXOXOXOXOX",
"OXOXOXOXOXOXOXOXOXOXOXOXOXOXOXOXOX+X9 9 < v c / V c +.5.2.J e c 4.3.C V e w e e 8 u ,.! R.=Xg.yXOXOXOXOXOXOXOXOXOXOXOXOXOXOXOXOX",
"OXOXOXOXOXOXOXOXOXOXOXOXOXOXOXOXOXy v < w , q g U n G 4.4.H l Z 1.&.C e d y c 5 > : n ;.[ ..=.&.OX+X+X+XOXOXOXOXOXOXOXOXOXOXOXOX",
"OXOXOXOXOXOXOXOXOXOXOXOXOXOXOXOXOXa 9 l - 6 7 r I b F 4.5.%.F ( #.:.V : e C z w , X ; x j.8XE S @.R.&X+XOXOXOXOXOXOXOXOXOXOXOXOX",
"OXOXOXOXOXOXOXOXOXOXOXOXOXOXOXOXOXp 7 9 , , : > u b Z 1.5.3.%.-.~ -.u 7 6 C c u h e % 9 I k.) Z y ` j. .| OXOXOXOXOXOXOXOXOXOXOX",
"OXOXOXOXOXOXOXOXOXOXOXOXOXOXOXOXOXx.i.t > - $ , , b Z J 4.*.2.w.;.( y 6 % 6 ( V n C 6 - c 9.] x t E P Q I OXOXOXOXOXOXOXOXOXOXOX",
"OXOXOXOXOXOXOXOXOXOXOXOXOXOXOXOXa.R.l.~ w : : - > e b H K >X/ y.f.] 9 - X % u ~ u V V 7 C A C ! V e x p y yXOXOXOXOXOXOXOXOXOXOX",
"OXOXOXOXOXOXOXOXOXOXOXOXOXOXOXOXs. .W Y L w % % * 8 b J K 5.D ) x.l.v , .   : L ~ y V w ;.! e A C 7 < 6 - I hXOXOXOXOXOXOXOXOXOX",
"OXOXOXOXOXOXOXOXOXOXOXOXOXOX&X+Xs. .( L v y 7 % & 6 Z G 4.K S A k.8X{ u 7 % % r ] I e u i.) e c 1 6 1 6 0 , j.OXOXOXOXOXOXOXOXOX",
"OXOXOXOXOXOXOXOXOXOXOXOXOXOX XR.u.} Y V y y w % & , V D 4.J F S h.5Xf.P n 7 - : v ] u 7 U C u V c ; w , > - ^ OXOXOXOXOXOXOXOXOX",
"OXOXOXOXOXOXOXOXOXOXOXOXOXOXOXI Y T I i e e w = & > u F +.D F S t.k.E.} Y v , 5 , L ] r ~ ~ 7 v u 5 a 2 9 * I OXOXOXOXOXOXOXOXOX",
"OXOXOXOXOXOXOXOXOXOXOXOXOX&X/ T N i v y e 7 w e 5 : w m @.D S b 5.h.5Xd.W V y 7 : q ] ! [ [ , ( y w 6 6 : ; 7 OXOXOXOXOXOXOXOXOX",
"OXOXOXOXOXOXOXOXOXOXOXOXOXQ j D ` u > w u 7 , e & > e e D H H Z %.t.1XR.X.h i 7 : 7 u ` Y y 7 u.y e 5 > 8 # w sXOXOXOXOXOXOXOXOX",
"OXOXOXOXOXOXOXOXOXOXOXOXOX7 Z d N T u , > w w 7 ; 7 c 7 F G 3.F #.7.h.5Xf.L I t , , 7 Y ~ , , U z 1 ; : & * * z.OXOXOXOXOXOXOXOX",
"OXOXOXOXOXOXOXOXOXOXOX+XN 0 i.yXp.V v y 8 9 r > 6 7 x > v G K y.C 2.>X1Xx.Q V v < > @ 7 ` L , e y e 5 * & % % w.OXOXOXOXOXOXOXOX",
"OXOXOXOXOXOXOXOXOXOXOXpX: 3 qXyX1X` v y 7 7 > w - z x + f S A 5.! @.t.k.x.d.W v u , + : r ` Y r y , e & 7 6 X [ OXOXOXOXOXOXOXOX",
"OXOXOXOXOXOXOXOXOXOX&XP 8 [ sXx.a.i.] L 7 7 > w 6 a r @ m A b K *.^ 7.h.z.wXs.V v > . . $ T ;.t e y , > w % > c OXOXOXOXOXOXOXOX",
"OXOXOXOXOXOXOXOXOXOXOX2 0 7XsXf.=X6Xp.] y 7 > 7 n I m $ e Z C ! 3./ $.e.5XyX-XW c 3 .   : 6 ` W e w 7 % & % = w OXOXOXOXOXOXOXOX",
"OXOXOXOXOXOXOXOXOXOX0.% P yXyXaX7X7X7Xg.Y 6 6 7 9.OX/ : < c u b 3.$.) t.k.qXtXa.v i X X + @ y ..V w : % > % % 6 OXOXOXOXOXOXOXOX",
"OXOXOXOXOXOXOXOXOXOXm q d.1X;.o.s.x.7X6X;.y 6 > OXOXOXv d l z c *.&.) :.h.8X9X;XY p r - + : > P u.i w & > :   6 OXOXOXOXOXOXOXOX",
"OXOXOXOXOXOXOXOXOXd.j h j.~ 4 { d.u.d.x.i.v > 6 OXOXOXc 0 , u w H 3.*.$.w.1X7X;Xa.i v , : % : 7 } ] 1 7 w & w , OXOXOXOXOXOXOXOX",
"OXOXOXOXOXOXOXOXR. .R h s ` P V l.d.l.l.u.( e e OX+Xq y 8 3 w l #.t.:.) -.h.5X-X=X} y v , * : 6 t P V e w V V r s OXOXOXOXOXOXOX",
"OXOXOXOXOXOXOX+Xo.W P h h R W W p.l.x.E.[ [ y T OXOXy r ; y 9 v S 4.r.` ,.>X5X9XtXa.V d e : > : > 7 , > , 7 q 7 5 OXOXOXOXOXOXOX",
"OXOXOXOXOXOXOX:X' W T h p h R R [ R.4Xf.[ a.^ j.OXOXy 1 7 a 6 v ! 4.t.[ =.&.k.9XtX=XW d u > 6 : : : & % % $ % % : q OXOXOXOXOXOX",
"OXOXOXOXOXOX+XO.} ' } R P j P P Y Q a.g.-...` OXOXOXOXh 8 > : z I J t.j.=.#.e.8XtXeXs.L i r , : 7 > : % % + + % + - OXOXOXOXOXOX",
"OXOXOXOXOXOX&X` Q ` R R R R R P T L P ` X.] { OXOXOXOX% 5 c - w I H 1.j.[ _ $.1X9XtXwX' i u , > > > : & + + + % % + OXOXOXOXOXOX",
"OXOXOXOXOXOX&XQ R Y h i P Q ` W j N R g.[ X.OXOXOXOXq 9 ; 9 - : U D +.h.w._ $.<X6X-XuXR.L p r > > > > : + + + % + @  .OXOXOXOXOX",
"OXOXOXOXOXOXO.P p t 3 r p v h i 3 N j =Xg.9.OXOXOXOX,.- L Y , @ I A K 8.k.[ =.e.4X9XfXtX{ u v , > 7 7 : + + + + . 0 v OXOXOXOXOX",
"OXOXOXOXOXjXE d w 7 7 r t y r a , 0 4 j.s.j.OXOXOX+X^ 6 i.Q - 5 c A J 4.1Xj.w.$.<X7XuXfX=XU v 3 > > - + + +   + + @ 3 OXOXOXOXOX",
"OXOXOXOXOXQ v 4 6 : > y w r w : 9 , r a.7Xg.OXOXOX9Xh i ~ N - @ > ! G J e.x.e.:.j.=XuXhXtX;.x i 9 : - : % + + + @ - : 0XOXOXOXOX",
"OXOXOXOXOXf 9 1 7 , , w w w 6 , : u s a.yXR.OXOX+Xs.;.L ' x < $ : E ) K 6.k.p.>.=.k.aXkXlX;XL n p : X - %   + % + X & >.OXOXOXOX",
"OXOXOXOXk 9 : : w 6 6 7 7 7 7 w O 0 ~ k.dXOXOXOX&Xg.8Xp.P R ; > - V ! G 4.1Xz.-.*.e.7XkXlXtX..i q > - $ + + + + # ; @ M OXOXOXOX",
"OXOXOXOX1 7 9 e w w w 7 , , 7 7 r q R a.aXOXOXOXOXn a...u.z.Y Y ! ] -.G +.k.5X:.*.r.x.dXkXxX=X` y a %   +     + o # = : 0XOXOXOX",
"OXOXOXOXv y L y v v v p r y r e h ~ >.1XpX&XOXOXOXP / v 9.s.a.i.-.-.&.J %.r.8X<Xw.p.k.rX:X:XeXd.N N q , 7 6 , q 6 l 7 r | OXOXOX",
"OXOXOXOXOXOXOXOXOXOXOXOXOXOXOXOXOXOXOXOXOXOXOXOXOXOXOXOXOXOXOXOXOXOXOXOXOXOXOXOXOXOXOXOXOXOXOXOXOXOXOXOXOXOXOXOXOXOXOXOXOXOXOXOX",
"OXOXOXOXOXOXOXOXOXOXOXOXOXOXOXOXOXOXOXOXOXOXOXOXOXOXOXOXOXOXOXOXOXOXOXOXOXOXOXOXOXOXOXOXOXOXOXOXOXOXOXOXOXOXOXOXOXOXOXOXOXOXOXOX",
"OXOXOXOXOXOXOXOXOXOXOXOXOXOXOXOXOXOXOXOXOXOXOXOXOXOXOXOXOXOXOXOXOXOXOXOXOXOXOXOXOXOXOXOXOXOXOXOXOXOXOXOXOXOXOXOXOXOXOXOXOXOXOXOX",
"OXOXOXOXOXOXOXOXOXOXOXOXOXOXOXOXOXOXOXOXOXOXOXOXOXOXOXOXOXOXOXOXOXOXOXOXOXOXOXOXOXOXOXOXOXOXOXOXOXOXOXOXOXOXOXOXOXOXOXOXOXOXOXOX"
};
