/* XPM */
static char *bd3ca206d2cd443ca950efd23a87eb1bZUIumnioseo8UBFD[] = {
/* columns rows colors chars-per-pixel */
"64 64 183 2 ",
"   c None",
".  c #050607",
"X  c #060807",
"o  c #060708",
"O  c #060809",
"+  c #0B0B0C",
"@  c #12110F",
"#  c #0E0E11",
"$  c #100F12",
"%  c #0E1112",
"&  c #131314",
"*  c #181716",
"=  c #161917",
"-  c #1A1916",
";  c #161619",
":  c #181719",
">  c #17181B",
",  c #1B1B1C",
"<  c #201E1B",
"1  c #152017",
"2  c #1A231C",
"3  c #17221A",
"4  c #23211E",
"5  c #171A20",
"6  c #1C1E21",
"7  c #1E2124",
"8  c #1F232A",
"9  c #1E2530",
"0  c #232325",
"q  c #292723",
"w  c #252925",
"e  c #2B2A25",
"r  c #23262A",
"t  c #282729",
"y  c #26292D",
"u  c #2B2B2C",
"i  c #302F2C",
"p  c #243429",
"a  c #35332D",
"s  c #39372D",
"d  c #3C392F",
"f  c #333027",
"g  c #202530",
"h  c #252B33",
"j  c #2B2D33",
"k  c #252D3A",
"l  c #292F39",
"z  c #273032",
"x  c #2E3235",
"c  c #2C323B",
"v  c #2E393C",
"b  c #333333",
"n  c #393731",
"m  c #373835",
"M  c #3B3A34",
"N  c #33353A",
"B  c #35393B",
"V  c #3C3C3B",
"C  c #413E34",
"Z  c #403F3B",
"A  c #224E21",
"S  c #245824",
"D  c #2C4436",
"F  c #2D672C",
"G  c #2E6E30",
"H  c #444135",
"J  c #45433B",
"K  c #49463C",
"L  c #4C493D",
"P  c #504C3F",
"I  c #2B3442",
"U  c #2F3847",
"Y  c #2E3849",
"T  c #343B44",
"R  c #383C43",
"E  c #343D4B",
"W  c #393E49",
"Q  c #313744",
"!  c #3D4144",
"~  c #37414C",
"^  c #3C434D",
"/  c #364045",
"(  c #364152",
")  c #3C4452",
"_  c #3B4659",
"`  c #3C495B",
"'  c #3D4852",
"]  c #434343",
"[  c #494741",
"{  c #474847",
"}  c #4C4941",
"|  c #41454A",
" . c #474848",
".. c #4B4C4C",
"X. c #504D42",
"o. c #504F49",
"O. c #545144",
"+. c #5A5646",
"@. c #5E5847",
"#. c #53524A",
"$. c #59564A",
"%. c #5D594C",
"&. c #404750",
"*. c #444A53",
"=. c #494D55",
"-. c #434D5D",
";. c #4B525D",
":. c #525454",
">. c #5A5955",
",. c #5B5C59",
"<. c #53595E",
"1. c #615D4E",
"2. c #625F53",
"3. c #615F59",
"4. c #5F625E",
"5. c #64614E",
"6. c #646154",
"7. c #696456",
"8. c #63615A",
"9. c #696758",
"0. c #6D6A5B",
"q. c #726D5B",
"w. c #424E62",
"e. c #455164",
"r. c #4A5664",
"t. c #49576E",
"y. c #4C586B",
"u. c #475469",
"i. c #525A64",
"p. c #535C6C",
"a. c #4C5B74",
"s. c #505F78",
"d. c #515F72",
"f. c #5C6167",
"g. c #5D646D",
"h. c #54606E",
"j. c #5A6474",
"k. c #55657E",
"l. c #54637B",
"z. c #596577",
"x. c #6B6A63",
"c. c #6B6D6D",
"v. c #626462",
"b. c #726E60",
"n. c #757262",
"m. c #7C796A",
"M. c #7A7769",
"N. c #656C74",
"B. c #686F77",
"V. c #68707A",
"C. c #6F7275",
"Z. c #7B7E71",
"A. c #817D6B",
"S. c #CDDC39",
"D. c #CDDC39",
"F. c #87826F",
"G. c #868577",
"H. c #8A8573",
"J. c #8F8A73",
"K. c #83857F",
"L. c #938D78",
"P. c #99947E",
"I. c #95907A",
"U. c #566A8A",
"Y. c #5B6E8B",
"T. c #546785",
"R. c #63738B",
"E. c #697586",
"W. c #717985",
"Q. c #6B7D99",
"!. c #7A828B",
"~. c #7384A1",
"^. c #99988A",
"/. c #838B95",
"(. c #ABA58A",
"). c #AEA990",
"_. c #B4AE92",
"`. c #B9B59B",
"'. c #B9B7A2",
"]. c #C5C2A6",
"[. c #D2CEB3",
"{. c #E1E0CD",
"}. c #ECEAD2",
/* pixels */
"S.S.S.S.S.S.S.S.S.S.S.S.S.S.S.S.S.S.S.S.S.S.S.S.S.S.S.S.S.S.S.S.S.S.S.S.S.S.S.S.S.S.S.S.S.S.S.S.S.S.S.S.S.S.S.S.S.S.S.S.S.S.S.S.",
"S.S.S.S.S.S.S.S.S.S.S.S.S.S.S.S.S.S.S.S.S.S.S.S.S.S.S.S.S.S.S.S.S.S.S.S.S.S.S.S.S.S.S.S.S.S.S.S.S.S.S.S.S.S.S.S.S.S.S.S.S.S.S.S.",
"S.S.S.S.S.S.S.S.S.S.S.S.S.S.S.S.S.S.S.S.S.S.S.S.S.S.S.S.S.S.S.S.S.S.S.S.S.S.S.S.S.S.S.S.S.S.S.S.S.S.S.S.S.S.S.S.S.S.S.S.S.S.S.S.",
"S.S.S.S.S.S.S.S.S.S.S.S.S.S.S.S.S.S.S.S.S.S.S.S.S.S.S.S.S.S.S.S.S.S.S.S.S.S.S.S.S.S.S.S.S.S.S.S.S.S.S.S.S.S.S.S.S.S.S.S.S.S.S.S.",
"S.S.S.S.S.S.S.S.S.S.S.S.S.S.S.S.S.S.S.S.S.S.S.S.S.S.S.S.S.S.S.S.S.S.S.S.S.S.S.S.S.S.S.S.S.S.S.S.S.S.S.S.S.S.S.S.S.S.S.S.S.S.S.S.",
"S.S.S.S.S.S.S.S.S.S.S.S.S.S.S.S.S.S.S.S.S.S.S.S.S.S.S.S.S.S.S.S.S.S.S.S.S.S.S.S.S.S.S.S.S.S.S.S.S.S.S.S.S.S.S.S.S.S.S.S.S.S.S.S.",
"S.S.S.S.S.S.S.S.S.S.S.S.S.S.S.S.S.S.S.S.S.S.S.S.S.S.S.S.S.S.S.S.S.S.S.S.S.S.S.S.S.S.S.S.S.S.S.S.S.S.S.S.S.S.S.S.S.S.S.S.S.S.S.S.",
"S.S.S.S.S.S.S.S.S.S.S.S.S.S.S.S.S.S.S.S.S.S.S.S.S.S.S.S.S.S.S.S.S.S.S.S.S.S.S.S.S.S.S.S.S.S.S.S.S.S.S.S.S.S.S.S.S.S.S.S.S.S.S.S.",
"S.S.S.S.S.S.S.S.S.S.S.S.S.S.S.S.S.S.S.S.S.S.S.S.S.S.S.S.S.S.S.S.S.S.S.S.S.S.S.S.S.S.S.S.S.S.S.S.S.S.S.S.S.S.S.S.S.S.S.S.S.S.S.S.",
"S.S.S.S.S.S.S.S.S.S.S.S.S.S.S.S.S.S.S.S.S.S.S.S.S.S.S.S.S.S.S.S.S.S.S.S.S.S.S.S.S.S.S.S.S.S.S.S.S.S.S.S.S.S.S.S.S.S.S.S.S.S.S.S.",
"S.S.S.S.S.S.S.S.S.S.S.S.S.S.S.S.S.S.S.S.S.S.S.S.S.S.S.S.S.S.S.S.S.S.S.S.S.S.S.S.S.S.S.S.S.S.S.S.S.S.S.S.S.S.S.S.S.S.S.S.S.S.S.S.",
"S.S.S.S.S.S.S.S.S.S.S.S.S.S.S.S.S.S.S.S.S.S.S.S.S.S.S.S.S.S.S.S.S.S.S.S.S.S.S.S.S.S.S.S.S.S.S.S.S.S.S.S.S.S.S.S.S.S.S.S.S.S.S.S.",
"S.S.S.S.S.S.S.S.S.S.S.S.S.S.S.S.S.S.S.S.S.S.S.S.S.S.S.S.S.S.S.S.S.S.S.S.S.S.S.S.S.S.S.S.S.S.S.S.S.S.S.S.S.S.S.S.S.S.S.S.S.S.S.S.",
"S.S.S.S.S.S.S.S.S.S.S.S.S.S.S.S.S.S.S.S.S.S.S.S.S.S.S.S.S.S.S.S.S.S.S.S.S.S.S.S.S.S.S.S.S.S.S.S.S.S.S.S.S.S.S.S.S.S.S.S.S.S.S.S.",
"S.S.S.S.S.S.S.S.S.S.S.S.S.S.S.S.S.S.S.S.S.S.S.S.S.S.S.S.S.S.S.S.S.S.S.S.S.S.S.S.S.S.S.S.S.S.S.S.S.S.S.S.S.S.S.S.S.S.S.S.S.S.S.S.",
"S.S.S.S.S.S.S.S.S.S.S.S.S.S.S.S.S.S.S.S.S.S.S.S.S.S.S.S.S.S.S.S.S.S.S.S.S.S.S.S.S.S.S.S.S.S.S.S.S.S.S.S.S.S.S.S.S.S.S.S.S.S.S.S.",
"S.S.S.S.S.S.S.S.S.S.S.S.S.S.D.D.D.D.D.D.D.D.D.D.S.S.S.S.S.S.S.S.S.S.S.S.S.S.S.S.S.S.S.S.S.S.S.S.S.S.S.S.S.S.S.S.S.S.S.S.S.S.S.S.",
"S.S.S.S.S.S.S.S.S.S.S.S.S.S.D.D.D.D.D.D.D.D.D.D.S.S.S.S.S.S.S.S.S.S.S.S.S.S.S.S.S.S.S.S.S.S.S.S.S.S.S.S.S.S.S.S.S.S.S.S.S.S.S.S.",
"S.S.S.S.S.S.S.S.S.S.S.S.S.2 S D.D.D.D.D.D.D.D.D.S.S.S.S.S.S.S.S.S.S.S.S.S.S.S.S.S.S.S.S.S.S.S.S.S.S.S.S.S.S.S.S.S.S.S.S.S.S.S.S.",
"S.S.S.S.S.S.S.S.S.S.S.S.  z 7 y D.D.D.~ G   ' D F S.S.S.S.S.S.S.S.S.S.S.S.S.S.S.S.S.S.S.S.S.S.S.S.S.S.S.S.S.S.S.S.S.S.S.S.S.S.S.",
"S.S.S.S.S.S.S.S.S.S.S.S.( z r.~ 9 c ' p S p v p S   S.S.S.S.S.S.S.S.S.S.S.S.S.S.S.S.S.S.S.S.S.S.S.S.S.S.S.S.S.S.S.S.S.S.S.S.S.S.",
"S.S.S.S.S.S.S.S.S.S.S.  -.z h.N h.y.e.z 3 1 2 3 2   S.S.S.S.S.S.S.S.S.S.S.S.S.S.S.S.S.S.S.S.S.S.S.S.S.S.S.S.S.S.S.S.S.S.S.S.S.S.",
"S.S.S.S.S.S.S.S.S.S.S.  _ ; w.e.k.k.y.v / / v v B o.S.S.S.S.S.S.S.S.S.S.S.S.S.S.S.S.S.S.S.S.S.S.S.S.S.S.S.S.S.S.S.S.S.S.S.S.S.S.",
"S.S.S.S.S.S.S.S.S.S.S.  ( 8 _ ` ` k.l.` ^ 2 % @ = V $.S.S.S.S.S.S.S.S.S.S.S.S.S.S.S.S.S.S.S.S.S.S.S.S.S.S.S.S.S.S.S.S.S.S.S.S.S.",
"S.S.S.S.S.S.S.S.S.S.S.  E ( U E U u.e.~ w = O X O 8 s D.S.S.S.S.S.S.S.S.S.S.S.S.S.S.S.S.S.S.S.S.S.S.S.S.S.S.S.S.S.S.S.S.S.S.S.S.",
"S.S.S.S.S.S.S.S.S.S.S.Q e.( I Y I e.( c + # X X O 9 = Z.S.S.S.S.S.S.S.S.S.S.S.S.S.S.S.S.S.S.S.S.S.S.S.S.S.S.S.S.S.S.S.S.S.S.S.S.",
"S.S.S.S.S.S.S.S.S.S.S.U a.w.U I I w.~ 7 O O + = + h + D S.S.S.S.S.S.S.S.S.S.S.S.S.S.S.S.S.S.S.S.S.S.S.S.S.S.S.S.S.S.S.S.S.S.S.S.",
"S.S.S.S.S.S.S.S.S.S.S.  y.a.w.Y k w.( 7 O O & = = h + f S.S.S.S.S.S.S.S.S.S.S.S.S.S.S.S.S.S.S.S.S.S.S.S.S.S.S.S.S.S.S.S.S.S.S.S.",
"S.S.S.S.S.S.S.S.S.S.S.  ( w.l _ I w.( r X O % , + k O 4   S.S.S.S.S.S.S.S.S.S.S.S.S.S.S.S.S.S.S.S.S.S.S.S.S.S.S.S.S.S.S.S.S.S.S.",
"S.S.S.S.S.S.S.S.S.S.S.S.E ~ Q h ( ` ( 9 X + O X # c + &   S.S.S.S.S.S.S.S.S.S.S.S.S.S.S.S.S.S.S.S.S.S.S.S.S.S.S.S.S.S.S.S.S.S.S.",
"S.S.S.S.S.S.S.S.S.S.S.S.l y U h w.u.( 8 5 7 > T V.W.B.V m S.S.S.S.S.S.S.S.S.S.S.S.S.S.S.S.S.S.S.S.S.S.S.S.S.S.S.S.S.S.S.S.S.S.S.",
"S.S.S.S.S.S.S.S.S.S.S.S.c k l h k e.` 9 5 % y h.N.C.N.>.m S.S.S.S.S.S.S.S.S.S.S.S.S.S.S.S.S.S.S.S.S.S.S.S.S.S.S.S.S.S.S.S.S.S.S.",
"D.D.D.D.D.D.D.D.D.D.D.D.  l 7 U I E w.E l > T i.i.c.c.c...D.D.D.S.S.S.S.S.S.S.S.D.D.D.D.D.D.D.D.D.D.D.D.D.D.D.D.D.D.D.D.D.D.D.D.",
"D.D.D.D.D.D.D.D.D.D.D.D.D.g o I c 5 5 T.! 0 R :.N.!.!././.  D.D.S.S.S.S.S.S.S.S.D.D.D.D.D.D.D.D.D.D.D.D.D.D.D.D.D.D.D.D.D.D.D.D.",
"D.D.D.D.D.D.D.D.D.D.D.D.D.D.$ W k 8 ; t.{ V | j.z.<.....9.:.  D.S.S.S.S.S.S.S.S.D.D.D.D.D.D.D.D.D.D.D.D.D.D.D.D.D.D.D.D.D.D.D.D.",
"D.D.D.D.D.D.D.D.D.D.D.D.D.D.D.W I 9 5 a.g.f.<.i.N.! b b Z 2.o.#.S.S.S.S.S.S.S.S.D.D.D.D.D.D.D.D.D.D.D.D.D.D.D.D.D.D.D.D.D.D.D.D.",
"D.D.D.D.D.D.D.D.D.D.D.D.D.D.  j Y 9 ( T.R.Q.E.g.N.B 4 q e 7.2.o.#.  S.S.S.S.S.S.D.D.D.D.D.D.D.D.D.D.D.D.D.D.D.D.D.D.D.D.D.D.D.D.",
"D.D.D.D.D.D.D.D.D.D.D.  j.p.:.] ) I w.U.U.Q.~.R.j.B q q i x.] Z #.0.  S.S.S.S.S.D.D.D.D.D.D.D.D.D.D.D.D.D.D.D.D.D.D.D.D.D.D.D.D.",
"D.D.D.D.D.D.D.D.D.D.  z.s.p.=.B V T ~ s.U.U.U.Y.p.=.*...;.8.o.%.6.q.0.S.S.S.S.S.D.D.D.D.D.D.D.D.D.D.D.D.D.D.D.D.D.D.D.D.D.D.D.D.",
"D.D.D.D.D.D.D.D.D.D.z.z.y.W t j N m m ] r.T.U.k.=.' ' ' v.,.[ [ [ #.9.  S.S.S.S.D.D.D.D.D.D.D.D.D.D.D.D.D.D.D.D.D.D.D.D.D.D.D.D.",
"D.D.D.D.D.D.D.D.D.  y.a.) r j r r b B B M M ..p.t & & ; u R Z [ $.%.1.2.  D.D.D.D.D.D.D.D.D.D.D.D.D.D.D.D.D.D.D.D.D.D.D.D.D.D.D.",
"D.D.D.D.D.D.D.D.D.W &.&.h g : 8 h w - 0 b ] >.>.Z ] ] ] Z Z Z L O.$.%.1.7.D.D.D.D.D.D.D.D.D.D.D.D.D.D.D.D.D.D.D.D.D.D.D.D.D.D.D.",
"D.D.D.D.D.D.D.D.D.D.l h h : 7 r * , r u u ..K a M Z Z Z [ J [ o.#.#.$.H.A.D.S.S.D.D.D.D.D.D.D.D.D.D.D.D.D.D.D.D.D.D.D.D.D.D.D.D.",
"D.D.D.D.D.D.D.D.D.D.j h ; 7 8 : , 6 0 0 B e 0 i b M Z [ [ K Z [ } %.0.`.J.A.S.S.D.D.D.D.D.D.D.D.D.D.D.D.D.D.D.D.D.D.D.D.D.D.D.D.",
"D.D.D.D.D.D.D.D.D.D.W 0 6 8 > > 0 r 6 u - 0 0 t u x i M M n Z } %.9.M.].m.).  S.D.D.D.D.D.D.D.D.D.D.D.D.D.D.D.D.D.D.D.D.D.D.D.D.",
"D.D.D.D.D.D.D.D.D.W W h 8 8 6 6 y : t : - 6 0 u t < < i i b M K #.2.'.[.n.)._.  D.D.D.D.D.D.D.D.D.D.D.D.D.D.D.D.D.D.D.D.D.D.D.D.",
"D.D.D.D.D.D.D.D.c j N r t 0 6 r : h : $ : 0 h , @ & 6 0 t b V K X.9.{.[.n.P.`.H.  D.D.D.D.D.D.D.D.D.D.D.D.D.D.D.D.D.D.D.D.D.D.D.",
"D.D.D.D.D.D.D.  N l N N t 8 6 0 0 < # > 0 h 6 + & 6 0 y t r e d L M.}.'.G.A.L.I.2.D.D.D.D.D.D.D.D.D.D.D.D.D.D.D.D.D.D.D.D.D.D.D.",
"D.D.D.D.D.D.D.N N R N b b 0 g 6 r # : 0 r 0 # # ; 0 r 5 & - i V L H.].A.^.m.b.H.%.  D.D.S.S.S.S.D.D.D.D.S.S.S.S.S.S.S.S.S.S.S.S.",
"D.D.D.D.D.D.  R T j N N N t y j 6 & 7 6 r & + : 0 0 : $ 0 t t q e n.J.o.^.3.3.0.2.$.D.D.S.S.S.S.D.D.D.D.S.S.S.S.S.S.S.S.S.S.S.S.",
"D.D.D.D.D.D.R Q N T N b V Z u R : 0 5 8 6 + $ , 0 & $ r q * & < e %.q.o.x.>.3.3.6.K #.D.S.S.S.S.D.D.D.D.S.S.S.S.S.S.S.S.S.S.S.S.",
"D.D.D.D.D.D.W N t 0 y u u M b j g 6 : t $ $ ; 5 $ 5 j , @ 4 i b a } 1.C #.:.>.3.M.o.[ $.S.S.S.S.D.D.D.D.S.S.S.S.S.S.S.S.S.S.S.S.",
"D.D.D.D.D.D.N h N j N m V Z Z Q r : 0 t $ & : : 0 y : & 4 0 : $ + e O.O.V =.>.,.M.F.C J   S.S.S.D.D.S.S.S.S.S.S.S.S.S.S.S.S.S.S.",
"D.D.D.D.D.D.N j h N j b b n M b 0 r g r $ : : r y : + @ + o o @ : u M %.]  .:.>.7.(.$.V J   S.S.D.D.S.S.S.S.S.S.S.S.S.S.S.S.S.S.",
"D.D.D.D.D.N h r 0 0 r : $ < 4 q 0 t r 0 & 5 6 r ; $ + o + o $ 0 r , u { $.V ....>.P._.K %.$.D.D.D.S.S.S.S.S.S.S.S.S.S.S.S.S.S.S.",
"D.D.D.D.D.j r 6 y h ; @ $ , q e n u r 0 5 7 0 5 $ + + . + : r 6 : r i u o.K Z { #.6.9.} #.}             S.S.S.S.S.S.S.S.S.S.S.S.",
"D.D.D.D.  W c y , $ # $ & , q e C C 0 6 0 6 , & # o o + 6 7 5 6 r , + : m [ b Z a a a i M a C +.5.P 1.+.+.M X.  S.S.D.D.D.D.D.D.",
"D.D.D.D.  T W u 0 u u 0 u i M a < @ < 0 0 5 : $ o + + 6 7 & 5 6 + + 0 r x B t 0 0 w w 6 0 < 6 M @.1.5.5.1.C L d H J D.D.D.D.D.D.",
"D.D.D.D.| &.W u 0 r t j n Z Z X.O.P C < 0 6 ; $ # $ $ 8 ; $ # o ; y j B j , , 6 = : - - < u e e C P P O.O.O.C J M H P D.D.D.D.D.",
"D.D.D.  ;.W ^ j j i i 0 6 < q C C L O.C 6 0 5 # $ # 6 6 + o & 8 y N m r , * & & : : w e w q i 0 < e H O.O.O.P K J L L @.D.D.D.D.",
"D.D.D.e.;.R W 0 0 u i 4 : $ $ $ @ < s C u 0 & & $ $ r $ o > 6 5 r i 0 , & & + $ q u 0 , 4 4 0 4 , , e C H D H L P P P @.@.D.D.D.",
"D.D.| ;.) b Q * $ + # + + + + + + @ < C C 6 : 6 $ 5 6 o & 8 ; r r 6 > & $ O : 6 0 , , : - 4 - , < * - e a f f s L P H K O.@.D.D.",
"D.j &.) R j b u u u q q q < o o . + @ * C q , 5 $ 7 $ + 8 8 6 y , > & # O ; 6 0 , , > & : , < * - , - q f e 4 4 s H H d K P   S.",
"j j ) W B B j 0 i b s s C C e o . . o o C f e 5 ; 5 o ; 6 6 0 5 ; $ + + ; , ; : ; , * & & : , < - < 0 , f 4 4 2 e d C f d K O.S."
};
