/* XPM */
static char *_ms7m_wk50o[] = {
/* columns rows colors chars-per-pixel */
"64 64 181 2 ",
"   c #050607",
".  c #060807",
"X  c #060708",
"o  c #060809",
"O  c #0B0B0C",
"+  c #12100E",
"@  c #0E0E11",
"#  c #100F12",
"$  c #0E1112",
"%  c #131314",
"&  c #181716",
"*  c #161817",
"=  c #1A1916",
"-  c #161619",
";  c #181719",
":  c #17181B",
">  c #1B1B1C",
",  c #201E1B",
"<  c #1A231C",
"1  c #162118",
"2  c #23211E",
"3  c #1C1E21",
"4  c #171A20",
"5  c #1E2124",
"6  c #1F232A",
"7  c #1E2530",
"8  c #232325",
"9  c #292723",
"0  c #252925",
"q  c #2B2A25",
"w  c #23262A",
"e  c #282729",
"r  c #26292D",
"t  c #2B2B2C",
"y  c #302F2C",
"u  c #243429",
"i  c #35332D",
"p  c #39372D",
"a  c #3C392F",
"s  c #333027",
"d  c #252A33",
"f  c #2B2D33",
"g  c #252D3A",
"h  c #292F39",
"j  c #202530",
"k  c #2E3235",
"l  c #2C323B",
"z  c #2B3537",
"x  c #333333",
"c  c #393731",
"v  c #3B3A34",
"b  c #33353A",
"n  c #35393B",
"m  c #3C3C3B",
"M  c #373835",
"N  c #413E34",
"B  c #403F3B",
"V  c #224E21",
"C  c #245824",
"Z  c #2C4436",
"A  c #2D672C",
"S  c #2E6E30",
"D  c #444135",
"F  c #45433B",
"G  c #49463C",
"H  c #4C493D",
"J  c #504C3F",
"K  c #2B3442",
"L  c #2F3847",
"P  c #2E3849",
"I  c #343B44",
"U  c #383C43",
"Y  c #343D4B",
"T  c #393E49",
"R  c #313744",
"E  c #3D4144",
"W  c #37414C",
"Q  c #3C434D",
"!  c #364045",
"~  c #364152",
"^  c #3C4452",
"/  c #3B4659",
"(  c #3C495B",
")  c #3D4852",
"_  c #434343",
"`  c #494741",
"'  c #474847",
"]  c #4C4941",
"[  c #41454A",
"{  c #474848",
"}  c #4B4C4C",
"|  c #504D42",
" . c #504F49",
".. c #545144",
"X. c #5A5646",
"o. c #53524A",
"O. c #59564A",
"+. c #5D594C",
"@. c #5E5847",
"#. c #404750",
"$. c #444A53",
"%. c #494D55",
"&. c #434D5D",
"*. c #4B525D",
"=. c #525454",
"-. c #5A5955",
";. c #5B5C59",
":. c #53595E",
">. c #615D4E",
",. c #625F52",
"<. c #615F59",
"1. c #5F625E",
"2. c #64614E",
"3. c #646154",
"4. c #696456",
"5. c #63615A",
"6. c #696758",
"7. c #6D6A5B",
"8. c #726D5A",
"9. c #424E62",
"0. c #455164",
"q. c #4A5664",
"w. c #49576E",
"e. c #4C586B",
"r. c #475469",
"t. c #525A64",
"y. c #535C6C",
"u. c #4C5B74",
"i. c #505F78",
"p. c #515F72",
"a. c #5C6167",
"s. c #5D646D",
"d. c #54606E",
"f. c #5A6474",
"g. c #54647D",
"h. c #596577",
"j. c #6B6A63",
"k. c #6B6D6D",
"l. c #626462",
"z. c #726E60",
"x. c #757262",
"c. c #7C796A",
"v. c #7A7769",
"b. c #656C74",
"n. c #686F77",
"m. c #6C7178",
"M. c #7B7E71",
"N. c #D50000",
"B. c #817D6B",
"V. c #FF9800",
"C. c #CDDC39",
"Z. c #FFEB3B",
"A. c #87826F",
"S. c #868477",
"D. c #8A8573",
"F. c #8F8A73",
"G. c #83857F",
"H. c #938D78",
"J. c #99947E",
"K. c #95907A",
"L. c #566A8A",
"P. c #5A6E8B",
"I. c #546785",
"U. c #63738B",
"Y. c #697586",
"T. c #717985",
"R. c #6B7D99",
"E. c #7A828B",
"W. c #7384A1",
"Q. c #99988A",
"!. c #838B95",
"~. c #ABA58A",
"^. c #AEA990",
"/. c #B3AE92",
"(. c #B9B59B",
"). c #B9B7A2",
"_. c #C5C2A6",
"`. c #D2CEB3",
"'. c #E1E0CD",
"]. c #ECEAD2",
"[. c None",
/* pixels */
"C.C.C.C.C.C.C.C.C.C.C.C.C.C.C.C.C.C.C.C.C.C.C.C.C.C.C.C.C.C.C.C.C.C.C.C.C.C.C.C.C.C.C.C.C.C.C.C.C.C.C.C.C.C.C.C.C.C.C.C.C.C.C.C.",
"C.C.C.C.C.C.C.C.C.C.C.C.C.C.C.C.C.C.C.C.C.C.C.C.C.C.C.C.C.C.C.C.C.C.C.C.C.C.C.C.C.C.C.C.C.C.C.C.C.C.C.C.C.C.C.C.C.C.C.C.C.C.C.C.",
"C.C.C.C.C.C.C.C.C.C.C.C.C.C.C.C.C.C.C.C.C.C.C.C.C.C.C.C.C.C.C.C.C.C.C.C.C.C.C.C.C.C.C.C.C.C.C.C.C.C.C.C.C.C.C.C.C.C.C.C.C.C.C.C.",
"C.C.C.C.C.C.C.C.C.C.C.C.C.C.C.C.C.C.C.C.C.C.C.C.C.C.C.C.C.C.C.C.C.C.C.C.C.C.C.C.C.C.C.C.C.C.C.C.C.C.C.C.C.C.C.C.C.C.C.C.C.C.C.C.",
"C.C.C.C.C.C.C.C.C.C.C.C.C.C.C.C.C.C.C.C.C.C.C.C.C.C.C.C.C.C.C.C.C.C.C.C.C.C.C.C.C.C.C.C.C.C.C.C.C.C.C.C.C.C.C.C.C.C.C.C.C.C.C.C.",
"C.C.C.C.C.C.C.C.C.C.C.C.C.C.C.C.C.C.C.C.C.C.C.C.C.C.C.C.C.C.C.C.C.C.C.C.C.C.C.C.C.C.C.C.C.C.C.C.C.C.C.C.C.C.C.C.C.C.C.C.C.C.C.C.",
"C.C.C.C.C.C.C.C.C.C.C.C.C.C.C.C.C.C.C.C.C.C.C.C.C.C.C.C.C.C.C.C.C.C.C.C.C.C.C.C.C.C.C.C.C.C.C.C.C.C.C.C.C.C.C.C.C.C.C.C.C.C.C.C.",
"C.C.C.C.C.C.C.C.C.C.C.C.C.C.C.C.C.C.C.C.C.C.C.C.C.C.C.C.C.C.C.C.C.C.C.C.C.C.C.C.C.C.C.C.C.C.C.C.C.C.C.C.C.C.C.C.C.C.C.C.C.C.C.C.",
"C.C.C.C.C.C.C.C.C.C.C.C.C.C.C.C.C.C.C.C.C.C.C.C.C.C.C.C.C.C.C.C.C.C.C.C.C.C.C.C.C.C.C.C.C.C.C.C.C.C.C.C.C.C.C.C.C.C.C.C.C.C.C.C.",
"C.C.C.C.C.C.C.C.C.C.C.C.C.C.C.C.C.C.C.C.C.C.C.C.C.C.C.C.C.C.C.C.C.C.C.C.C.C.C.C.C.C.C.C.C.C.C.C.C.C.C.C.C.C.C.C.C.C.C.C.C.C.C.C.",
"C.C.C.C.C.C.C.C.C.C.C.C.C.C.C.V.C.C.C.C.C.C.C.C.C.C.C.C.C.C.C.C.C.C.C.C.C.C.C.C.C.C.C.C.C.C.C.C.C.C.C.C.C.C.C.C.C.C.C.C.C.C.C.C.",
"C.C.C.C.C.C.C.C.C.V.C.N.C.C.C.V.C.C.C.C.C.C.C.C.C.C.C.C.C.C.C.C.C.C.C.C.C.C.C.C.C.C.C.C.C.C.C.C.C.C.C.C.C.C.C.C.C.C.C.C.C.C.C.C.",
"C.C.C.C.C.C.C.C.C.Z.Z.N.C.Z.Z.C.C.C.C.C.C.C.C.C.C.C.C.C.C.C.C.C.C.C.C.C.C.C.C.C.C.C.C.C.C.C.C.C.C.C.C.C.C.C.C.C.C.C.C.C.C.C.C.C.",
"C.C.C.C.C.C.C.C.Z.C.V.N.C.V.C.C.Z.Z.C.C.C.C.C.C.C.C.C.C.C.C.C.C.C.C.C.C.C.C.C.C.C.C.C.C.C.C.C.C.C.C.C.C.C.C.C.C.C.C.C.C.C.C.C.C.",
"C.C.C.C.C.N.N.Z.N.C.V.N.N.N.N.N.C.C.V.V.V.V.V.C.C.C.C.C.C.C.C.C.C.C.C.C.C.C.C.C.C.C.C.C.C.C.C.C.C.C.C.C.C.C.C.C.C.C.C.C.C.C.C.C.",
"C.C.C.V.V.V.N.Z.N.N.N.N.N.N.N.V.N.V.C.C.C.C.C.C.C.C.C.C.C.C.C.C.C.C.C.C.C.C.C.C.C.C.C.C.C.C.C.C.C.C.C.C.C.C.C.C.C.C.C.C.C.C.C.C.",
"V.V.Z.C.C.C.Z.V.V.V.V.N.V.N.N.N.C.C.C.C.V.V.C.C.C.C.C.C.C.C.C.C.C.C.C.C.C.C.C.C.C.C.C.C.C.C.C.C.C.C.C.C.C.C.C.C.C.C.C.C.C.C.C.C.",
"C.C.C.Z.Z.N.Z.C.V.V.V.V.V.N.Z.N.N.N.Z.V.C.C.C.C.C.C.C.C.C.C.C.C.C.C.C.C.C.C.C.C.C.C.C.C.C.C.C.C.C.C.C.C.C.C.C.C.C.C.C.C.C.C.C.C.",
"C.C.C.C.Z.Z.Z.Z.N.N.V.V.Z.< C Z.V.V.C.C.C.C.C.C.C.C.C.C.C.C.C.C.C.C.C.C.C.C.C.C.C.C.C.C.C.C.C.C.C.C.C.C.C.C.C.C.C.C.C.C.C.C.C.C.",
"C.C.C.C.C.V.N.Z.V.V.N.Z.[.h 5 u C.C.C.W S [.) Z A C.C.C.C.C.C.C.C.C.C.C.C.C.C.C.C.C.C.C.C.C.C.C.C.C.C.C.C.C.C.C.C.C.C.C.C.C.C.C.",
"C.C.N.N.N.N.N.Z.C.Z.N.V.Q h q.W r l ) u C u b u C [.C.C.C.C.C.C.C.C.C.C.C.C.C.C.C.C.C.C.C.C.C.C.C.C.C.C.C.C.C.C.C.C.C.C.C.C.C.C.",
"N.N.C.C.C.C.N.Z.N.Z.V.[.( d d.b d.w.0.u 1 1 5 1 5 [.C.C.C.C.C.C.C.C.C.C.C.C.C.C.C.C.C.C.C.C.C.C.C.C.C.C.C.C.C.C.C.C.C.C.C.C.C.C.",
"C.C.C.C.Z.C.Z.V.N.N.Z.[.) - 0.0.I.g.e.z ! ! z z n  .C.C.C.C.C.C.C.C.C.C.C.C.C.C.C.C.C.C.C.C.C.C.C.C.C.C.C.C.C.C.C.C.C.C.C.C.C.C.",
"C.C.C.C.C.Z.N.V.N.N.C.[.~ 6 / ( ( g.g.( W 0 $ $ * m o.C.C.C.C.C.C.C.C.C.C.C.C.C.C.C.C.C.C.C.C.C.C.C.C.C.C.C.C.C.C.C.C.C.C.C.C.C.",
"C.C.C.C.C.N.V.V.C.V.V.[.Y ~ L Y L r.0.W w * . o o 5 p C.C.C.C.C.C.C.C.C.C.C.C.C.C.C.C.C.C.C.C.C.C.C.C.C.C.C.C.C.C.C.C.C.C.C.C.C.",
"C.C.C.C.C.C.V.N.Z.Z.Z.R 9.~ K P K 0./ z O O . . O 7 * M.C.C.C.C.C.C.C.C.C.C.C.C.C.C.C.C.C.C.C.C.C.C.C.C.C.C.C.C.C.C.C.C.C.C.C.C.",
"C.C.C.C.C.C.V.C.V.C.V.L u.0.L K g 9.P 5 o O O * O d O Z C.C.C.C.C.C.C.C.C.C.C.C.C.C.C.C.C.C.C.C.C.C.C.C.C.C.C.C.C.C.C.C.C.C.C.C.",
"C.C.C.C.C.V.V.C.V.C.V.[.w.u.9.Y K 9.~ 6 o o % * * d O s C.C.C.C.C.C.C.C.C.C.C.C.C.C.C.C.C.C.C.C.C.C.C.C.C.C.C.C.C.C.C.C.C.C.C.C.",
"C.C.C.C.C.V.C.C.V.V.C.[.~ 9.d / g 9.^ 6 o o $ > O g O < [.C.C.C.C.C.C.C.C.C.C.C.C.C.C.C.C.C.C.C.C.C.C.C.C.C.C.C.C.C.C.C.C.C.C.C.",
"C.C.C.C.C.C.C.V.C.V.C.C.Y W R d ~ 9.^ 7 o o o o $ l O % [.C.C.C.C.C.C.C.C.C.C.C.C.C.C.C.C.C.C.C.C.C.C.C.C.C.C.C.C.C.C.C.C.C.C.C.",
"C.C.C.C.C.C.C.V.C.V.C.C.h w L d 9.r.~ 6 4 3 : I n.T.n.m v C.C.C.C.C.C.C.C.C.C.C.C.C.C.C.C.C.C.C.C.C.C.C.C.C.C.C.C.C.C.C.C.C.C.C.",
"C.C.C.C.C.C.C.V.C.C.C.C.K h h d z 0./ 7 4 $ r d.b.m.b.-.M C.C.C.C.C.C.C.C.C.C.C.C.C.C.C.C.C.C.C.C.C.C.C.C.C.C.C.C.C.C.C.C.C.C.C.",
"C.C.C.C.C.C.C.C.C.C.C.C.[.h 3 R l Y 0.Y d * I t.l.m.k.j. .C.C.C.C.C.C.C.C.C.C.C.C.C.C.C.C.C.C.C.C.C.C.C.C.C.C.C.C.C.C.C.C.C.C.C.",
"C.C.C.C.C.C.C.C.C.C.C.C.C.j O g K 4 4 I.[ 8 U =.f.T.E.!.!.[.C.C.C.C.C.C.C.C.C.C.C.C.C.C.C.C.C.C.C.C.C.C.C.C.C.C.C.C.C.C.C.C.C.C.",
"C.C.C.C.C.C.C.C.C.C.C.C.C.C.# T g 6 - w.{ m [ f.b.*.} %.7.-.[.C.C.C.C.C.C.C.C.C.C.C.C.C.C.C.C.C.C.C.C.C.C.C.C.C.C.C.C.C.C.C.C.C.",
"C.C.C.C.C.C.C.C.C.C.C.C.C.C.C.T K 6 : u.f.a.:.t.b.[ x i m -. . .C.C.C.C.C.C.C.C.C.C.C.C.C.C.C.C.C.C.C.C.C.C.C.C.C.C.C.C.C.C.C.C.",
"C.C.C.C.C.C.C.C.C.C.C.C.C.C.[.l P 7 ~ I.U.R.Y.s.b.b 8 9 q ,.,.o.o.[.C.C.C.C.C.C.C.C.C.C.C.C.C.C.C.C.C.C.C.C.C.C.C.C.C.C.C.C.C.C.",
"C.C.C.C.C.C.C.C.C.C.C.[.f.y.=._ ^ K 9.I.L.R.W.U.f.n 9 9 y j._ B o.7.[.C.C.C.C.C.C.C.C.C.C.C.C.C.C.C.C.C.C.C.C.C.C.C.C.C.C.C.C.C.",
"C.C.C.C.C.C.C.C.C.C.[.I.p.y.%.M Z U ~ i.L.L.L.P.p.%.} #.*.1. .O.3.8.7.C.C.C.C.C.C.C.C.C.C.C.C.C.C.C.C.C.C.C.C.C.C.C.C.C.C.C.C.C.",
"C.C.C.C.C.C.C.C.C.C.i.b.y.T j f M x m _ q.I.P.g.%.#.^ #.l.;.] ] ` o.6.[.C.C.C.C.C.C.C.C.C.C.C.C.C.C.C.C.C.C.C.C.C.C.C.C.C.C.C.C.",
"C.C.C.C.C.C.C.C.C.[.e.y.T d h w e x n m M N } t.r - # - t B B ] O.+.>.3.[.C.C.C.C.C.C.C.C.C.C.C.C.C.C.C.C.C.C.C.C.C.C.C.C.C.C.C.",
"C.C.C.C.C.C.C.C.C.T #.#.g j ; 6 t e > 9 f _ -.-.B _ _ _ _ B B ] ..O.+.>.4.C.C.C.C.C.C.C.C.C.C.C.C.C.C.C.C.C.C.C.C.C.C.C.C.C.C.C.",
"C.C.C.C.C.C.C.C.C.C.h h j ; 6 w - 3 8 r y { G c c B B B B G ] | o.o.O.D.A.C.C.C.C.C.C.C.C.C.C.C.C.C.C.C.C.C.C.C.C.C.C.C.C.C.C.C.",
"C.C.C.C.C.C.C.C.C.C.f j ; 3 6 ; 4 3 8 8 M q e t x M B ` ] B B ` ` +.7.(.F.B.C.C.C.C.C.C.C.C.C.C.C.C.C.C.C.C.C.C.C.C.C.C.C.C.C.C.",
"C.C.C.C.C.C.C.C.C.C.T w 3 w > - 8 w 2 t > 3 e e t k y N N v B ] +.6.v._.c.~.[.C.C.C.C.C.C.C.C.C.C.C.C.C.C.C.C.C.C.C.C.C.C.C.C.C.",
"C.C.C.C.C.C.C.C.C.T T r 6 3 3 3 w ; w ; - 3 w r e , , y y f v ` o.,.).`.x.^./.[.C.C.C.C.C.C.C.C.C.C.C.C.C.C.C.C.C.C.C.C.C.C.C.C.",
"C.C.C.C.C.C.C.C.b f x j r 8 3 w ; f - # - 5 w 3 + % 3 8 e x B G | 6.'.`.x.Q./.D.[.C.C.C.C.C.C.C.C.C.C.C.C.C.C.C.C.C.C.C.C.C.C.C.",
"C.C.C.C.C.C.C.[.l l b b f 3 3 8 8 3 O 3 8 r , @ % 3 8 w e w q p H v.].).S.A.H.K.>.C.C.C.C.C.C.C.C.C.C.C.C.C.C.C.C.C.C.C.C.C.C.C.",
"C.C.C.C.C.C.C.b b U b b x 8 w 3 w @ - 8 r 8 @ @ ; 8 w 3 % = y m ] S._.B.Q.c.z.D.>.[.C.C.C.C.C.C.C.C.C.C.C.C.C.C.C.C.C.C.C.C.C.C.",
"C.C.C.C.C.C.[.U b h b b b e w f 3 - 3 3 r # @ # 2 8 - @ 8 e 9 9 s x.F.| Q.<.<.8.>.O.C.C.C.C.C.C.C.C.C.C.C.C.C.C.C.C.C.C.C.C.C.C.",
"C.C.C.C.C.C.U U b I b x B B t I - 8 4 8 3 O # 3 8 # # w 9 & + , 9 O.8. .j.-.<.<.3.G o.C.C.C.C.C.C.C.C.C.C.C.C.C.C.C.C.C.C.C.C.C.",
"C.C.C.C.C.C.T b t 5 w y t M y l w 3 ; w # # ; 4 % 3 r 3 # 2 y x x ] >.D  .=.-.<.v. ._ O.C.C.C.C.C.C.C.C.C.C.C.C.C.C.C.C.C.C.C.C.",
"C.C.C.C.C.C.R r k k f n m m B R w - 5 w # % - - 8 r > % 2 2 > + O q X...m %.-.;.c.A.N F [.C.C.C.C.C.C.C.C.C.C.C.C.C.C.C.C.C.C.C.",
"C.C.C.C.C.C.k f f x x x c c v y 8 8 t j # - ; e r % O @ O o o # = e v +._ { =.-.5.~.+.v F [.C.C.C.C.C.C.C.C.C.C.C.C.C.C.C.C.C.C.",
"C.C.C.C.C.k f w 8 w w ; # ; 8 e w r r 5 - > 8 w ; @ O o O o # 8 r = e { O.m } } -.J./.G +.O.C.C.C.C.C.C.C.C.C.C.C.C.C.C.C.C.C.C.",
"C.C.C.C.C.f e 3 r d > # # , 9 q c t w 8 > 3 3 3 % O o o O ; w 3 - w i t  .` B _ o.3.7.] ..] [.[.[.[.[.[.C.C.C.C.C.C.C.C.C.C.C.C.",
"C.C.C.C.[.T b r ; # # # % 3 8 s N p e 3 8 3 > # @ X O # 3 3 4 3 w : @ ; n H x B x i i t v i v X.2.J >.X.X.v | [.C.C.C.C.C.C.C.C.",
"C.C.C.C.[.I T f e e w w t y c s , & > 8 8 3 - # X @ o 3 3 - 4 3 O O 3 r f n e 8 8 9 0 2 9 , 8 M @.>.2.>.>.N H N D F C.C.C.C.C.C.",
"C.C.C.C.Q #.T e 8 w r y M N G | ..J N 2 3 3 4 # @ @ # 3 - # O X - r k b f > > , & * = = > e q q v J J X.J X.Z H v D J C.C.C.C.C.",
"C.C.C.[.*.T #.e f y y 8 3 8 9 i N H J N 3 8 ; # @ @ 3 3 O X - 5 r b n 9 > - % % - = e t 9 e i 8 2 q D | X.| | G F G J @.C.C.C.C.",
"C.C.C.q.0.U Q 8 8 e y 2 & % # # & , s N t 8 - # # # 6 # X - 3 4 r y 8 : % % O @ 9 t 8 > 8 , 9 2 = = q D D D D H J J J @.@.C.C.C.",
"C.C.#.%.T x R ; # @ @ @ O O O O O + , N N 3 - 3 # 4 3 X - 6 4 w e 3 4 $ # O % 3 8 > > * = 2 = > 2 & = q s s q p G H G H ..@.C.C.",
"C.f ^ #.U y b e t e 8 9 2 , X X X O + & N 9 ; 3 @ 8 # @ 5 w 3 r > - @ @ O = 8 3 > = - % - = , ; = , = 9 s q q 2 p G D a G J [.C.",
"t h ^ T R M f 9 y c p p N N s X       O p s 9 3 - 4 X - 5 4 8 4 - @ @ O - > - - * & ; - - - = , ; > 8 > q 2 2 < 2 a a s a G ..C."
};
