/* XPM */
static char *_613569148295[] = {
/* columns rows colors chars-per-pixel */
"64 64 52 1 ",
"  c #100F0E",
". c #11100D",
"X c #151514",
"o c #181714",
"O c #1A1916",
"+ c #171718",
"@ c #1D1C1B",
"# c #201F1C",
"$ c #22211E",
"% c #28241F",
"& c #1F1F21",
"* c #201F20",
"= c #1F2020",
"- c #242423",
"; c #292624",
": c #272827",
"> c #2A2826",
", c #272728",
"< c #282729",
"1 c #272829",
"2 c #2C2C2B",
"3 c #312C25",
"4 c #302F2D",
"5 c #32312E",
"6 c #2F2F30",
"7 c #302F30",
"8 c #2F3031",
"9 c #343433",
"0 c #383735",
"q c #373837",
"w c #3A3836",
"e c #373738",
"r c #383738",
"t c #373839",
"y c #3C3C3B",
"u c #403F3E",
"i c #41403F",
"p c #3E3E40",
"a c #403F41",
"s c #3F4041",
"d c #444343",
"f c #484746",
"g c #494847",
"h c #464648",
"j c #494748",
"k c #474848",
"l c #4C4B4B",
"z c #504F4E",
"x c #51504F",
"c c #4F4F50",
"v c #504F50",
"b c #525251",
/* pixels */
"622++@>+@#@o%<e904uuiuuwudu45hul5$540iiuqsssyiy:0yklgffkdf>;>05$",
"22-@+,#2@o +@,2-44405ufyuljthlydi0wwiiffddds9dydsdfcfwwdud-25d25",
"-1>2,9,2@+@O@->rfuudfwwayhjhkfd0izwdufu5dd4408ydy4ydiidiwd22lk94",
"1--9992<2--@-<4dlaffuuuukjjlldhkgglgff->yy64>4w0i52siiiww0>wdlgy",
"2786,67ey9@*>7tr4>yljyddlzzflhildd9rwd425sdqs45dqu-9ysuw5525gfzl",
"196e12tay6<@#24y4wydlddglzlglyughu>4uuuyyq0udiudu220www94@>dzllf",
"ete9tydaat-<><2ralflffjedflzldddd2-49dldllfsdyi02532y$%#>@9klzff",
"sppdhyeyut9d4*77adlhyy949daui9yyy9>99flullfu50s>502$$.;;;;kblzzz",
"ddhhhhdpeydy922dgfyjkudykktpdy0-r4209dlfgliydy42:25$#>;$%5izcxzz",
"hdphjdh9thdee7pwrfldr2hlhyadtdky7ey0illhllddy649;-$=%;#@@;fzzlzx",
"hhhhaphkahdadde5igghklju09llllllly9yhwydlskd9444-2=-:2=@$-ygzxxf",
"6hlkhdddaajhyyfgrdllfzjyydklgczzclghlhf2dlly4,q:522=-6;-405xxxgi",
"1ppsdahdthdy2#4rrwuiiii5ey50gzlllklklllzlyl>#-52q2>;>2485w55iw2>",
"1&,phdda29patdrwd5%>w5224-2gdfldlkclbbbzd4w22:>20;=245092y%3>#$O",
"-@6pdhjt+yld5494;%5>$$>425yggzllfuglbllbfsfy-;8$5245205u;$8$@=$%",
">&&&y99@619yer0y##%$#@@-54y0iglzddzxzll00dys294:02>ww0d55;82-;##",
"X X-1@X+-92djy005$##o$$@O@>4ylglwwlzxgzgzgwwfw0iiq5d0sd0:222%=@%",
"+++@=-&p9dhklz04;-@@o$$@+O@-yilugwgxxxxxzlw2ffflxgwgii;52;0%:@$%",
"+++-@1plkkllui55>$$-OO#o@$O#>wdgzgiifzxxllkfdgzzgzl9dd3>995:@=##",
"&+O06,9pgdddhd2-4w>--$o@@O@$2y0lffiligllcigkgilxzlcd95:qyq2%:=@-",
"&+@6t69dddddie--@-%2$@$o@.O@#-4w25widilxzxdqsdlzczzfi:99w9qqyy98",
"4X&9e1pyhy50-9>@@$;2@=%@O@@O@@$->2dfufggiyi9yfuifzlk2::iq>9qdkdd",
"-919d66ye2ierw$Xo024>@@$##@%O@%#555y29f>>>f;tddlzlxciq6d524qkkkc",
",,9622td42di2r9dw->$-,$--#@#@O%5;@%5%80;;%$$0wwslflllk29d94ykklx",
"91pt5u>ee2$@oO3lfwwO22#$-@OX@#>59$$45iw3>%504-su9izkcy22qq8:9yix",
"tre9wi52@4X.OX>di2iwe>-$$O@%o#9dy>@92>50;%$%0$::84ixlkyy0kq4q$wi",
"e996ify:oo@@O@4$52;20$#$@O@o@%yyy559>2;3522::48099glkfis0gl9i8ii",
"<1tdfdid5X@@@@--@$dgy#@;;$@#$;wud5,9255ww54>2dld2qcllksq8fxggglg",
"t91ty92e>3$$@4=>=@4ly-+=@#$@#uwu9224yy45%8u>8lxiyxxiydsf2yzlyuuq",
"p,&&,,-+##O>>4=2-9hlhy9@@OO-wizufuyty5-;>s8yllkslxxlkckiy;ww0408",
"9,&@+>-25,@29922yygldi4$#O2>zzzfzgldd243;ifzzglccbxbxllklddq229u",
"p6&1----2y0hkkyykdflyy2=$%5wdlgzlllbzxlfsxllzcxclbxblydccliqw8yu",
"sy18@+@6dhyskdhhdwildy:2$idwugflxzllbbcbbbxxxbxxxbbbzdskfu090:92",
"e2,6=688tdpphephkggfwy2>i5giffugflblbbblbxbbxxxgiixbccffld25fdkd",
",9-&,9p8tapye99hlildd>0yigzllxfglblbbbbbxzxxxzliwlzlzzllildlxkkf",
"122==969y29t9eepgls992fddldfillzxzllbbbbzbblbxlufgglfwfdyfgldfyf",
"y29t9t29916tt9pdlcky2tlfdiy94lzlldhgxlzxbbxlxgisfuil5w35yd2-ilkg",
"e,8eee9--,19pydlkccy12ddlfgdizgzdgglblhxxxlzzlwdhi55-ii22yiqqwil",
"2ytee2,-,-992tlkkccfyfgglxcligfzxldlllullglxxblzuw5-$uii=#3ig5fg",
"9e2&+6y1,@,e9ydkxcxlclfclcldiuzzlyykk9>uixxxlkgy>00i530w222fiwil",
"%2=&@=2ee--yy9sklygxygklzzzzugxxbgdll5:2>xlge5y--2>qy>$$2>2xdkxi",
"2-,=&8--,25w89hlgq92ilkxzggugldifllxd>--dxldy$09-$-;>0w%o2ydikkl",
"82@=9,@-2=-8eskky248ilxdlzugy0fzlxllf522dfd992054-=#$2>28030qlxg",
"t1=86,998p9yslld902dsclkfgulgggwldyggl5-flgfs09$:-2;#$>02wwigzlz",
"9111&,188dysk0y-0s0llfdlgzfgiilllgggf0-5ffxiy5;2q224@=w035iyflzg",
"-11-=@19ytysdtf0iltkdkdkgdlgdigiyllgliw0ifxi%--2q>>>::52:5ygllgg",
"-&&@,+@9sydyfdklfs0w9isss0dlgzf9flff5zlyixxi5552w>>5--$204ygkgid",
"8,8,httydsfdtdllggy52wsdfglxllllgdwliggfllgxdy9;3>22t222ysigkkgi",
"p26,dy9pdde50dkf0dys-090iddyxglbzzlizbblliig5ww5:20-09gyglllggld",
"d1-99dy9929ttdyyddt8$$;55idiklllziuuzbizzgiliidd5890iidlcclgdgfi",
"eed9ys99y9e99e0tsss-$2$$20uigglliiuuzllgu0fgiw5-@55wxzflhhddllds",
"hstpseyhyyy2t90e4;yq92%;-009iilgzbzizzzgilld5iyy4059xlzi$9ydy0is",
"ydppe91e9ty2->22:oo-5:Oo$>45digliibzlzlzlxl3:0924=-ibzly;20gs0w0",
"dppst6-22q98@=22-=-@2O@oo50wgfdlizziliflxluu2522$@%0fgf422yuiw2$",
"p9t68,-e8k9-==@@-o@-4@#o->>ui5ddiziuiu5zzw;>22:=$-5y->>2285;90>>",
"spd6te--28--9-XX>=O=@@;:-$;>5-ygzziizg50fu55:$;2$->>>--558222;2;",
"9ptpey8==-90y2+X@;X-@:4:$$$%$250iiizi30099w5$>-:=-21>$;3:269->:$",
"tptp2tt-12yy9-O==O+++92#O%5;-%22uiliu%30y9>93>:>262%:==25:0d2$4>",
"spdddpy291eyw-@+++X.X@#=%-;2O49>uu500040895>92125:28>5=:X$24>$8;",
"phss9&e2p2ty54$@O-.+@@@-29>055->%%%5%-5u9#=>290::>:>-$>@#>%-;25;",
"ddpte2,49=yy92$O=++o@@>y0dyi5;-%%#@>5025u>=282:1:-4-:@=552:224:5",
"t1pt9thy2=t22@@O+@#-:=2yywuw4,$2>4#@05--5iw:22:0948-:-=$%592-2>y",
"1tpspee6tss-@==@@=XXX4ysdiy052#-4524>0;;$2y>2=-yq26896-.$528253:",
"1&pt2t--,92=@8:O@@+@-4400id05-@2->9>92%$O=29$=242>8;0::@$>;5-2$:"
};
