/* XPM */
static char *_613568348280[] = {
/* columns rows colors chars-per-pixel */
"64 64 39 1 ",
"  c #250606",
". c #2B0606",
"X c #2C0807",
"o c #260709",
"O c #2C0708",
"+ c #260808",
"@ c #2D0809",
"# c #330607",
"$ c #3B0607",
"% c #340807",
"& c #3B0807",
"* c #340709",
"= c #3C0709",
"- c #34090A",
"; c #3C090A",
": c #440707",
"> c #4B0607",
", c #430807",
"< c #4C0807",
"1 c #430709",
"2 c #4B0709",
"3 c #44090A",
"4 c #4B090B",
"5 c #530707",
"6 c #5F0707",
"7 c #530807",
"8 c #5A0907",
"9 c #530709",
"0 c #5A0708",
"q c #53090B",
"w c #5A090A",
"e c #4D0D10",
"r c #640709",
"t c #69070C",
"y c #620A0B",
"u c #6C0A0B",
"i c #710709",
"p c #7B0709",
"a c #730A0B",
/* pixels */
"4==*.3qw343;333@4433;4344>;>34X3;;3334wq3;q;-;w83333;433;-;443-3",
"-+33,4;3;;;4w%OO@;y3*qq>2w>;333:4w4w3;;;3;3-44wq44#4334343-=OO*O",
";3#32073=44wq3;2241-43324:34-o@3qq4334;e33--;-e;;;342q413-4;=@33",
"Oq43%1>43>q2==413-O>34441444332:31-134q3q434wwq;;4qwqq3;;;3;*-=-",
"44434&433wqq23%q3%3;=3qrwq33;330q;34qwq33;3-;34343auq04qwq4:=433",
";----;3&-;444====4=,*3yuw03qq3342344q4;;234q34q;qqq3%434,%2943=3",
"-44433333@4q3234;,4334q2;3443,;%433qw2>3qw;-O33;3=;3;;;@344q4#3.",
"O-;O@+-#*+%=69;q4444q;;3;;3-%;*33=;=4344e433323=*;13;O33O=-o41q4",
"34%@%=;;113q1--2->;3;q22=O;444;4;433;qq@O31O@-3;;-qqq-@;33-o=2q5",
";$#O3@O;q33;244q;33qw3-22;O--O;-X;;3w0q4;;*O;==O3q0qq3>%3.*X,3;-",
"2q44;-3;;34121334q<7wr,>q344e4=4ww93143;3.**=--1333;3-3;<432;4qw",
"4>33344-;;343*3343w4,375wyqq343-;344-=23q1==---34-3qqqq342=434,4",
":973;333314>q32;#>qq3;qqyrq4qqw934q3344411;4e43=$;323q>4,rq;;q04",
"q33=3;34299wq444-;;3;q443;-3;;--*-e;3eqwqyq3;q11;;q944>01=3;3334",
"@143q3qe4;-3yq3944qq;4q4=4;@4;343234e4w3;4w3;;2e-..;33334444434&",
"4-;4q44qe-431;qye4;=33;33q4-o=1%*O14w93;4404wy;334w,3+;3q3yq;444",
"3;434333333;-4qy341;3304q04q;3%X--=;;;3-3=3=qr4q%$4.;;43r8q432wq",
";;e;qq=34,;;-3;e=;14q0w;4q4;3-;O3;334334*OO;22e;133O-3>4pu9qqw;;",
"3;-.qq4343=3qwq;;4qw434q4%4<43,3;o -3%-4130qq3;34<q3;43>4--3;334",
"q43qq=;wy43=-3433222;;44q3>q=1;3>q13%@;3;=324334484q<3=,3,;=;-;q",
";;3-;3441y9q43q34qwqq%;-e4wq20q3-@3%-O4qw43441qqyq34333333;+3444",
"4w8q#;3;34y3@;1;-343;33qe334211-;q,2;*;33;--3334w313-154qqq-*-Oq",
";&;,4;-+;*443431;-;;334243q333434q113-3*-1;3;;;$3;3;;;330qq34--=",
"e-3q434qyq43OO=--+;--3q434qww21,42344-@4q1%34;;-q3y3qq43$=;-3;o-",
";3443;3;34q34,=-2==1==*31=4q3>4q214q94-;-o-O-@-O-;y4q;;;3504q43o",
"-;=qwyee1q34qw;4q43=4q24;--14;3;314wq33;;O;3;;0433441q==3.O;@%44",
"4%,=-==-*3;;2q:43=;@O-;;2;O43wq;;34;3;3;=*=-O13340144=3;q33$O#4;",
"4;%&;;3;13=-#3%2=3432;---*-*4q;;;344qw34;43=4;-*ww443;31=;=#O44;",
"3q= 343-==3;O49q94;;41;3;224143*;34344qq223q;-;4wq4>=404q2q13;34",
"4qq3;-O;*=-=-;q,>=;;34;*.$333q=34q4q33;4w3;=O;4=3;;;3qq33341,4qq",
"w4333;@3;-3q43333414q31qq2;342;333q3e;44wqwy3457q%;qq04y94qw4;34",
";,3;1;-;@*=;33=31qq34-=q111w33;3;;3;3@3;3-qy4q;&4,4494432q=3;;3;",
":qq,2=4334%===1=3%3-3;qq40qq%#3%;443;4#.o324333;q3q40q33w3qq33eO",
"48440q4;123-313q4434-%q44>r4;34&44444<33qq43;334;;;3431=33;4q3=4",
"q444=4-;;;4;%.*3q40q330q7wy444<w6rwq43;1;q43334443-3220q;;--=1=4",
";3433344qq312q3;qw4;;3-4q434>w44uiyq3ww4341;#.@O;@OO;3q*333@q3yq",
";4;,q;1.33#-;q;--;4qwq43q3440w,w7>;;3924341;-@=;;O2;4q13-.;%;4,3",
"8q4333=33400q323@443;&--33=47443;qq2 -1;*@;O@-3--4q33;21;3q44444",
"0qq2-1=34q33@@OOOO=;;3;33;;-3,==40q94==-O;---3--=;3343;--=;;33<4",
"q3==3q4q23;-;31,93+443%;33;@q3yq$433;3..;=*;qq49$;;;32w34;;;33;%",
"e3;q44:1>wO;;=-41q=;-O=O-----422q1=434,=;-%#;3344:-;4q$1>3X33qqq",
"4323w4$33433;11=433=;O3;;=q4434133q343=3444$;;;313-#.-O;34-%-,14",
"43q4yq3=7>3;;>=4;3;3;-;--;=4334-4qwqqq09;;q=,;34932996q4434<24;q",
"3-4q43=2,03-;,43qw42-3e34;==;4-=344q>3:=;;143-X@3;-31=3&3;;3q2-=",
";;O331-1=3432,448440<3;323;3344qq=3q-31q;24q004q;31;;34;4q443;;4",
"3;-32qq;wq3;q4wq4q42q-;;34;.-;ye42w3;3,31qq4-;qw31q;4w-4q011434w",
"--=-3w%0qq43;-;;,4433e443;;4q44334wqq8wq2qq-;e-;4yq33;3;;,qy443=",
"=4q4324ww44wq443q0qq4;;3;;,2313-;33;3y431=;333-34y4q4;3;-34r422;",
"w113,:qq#=;4O%w14-;4w4473qq333=4-..;2q334-;3;;-3%e;-=3q3.3-e;-;4",
"q1=;3;=34,;943qq3-4;336q43-33444334q344432444=qw0433qqqqqy0433qq",
"3;;e4q3;&441;33334;-;eyq14;3qq43;3;7440q43w313-=4<343q4;-,34,44q",
"4q-.-3333;%33>;e113-;-3;-;3qtq4qw4-34wq=$-3494q=4e3qqw44q3q34qqw",
"e2422;;-o;q43;;q4434q0q;3qqq==434,q42q344;;-;;@-3;;4443;--;$-3q4",
";**3=*-3=703343ay24.=,41>:q3;4;-;q3;$31;3--2333243--33333423;@34",
"qq4q24=-;q>qy44q0q4q=2q3wqq42444-3q$3q2q4-O-3;O-@;-@;30w*O-3;O33",
"-3qy3>q44w;3r4q4;----3==;3q4yq3q39q442w493;;=-@;;;-3;30X*;;-=;;;",
";4;;4y94,;q343--43243e4=-33-;3y443-ew94;qqq4.O;-*$q443=3;=-;q43-",
"3;%34w39,;;;4eq@@3-@@@=-*@4-14y742;334;-4441------;333>,--=*e33=",
";;;3;3;-;4w7q0q13;-+;==-3;;%3-3;;;3wqqe-14qewqq3q%3=;3;%3q4y21q2",
"334wq4-44wq3>3=-1..;;--2433408q;3qqq9091=-1;3=--1;;;34q4e1wq4qq3",
"qq%334422q;=13q4q133-;=;;,4*;44341924;;-;-33-3;23=;@*-34w4e;34ye",
"wye,q41q0922;43431-442=3402q3443qq043ew44;+3q3=;,1;Oq3=0wq3-2;3-",
"wq433=-3444100qq2yq;;43;-**-@=;;,32;=2324q;;-O-O---%4@way4q4-O-3",
"3;-&33%%44;3234q=3e;-;--4e43444--,33qw9q2333=-;;=304;@qu04w4;;4;"
};
