/* XPM */
static char *_5b7843700124706fb85ef9b28c872e6478pPpnrHGfDv4oL[] = {
/* columns rows colors chars-per-pixel */
"64 64 232 2 ",
"   c #000000",
".  c #0B0403",
"X  c #030B04",
"o  c #0A0A05",
"O  c #04050A",
"+  c #0B040B",
"@  c #040B0C",
"#  c #0A0B0C",
"$  c #140303",
"%  c #1C0405",
"&  c #12010A",
"*  c #130C0B",
"=  c #1A0A08",
"-  c #011303",
";  c #04130C",
":  c #0B130A",
">  c #021908",
",  c #151306",
"<  c #13130D",
"1  c #030314",
"2  c #0C0413",
"3  c #020C13",
"4  c #0B0D12",
"5  c #080A1A",
"6  c #1C0414",
"7  c #140C14",
"8  c #170818",
"9  c #031214",
"0  c #0C1313",
"q  c #071817",
"w  c #0B1913",
"e  c #031419",
"r  c #121414",
"t  c #121C16",
"y  c #121619",
"u  c #131C1C",
"i  c #191918",
"p  c #240205",
"a  c #290709",
"s  c #2F0F0D",
"d  c #230616",
"f  c #2C1717",
"g  c #24141B",
"h  c #032406",
"j  c #072718",
"k  c #15221D",
"l  c #17291D",
"z  c #2A2609",
"x  c #272719",
"c  c #050D25",
"v  c #130B21",
"b  c #0C1A24",
"n  c #171B25",
"m  c #051F30",
"M  c #241824",
"N  c #2C1B23",
"B  c #211B2B",
"V  c #072628",
"C  c #142324",
"Z  c #1D2223",
"A  c #1B2B24",
"S  c #15262A",
"D  c #1C2C2C",
"F  c #07372B",
"G  c #19332B",
"H  c #0A2735",
"J  c #192A35",
"K  c #0A3836",
"L  c #1A3937",
"P  c #252628",
"I  c #34252C",
"U  c #243528",
"Y  c #38372A",
"T  c #282734",
"R  c #332533",
"E  c #253734",
"W  c #323E3C",
"Q  c #473135",
"!  c #14413A",
"~  c #2A4A3D",
"^  c #205439",
"/  c #4A4415",
"(  c #57401F",
")  c #6F5309",
"_  c #6C6C12",
"`  c #4F4E2E",
"'  c #6E5A39",
"]  c #696528",
"[  c #073A42",
"{  c #1C3945",
"}  c #0F3152",
"|  c #273D44",
" . c #383D49",
".. c #393B5C",
"X. c #403A61",
"o. c #074745",
"O. c #14464A",
"+. c #184656",
"@. c #05575C",
"#. c #185659",
"$. c #284445",
"%. c #394848",
"&. c #2C544F",
"*. c #2B4A5B",
"=. c #37595A",
"-. c #176752",
";. c #2A6958",
":. c #0B5664",
">. c #2C5A60",
",. c #375A65",
"<. c #066F69",
"1. c #176A68",
"2. c #086D72",
"3. c #1A6575",
"4. c #097576",
"5. c #396567",
"6. c #3D666D",
"7. c #2B6E70",
"8. c #386A73",
"9. c #3D7274",
"0. c #4B484A",
"q. c #544848",
"w. c #56514A",
"e. c #445A59",
"r. c #555757",
"t. c #47635C",
"y. c #435A68",
"u. c #585565",
"i. c #476265",
"p. c #43646D",
"a. c #446A6D",
"s. c #51676C",
"d. c #496975",
"f. c #506874",
"g. c #4B737A",
"h. c #67767B",
"j. c #757272",
"k. c #8E7013",
"l. c #926727",
"z. c #907557",
"x. c #8A676A",
"c. c #0F8C73",
"v. c #238674",
"b. c #738379",
"n. c #948E17",
"m. c #8C852A",
"M. c #B09A29",
"N. c #A58634",
"B. c #C4B725",
"V. c #407D8A",
"C. c #677987",
"Z. c #7E7781",
"A. c #937F82",
"S. c #088886",
"D. c #19978B",
"F. c #118F90",
"G. c #099796",
"H. c #338F9A",
"J. c #289799",
"K. c #08A798",
"L. c #17A59B",
"P. c #0DB792",
"I. c #2FAC94",
"U. c #069DA5",
"Y. c #3681A2",
"T. c #09A7A6",
"R. c #12A8AC",
"E. c #15B5A4",
"W. c #06B9B6",
"Q. c #11B2B6",
"!. c #32B4B3",
"~. c #478A96",
"^. c #6F948F",
"/. c #7CA898",
"(. c #449CA4",
"). c #48A6B2",
"_. c #65A3A9",
"`. c #6FB6BE",
"'. c #03C1AA",
"]. c #0EC8BB",
"[. c #02D7B8",
"{. c #00E9B5",
"}. c #0DBEC2",
"|. c #24B4DC",
" X c #5FB0E3",
".X c #06C9C6",
"XX c #05D9C6",
"oX c #16D5CE",
"OX c #05CCD2",
"+X c #06D8D6",
"@X c #18D7D2",
"#X c #2EDCD2",
"$X c #05E0CC",
"%X c #11E9CA",
"&X c #07E7D7",
"*X c #25E8D6",
"=X c #0BDFE4",
"-X c #17DBE3",
";X c #0FDEFE",
":X c #23DEE5",
">X c #0BE9E8",
",X c #14EAE8",
"<X c #07F5E8",
"1X c #0AFCEC",
"2X c #15F5EB",
"3X c #0AEDF8",
"4X c #15EAF5",
"5X c #05F8F9",
"6X c #0BFBFA",
"7X c #14FAF9",
"8X c #33ECE5",
"9X c #29EAF2",
"0X c #26FBFA",
"qX c #37F2F7",
"wX c #4FD7DE",
"eX c #78D8DC",
"rX c #4BF1D3",
"tX c #58E7E0",
"yX c #43F4F4",
"uX c #8B8C83",
"iX c #8C9492",
"pX c #8EA49D",
"aX c #9092A1",
"sX c #B3B5BB",
"dX c #B0B5BD",
"fX c #C7D1BB",
"gX c #98B9C9",
"hX c #B9D9DE",
"jX c #B5F6CE",
"kX c #80DBEF",
"lX c #E1DCDF",
"zX c #DEE4EB",
/* pixels */
"                                                                                                                                ",
"                                                                                                                                ",
"                                                                                                                                ",
"                                                                                                                                ",
"                                                                                                                                ",
"                                                                                                                                ",
"                                                                                                                                ",
"                                                                                                                                ",
"                                                                                                                                ",
"                                                                                                                                ",
"                                                                                                                                ",
"                                                                                                                                ",
"                                                                                                                                ",
"                                                                                                                                ",
"                                                                                                                                ",
"                                                                                                                                ",
"                                                                                                                                ",
"                                                                                                                                ",
"                                                                                                                                ",
"                                                                                                                                ",
"                                                                                                                                ",
"                                                                                                                                ",
"                                                                                                                                ",
"                                                                                                                                ",
"                                                                                                                                ",
"                                                                                                                                ",
"                                                                                                                                ",
"                                                                                                                                ",
"                                                                                                                                ",
"                                                                                                                                ",
"                                                                                                                                ",
"                                                                                                                                ",
"                                                                                                                                ",
"                                                                                                                                ",
"                                                                                                                                ",
"                                                                                                                                ",
"                                      V C y 5 O O 9     V.                                                                      ",
"                                    F k u r , o 4 X s c.L.R.U.R.T.!.                                                            ",
"                                    D X 8 T.<XXXc.6 9 *XS.:.j < # - n     3.                                                    ",
"                                  X K 1.D.6 X y d S.&X+ o F S.XX2X:XK.H * - * L                                                 ",
"                                    T S.i - % X v.& # v @ p c 1 X   H D.4X5XE.L . X @ V                                         ",
"                              $.$.    O.; * r * | l 0 O q w 0 0 4 # {.K < 8 E [.5X>X@.g j P - n                                 ",
"                        9 0 0 0 0 0 + 4 @ 2 X E b 9   y W C 0 O # 0 ).v & h { I a I +X7XQ.g i j i M O V                         ",
"                  O 0 r * q k k w @ X # O x o H <X#.r Z X D r #     8 &X3 5 $ &.F H ! M &X7XS.8 ~ A Z y 3 @ O   O O 9 e         ",
"            { e D D A k 0 0 @ O + 4 0 + M 2 *.>X} : 0 0 # i r u y @ p ;Xp V X b | e r # 8 P.6Xc.d t u i r i ; @ @ 4 4 e         ",
"        L C ~ A J K j w j 0 r   t   * 0 $ 2.*Xn w % > j G %.%.n 4 4 m 1 0X$ a N L 7 . . 6 <.3X'.o < X P : l U T J m p C {       ",
"      9 P F Q *.D.H.4.d T q ; = $ n : 3 D.@XO > d -   . .   X O u ~  .G '.g # b { 2.W.&X5X3XG.8 f @ B x X +.R.E.4.< e g d 3     ",
"    e I n !.<X6X8X*X0X5XXXb 7 C @ # e Z ,X$ # 1 q p - X X X   O O O c X .Xg ; 5 [ } V 1 @ X   X q + b V.2X>X8XyXqX7X$XK 7 P e   ",
"  d P q #X5Xa.x.h.C.b.x.wX<XO.* y B . }.4.: 1 . , } S.&X<X>X+X+X+XOX4.8 @X@ < X X . p X 2 O p X I w !.6XY.q.h.r.j.j. X6Xc.X 4 D ",
"  I.j wX1Xe.iX&.d.,.=.%.^.J.8.%.4 3.<X4.$ : X F.3X=XF * $ c y @ X O t $ $X3 + < @ P.OXOX}.XX#.V P 7.4X9.e.=.i.5.i.s.j.~.9XO.. 4 ",
"Y.o.$.0Xu.h.=.9.5.V.5.p.j.R : 8 %XK.a . q 1 OX<X^ s 9 , c 9 : u 0 ; ; % >X1 X + O y s B +X5XW 1 : 8 >.=.>.9.8.8.6.6.,.uXgX6X$ ; ",
"$Xp -X'.x.p.5.8.6.y.y.g.,.b o @.H ; 2 ; = L.&X! U ` / u ] ) z Y u # C $ oX2 w S C V y O n 8 ; 9 X X -.r.8.p.6.6.a.a.5.7.iX1XV   ",
"%X- 1X>.u.9.6.f.5.;.f.8.g.r.i +XX.$ . a 2.<X#.7 I x m.0._ z.` Q Q x < - } 3 Z R G P b n 2 4 8 [.2 6 Q 7.d.p.a.a.a.,.C.,.sXrXI.& ",
"-X: 5XY ..5.6.6.6.6.6.6.a.,.0.-X1.j 1 o -XG.r 0.q.( B.] k.n.] R 0.0.P < @ # u u 0 0 + X X   V #.o # O.7X,.d.6.6.6.,.*.5.x eXXX+ ",
",XO 6X%.,.6.6.6.6.6.a.6.6.6.t.+X*.* : 2.,XD x q./ M.M.' m.N.] w.w.0.k < i : @ X O   < 0 0 0 T P O o J.4X,.a.6.6.6.p.5.s.j.kX].X ",
"4X. 1X(.aXp.6.6.6.6.6.6.6.f.,.7XU 4 O >XF.9 0 I x j k.*.l._ f ` ` R r . # # O O O X + X o o u D o.$ K.2Xs.p.6.6.6.6.f.-.zXyX1.X ",
"|.j S.2Xx.p.6.5.8.a.5.6.6.y.H.<X@ + 4.7Xq + $ U / N.) ' _ ) z z z A O o O @   X + O # X     r A | V $.H.A.5.6.6.6.6.3.uXsX3X2 X ",
"  ).o 7X!.pXy.6.,.6.a.=.t.f.2X#.< O &XG.. o   X X o o # = < o + X         X           X     + w i 3.v.pXs.p.a.a.a.5.A.fXyX}..   ",
"  E B [ 7X_.iX^.s.h.pXlX_.9XT.& # S.2X[ . + . .   o   O . +   O   O O @ 4 4 n J S J C @ + O # ; C V 4XQ.Z.b.C.s.^.sXjXwX1X6 O e ",
"X Q h t @.6X*X`.gX/.gXtX0XU.= q 6 -X.X= # O   + 0 n D E                                     D + i C H @X2X)./.dXhXeXqXXX@ o 4   ",
"    I u 7 0 J.+X7X7X3XQ.O., 5 > 8 >XJ.D |                                                       S 7 r i 4.OX4X6X<X.X<.o * #     ",
"    X J 1 # O O w 0 o O X # 4 J                                                                   | 0 r 0 + : 0 r 4   + 5       ",
"          E u # # O O 0 U                                                                             | C 4 0 4 O 4 S           ",
"                                                                                                                                "
};
