/* XPM */
static char *b3d3f36301bf4ebcc8f31c182f2c721duZkZdb8eT3GzEYtJ[] = {
/* columns rows colors chars-per-pixel */
"64 64 235 2 ",
"   c None",
".  c #020304",
"X  c #0B0403",
"o  c #030B04",
"O  c #0A0A05",
"+  c #04050A",
"@  c #0B040B",
"#  c #040B0C",
"$  c #0A0B0C",
"%  c #140303",
"&  c #1C0405",
"*  c #12010A",
"=  c #130C0B",
"-  c #1A0A08",
";  c #011303",
":  c #04130C",
">  c #0B130A",
",  c #021908",
"<  c #13130D",
"1  c #151306",
"2  c #030314",
"3  c #0C0413",
"4  c #020C13",
"5  c #0B0D12",
"6  c #080A1A",
"7  c #1C0414",
"8  c #140C14",
"9  c #170818",
"0  c #031214",
"q  c #0C1313",
"w  c #0B1913",
"e  c #031419",
"r  c #071817",
"t  c #121414",
"y  c #121C16",
"u  c #121619",
"i  c #131C1C",
"p  c #191918",
"a  c #240205",
"s  c #290709",
"d  c #230616",
"f  c #24141B",
"g  c #2C1717",
"h  c #2F0F0D",
"j  c #072718",
"k  c #15221D",
"l  c #17291D",
"z  c #032406",
"x  c #2A2609",
"c  c #272719",
"v  c #32271F",
"b  c #050D25",
"n  c #130B21",
"m  c #0C1A24",
"M  c #171B25",
"N  c #051F30",
"B  c #2C1B23",
"V  c #211B2B",
"C  c #241824",
"Z  c #072628",
"A  c #142324",
"S  c #1D2223",
"D  c #1C2C2C",
"F  c #172828",
"G  c #07372B",
"H  c #19332B",
"J  c #0A2735",
"K  c #192A35",
"L  c #0A3836",
"P  c #1A3937",
"I  c #252628",
"U  c #34252C",
"Y  c #243528",
"T  c #38372A",
"R  c #282734",
"E  c #332533",
"W  c #253734",
"Q  c #323E3C",
"!  c #473135",
"~  c #14413A",
"^  c #2A4A3D",
"/  c #205439",
"(  c #4A4415",
")  c #57401F",
"_  c #6F5309",
"`  c #6C6C12",
"'  c #4F4E2E",
"]  c #6E5A39",
"[  c #696528",
"{  c #073A42",
"}  c #1C3945",
"|  c #0F3152",
" . c #273D44",
".. c #383D49",
"X. c #393B5C",
"o. c #403A61",
"O. c #074745",
"+. c #14464A",
"@. c #05575C",
"#. c #185659",
"$. c #184656",
"%. c #284445",
"&. c #394848",
"*. c #2B4A5B",
"=. c #37595A",
"-. c #2C544F",
";. c #2A6958",
":. c #0B5664",
">. c #375A65",
",. c #2C5A60",
"<. c #176A68",
"1. c #086D72",
"2. c #097576",
"3. c #0E6B6E",
"4. c #3D666D",
"5. c #396567",
"6. c #386A73",
"7. c #3D7274",
"8. c #2B6E70",
"9. c #176752",
"0. c #4B484A",
"q. c #544848",
"w. c #445A59",
"e. c #555757",
"r. c #56514A",
"t. c #47635C",
"y. c #435A68",
"u. c #585565",
"i. c #5C5D7F",
"p. c #43646D",
"a. c #446A6D",
"s. c #476265",
"d. c #51676C",
"f. c #496975",
"g. c #506874",
"h. c #4B737A",
"j. c #67767B",
"k. c #757272",
"l. c #8E7013",
"z. c #926727",
"x. c #8A676A",
"c. c #907557",
"v. c #0F8C73",
"b. c #238674",
"n. c #738379",
"m. c #8C852A",
"M. c #A58634",
"N. c #B09A29",
"B. c #948E17",
"V. c #C4B725",
"C. c #407D8A",
"Z. c #677987",
"A. c #7E7781",
"S. c #7F7898",
"D. c #937F82",
"F. c #088886",
"G. c #19978B",
"H. c #099796",
"J. c #118F90",
"K. c #289799",
"L. c #338F9A",
"P. c #08A798",
"I. c #17A59B",
"U. c #0DB792",
"Y. c #2FAC94",
"T. c #069DA5",
"R. c #3681A2",
"E. c #09A7A6",
"W. c #12A8AC",
"Q. c #11B2B6",
"!. c #0EB7AD",
"~. c #32B4B3",
"^. c #478A96",
"/. c #408086",
"(. c #6F948F",
"). c #7CA898",
"_. c #449CA4",
"`. c #48A6B2",
"'. c #65A3A9",
"]. c #6FB6BE",
"[. c #00C09A",
"{. c #03C1AA",
"}. c #02D7B8",
"|. c #0EC8BB",
" X c #00E9B5",
".X c #0DBEC2",
"XX c #24B4DC",
"oX c #5FB0E3",
"OX c #06C9C6",
"+X c #05D9C6",
"@X c #05CCD2",
"#X c #06D8D6",
"$X c #18D7D2",
"%X c #16D5CE",
"&X c #2EDCD2",
"*X c #05E0CC",
"=X c #11E9CA",
"-X c #07E7D7",
";X c #0FEED9",
":X c #25E8D6",
">X c #0BDFE4",
",X c #17DBE3",
"<X c #0FDEFE",
"1X c #23DEE5",
"2X c #0BE9E8",
"3X c #14EAE8",
"4X c #0AFCEC",
"5X c #07F5E8",
"6X c #15F5EB",
"7X c #0AEDF8",
"8X c #15EAF5",
"9X c #0BFBFA",
"0X c #05F8F9",
"qX c #14FAF9",
"wX c #29EAF2",
"eX c #26FBFA",
"rX c #36F0F0",
"tX c #4FD7DE",
"yX c #78D8DC",
"uX c #43F4F4",
"iX c #58E7E0",
"pX c #4BF1D3",
"aX c #8B8C83",
"sX c #8C9492",
"dX c #8EA49D",
"fX c #9092A1",
"gX c #B3B5BB",
"hX c #B0B5BD",
"jX c #C7D1BB",
"kX c #98B9C9",
"lX c #B9D9DE",
"zX c #80DBEF",
"xX c #B5F6CE",
"cX c #E1DCDF",
"vX c #DEE4EB",
/* pixels */
"                                                                                                                                ",
"                                                                                                                                ",
"                                                                                                                                ",
"                                                                                                                                ",
"                                                                                                                                ",
"                                                                                                                                ",
"                                                                                                                                ",
"                                                                                                                                ",
"                                                                                                                                ",
"                                                                                                                                ",
"                                      Z A y 5 $ # q     /.                                                                      ",
"                                    G l i q 1 @ 5 o p b.I.W.T.W.E.~.                                                            ",
"                                    H o 9 E.5X}.v.9 0 :XF.:.e t $ ; M     3.                                                    ",
"                                    { <.G.7 . t d F.-X@ 1 G F.+X6X1XE.J - > 8 P                                                 ",
"                                    R J.p ; & o b.9 3 n # a b 6 X . Z J.3X0XE.~ X o + N                                         ",
"                              %.%.    +.4 = t =  .j $ . q q > q q >  XG t 7 W }.0X2X@.f j I ; M                                 ",
"                        0 q w u q q @ $ # 3 + W M # . q Q A q + + t `.9 @ z } E s B *XeXQ.f p j p C . A                         ",
"                  + 6 u $ w y k w o # $ o c > J 5X#.q S : I u $ . + n *X4 9 - ^ L L ~ V -XqXF.9 ^ F S i : # . + + . 4 e         ",
"            } e D Y F k w q $ + @ 5 q @ C 2 *.2X| > q q $ y u i u # a <Xs Z o Z  .e t $ 9 U.0Xv.d t i i t t 0 > # 5 5 e         ",
"        P A ^ H L ~ j > j q 8 . y . = 5 % 1.:XM w - , j H &.&.p $ 5 N . eXX d g P 8 X X * 1.0X!.O < # B q l Y R K N a A }       ",
"      0 I G ! *.F.L.3.d K r ; & % M > 4 G.%X@ , d ; @ X . . # + i %...H |.p $ m K 2.Q.-X0X7XH.8 f , S B . $.I.I.b.5 4 f < 4     ",
"    r U S ~.5X7XrX:XeX0X+Xm 9 k 0 # e D 3X% $ 2 6 & o o o . . . . + b o OXf 4 6 { | J 2 $ X . o w @ i R.4X5XrXuXrX9X*XL 9 U e   ",
"  7 I m &X0Xf.k.j.Z.n.x.tX5X} 8 u V X Q.2.$ + O 1 { H.-X5X2X#X#X#X#X2.9 $X: y . o X & . 2 + a # U y ~.0XR.q.j.e.k.k.oX9XF.X 5 D ",
"  Y.l &X5Xw.sX&.h.s.s...Z.Y.C.&.2 8.5X2.& > O J.7X>XG - X b u # . . < - +X6 X < # U.@X@X.X+X#.Z I 8.6X6.w.w.s.5.p.d.k.^.wXO.O 5 ",
"^.O.%.eXu.j.=.6.>.h.5.p.k.E : p =XP.s X r 2 @X5X/ h w 1 m 0 $ i q 0 : & 2X2 o X O r h M #X9XQ + q * ,.y.=.7.6.6.6.5.y.aXkX9X& : ",
"+Xa ,X{.x.a.4.4.4.p.p.7.=.M . @.J 0 3 4 = I.-X~ Y ' ( M [ _ x T p $ A % %X3 i F M Z p @ V 9 > 0 o o 9.e.7.>.4.a.a.4.;.6.sX6XZ . ",
"=X# 4X,.u.6.4.g.6.;.g.4.h.e.p -Xo.& X s 3.5X#.8 U l m...` c.) T T c 8 o | 0 S R H I i M 6 5 7 }.3 7 U 8.f.a.4.a.4.5.Z.>.gXpXY.@ ",
",X, 0XT X.4.4.4.4.4.4.4.a.*.0.1X<.j 4 O ,XH.r 0.q.) V.[ l.B.] T 0.r.I < . $ y i w q + + + . Z @.O $ +.qX>.f.4.4.4.4.*.>.l yX*X@ ",
"3X# 9X&.>.a.4.4.4.4.4.4.4.4.t.#X*.= $ 2.2XD v q.( N.N.] m.M.[ r.e.0.k t p $ $ # . . q t t t R I o O K.wX>.a.4.4.p.p.,.g.k.zX|.. ",
"2X@ 4X_.fX4.4.4.4.4.a.6.4.g.>.0XD $ + 2XJ.e w v c k l.X.z.` v ' ' U < . $ $ . # o + + o + O y H O.* P.qXd.p.4.4.6.y.C.9.cXuX<.X ",
"XXZ F.;XA.a.a.a.4.4.4.p.4.w.L.7X> @ 2.qXq + % I ( M.` ] _ _ x x x c . + o + . + . @ o . . . q F  .Z ^ R.aX>.4.4.a.4.,.aXhX4X5 o ",
"  `.O qX~.fXs.p.>.4.f.=.t.g.6X#.< # -XH.X O X o o + X O < < O O . . . . . . . . . . . . . . 3 y p <.2.dXg.p.a.p.a.5.S.jXrXQ.X . ",
"  ^ V { 4X'.sX(.d.j.dXcX'.wXE.% @ F.6XL % @ X . . + . + . @ . + . + + # 4 5 M F K F M 4 + + X : A Z 8XQ.k.n.(.d.(.gXxXtX6X7 + 6 ",
"  ! j < @.0X:X].kX'.kXiXeXE.- r d >XOX- O + . + 8 M D W                                     D @ p k J $XwX`.).hXlXyXrX+X4 < 0   ",
"    U y 5 q K.#X4XqX6XQ.+.1 b : 9 2XK.K  .                                                      F 8 p f 2.@X7X9X6XOX1.X = $     ",
"      K 2 $ + + t < + . o # 5 K                                                                    .w u 8 $ O t > $ . @ 6       ",
"          W i $ $ + + w Y                                                                              .A 0 t 4 + $ F           ",
"                                                                                                                                ",
"                                                                                                                                ",
"                                                                                                                                ",
"                                                                                                                                ",
"                                                                                                                                ",
"                                                                                                                                ",
"                                                                                                                                ",
"                                                                                                                                ",
"                                                                                                                                ",
"                                                                                                                                ",
"                                                                                                                                ",
"                                                                                                                                ",
"                                                                                                                                ",
"                                                                                                                                ",
"                                                                                                                                ",
"                                                                                                                                ",
"                                                                                                                                ",
"                                                                                                                                ",
"                                                                                                                                ",
"                                                                                                                                ",
"                                                                                                                                ",
"                                                                                                                                ",
"                                                                                                                                ",
"                                                                                                                                ",
"                                                                                                                                ",
"                                                                                                                                ",
"                                                                                                                                "
};
