/* XPM */
static char *_3e06e75885748e7fc7689f155217062T05QimIpPJCoORJ0[] = {
/* columns rows colors chars-per-pixel */
"64 64 255 2 ",
"   c #B41B00",
".  c #AA2A00",
"X  c #BB2800",
"o  c #AA3900",
"O  c #B83900",
"+  c #C91C00",
"@  c #D91A00",
"#  c #E60C00",
"$  c #E61600",
"%  c #C32B00",
"&  c #CB2A00",
"*  c #C92600",
"=  c #DA2800",
"-  c #CD3200",
";  c #CB3A00",
":  c #C63900",
">  c #D93700",
",  c #E92600",
"<  c #E73800",
"1  c #FB370C",
"2  c #904B00",
"3  c #BA4600",
"4  c #AB5500",
"5  c #B56F00",
"6  c #906200",
"7  c #CB4C00",
"8  c #C74600",
"9  c #CA5902",
"0  c #D8530C",
"q  c #E54B00",
"w  c #FA4802",
"e  c #EC5E08",
"r  c #F95807",
"t  c #F85A18",
"y  c #D86604",
"u  c #D97908",
"i  c #DB7816",
"p  c #CC7D06",
"a  c #E7790A",
"s  c #F6780D",
"d  c #FE6811",
"f  c #E87A16",
"g  c #FE721C",
"h  c #FE7C1B",
"j  c #F67919",
"k  c #F46808",
"l  c #FF5F29",
"z  c #FF6729",
"x  c #EB7F20",
"c  c #FE7C2C",
"v  c #FB7824",
"b  c #F46F2E",
"n  c #B68903",
"m  c #B89B0C",
"M  c #BE9912",
"N  c #AB8E06",
"B  c #BFA718",
"V  c #CB8A07",
"C  c #DC840C",
"Z  c #D48B0C",
"A  c #DD8C0E",
"S  c #D78406",
"D  c #C2940A",
"F  c #CC930D",
"G  c #C89708",
"H  c #D4920E",
"J  c #DC960E",
"K  c #DC8514",
"L  c #DB8D13",
"P  c #D88918",
"I  c #CE9512",
"U  c #CB9A13",
"Y  c #C69D16",
"T  c #D49413",
"R  c #DB9314",
"E  c #DB9B15",
"W  c #D39C1B",
"Q  c #DC9C1A",
"!  c #D79817",
"~  c #CB8118",
"^  c #E3830C",
"/  c #E7870C",
"(  c #F5840C",
")  c #E3930C",
"_  c #E38513",
"`  c #EA8414",
"'  c #E48A14",
"]  c #EB8A13",
"[  c #E38C1B",
"{  c #EA8B1B",
"}  c #E8831C",
"|  c #F48C1B",
" . c #F88717",
".. c #E49315",
"X. c #E3941B",
"o. c #E39B1C",
"O. c #E99619",
"+. c #F5971A",
"@. c #F4930E",
"#. c #C3A213",
"$. c #CBAC1C",
"%. c #CAA419",
"&. c #D2A51C",
"*. c #DAA21D",
"=. c #D6AA1B",
"-. c #C5B019",
";. c #E5A21C",
":. c #F9A11C",
">. c #DD9B21",
",. c #DA9824",
"<. c #EA8A23",
"1. c #FC8323",
"2. c #FD832E",
"3. c #FF8B2D",
"4. c #F88A25",
"5. c #E89825",
"6. c #F4942B",
"7. c #FE942C",
"8. c #FA9727",
"9. c #FE8736",
"0. c #FF9B33",
"q. c #FF9539",
"w. c #FA9A35",
"e. c #E09C31",
"r. c #DCA324",
"t. c #D4AB23",
"y. c #DCAE22",
"u. c #D6A927",
"i. c #CEB422",
"p. c #CBB927",
"a. c #DAB42B",
"s. c #DDBB2C",
"d. c #D9B526",
"f. c #DCBE32",
"g. c #D9B735",
"h. c #CEAD28",
"j. c #E4A422",
"k. c #E4AB26",
"l. c #ECAB2A",
"z. c #EAA627",
"x. c #F7A829",
"c. c #E4B32B",
"v. c #EBB32C",
"b. c #E3BB2D",
"n. c #E6B925",
"m. c #F6B22C",
"M. c #FFAA35",
"N. c #FDA43C",
"B. c #FBA937",
"V. c #EBB432",
"C. c #E4BD32",
"Z. c #EABC32",
"A. c #E8B939",
"S. c #FDB334",
"D. c #FEB33E",
"F. c #FEBC3B",
"G. c #F4BB36",
"H. c #E9AF32",
"J. c #BDDC35",
"K. c #BCDE3A",
"L. c #BDD632",
"P. c #B3D22E",
"I. c #BEE33B",
"U. c #B8E439",
"Y. c #BAE229",
"T. c #B0D017",
"R. c #CBC82A",
"E. c #D4C22C",
"W. c #DDC32D",
"Q. c #D6CA2D",
"!. c #C6D62A",
"~. c #D7D52E",
"^. c #CDCB33",
"/. c #CECA35",
"(. c #DBC433",
"). c #D4CB34",
"_. c #DBCB35",
"`. c #DDC539",
"'. c #DCCD3A",
"]. c #D4C635",
"[. c #CCD435",
"{. c #C5DC35",
"}. c #CCDD36",
"|. c #CDD63A",
" X c #C5DD3B",
".X c #CCDC3A",
"XX c #C5D332",
"oX c #D3D435",
"OX c #DBD435",
"+X c #D2DA36",
"@X c #D9DA36",
"#X c #D4D53B",
"$X c #DAD53C",
"%X c #D2DA3B",
"&X c #DAD93C",
"*X c #E5C52D",
"=X c #E3C435",
"-X c #EAC435",
";X c #E5CC35",
":X c #E4C639",
">X c #EBC63A",
",X c #E4CC3B",
"<X c #EACC3D",
"1X c #EAC833",
"2X c #F7C539",
"3X c #E2D33C",
"4X c #E6D53B",
"5X c #F0C12D",
"6X c #C5E136",
"7X c #CAE136",
"8X c #C4E23C",
"9X c #CBE13C",
"0X c #D2E13C",
"qX c #DFE03D",
"wX c #C9ED34",
"eX c #E5E43C",
"rX c #FF8648",
"tX c #FF9747",
"yX c #FFAC44",
"uX c #FFAD4A",
"iX c #FFA444",
"pX c #FEB343",
"aX c #FDBC43",
"sX c #FFB64C",
"dX c #FABB48",
"fX c #FFAF54",
"gX c #FFBA53",
"hX c #FFB956",
"jX c #EBBC41",
"kX c #BDE542",
"lX c #CEDE41",
"zX c #C7DB40",
"xX c #DCD542",
"cX c #D2DE40",
"vX c #D3DC41",
"bX c #DCDB42",
"nX c #D7D846",
"mX c #EBCD43",
"MX c #E4CC42",
"NX c #FCC443",
"BX c #FFC44B",
"VX c #F7CA48",
"CX c #E4D442",
"ZX c #EAD342",
"AX c #E3DA44",
"SX c #E9D849",
"DX c #F6D448",
"FX c #FEC654",
"GX c #FDD758",
"HX c #C3E341",
"JX c #CBE341",
"KX c #C9E842",
"LX c #D3E243",
"PX c #D9E347",
"IX c #F8E953",
/* pixels */
"oX+X@X+X+X+X+X0X+X%X%XoXoX$XoXoX8X8X%X$XnX#XlX8X8XlX%XbX#XlX8XkXI. XvX$X#X#XlXJXlX|._.'.$XlXkXU.8X}.%X.X}.}..X.X.X%X.X.X.X%X}..X",
"+X+X0X0X0X}.7X{.}.}.9X%XcX%X#X|.zX XcX$X$X#X XzXlX XvX#XvXcXHX8XI.lXcX$X#X.X XzXlX.XoX'.#XlXK.U.8X}..X}.%X.X.X.X}.}..X.X.X.X.X.X",
"0X+X}.}.7X{.{.J.8XK.8X XHXlX.XlXHX X#XvX#XvX.X X XlX#X$X#X.XHXI. X XcXcXlX XK.I.HX X#XvXbXcX X X X.X.X.X.X.X.X.X.X.X.X.X.X.X}..X",
"{.!.}.7X X7X8X XKXJX X X{. XHXKX8XzX.X#XcX.XzXI. X.XvX$XxX%X XzX XcXcXlX.X X8X8X XlX.XcXcXcXlX9X.X%X}..X.X.X.X}..X.X%X}..X}.%X.X",
" X7XJX%X%X%X#X%XbXvXvXzXzXHXHXHX8X XlXcXzX.X8X XzX X#XxX$X#XlX XcXvX.X XzXHXJXJX X X.X X X|.#X%X%X.X.X%X}..X.X%X}..X.X}.}.%X}..X",
" X9X9XoXE.p.d.s.C.=XMXCXnXLXzXK.zX.X%X#X%XlXI.kXzX.X$X,X$X$X.X.XvXcX X X XHXcXvX%XlXlXzXzX.X#X$X%X.X.X}..X.X}..X.X.X.X%X.X.X.X.X",
"J. XvX].t.I R ..X.5.l.V.:XMXnXzX.XzX#XcX.XzXK.8X8X.XCX,X<X$X|. X#X|. XlXlX#X'.(.E.'.lXJXJXlX#X$X%X}..X.X}.%X}..X%X}..X.X.X}..X}.",
" XJXAX_.&.F A ] ^ / _ Q r.V.mXSXvXcX#X#XlX XkXI. X#X,X<X<X3X#XzX|..X XJXcXOXC.c.&.i.^. X X X|.oX%X.X.X.X.X.X.X.X.X.X}..X.X%X.X.X",
".X%X$X_.s.r.H S ^ ` { ' L R z.H.CX&X$X$XPX XJ.KX.XxX4X%.%.m ^.LX XJXJXcX$X>Xz.A A &.p.[.8X X|.vX%X.X.X.X}.%X.X.X.X.X}..X.X}..X%X",
"vXbXbXCX,X=Xc.c.Q Q R L K _ ..5.t.CXSXOX^..XHXJX%XOX>XU U m /.cXzXzXlX$X>Xm.+.^ A o.W.%XlX9X X%X.X.X.X.X}..X.X.X.X}.%X.X.X.X}..X",
"'.oXbXvX%XcX%X%X].E.a.*...' ` ' F b.mX'.^.lXHX XvX_.c.H F %.].oXJX8X%X$XZ.z.] ^ / z.:X$X.XJXJX X.X.X}..X.X.X}..X%X.X.X}..X%X.X.X",
"'.$XoX.X7X8XI.8XLXLX'.f.c.5...A E U y.<XAXcX X XbX:Xk.H R =._.&XJX9XxX>Xz.) ^ ] ..Z.ZX$X|.lXJX X.X.X%X.X.X.X}.%X.X}..X.X}.}..X.X",
"&X#X%X7X6XI.U.I.8X X%X3X<Xb.*.H R V *.>XZXvX X[.AX=XQ A R v.,XbX.XcX3XZ.Q Z J ;.c.<XCX#X|..XLX|..X.X.X.X.X.X.X.X.X}.%X}..X.X}.%X",
"+X}.}.}.{.6X8X8XJ. X.XPXAX'.p.=.V A v.5Xp.oXPX|.AXC.H A ..G.>X$X|.bX<Xc.R A *.s.OX&XbX#X|.|.cX X.X.X%X.X}..X.X.X.X.X.X.X.X.X.X.X",
"{.7X}.}.+X+X@XOX$X$X&X&X%X%X{._.R ..m.G.i.'.PXoX'.b.Z / ..F.>X$X#X$X-XQ H ;.=X].cX XlX.X#XcXcX%X.X.X.X.X}.}.}..X.X.X.X.X.X}.}..X",
"7X7X0X+X@X&XOXOX&X@XoX[.{.{.8X&XC.Z R F.b.).nXoX'.n.S ] ..F.<X%X$XMXc.Z A v.<X#XlX{. X%XbX#X#X.X.X.X.X}.}.8X.X|..X+X}.%X.X%X.X+X",
"0X@X@X+X@X@X}.!.{.7X7X6X7X7X}.+X@X$.P 5.5XW.oXbXnXm @.( a DXR.KXbX=XF o.x.m.2X_.oX+X&X+X@X+X}.%X.XlXJX8X8XKX8XI.8X}.+X%X+X+X+X+X",
"~.}.}.+X+X+X0X7X6X6X6X6X7X}.+X@X%XR.Q X.z.5XMXxXnX%.a s | BX#X{.ZXy.F l.F.v.-Xd.#.-.E._.OX@X+X{.%X#X.X X X8X8X8X7X}.+X+X+X+X+X+X",
"wX6X8X7X7X+X0X7X6X6X6X{.+X+X@X&X$X:Xz./ ] S.NX,X(.*.7 k 8.F.DX4XG.F &.5Xb.y.U J V H y.;X3X&X[.oXAX3XxX#X.X X.XJX.X.X+XoX+X+X}.}.",
"I.6XwX.X+X}.+X+X%X}.}..X}.+XOX$X,XmXm.J a 8.S.2X-XE % q | m.v.NX8.S v.b.-.%.V Z ..;.v.>X3X&XxXxX4X<XZXxX%X|.[..X.X%X%X+X+X+X}.{.",
" X X.X.X#X#XOXoXbX+X%X%X.X%X%XvX$XZX*X=.` f x.F.NXo.- = ( x.y 7./ @.S.m.G J J o.l.V.-X,XxXxX:XMXZ.V.>XZX4X$XoXcX+X%X+X+X7X}.6X6X",
" X.XoX_.3X;XZXZX3X&XbX%XvXcX#X#XnX3X~.n.{ f ..S.2X5.q & @.S.O h a :.m.:.J :.x.2X2X<XmX'.].h.W W *.W y.;XCX$X$X%X#X%X+X+X}.}.6X6X",
"CX,XE.a.y.c.Z.>X=X`.'.%XvX%XlX|.zX9X7XQ.,.K _ O.G.x.e % 8.pX% g @.m.:.@.x.:.m.>XSXmX`.g.,.T ~ p T G U s.3X$X$X%X+X#X+X+X+X}.7X6X",
"<Xf.&.F F H Q j.V.C.,X,XCXxX$X|. XJX%X].r.R ' ' dXBXf 8 0.yX* g :.2X) :.F.m.a.(.,Xf.u.! P P <.,.W m m p.OX#XoX%X+X%X+X+X}.}.{.6X",
"ZXf.t.I T R R P Z T W t.s.:X<XZX).$XMX>Xm.) ` 7.w.pXN.o x tX% g 2Xn.n.n.;.=.*XDXb.>._ a } <.<.W %.-.p.).[.|.|..X%X}.+X+X+X}.}.}.",
"CX`.a.&.I Z Z Z R T H I T W Q r.-X<XFXBXm.u 7 8 } gXpXo 3 b   tXx.2X2X=.=.G.2X;.Z ' { | <.z.jXDX(.].oXvX9X9X X9X7X%X+X%X+X+X+X+X",
"lXnXxX`.a.r.*.o.Q R L Z C C ' / O.C u 1.S.:.e - . j iX9 3 b - hXS.m.;.E O.+. .s  .( K T t.].xXnXbXxXcXlX9X XJ. X}.%X%X+X+X+X+X}.",
" XlXPXAX,X:X-XG.l.j.j.X...' ] ] / ( h 1.+. .v 9.8 O j tXX 0 - tXdX8.^ ] | s s  .k ` *.W.xXPXlX|.#X#XXX|. XJ.{.8X}..X+X+X+X+X+X+X",
"J.J..XvXxX,XMXZXmX>X-Xv.k.j.X.../ @.| f a a v tXtX; , rX% t * rX2.v h g d r q X o 9 p.PX9XL.XX}.$X$X#X.X.X9X XJX.X%X+X+X+X+X+X}.",
"lXzX.X#X#XvX$X$X&XxXxX<X,XZ.v.c.*.E V V o.| f f q.c 1 1 @ rX= l r q % * % % ; 7 ^ j.<X4X$XQ.OXeX'.'.$XnXcX X X.X}.}.+X+X+X+X}.}.",
"bXcX%X%X$X%X%X.X X X.X9X%XbX&XCX_.SXqXOXA.,.P [ i 9.1 # @ z $ # + = d tXfXiXD.FXF.m.;.) ) E J G y.i.].$X%X%X|.|.}.%X+X+X+X}.}.7X",
"|.|.#X#X%XbX%XJX8XI.U.K. X.X#XCXMXZXoX).VXfXN.w.y . @ # $ , @ < = d 9.v } B.aXV.2XF.F.S.m.:.:.;.G Y i.Q.&X%X.XLX}.}.+X+X}.+X7X{.",
"K.kXzXlXoX%X[.}.HXJ.P.PX/.SXA.o.8.f I ,.i c = = * r tXr # w sX1.  z c 2.P ,.<.[ o.5.t.y.m.D.F.S.F D #.W.&X+X{.9X8X}.}.%X.X.X.X}.",
"kXzXzX|.%X&X#X+XXX XIXE.M r.,.} k v w.} . % < l rXrXy . , w B.pX% < b 6.e.N.dXw.Q E Y Y Y W W I *.U =.Q.$X}.[.}.8X.X}..X%X%X}.%X",
"nXzX|.|.cX&X&X3XZX&.*.H 6.i 1.f 4.1.q X 9 tX9.9.c < 3 3 , < M.D.e > 9.P } } x.FXDXDX2X<X,X,X:X:XC.n.W.3X&X%X.X9X}..X}.%X.X%X.X.X",
"xX$X#X#X%X'.W.s.*.o.u  .4.y 7.1.y O % e q.sX9.c , * f iX< < M.yXd & j pX0.^ T y.*X1XeXOX#X#X$X3X<X4X3X@XPX0X7X9X.X.X}..X+X.X}..X",
"nXoX#X$X3Xs.=.J u +.s s j q.j 7 : 8 q.hXe.x g * : 4.gXgX< > } sXN.; ; N.M.x.1X%.d.*X@X@X7XwX0X@X@XOX&X%X}.{.{..X{.%X%X+X.X}..X.X",
"9X[.#X4X<X=.H Z O.u 4. .7.hX3 3 v tXfXe.w.a q X 3.pXpXyX+ < <.e.sX0.* q 8.l.=.4Xn.*X;X~.{.!.!.!.+X#X%X7X{..X X.X%X.X+X%X%X}.8X X",
"9X{.+X4X1X=.F F I I F.BXB.p 3 3.tXtXi i 3.. O N.aXz.x.hX+ t iX~ P gXr , +.;.n =.n.*X*XQ.[.0X0X+X+X%XLX9X9X7X9XLX%XoX+X%X.X.X{.8X",
"6X{.@XSX;X=.Y #.h.SX`.DXdX4 [ q.c b 2.x 3 o M.M.O.O.i iX- t x <.[ a 1.> 7 M.NXn m G G #.i.Q.@X#X{.}.9X9X8X{.9X}.%X%X%X+X%X}.8X6X",
"6X7X+X&XOX_././.nXnXnXmXdXB.1.j v c 9.O 2 pXM. . .u x.yXo g c v 3.u <.3.  q FXF.c.u.M I A G.=X&X0X9X7X{. X9X7X.X+X%X#X%X}..X8X6X",
"6X6X|.%X$X$XxXxXnXxXg.h.,.[ | 4.f f ; 3 z.aX] s  .] M.x.o 2.c c j 6.P P g % 7.gXdXVXaXK { C c.,X%X%X9X8X{.9X9X{.%X+X%X%X%X}.{.8X",
"U.I.6X XvXxXmXVXV.l.5.X.K K ^ ' 6.u 3 8.NX..+.^ T k.D.u O q.j 6.P <.,.i 1.e - 3.FXg.<.f 4.u Q A.'.#X%X%X8X7X9X|..X%X+XoX}..X7X X",
"U.I.8XLXxX`.H.z.] ` ` ` ' R Q Q G.H.5.VXS.p +.A $.:XaX3 9 pX} [ ,.,.5.<.i q.; : dXFXw.6.{ 6.i Q b.OX&X%X.X.X7X.X}.%X%X}..X7X.X.X",
"KXJXcX'.g.e.[ `  .j ` ' o.n.*X4X5XIX;Xd.2Xr.V *.g.MXBX2 U NXO.S ,.jX<.[ 6.f uXo 8 sXGXjXi e.' Z y.W.4X&X#X}..X{..X.X%X}.%X.X.X}.",
"AX'.g.u.Q P _ _ } } O.l.Z.;X4X4X~.~.qX~.4X:X=.A.xXxXmX6 E.=Xx.S %.GX,.P 6.i uX6.. 9 jXMXjXP ' [ *.d.;X4X#X.X.X6X8X|.}.%X.X.X.X.X",
"B.l.5.] _ K [ Q %.h.).&X&X4X~.!.wXT.eXIX[.#XMXSXnXnX`.m oXE.n.E a.mXg.W p 6.i hXw.4 n SXIX%.T A A =.;X4XoX+X.X}.}. X.X.X.X+X%X.X",
"<.| ] _ } 5.,.h.xX.X X{.{.@X4X~.Y.wX~.R.0XPX/.xXzXPX$XxX&XR.;X*X`.ZXmX,.,.u 7.4.FX5 2 h.g.MXz.S G =.-X<X$X}.}.8X.X7X.X}.%X.X%X+X",
"] / C L ! a._.bX#X X.X}.+XOXOX@X}.}.}.+X.X.X%X%X.X.X#X%X%X%XoX$X$XSXVXA.X.K _ { pXNXM N MXmXY *.n $.;X4XOXoX{..X}..X}..X%X.X%X%X",
"C / Q k.C._.oX%X}. X}.}.+X+X@XOX+X}.}..X%X.X}.%X.X.X.X.X.X.X%X}.zXnXmXA.z.X.[ X.k.VXg.].GXMXM n #.i.3X4X&XoXoXLX.X.X X.X}.%X%X%X",
"Z Q k.>XZXCX%X|.9X8X}.7X+X~.OX+X+X.X.X.X}..X.X.X.X.X.X.X.X.X}.}.|.nXCX>XH.5.L I W `.MXSXSX$Xp.h.p.W.4X@X&X+X%X0X.X}..X}.}.%X%X+X",
"v.C.-X<X$XbX.X.X.X8X6X{.7X}.}.+X%X.X}..X}..X.X.X%X.X.X.X.X.X.X.X XzXvX<XZ.y.T m M p.).xX#X$XCXCX'.OX@X&X#X%X.X0X7X X.X.X}.}.+X%X",
"CX3X$X$XoX|. X X X X6X6X7X}.{.}..X}..X}.}.%X.X}..X.X.X.X.X+X.X X X X%XxX,Xb.t.#.B p.lXPXvX#XxX).OX&XoXoX.X.X.X.X.X.X.X.X%X%X%X%X",
"vX%XcX%XcX.X.X.X}.7X X6X6X7X}.7X.X.X.X%X.X.X.X.X}..X.X}..X.X.X.XK.J..X%XCX4X(.R.^.[.LXJX.X.XlX[.&X&X%XoX[.}.}. X X.X}.}.}.%X+X%X",
".X8X9X9X.X9X.X.X.X.X.X.X7X8X6X.X}..X}.%X.X}..X.X.X.X}..X.X.X.X.XI.I..X.X&X3X$X$X#X}..X{.{..XLXLX%X+X.X}.}.}. X7X.X6X.X.X.X%X#X%X",
"HX8X8X X X|..X.X%X}..X.X.X.X7X{..X.X.X.X.X.X.X+X.X.X%X.X}..X.X}.wX8X X|.oXoX&X&X[.LX7X{.9X}.{..X[.}..X%X.X9X0XJX.X.X.X.X}.+X%X+X",
"I.I.8X{..X}.+X+X%X#X+X%X%X.X.X.X.X.X.X.X.X.X.X.X.X.X.X%X.X.X}..X8X{.}.}.+X+X+X+X+X+X}.7X.X}.}.}..X.X.X.X}.8X X7X.X.X.X}..X%X%X%X",
"I.I.6X8X.X}.%X&X&X+X&X#X%X.X.XlX}..X.X+X.X}..X.X.X.X}.}.}..X.X.X6X.X}.%X+X%XoX+X%X}.}.}.}..X.X}..X}. X7X.X}..X|..X7X}.}.%X.X%X}.",
"6X6X8X}.}.%X+X#X#X#X&X+X#X#X%X.X.X.X.X.X.X%X}.}.}.%X.X.X%X.X.X.X}.}.}.+X0X+X#X+XoX+X+X}.}.}.+X}.}.7X.X.X.X.X.X.X.X}..X.X%X.X}.%X",
"6X6X}.7X+X}.%X#X$X#X#X#XcXvX%XlX.X%X}..X.X.X.X.X.X.X.X.X}..X}.%X%X+X%X}.}.%X}.+X.X+X%X%X}.%X}.}..X.X.X.X}..X.X}..X.X.X.X}..X+X.X",
"7X}.7X}.}.%X%X%X%X#X%X#X.XlX|.cX.X%X.X.X.X.X}..X}..X.X}.}..X.X}.%XoX%X.X}.}..X.X.X%X#X%X#X.X.X.X.X}..X.X%X}.%X%X}.%X.X%X.X}..X.X",
"}.}.}.}.}.}.}.}..X.XlXlXlX|.zX.X.X.X.X.X.X.XoX.X.X.X.X%X.X%X.X%X%XvX.X.X X X X9X.X%X.X%X.XcX.X.X}..X%X%X.X+X+X.XoX}.%X.X.X.X.X.X",
"}.7X}.}.}.}..X.X X XlX XzX.XlX.X.X.X%X}..X.X.X.X%X}.}..X.X.X.X.X%X%X.X XzX X8XlX.XzX.XcXlX.X X.X%X.X%X%X%X%X+X%X%X.X.X%X.X}.}..X",
"~.~.}.}.}.6X.X9X X X.X XzXzXlX.X.X}..X.X.X.X.X}..X.X.X.X.X.X.X.X#XvXlX X8X8X8X8XzX.XlX#XzX.X.X.X.X+X%X+X%X%XoX+X%X%X%X.X.X}.}..X"
};
