/* XPM */
static char *d68060414a2d4272cce19def4ecf67caeJ1QAqngjsrAdaP9[] = {
/* columns rows colors chars-per-pixel */
"64 64 5 1 ",
"  c #E2DED0",
". c #DDD9CB",
"X c #EAE2DA",
"o c #EEE6DE",
"O c #EEEAE6",
/* pixels */
" .XXXoooooOOOOOOOOOO .OOOOOOOOOOOOOOOOOOOO. ooooooooooooXXXXXX. ",
" .oooooOOOOOOOOOOOOO .OOOOOOOOOOOOOOOOOOoo. ooooooooooXXXXXXXX. ",
" .ooOOOOOOOOOOOOOOOO .OOOOOOOOOOOOOOOOoooo. ooooXXXXXXXXXXXXXX. ",
" .OOOOOOOOOOOOOOOOOO .OOOOOOOOOOOOOOoooooo. ooXXXXXXXXXXXXXXoo. ",
" .OOOOOOOOOOOOOOOOOO  OOOOOOOOoooooooooooo. XXXXXXXXXXXXXooooo. ",
" .OOOOOOOOOOOOOOOOOO .OOooooooooooooooooXX. XXXXXXXXXXXoooooOO. ",
" .OOOOOOOOOOOOOOOOOO .ooooooooooooooXXXXXX. XXXXXXXXXooooOOOOO. ",
" .OOOOOOOOOOOOOooooo  ooooooooooooXXXXXXXX. XXXXXXXooooOOOOOOO. ",
" .OOOOOOOooooooooooo .ooooooooooXXXXXXXXXX. XXXXXXoooOOOOOOOOO. ",
" .OOoooooooooooooooo  ooooooooXXXXXXXXXXXX. XXXooooOOOOOOOOOOO. ",
" .oooooooooooooooooo        . ............. oooooOOOOOOOOOOOoo. ",
" .oooooooooooooooooo             .          ooooOOOOOOOOOOoooo. ",
" .oooooooooooooooooooXXXXXXXXX.  .XXXXooooooooOOOOOOOOOOoooooo  ",
" .ooooooooooooooooXXXXXXXXXXXX.  .XXooooooooOOOOOOOOOOoooooooo. ",
" .oooooooooooooXXXXXXXXXXXXXXX.  .ooooooooOOOOOOOOOOoooooooooo. ",
" .ooooooooooXXXXXXXXXXXXXXXXXX.  .ooooooOOOOOOOOOooooooooooooo  ",
" .oooooooXXXXXXXXXXXXXXXXXXXoo.   ooOOOOOOOOOOoooooooooooooooo  ",
" .ooooXXXXXXXXXXXXXXXXXXXooooo.   OOOOOOOOoooooooooooooooooooo  ",
" .oXXXXXXXXXXX....    .. ......        .. . ......oooooooooooo  ",
" .XXXXXXXXXXXX.                                  .oooooooooooX  ",
" .XXXXXXXXXXXX  ooooooooooooooXXXXXXoooooooooooo .ooooooooXXXX. ",
" .XXXXXXXXXXoo  ooooooooooXXXXXXXXoooooooooooooo .oooooXXXXXXX. ",
" .XXXXXXoooooo. oooooooXXXXXXXXXoooooooooooooooo .ooXXXXXXXXXX. ",
" .XXoooooooooo. ooooXXXXXXXXXXoooooooooooooooooo .XXXXXXXXXXXX. ",
" .oooooooooooo. XXXXXXXX                ooooooXX .XXXXXXXXXXoo. ",
" .ooooooooooXX. XXXXXXXX          ..... oooXXXXX .XXXXXXoooooo. ",
" ...   .. ..... XXXXXXXo  ooooOOOOoooo. oXXXXXXX .............. ",
"                XXXooooo  oOOOOOOooooo. XXXXXXXX                ",
"ooooXXXXXXXXoooooooooooo  OOOOOOoooooX. XXXXXXXooooooooooooooooo",
"ooXXXXXXooooooooooooooOO  OOOOoooooXXX. XXXXXooooooooooooooooooo",
"ooooooooooooooooooOOOOOO  OOoooooXXXXX  XXoooooooooooooooooooooo",
"ooooooooooooooooOOOOOOOO  ooooooXXXXXX  oooooooooooooooooooooooo",
"OOoooooooooooOOOOOOOOOOO  oooooooooooo  oooooooooooooooooooooOOO",
"OOOOOOooooOOOOOOOOOOOOoo  oooooooooooo  ooooooooooooooooooOOOOOO",
"OOOOOOOOOOOOOOOOOOOOoooo .oooooooooooo  oooooooooooooooOOOOOOOOO",
"OOOOOOOOOOOOOOOOoooooooo .oooooooooooo  ooooooooooooOOOOOOOOOOOO",
"                oooooooo .XXXXoooooooo  oooooooo                ",
" ... ..      .  ooooooXX .XXoooooooooo  ooooOOOO   . .. ....    ",
" .OOOOOooooooo  ooooXXXX ..... ..       oOOOOOOO  OOOOOOOOOOOO  ",
" .oooooooooooo. ooXXXXXX                OOOOOOOO  OOOOOOOOOOoo  ",
" .oooooooooooo. XXXXXXoooooooooooOOOOOOOOOOOOOOO .OOOOOOoooooo  ",
" .oooooooooooo  XXXXooooooooooOOOOOOOOOOOOOOOOOO .OOoooooooooo  ",
" .ooooooooooXX. XoooooooooOOOOOOOOOOOOOOOOOOOOOO .ooooooooooXX  ",
" .XXooooooXXXX. ooooooooOOOOOOOOOOOOOOOOOOOOoooo  oooooooXXXXX  ",
" .XXXXoooooooo.                                  .ooooXXXXXXXX  ",
" .XXXXXooooooo....   . .. .....             ......XXXXXXXXXXXX. ",
"  oooooooooooooooOOOOOOOOOOOOO.   oooooooooooooXXXXXXXXXXXXXXo. ",
"  ooooooooooooOOOOOOOOOOOOOOoo.   ooooooooooXXXXXXXXXXXXXXXooo. ",
"  oooOOOOOOOOOOOOOOOOOOOoooooo.  .oooooooXXXXXXXXXXXXXXXoooooo. ",
"  OOOOOOOOOOOOOOOOOOOOoooooooo.  .ooXXXXXXXXXXXXXXXXXoooooooOO. ",
"  OOOOOOOOOOOOOOOOOOoooooooooo.  .XXXXXXXXXXXXXXXXooooooooOOOO. ",
"  OOOOOOOOOOOOOOOOoooooooooooo.  .XXXXXXXXXXXXXooooooooOOOOOOO. ",
"  OOOOOOOOOOOOOOoooo             .          ooooooooOOOOOOOOOO. ",
"  OOOOOOOOOooooooooo        ............... oooooOOOOOOOOOOOOO. ",
" .OOOOoooooooooooooo  XXXXXXoooooooooooooo. ooOOOOOOOOOOOOOOOO. ",
" .Oooooooooooooooooo  XXXXXooooooooooooooo. OOOOOOOOOOOOOOOOOO. ",
" .ooooooooooooooooXX  XXXXooooooooooooOOOO. OOOOOOOOOOOOOOOOoo. ",
" .ooooooooooooooXXXX  XXXooooooooooOOOOOOO. OOOOOOOOOOOOOOoooo. ",
" .oooooooooooooXXXXX  XoooooooooOOOOOOOOOO. OOOOOOOOOOOOoooooo. ",
" .oooooooooooXXXXXXX  oooooooOOOOOOOOOOOOO. OOOOOOOOOooooooooo. ",
" .XXooooooooXXXXXooo  ooooOOOOOOOOOOOOOOOO  OOOOOOoooooooooooo. ",
" .XXXXooooXXXXXooooo  OOOOOOOOOOOOOOOOOOOO. OOOOoooooooooooooo. ",
" .XXXXXXooooooooooOO  OOOOOOOOOOOOOOOOOOOO. OoooooooooooooooXX. ",
" .XXXXXXXXoooooOOOOO  OOOOOOOOOOOOOOOOOOOO  ooooooooooooooXXXX. "
};
