/* XPM */
static char *_fdb1716c23e4d8c9992d57cf714c94c9avJ3gr7xwOQTABD[] = {
/* columns rows colors chars-per-pixel */
"64 64 4 1 ",
"  c black",
". c #F261E8",
"X c #00D9FF",
"o c #8AFDFF",
/* pixels */
"                                                                ",
"                                                                ",
"                                                                ",
"                                                                ",
"                                                                ",
"                                                                ",
"                                                                ",
"                                                                ",
"                                                                ",
"                                                                ",
"                                                                ",
"                                                                ",
"                                                                ",
"                                                                ",
"                                                                ",
"                                                                ",
"                                                                ",
"                                                                ",
"                                                                ",
"oooooooooooooooooooooooooooooooooooooooooooooooooooooooooooooooo",
"XXXXXXXXXXXXXXXXXXXXXXXXXXXXXXXXXXXXXXXXXXXXXXXXXXXXXXXXXXXXXXXX",
"oooooooooooooooooooooooooooooooooXoooooooooooooooooooooooooooooo",
"oooooooooooooooooooooooooooooooooXoo............ooo.............",
"oooooooooooooooooooooooooooooooooXoo.oooooooooo.ooo.oooooooooooo",
"oooooooooooooooooooooooooooooooooXoo.oooooooooo.ooo.oooooooooooo",
"oooooooooooooooooooooooooooooooooXoo.......oooo.ooo.oooooooooooo",
"oooooooooooooooooooooooooooooooooXoo.ooooo.oooo.ooo.........oooo",
"oooooooooXXXXXXXXXXXXXXXXXXooooooXoo.ooo...oooo.ooooooooooo.oooo",
"oooooooooXooooooooooooooooXooooooXoo.ooo.oooooo.ooooooooooo.oooo",
"oooooooooXooXXXoooXXXXooooXooooooXoo............ooooooooooo.oooo",
"oooooooooXooXXXoooXooXooooXooooooXoo.oooooooooooooooooooooo.oooo",
"oooooooooXooooXoooXoXXXXXXXooooooXoo.oooooooo......oooooooo.oooo",
"oooooooooXXXXXXXXXXXXooooooooooooXoo.oooooooo......oooooooo.oooo",
"ooooooooooooooooooooXooooooooooooXoo.oooooooo......oooooooo.oooo",
"ooooooooooooooooooooXooooooooooooXoo.oooooooo......oooooooo.oooo",
"ooooooooooooooooooooXXXXXXXXoooooXoo.ooooooooooooo.oooooooo.oooo",
"oooXXXXXXoooooooooooXooooooXoooooXoo.ooooooooooooo.oooooooo.oooo",
"oooXXXXXXooooooooooXXXoooooXoooooXoo...............oooooooo.oooo",
"oooXXXXXXooooooooooXXXoooooXoooooXooooooooooooooooooooooooo.oooo",
"oooXXXXXXooooooooooXXXoooooXXXXXXXooooooooooooooooooooooooo.oooo",
"oooXXXXXXoooooooooooooooooooooooooooooooooooooooooooooooooo.oooo",
"oooXXXXXXoooooooooooooooooooooooooooooooooooooooooooooooooo.oooo",
"ooooooXoooooooooooooooooooooooooooooooooooooooooooooooooooo.oooo",
"XXXXXXXooooooooooooooooooooooooooooooooooooooooooooo...oooo.oooo",
"ooooooXooooooooooooooooooooooooooooooooooooooooooooo...oooo.oooo",
"ooooooXooooooooooooooooooooooooooooooooooooooooooooooo.oooo.oooo",
"ooooooXooooooooooooooooooooooooooooooooooooooooooooooo.oooo.oooo",
"ooooooXoooooooooooooooooXXXX....oooooooooooooooooooooo.oooo.oooo",
"ooooooXXXXXXXXXXXXooooooXXXX....oooooooooooooooooooooo.oooo.oooo",
"ooooooXooooooooooXooooooXXXX....oooooooooooooooooooooo.oooo.oooo",
"ooooooXooooooooooXoooooooXooo.oooooooooooo..................oooo",
"ooooooXooooooooooXoooooooXooo.oooooooooooo.XoXXooXX.oooooooooooo",
"ooXXXXXooooooooooXXXXXXXXXooo.oooooooooooo.oXXXXXoX.oooooooooooo",
"ooXooooooooooooooXooooooooooo.oooooooooooo.oXXXXXoX.oooooooooooo",
"ooXoooooooooooXXXXooooooooooo..............XXXXXXXX.oooooooooooo",
"ooXoooooooooooXoooooooooooooooooooooooooooooooXoooo.oooooooooooo",
"ooXooXXoooooooXoooooooooooooooooooooooooooooooXoooo.oooooooooooo",
"ooXXXXXoooooooXoooooooooooooooooooooooooooooooXoooo..........ooo",
"ooooooXoooooooXoooooooooooooooooooooooooooooooXooooooooooooo.ooo",
"ooooooXoooooooooooooooooooooo.........ooooooooXooooooooooooo.ooo",
"ooooooXoooooooooooooooooooooo.XXXXXX.XXXXXooooXooooooooooooo.ooo",
"ooooooXoooooooooooooooooooooo.X...X..XXooXXXXXXXXXXXoooooooo.ooo",
"ooooooXooooooooooooo..........XXX.X..XoXoXooooXooooXoooooooo.ooo",
"ooooooXooooooooooooo............X.X..XooXXooooXooooXoooooooo.ooo"
};
