/* XPM */
static char *_ea45ccca14b4762c3ad59c2fb4921e2UUPgxFdqce20oHS2[] = {
/* columns rows colors chars-per-pixel */
"64 64 4 1 ",
"  c black",
". c gray1",
"X c #FF00C4",
"o c white",
/* pixels */
"oooooooooooooooooooooooooooooooooooooooooooooooooooooooooooooooo",
"oXXXXXXXXXXXXXXXXXXXXXXXXXXXXXXXXXXXXXXXXXXXXXXXXXXXXXXXXXXXXXXo",
"oXXXXXXXXXXXXXXXXXXXXXXXXXXXXXXXXXXXXXXXXXXXXXXXXXXXXXXXXXXXXXXo",
"oXXXXXXXXXXXXXXXXXXXXXXXXXXXXXXXXXXXXXXXXXXXXXXXXXXXXXXXXXXXXXXo",
"oXXXXXXXXXXXXXXXXXXXXXXXXXXXXXXXXXXXXXXXXXXXXXXXXXXXXXXXXXXXXXXo",
"oXXXX                 X                  X        .........XXXXo",
"oXXXX                 X                  X      .......... XXXXo",
"oXXXX                 X                  X       ......... XXXXo",
"oXXXX                 X                  X       ..........XXXXo",
"oXXXX                 X                  X       ..........XXXXo",
"oXXXX                 X                  X       ..........XXXXo",
"oXXXX                 X                  X       ..........XXXXo",
"oXXXX                 X                  X       ..........XXXXo",
"oXXXX                 X                  X       ..........XXXXo",
"oXXXX                 X                  X       ......... XXXXo",
"oXXXX                 X                  X       ......... XXXXo",
"oXXXX                 X                  X       ..........XXXXo",
"oXXXX                 X                  X       ..........XXXXo",
"oXXXX                 X                  X       ..........XXXXo",
"oXXXX                 X                  X       ..........XXXXo",
"oXXXX                 X                  X       ......... XXXXo",
"oXXXX                 X                  X       ..........XXXXo",
"oXXXX                 X                  X       ......... XXXXo",
"oXXXXXXXXXXXXXXXXXXXXXXXXXXXXXXXXXXXXXXXXXXXXXXXXXXXXXXXXXXXXXXo",
"oXXXX                 X                  X       ..........XXXXo",
"oXXXX                 X                  X       ..........XXXXo",
"oXXXX                 X                  X       ..........XXXXo",
"oXXXX                 X                  X       ..........XXXXo",
"oXXXX                 X                  X       ..........XXXXo",
"oXXXX                 X                  X       ..........XXXXo",
"oXXXX                 X                  X       ......... XXXXo",
"oXXXX                 X                  X       ......... XXXXo",
"oXXXX                 X                  X       ..........XXXXo",
"oXXXX                 X                  X       ..........XXXXo",
"oXXXX                 X                  X       ..........XXXXo",
"oXXXX                 X                  X       ..........XXXXo",
"oXXXX                 X                  X       ..........XXXXo",
"oXXXX                 X                  X       ..........XXXXo",
"oXXXX                 X                  X       ......... XXXXo",
"oXXXX                 X                  X       ......... XXXXo",
"oXXXX                 X                  X       ..........XXXXo",
"oXXXX            .    X                  X       ..........XXXXo",
"oXXXXXXXXXXXXXXXXXXXXXXXXXXXXXXXXXXXXXXXXXXXXXXXXXXXXXXXXXXXXXXo",
"oXXXX      .. .. .    X                  X       ..........XXXXo",
"oXXXX     ..... .     X                  X       ..........XXXXo",
"oXXXX   ..... ........X......            X   ..............XXXXo",
"oXXXX...... .. .......X..............    X....   ......... XXXXo",
"oXXXX.................X..................X................ XXXXo",
"oXXXX.................X..................X.................XXXXo",
"oXXXX.................X..................X.......... ......XXXXo",
"oXXXX.. .   ..........X..................X.................XXXXo",
"oXXXX. ..  ...........X..................X............. . .XXXXo",
"oXXXX ................X..................X............     XXXXo",
"oXXXX ................X..................X..............   XXXXo",
"oXXXX.................X..................X...........      XXXXo",
"oXXXX.................X..................X...........      XXXXo",
"oXXXX.................X..................X...... ...       XXXXo",
"oXXXX.................X..................X.....  ..        XXXXo",
"oXXXX.............. ..X..................X. ... ..         XXXXo",
"oXXXX.  ........... ..X.......  .........X. ..  ..         XXXXo",
"oXXXXXXXXXXXXXXXXXXXXXXXXXXXXXXXXXXXXXXXXXXXXXXXXXXXXXXXXXXXXXXo",
"oXXXXXXXXXXXXXXXXXXXXXXXXXXXXXXXXXXXXXXXXXXXXXXXXXXXXXXXXXXXXXXo",
"oXXXXXXXXXXXXXXXXXXXXXXXXXXXXXXXXXXXXXXXXXXXXXXXXXXXXXXXXXXXXXXo",
"oooooooooooooooooooooooooooooooooooooooooooooooooooooooooooooooo"
};
