/* XPM */
static char *b0202fef2dc54030d1e043d5afae0ff87lrVk3PBA5WgsRfO[] = {
/* columns rows colors chars-per-pixel */
"64 64 5 1 ",
"  c black",
". c gray1",
"X c #00FFF2",
"o c #57F9FF",
"O c white",
/* pixels */
"OOOOOOOOOOOOOOOOOOOOOOOOOOOOOOOOOOOOOOOOOOOOOOOOOOOOOOOOOOOOOOOO",
"OXXXXXXXXXXXXXXXXXXXXXXXXXXXXXXXXXXXXXXXXXXXXXXXXXXXXXXXXXXXXXXO",
"OXXXXXXXXXXXXXXXXXXXXXXXXXXXXXXXXXXXXXXXXXXXXXXXXXXXXXXXXXXXXXXO",
"OXXooooooooooooooooooooooooooooooooooooooooooooooooooooooooooXXO",
"OXXooooooooooooooooooooooooooooooooooooooooooooooooooooooooooXXO",
"OXXoo                 o                  o        .........ooXXO",
"OXXoo                 o                  o      .......... ooXXO",
"OXXoo                 o                  o       ......... ooXXO",
"OXXoo                 o                  o       ..........ooXXO",
"OXXoo                 o                  o       ..........ooXXO",
"OXXoo                 o                  o       ..........ooXXO",
"OXXoo                 o                  o       ..........ooXXO",
"OXXoo                 o                  o       ..........ooXXO",
"OXXoo                 o                  o       ..........ooXXO",
"OXXoo                 o                  o       ......... ooXXO",
"OXXoo                 o                  o       ......... ooXXO",
"OXXoo                 o                  o       ..........ooXXO",
"OXXoo                 o                  o       ..........ooXXO",
"OXXoo                 o                  o       ..........ooXXO",
"OXXoo                 o                  o       ..........ooXXO",
"OXXoo                 o                  o       ......... ooXXO",
"OXXoo                 o                  o       ..........ooXXO",
"OXXoo                 o                  o       ......... ooXXO",
"OXXooooooooooooooooooooooooooooooooooooooooooooooooooooooooooXXO",
"OXXoo                 o                  o       ..........ooXXO",
"OXXoo                 o                  o       ..........ooXXO",
"OXXoo                 o                  o       ..........ooXXO",
"OXXoo                 o                  o       ..........ooXXO",
"OXXoo                 o                  o       ..........ooXXO",
"OXXoo                 o                  o       ..........ooXXO",
"OXXoo                 o                  o       ......... ooXXO",
"OXXoo                 o                  o       ......... ooXXO",
"OXXoo                 o                  o       ..........ooXXO",
"OXXoo                 o                  o       ..........ooXXO",
"OXXoo                 o                  o       ..........ooXXO",
"OXXoo                 o                  o       ..........ooXXO",
"OXXoo                 o                  o       ..........ooXXO",
"OXXoo                 o                  o       ..........ooXXO",
"OXXoo                 o                  o       ......... ooXXO",
"OXXoo                 o                  o       ......... ooXXO",
"OXXoo                 o                  o       ..........ooXXO",
"OXXoo            .    o                  o       ..........ooXXO",
"OXXooooooooooooooooooooooooooooooooooooooooooooooooooooooooooXXO",
"OXXoo      .. .. .    o                  o       ..........ooXXO",
"OXXoo     ..... .     o                  o       ..........ooXXO",
"OXXoo   ..... ........o......            o   ..............ooXXO",
"OXXoo...... .. .......o..............    o....   ......... ooXXO",
"OXXoo.................o..................o................ ooXXO",
"OXXoo.................o..................o.................ooXXO",
"OXXoo.................o..................o.......... ......ooXXO",
"OXXoo.. .   ..........o..................o.................ooXXO",
"OXXoo. ..  ...........o..................o............. . .ooXXO",
"OXXoo ................o..................o............     ooXXO",
"OXXoo ................o..................o..............   ooXXO",
"OXXoo.................o..................o...........      ooXXO",
"OXXoo.................o..................o...........      ooXXO",
"OXXoo.................o..................o...... ...       ooXXO",
"OXXoo.................o..................o.....  ..        ooXXO",
"OXXoo.............. ..o..................o. ... ..         ooXXO",
"OXXoo.  ........... ..o.......  .........o. ..  ..         ooXXO",
"OXXoooooooooooooooooooooooooooooooooooooooooooooooooooooooooooXO",
"OXXooooooooooooooooooooooooooooooooooooooooooooooooooooooooooXXO",
"OXXXXXXXXXXXXXXXXXXXXXXXXXXXXXXXXXXXXXXXXXXXXXXXXXXXXXXXXXXXXXXO",
"OOOOOOOOOOOOOOOOOOOOOOOOOOOOOOOOOOOOOOOOOOOOOOOOOOOOOOOOOOOOOOOO"
};
