/* XPM */
static char *_ebdca453d89414491278ea8589b25b28OETxHSf68EWyvYL[] = {
/* columns rows colors chars-per-pixel */
"64 64 4 1 ",
"  c black",
". c gray1",
"X c magenta",
"o c #FF8CFF",
/* pixels */
"XXXXXXXXXXXXXXXXXXXXXXXXXXXXXXXXXXXXXXXXXXXXXXXXXXXXXXXXXXXXXXXX",
"XoooooooooooooooooooXooooooooooooooooooooooXoooooooooooooooooooX",
"Xo                 oXo                    oXo                 oX",
"Xo                 oXo                    oXo                 oX",
"Xo                 oXo                    oXo                 oX",
"Xo                 oXo                    oXo             .   oX",
"Xo                 oXo                    oXo    ..........   oX",
"Xo                 oXo                    oXo     .........   oX",
"Xo                 oXo                    oXo    ..........   oX",
"Xo                 oXo                    oXo    ..........   oX",
"Xo                 oXo                    oXo    ..........   oX",
"Xo                 oXo                    oXo    ..........   oX",
"Xo                 oXo                    oXo    ..........   oX",
"Xo                 oXo                    oXo    ..........   oX",
"Xo                 oXo                    oXo    ..........   oX",
"Xo                 oXo                    oXo    ..........   oX",
"Xo                 oXo                    oXo                 oX",
"Xo                 oXo                    oXo                 oX",
"Xo                 oXo                    oXo                 oX",
"Xo                 oXo                    oXo    ..........   oX",
"Xo                 oXo                    oXo    ..........   oX",
"Xo                 oXo                    oXo    ..........   oX",
"XoooooooooooooooooooXooooooooooooooooooooooXoooooooooooooooooooX",
"XXXXXXXXXXXXXXXXXXXXXXXXXXXXXXXXXXXXXXXXXXXXXXXXXXXXXXXXXXXXXXXX",
"XoooooooooooooooooooXooooooooooooooooooooooXoooooooooooooooooooX",
"Xo                 oXo                    oXo    ..........   oX",
"Xo                 oXo                    oXo    ..........   oX",
"Xo                 oXo                    oXo    ..........   oX",
"Xo                 oXo                    oXo    ..........   oX",
"Xo                 oXo                    oXo    ..........   oX",
"Xo                 oXo                    oXo    ..........   oX",
"Xo                 oXo                    oXo    ..........   oX",
"Xo                 oXo                    oXo    ..........   oX",
"Xo                 oXo                    oXo    ..........   oX",
"Xo                 oXo                    oXo    ..........   oX",
"Xo                 oXo                    oXo    ..........   oX",
"Xo                 oXo                    oXo    ..........   oX",
"Xo                 oXo                    oXo    ..........   oX",
"Xo                 oXo                    oXo    ..........   oX",
"Xo                 oXo                    oXo    ..........   oX",
"Xo                 oXo                    oXo    ..........   oX",
"Xo               . oXo                    oXo    ..........   oX",
"Xo                 oXo                    oXo                 oX",
"Xo         .. .. . oXo                    oXo    ..........   oX",
"XoooooooooooooooooooXooooooooooooooooooooooXoooooooooooooooooooX",
"XXXXXXXXXXXXXXXXXXXXXXXXXXXXXXXXXXXXXXXXXXXXXXXXXXXXXXXXXXXXXXXX",
"XoooooooooooooooooooXooooooooooooooooooooooXoooooooooooooooooooX",
"Xo   ..............oXo .................. oXo..............   oX",
"Xo   ..............oXo .................. oXo..............   oX",
"Xo   ..............oXo .................. oXo....... ......   oX",
"Xo   .. .   .......oXo .................. oXo..............   oX",
"Xo   . ..  ........oXo .................. oXo.......... . .   oX",
"Xo   ..............oXo .................. oXo.........  ..    oX",
"Xo   ..............oXo .................. oXo...........      oX",
"Xo   ..............oXo .................. oXo........         oX",
"Xo   ..............oXo .................. oXo........         oX",
"Xo   ..............oXo .................. oXo... ...          oX",
"Xo   ..............oXo .................. oXo..  ..           oX",
"Xo   ..............oXo .................. oXo.. ...           oX",
"Xo   ..............oXo .................. oXo.  ...           oX",
"Xo                 oXo                    oXo                 oX",
"Xo                 oXo                    oXo                 oX",
"XoooooooooooooooooooXooooooooooooooooooooooXoooooooooooooooooooX",
"XXXXXXXXXXXXXXXXXXXXXXXXXXXXXXXXXXXXXXXXXXXXXXXXXXXXXXXXXXXXXXXX"
};
