/* XPM */
static char *_613568633463[] = {
/* columns rows colors chars-per-pixel */
"64 64 155 2 ",
"   c #1C1D1A",
".  c #221E1D",
"X  c #22221E",
"o  c #2C2A26",
"O  c #2F2F2C",
"+  c #302F26",
"@  c #332D29",
"#  c #33332C",
"$  c #353633",
"%  c #383730",
"&  c #3A3A34",
"*  c #3E3D3B",
"=  c #423F39",
"-  c #434336",
";  c #43433C",
":  c #49443F",
">  c #4A4C3E",
",  c #474741",
"<  c #4D4643",
"1  c #4D4B43",
"2  c #4D4D4A",
"3  c #504D43",
"4  c #534E4B",
"5  c #4F5146",
"6  c #525245",
"7  c #55524B",
"8  c #5A544D",
"9  c #5C594D",
"0  c #565551",
"q  c #5B5651",
"w  c #5C5A54",
"e  c #5D5B5A",
"r  c #605D4D",
"t  c #615553",
"y  c #615B55",
"u  c #645E5A",
"i  c #695E5C",
"p  c #5C6050",
"a  c #5F6059",
"s  c #646156",
"d  c #6B6B57",
"f  c #65625C",
"g  c #6B655D",
"h  c #66685C",
"j  c #6B695D",
"k  c #736A5F",
"l  c #656463",
"z  c #6B6561",
"x  c #676863",
"c  c #6C6B64",
"v  c #6C6C69",
"b  c #706661",
"n  c #716D64",
"m  c #726D69",
"M  c #6E7065",
"N  c #6F706A",
"B  c #747165",
"V  c #7F7662",
"C  c #75736C",
"Z  c #7B756D",
"A  c #7C796E",
"S  c #6F7472",
"D  c #767671",
"F  c #7B7672",
"G  c #777872",
"H  c #7D7A74",
"J  c #7D7E7B",
"K  c #867D67",
"L  c #807772",
"P  c #827D74",
"I  c #887E73",
"U  c #837E7A",
"Y  c #897F7A",
"T  c #7E8174",
"R  c #7F807B",
"E  c #848175",
"W  c #8D8474",
"Q  c #84837C",
"!  c #8A847D",
"~  c #8C897E",
"^  c #908777",
"/  c #90827B",
"(  c #928B7E",
")  c #999079",
"_  c #858581",
"`  c #8B8682",
"'  c #878882",
"]  c #8D8B83",
"[  c #8C8789",
"{  c #868B89",
"}  c #8C8C8A",
"|  c #908784",
" . c #938C84",
".. c #9A8F84",
"X. c #938E8A",
"o. c #998F8C",
"O. c #8E9087",
"+. c #8F918B",
"@. c #949186",
"#. c #9A9387",
"$. c #94928B",
"%. c #9A958C",
"&. c #96988D",
"*. c #9C988E",
"=. c #959492",
"-. c #9B9692",
";. c #979890",
":. c #9C9A94",
">. c #9D9D9A",
",. c #A09286",
"<. c #A3958C",
"1. c #A39C8D",
"2. c #A09692",
"3. c #A29C94",
"4. c #AA9E94",
"5. c #A29E9A",
"6. c #A89F98",
"7. c #9FA195",
"8. c #A3A196",
"9. c #ABA296",
"0. c #A5A29C",
"q. c #AAA59C",
"w. c #A6A89D",
"e. c #ACA99E",
"r. c #B2A297",
"t. c #B4A69C",
"y. c #B3AE9F",
"u. c #A49EA0",
"i. c #A5A5A3",
"p. c #AAA6A1",
"a. c #A7A8A3",
"s. c #ACAAA3",
"d. c #ABACAA",
"f. c #B1ACA4",
"g. c #B2ADA9",
"h. c #B8AFA8",
"j. c #AFB1A7",
"k. c #AFB0AA",
"l. c #B3B1A6",
"z. c #B8B3A5",
"x. c #B5B2AB",
"c. c #B9B4AC",
"v. c #B6B8AF",
"b. c #BBBBAF",
"n. c #B5B5B4",
"m. c #BBB7B2",
"M. c #B7B8B1",
"N. c #BCBAB4",
"B. c #BCBCBB",
"V. c #C1BEB5",
"C. c #C2BDB9",
"Z. c #BFC0BD",
"A. c #C3C2B7",
"S. c #C0C1BA",
"D. c #C9C4C0",
/* pixels */
"Q D G C G x N x G H R Q :.0 N N G v D Q O.j z a D ;   x v _ >.=._ D G N G c v x D J R _ :.7 v S D v D Q O.d z s D ;   l v { >.=.",
"$.` _ ' } _ R H { _ $.w.7.v n.i.} U ] i.8.W ~ v O.+.$ ;.d.+.-.-.X.[ Q ] [ _ R H ] Q +.w.7.v n.i.} R { i.8.W ! c ] +.& :.d.+.=.=.",
"] U C _ 0.R ] Q G R ] 7.7.l d.i.D :.F =. .q.( A } G 2 7.=.` ] o.] Q F _ 7.R { Q D Q ' 7.7.l d.d.G :.G -. .q. .A O.G 2 7.$._ ] o.",
" .F C F O._ } D Z v T &.>.x d.} { 6.` 3.-.3.~  .G O.v >.:.X.'  . .F m F +._ O.G G c Q &.7.l d.} { 0.! 3.3.3.~ ] G O.c >.>.X.` } ",
"! F H H H ] G Z H G R T +.S d.:.=.=.} q.q.0.;.w.! 8.+.*.$.Q | ! ! F P H H ] H Z H H Q R } D d.:.=.=.X.0.0.0.=.w.Q 8.$.*.#.! | ` ",
"L ` ~ ] #.q.1.%.H H N H J 2 >.g.0.0.=.6.p.f.} } G M f &.-.3.q. .F ! ! ] $.q.3.#.A H c H J 2 7.l.5.u.-.s.0.f._ ] H N f $.-.:.q. .",
"b z 8 C F z Z z 7 8 w a M ~  .#.Q Q T R % z ~ 7.] Q Q N G w B 9 b z q G H j Z z 7 7 w s M Q ( #.Q Q P c q c &.i.] Q R C C 9 m w ",
"q.a.d.j.0.g e...#.P ( #.1.y.w.8.] E O.i., w.$.$.:.#.~ ~ ~ ] :.*.e.w.s.d.0.g q...,.E ] #.1.y.w.8.] E $.N _ 8.O.$.*.$.~ ~ ]  .3.%.",
"8.+.+.] Q g 9.<.t.( ! ..1.1.e.w.q.@.#.:.s 8.$.~ @.$.]  .$.#. .@.0.O.$.] ~ g 8.1.t.~ Q ..1.1.e.w.w.) @.x +.8.#.] @.#.]  .@.#.O. .",
"7.;.' Q ] B e.9.9.~ ~ ( 9. .1.8.e.@.%.~ H w.&.:.3.*.9.0.w.*.@.:.0.&._ _ ] n e.9.9.~ ~  .9. .1.8.s.@.&.a 7.8.$.*.7.*.3.w.q.*.@.:.",
"7.O.Q O.#.E s.4.1.s.*.3.9.8.e.q.x.:.s.n &.v.8.8.8.8.w.9.3.%.:.3.7.O.Q O.$.E s.4.1.s.*.3.9.9.y.w.x.:.j.9 a.x.8.w.8.9.w.9.:.*.*.9.",
"&.] @.@.8.@.9.9.p.e.p.w.l.e.q.8.M.x.C.8 w.A.l.y.e.l.l.8.l.e.3.#.&.~ O.@.8. .9.9.e.q.e.q.l.w.q.:.b.v.A.6 w.Z.x.e.e.l.l.8.l.e.3.$.",
"a c 9 ; : > I B W 6 3 7 y 7 > q w q o . $ * 0 g j C H H Q B f 8 w j 8 ; ; - g 9 d d s y y 6 : 8 - X . X $ * 0 f z C F L Q A g w ",
"x.C.6.n C E W P Q 7  .Z #.N.f.*.P =.C.2 [ _ $.f.4._ X.o.$.K 2.3.0.l.3.n n P W E E @.( Z #.V.f.-.A P 5.1 [ [ :.g.h.$.-.:.0.) f.s.",
"x.g.o.n 0.q.A 3.@.h 4.! P ..3.h.-.p.d.< S =.X.2.2.` ` :.3...5.3.6.:.` v q.q.Z -.3.c.3.! P ..3.g.%.0.g.2 [ i.i.6.2.5.>.g.f.9.f.g.",
"k.a.Q %.:.! y 3.! y 3.%.L / #.3.] o.n.0 J =.:.` ..X.=._ -.2.%.=.0.:.F %.s.q.P o.-.4...3.L / #.4.] $.m.e } i.g.3.0.i.p.>.p.h.p.p.",
"i.d.c :.p.F t F Q j 3. .Z  . .] Z $.d.0 D o.] ` o.=.X.[ [ :.=.} =.7.f :.f.$.Q ` C ] .. .Z  ...] Z X.g.e _ 4.>.=.5.i.5.u.>.a.p.u.",
"i.k.0 :.0.H z b H n q.#.L  .! W F 6.o.w l J J U G _ _ [ _ +.=.' =.7.7 :.3.U m U / ..Q $.H  .Q W H 6.o.l J =.+.o.' -.=.>.-.u.d.=.",
"} :.& H H v z w Z 3 c E Z u w y 4 m z 4 l q w z z c U ` ] X._ Q { :.* J H m l g F m z E Z y y y 4 m f 2 v i l m v m Y ` ] =.' R ",
">.} >.>.>.>.J ] =.>.} :.w 3.%.q.0.q.%.2.` U 4 F w i 2.m _ n.d.>.>.} 7.=.>.:.J ] =.5.} 7.q #...3.6.9.X.-.! F < m 4 q X.c _ n.d.>.",
"0.d.i.a.i.a.a.i.n.n.n.N.w 3.4.t.X. .o. .o.| L o.X.' g.4 { d.i.d.u.k.i.i.i.a.a.0.n.n.n.N.q  .o.<.P L ! P Q U b Y U F 5.< [ d.i.i.",
"u.p.q.p.:.0.i.i.B.B.n.B.e q...<.o.P F D z o.| } o.-.g.4 d.d.i.=.>.i.p.i.:.0.a.i.B.N.M.Z.w %.P / ! b z f 8 Y P H _ } 2.2 d.i.i.=.",
"=.i.x.:.-.=.w.>.B.d.i.n.g 0.-.] ..F F H m o.X.3.o.X.u.l >.i.i.=.=.p.g.:.:.=.i.>.B.a.i.n.f #.X.Q ! b z m i Y Y  .U U -.e u.i.i.>.",
";.f.s.p.q.p.=.=.d.i.i.B.f :.:.%.q.<.o.X.! ] o.2.H :.>.l { d.d.a.=.f.f.p.p.p.=.=.k.i.i.B.u ] $.( <. .Q P Z F U ` v ` [ e { i.d.i.",
"$.:.z.w.f.q.0.i.8.j.e.l.7 :.q.f.q.t.0.%.#.%.%. .%.H ~ h ] :.7.w.$.7.z.e.f.q.0.p.0.s.s.y.6 $.%.*.%.*.@.` ! ! Q E ! j Z s ] 7.8.w.",
"5 > 9 M h v B ~ ~ @.A Q s Q O.@.H f g 3 f E H C M d n 3 s c G h 1 > 9 n j c B Q ~ @.A ~ f Q ] ] Z w f 1 s E A C j j j 1 a x D h ",
"Q ] q.w +.5.X.X.:.$.:.8.a.s.a.e.5.H M.5.} >.&.7.:.p.c.l.5.$.X.U Q ] p.e $.5.$.O.-.$.:.5.s.p.s.w.>.F m.2.} :.&.>.:.p.x.x.3.=.O.Q ",
"F } p.f :.>.` ! ] U ] *.3.3.%.s.p.3.B.w.' &.] &.@. .3.%.-.[ _ C G ] a.f :.:.] _ ` U  .-.:.3.*.l.p.3.N.i.] $.O.#. . .9.$.:.] Q C ",
"m H :.v 6.:.F F Q Z ` F 3.<.4.4.q.4.c.6.=.0.] 3.$. .3.P Q C F t m F 3.v 5.*.Z F Q F ` F 9.%.4.3.q.4.x.0.$.0. .3.o. .4.P U m F e ",
"m H -.F $.%.z H ] U !  .-.#.9.#.X.X.6.f.X.%.q.x.3.f.e.H L z t i m H :.F $.:.g H ] Q U X.-.<.9.#.@.#.i.f. .%.q.x.3.s.p.H P z t i ",
"z U 6.] ] F t z c P F o.3.1.q.3.%.%.` s.3.q.V.f.q.q.9.U F u i z z U 0.!  .F t z b P F #.*.8.9.3.o.*.` p.3.q.N.f.q.q.6.U F u i z ",
"F ] #.c Q f m b F Z Y ` %.*.#.@.P ^ j f u P  .E H A G Z m w q z F ] #.v U f m b Z Z Y ~ *.#.] ..P ^ g u f E ~ E E A F Z m w q z ",
"_ F D C G x v f N J R _ :.7 v D G v D Q O.G c s D ,   x v _ >.=.Q G G C D x v x D J R _ 7.0 D G G c G _ ] 9 a 7 N ;   x v _ >.+.",
"X.' Q _ O._ R J ] _ &.w.>.v n.q.} R ' 0.9.e.~ v ] +.& :.d.+.=.-.o.` Q _ [ _ R H ] Q +.w.>.v d.:._ J Q i.:.V A a T _ & :.d.+.=.:.",
"] U C _ 7._ ] _ G R ] 7.7.l d.a.G :.F -.] z...G } G 2 5.=.` ' o.] U D _ 7.Q { Q G Q ' 7.7.l >.=.l  .l } ! 1.! G Q x 5 7.$.` } $.",
" .H D G O._ ] Z D v T =.>.l d.} [ i.` :.3.8.~ ] G O.c 5.:.} ` X. .H F F +._ ] G G v T $.7.l >.G S $.Z ]  ...E Q s { c >.:.X.' X.",
"! F P F H ] Z Z H G Q Q +.N k.>.+.=.X.6.w.w.$.w.Q 0.$.*.#._ `  .Y F H U H ] E F H H H Q +.C a.@.R _ [ %.$...&.0.Q 8.$.:.$.` ` ! ",
"F ! !  .#.e.3.$.H H v G H 5 7.d.i.i.=.g.0.N.] ] G B f $.%.7.q.| ! 3.#.:.*.e.w.3.L H N H R 2 :.l.>.5.-.>.:.q.} ] G N s $.=.4.q. .",
"v z 0 C G z Z h 2 8 w a M W O.@.Q Q H P % x _ 7._ H T N C 9 B q Z c w H :.7 P B y w a a M Q ~ #.Q Q H Q & x _ 0.] Q Q N G q m q ",
"e.w.d.g.0.z t.#.,.I ( %.1.y.e.7.] E @.0.1 7.Q Q ] ~ A G H E @. .3.0.:.5.] n y.,.r.E ~ #.1.y.w.8.] E @.0., 0.#.&.:.#.~ ~ ~  .3.%.",
"8.O.&.{ ~ d 9.<.t.( Q ..1.1.e.w.w.( #.:.w &.~ Q ] ~ E P E ! E P @.T R J D g 9.1.t.~ ! ..1.1.e.w.w.( #.:.a 8.#.] @.#. .] @.#.@. .",
"0.;.' R { M e.9.9.~ ~ ( 9...1.9.e.@.*.3.x &.Q ~ ( ! @.&.%.~ P  .O.Q H D H j e.9.9.~ ] / 9. .1.8.e.@.*.] T w.$.*.:.*.3.w.q.*.@.:.",
"7.] Q O.@.E s.4.:.s.*.4.0.9.e.8.z.:.e.q.M 9.@.@...@.#.@.~ Q ~ $.&.H D G Q E e.4.1.s.*.3.9.9.e.q.x.:.a.B &.x.8.q.8.8.w.8.3.*.*.8.",
"$.~ O.#.w. .9.9.e.w.e.w.l.e.w.:.m.s.M.b.j Z.e.8.1.8.3. .0.%. .P E Z T ~ 8. .9.q.p.p.e.w.l.w.q.3.b.e.x.9 w.Z.x.e.y.l.l.9.l.e.3.$.",
"u c 9 = & @ 7 3 9 - 1 7 y 7 3 < w , # @ o O 2 s f c m Z L v y 8 w c q ; * + 6 ; 1 ; 3 7 9 3 : : , , & X $ * 0 f z C H L Q Z g w ",
"x.C.6.n f V Z A Z 7 ( Z #.N.f.%.H >.V.4.Q } :.c.f.X.-.:.p.4.f.d.x.C.0.n f n B B C 5 E g ! f.1.| C #.m.2 [ } -.g.f.X.-.:.0.3.f.s.",
"x.g.o.v 0.q.A 8. .h 3./ P ..3.h.%.q.D.:.o.u.0.3.p.>.:.g.f.e.g.g.x.g.o.s #.$.s X.] s ( Z k W ( 6.! $.>.2 [ i.p.-.6.3.>.g.g.f.f.g.",
"j.d.U %.3.Q y 3.! y 6.#.L ! #.3.] %.s.i.>.i.d.3.6.p.p.>.s.f.p.p.k.d.Q ! ! Z 4 o.E 7  .E i L I ( Z Q g.0 } i.g.:.6.i.p.>.s.h.p.p.",
"i.d.v :.p.F t L Y g 3. .Z  . .~ F X.:.2.>.q.>.=.5.i.5.u.>.p.p.5.a.d.z ` %.m t F Y y  .P g P P Z g Y 0.e _ 6.>.-.5.u.u.u.>.p.p.u.",
"i.k.0 :.5.U z z H n 0.%.L  .! ! F p.] _ J =.o.+.] =.=.>.=.i.i.>.i.&.0 ] } P z z H j X.W g I L C n X.] e J o.+.+.] -.-.>.=.i.i.;.",
"] :.& P J v c w H 1 k E Z u y y 4 m c u m z l m m m ` ` ` X.{ _ { ! $ H P m z w Z > j C k y y w 4 m l 4 m l l m v m ` ` ] $.{ Q ",
"=.} >.>.>.;.J ] =.>.[ :.w 3.%.9.6.q.%.-.` L 4 F w u :.v { n.i.>.>.} >.>.>.-.J ] =.>.[ >.w 2.%.6.q.q.%.2.| L 4 F w i :.c _ n.d.>.",
"i.k.q.i.0.a.i.0.n.n.g.B.w 3.3.y.X.| #.X.o.| L X.o.` g.4 } d.i.i.u.k.i.i.i.a.a.0.n.n.g.N.w 3.3.t. .| $.X.o.` L X.o.` g.4 [ d.i.i.",
"u.i.w.p.>.0.i.i.B.B.N.S.w e. .<.#.L L F z o. . .$.-.p.0 d.d.i.=.>.a.0.a.:.0.a.i.B.B.N.Z.e q...<.o.P L C z o.| X.o.:.d.4 d.d.i.=.",
"=.p.l.>.-.=.i.>.B.d.u.n.z 6.-. ...L F H m %.X.3.o.X.p.i u.i.u.>.=.q.x.:.-.=.i.>.B.d.i.n.z q.-.] ..L F H Z o.X.3.o.} i.l u.i.i.=.",
"=.j.p.p.p.w.:.=.k.u.i.B.l :.:.%.q.-.o.X.! ` X.:.H >.:.l { i.d.i.=.f.s.s.p.i.;.=.d.i.i.B.f :.:.%.q.2.o. .Y ] X.:.H :.>.l { i.d.i.",
"@.3.z.e.f.q.5.a.7.j.e.l.6 7.w.s.q.f.w.#.$.$.%.@.%.A ~ z ~ 7.0.w.#.7.z.e.y.q.0.i.0.s.s.l.6 7.q.e.p.f.w.%.&.$.#. .%.H ~ g ] 7.7.w.",
"5 > w b h M B ~ ~ @.A ! s Q ]  .Q w z 7 f Q H C B j n 3 a z G l 1 1 9 n h n B ~ ~ @.A ~ a E @.] Q w x 7 g E H G B j n 3 s x G h ",
"Q { q.w $.7.X.} =.$.:.>.s.p.s.w.>.J m.2. .>.$.7.*.a.x.l.7.=.X.J Q ] i.e $.5.} X.-.$.:.>.a.s.p.w.>.H N.2.] >.&.:.;.p.x.l.3.=.O.Q ",
"H ] i.l :.>.` ` ] U  .-.3.3.%.f.q.3.B.i.] $.O.&.@.] 0.%.:.] _ C G } q.f :.:.] _ ] U  .%.3.3.*.f.e.3.N.0.] $. .&.@.] 0.%.:.} Q C ",
"n H 2.v 3.:.C F Q F ! Z 8.<.4.3.9.6.c.6.$.9.~ 3.@. .3.Y U C F t m L :.v 0.-.C F Q F ` F 3.<.3.4.q.9.x.0.$.0.] 3.X...4.P Y m F w ",
"v H >.F %.-.z P ' U ! X.*.%.9.#.$.@.p.f.$.*.q.c.3.y.q.H H i t i v H :.D $.*.z H ] U U o.:.,.9.#.X. .q.f...%.q.x.3.p.p.P H z t i ",
"l U 6.~  .F t z m L Z $.:.1.q.1.o.%. .p.-.w.N.l.q.q.0.Y F u i z z U 9.~  .F y z b P F #.*.4.q.3.o.*.` p.:.q.N.f.q.0.6.U F u i z ",
"Z  .#.c U i m b Z L ! ~ %.3. .@.P W g f f P ] E P A A C m w w i F  .%.c U i m b L Z Q ~ %.*.@.@.P ^ z f f E  .E P H L C m w w z "
};
