/* XPM */
static char *_a38a5e4b8004f088dbc089004742548qhzaGY1lcXIjdpou[] = {
/* columns rows colors chars-per-pixel */
"64 64 156 2 ",
"   c #3F3A33",
".  c #433C35",
"X  c #4C453D",
"o  c #4E4740",
"O  c #524B44",
"+  c #5B4E42",
"@  c #554E48",
"#  c #5D5346",
"$  c #575049",
"%  c #5C544C",
"&  c #5F584E",
"*  c #5E5750",
"=  c #5F5850",
"-  c #625346",
";  c #61574B",
":  c #63594E",
">  c #695B4D",
",  c #655C52",
"<  c #6A5E53",
"1  c #676056",
"2  c #6B6155",
"3  c #6D645A",
"4  c #706457",
"5  c #71665A",
"6  c #736A5D",
"7  c #796C5E",
"8  c #7F725F",
"9  c #756C61",
"0  c #796E62",
"q  c #777065",
"w  c #7C7264",
"e  c #7E7568",
"r  c #7F786B",
"t  c #806F5D",
"y  c #82735F",
"u  c #827564",
"i  c #8A7766",
"p  c #867866",
"a  c #897967",
"s  c #817769",
"d  c #89776A",
"f  c #857A6C",
"g  c #8B7D6C",
"h  c #907E6D",
"j  c #867D71",
"k  c #8A7F71",
"l  c #907F74",
"z  c #8E806E",
"x  c #91826E",
"c  c #8D8273",
"v  c #8E8578",
"b  c #938573",
"n  c #988776",
"m  c #968976",
"M  c #998A76",
"N  c #928679",
"B  c #958A7B",
"V  c #9A8D7B",
"C  c #9D917E",
"Z  c #A28D77",
"A  c #A28F7C",
"S  c #A1927F",
"D  c #978E80",
"F  c #998E81",
"G  c #9D9283",
"H  c #9F9689",
"J  c #A18F81",
"K  c #A29583",
"L  c #A59986",
"P  c #A89A86",
"I  c #A19689",
"U  c #A59A8B",
"Y  c #AA9D8C",
"T  c #A69E91",
"R  c #A99F91",
"E  c #ADA18E",
"W  c #B0A28E",
"Q  c #ADA494",
"!  c #AFA595",
"~  c #AEA694",
"^  c #ADA596",
"/  c #AEA697",
"(  c #ADA392",
")  c #AEA799",
"_  c #AEA699",
"`  c #B1A693",
"'  c #B1A795",
"]  c #B2A795",
"[  c #B1A797",
"{  c #B1A593",
"}  c #B2A996",
"|  c #B3AA96",
" . c #B4A996",
".. c #B9AC97",
"X. c #B2A799",
"o. c #B1A898",
"O. c #B3A998",
"+. c #B0A99A",
"@. c #B2AB9A",
"#. c #B5AB98",
"$. c #B4AB9B",
"%. c #B3AB9C",
"&. c #B5AD9D",
"*. c #B6AC9C",
"=. c #B7AE9D",
"-. c #B5AB9A",
";. c #B8AF9D",
":. c #B9AD9C",
">. c #B8B09D",
",. c #B9B09F",
"<. c #BBB19E",
"1. c #B7AFA1",
"2. c #B7AFA1",
"3. c #B9AFA1",
"4. c #B9AFA1",
"5. c #BBB1A0",
"6. c #BAB2A1",
"7. c #BBB3A2",
"8. c #BDB3A2",
"9. c #BCB4A2",
"0. c #BBB3A4",
"q. c #BDB4A5",
"w. c #BCB5A6",
"e. c #BEB7A7",
"r. c #BCB3A2",
"t. c #BFB8A7",
"y. c #BFB7A9",
"u. c #BFB7A8",
"i. c #C1B6A4",
"p. c #C4B9A6",
"a. c #C1B7A8",
"s. c #C2BAA9",
"d. c #C1BAAB",
"f. c #C4BBAC",
"g. c #C2BCAC",
"h. c #C4BBAC",
"j. c #C8BFAE",
"k. c #C6BFB0",
"l. c #C7BFB0",
"z. c #C8BFB1",
"x. c #CBC1AF",
"c. c #C7C0B0",
"v. c #C8C1B2",
"b. c #CCC4B3",
"n. c #CBC4B5",
"m. c #CBC3B3",
"M. c #CEC7B9",
"N. c #CEC7B9",
"B. c #D1CABB",
"V. c #D1CBBC",
"C. c #D2CBBC",
"Z. c #D1C8BA",
"A. c #D4CEC0",
"S. c #D7D0C4",
"D. c #D9D3C4",
"F. c #DCD6C9",
/* pixels */
"1 3 9 6 r w 2 2 2 2 5 6 e z v v c G c c D H ^ H ) @.&.%.@.@.@.1.@.E E w.^ Q Q Q F V B V U U V V v c v c f H f s e w 9 3 ; 2 ; ; ",
"2 3 6 3 s 2 # < 3 0 w 6 w e c v z B r z B H Q ^ E &.1.w.t.E w.^ E H ~ t.^ ~ U H ! I V B I T b v v v c c j b N z s w f 7 : ; ; ; ",
"= 2 3 , - - X > 4 r 6 q q q B v c q r c B B B ) } 9.t.n.<.c.<.>.~ L @.t.@.H ~ G ( U G D G H N N B D v B D f B g f s s s : > ; > ",
", , , 1 > 7 4 ; 8 z q w z q v c r f r v v G Q ^ ( @.9.V.V.B.t.c.>.~ } v.9.C ~ Q 4.I I F H H H G B B v B B v B g N f s p 5 2 2 - ",
"$ X % q 3 4 6 5 8 w 6 6 6 w B v c c c B B I ( :.L ( | b.B.t.i.>.} P 5.v.@.E U U 3.M b K G H H G C v m B v v v f N j d p < 5 2 + ",
"O % 1 3 2 2 w q w r r q r q B v c z j v N V / / L C W <.c.9.c.<.W i.:.h.@.( ( U [ h i n G D G H v v v m c z f z m v g y < 4 < - ",
"  o , , 2 w s q 4 7 q q r 6 c v B c c v B C ' ( ..M E >.c.b.i.W W s.6.h.6.=.@.Y :.V B V G G F G v c z v c c f p N g u 7 - > > > ",
". O 3 , 3 6 s w 6 6 r j z 6 c c D B B B B C $.I L b b ` i.b...W E 6.g.i.t.6.9.9.5.Y V g G G U G B B z B r z r f b c y 8 - 2 4 < ",
"  O , < 3 0 s 0 7 6 q v e 6 c v G F G G v G T G E x b W <.j.8.{ ( 6.M.s.g.3.$.2.=.I Z h I K I G B c B b c f f N b b s w 7 4 > 2 ",
"o @ $ @ : < 9 5 6 6 q r c z c B B B G G D G U G U K M E i.j.8.X.@.9.0.} 6.@.} 6.6.[ A n G G H C g f c v j c g m b g g p p w 2 < ",
". @ @ $ * < 9 5 4 4 8 z j v c G F G G I N I R I E L Z 9.j.p.i.{ ( 9.' ( $.Y =.=.[ $.U K I G I U B N b N c v c B b b z u b f 7 7 ",
"O @ , , , < 3 9 < 4 q q q c v C D V G U I R U I ~ ~ S <.b.x.:.{ E <.$.Y @.( @.Y ' [ U U U B G Y G G c c v N N b c b b u c z p 8 ",
"* @ * * , < 3 0 : 6 6 r r c c H U I G U U T Q H ~ ~ C ( f.j.4.4.<.>.=.Y -.} ( @.' 2.Y Y Y B U Y H I c z N f j j N b g f z N z e ",
"$ * * * , 1 9 9 1 6 3 1 q r v U I T G U T ^ Q F } E S ( f.a.i.W -.<.9.-.=.( / ( $.:.W W Y K L Y G C B c b c c c c c g c z B z f ",
"O * * , , 3 , 3 3 6 3 1 9 j c H G U U H T _ +.G ~ E E #.a.4.f.X.9.<.:.Y ( ( ( L ( ] { I Y I A I I b m B l g N j g c c g f c w g ",
"* , , * , 6 : , 3 9 9 3 q c v D B H U U Y / ^ U U ~ ~ >.f.X.a.4.]  .E E Y ( U { { Y { Y R I K I K V N b l j g k c b c z s g g c ",
"3 < 9 = = 3 % % 9 9 9 9 9 j v v v F I T _ _ 2.T U ( X.X.a.i.i.X.$.' / E E E E E ] { W P P I K A K V l g M z g B c N g f p d g c ",
"1 , 1 1 , $ % % < 9 9 9 9 e v D v D T T T 2.q.T R X.{ :.a.4.X.X.' } ( E } / E E P W I S M S A M P K B V b f g G c c c d p w d b ",
"3 9 3 1 , # % , 9 9 9 9 3 r r j v D I H H _ w._ W R X.4.i.4.4.4.5.0.<./ -.<.U ~ K P Y P A V M Y U K K n c c v V b k d g g y a a ",
"1 q 3 3 0 6 6 2 9 w q 9 q e j j j v H F T T _ _ ..R X.a.a.a.i.i.i.n.v.E 6.9.Y E K V K S n P S W K K K V c b v F b g g b x y x z ",
"1 9 9 9 e j 0 3 0 f e 9 e j v s f l I I T T _ T X.4.4.X.a.z.z.i.s.b.b.m.x.<.E Y K I S S n h M S I b P V C b z B b p x M x x h x ",
"3 q 3 6 r j 0 , 5 e q q q s j j j F R H F T T T X.4.4.X.z.z.Z.a.b.Z.z.Z.x.i.] E Y S P S x x M M W V Y Y C b z C B x x b b x n x ",
"9 9 q 0 r e 0 < 5 e r r q j j j l D I F F I I T X.4.z.a.z.z.z.Z.b.Z.$.z.b.p... .E P S S M c P E Y I L Y C C C G b m b M M V V x ",
"9 3 3 9 5 s 0 0 9 e j e e l e v D v D D F F D H I J 4.f.Z.S.S.S.Z.4.U m.x.p...E W S W W C E E E Y K L Y L C G L x M M x S Z S x ",
"1 2 3 6 q 0 2 7 w e e w u j j D l r D D F v I T T X.2.2.Z.A.A.F.D.M.5.b.j.i.<.{ P V W  .Y P U G H E E H C M C c b M x z M b V x ",
"3 6 q 6 d w 2 2 6 g e c j N f l j j l v D D T I H _ R T f.Z.f.Z.A.M.^ u.m.j.s.( P S { ] E L G C C S B C M m b z b b b b M M M x ",
"2 q q 8 w 5 < > 7 f j c k v j v j j j v F F H H T X.X.T Y X.X.f.m.C.4.h.m.j.v.' I P Y ] Y L I G E C L C C C v b b z b b x m C x ",
"3 3 9 q d 5 9 6 w s d j c c j N D v l l F T R H _ R I I Y R X.q.0.z.f.l.m.z.h.;.Y W W Y P L U L E B C C V C z b z x x b M M C x ",
"3 2 9 w s s s s w f e k N N k N D D N N I X._ F R R F F I X.X.4.i.z.z.s.z.j.f.6.R { Y P L L ~ ~ ~ E H S b B C M b m b m M S C M ",
": , 5 9 s s s 0 s c d c D F c N l D D N T 2._ H I R N N J R 4.a.a.z.z.j.h.s.a.$.$.Y P P K { } #.#.E L E m C C C C M M M M P V b ",
", 3 3 6 e u s u s v f D F G B F F l D D I 2.R H J I l l J I X.f.z.z.j.:.i.0.u.@.' K K L I ` E ..~ E E E L M C S S S C M C S A b ",
"1 2 5 6 9 2 0 s s g c B B I H B F l D D I 2.2.I J N l d R J X.a.d.f.s.5.4.0.3.5. .K K E ] >.>.#.` E E E S S C L L S P S C S A b ",
"& 3 3 6 e 3 & 6 r r B v H H H B l B I F I U R I J l d J J J W f.l.g.a.R -...i.a.' G I Y :.<.i.:.' ' ' Y P S S L L L K C V M C x ",
"1 q 6 r r z 6 e c c c c B D B c N F I Y U U U J l J n J J Y X.j.l.f.a.R -.-.i.4.3.U Y Y { $.5.:. .' ] ( K P P L L L L L m M n b ",
"1 q 6 6 r v r z c e z r v B D v D H U U R R R l N J J Y J W :.z.l.f.0.K -.4.4.-.$.T { ( ' { :.:.:.]  .{ P Y K P L L L S M M x b ",
"1 6 6 q r V c c v z 6 r j B H B H F I R { X.R P J J P W Y 4.p.z.l.f.2.Y E :.:.X.' Y Y R { { :.:. .] ] ..W W K L L K S S V M M b ",
"& 1 6 q r G v C C c r r e v V B F H H ' X.X.:.X.I J X.X...4.i.z.z.a.-.E { X.{ -.( Y Y Y Y { $.@.' $.' :...E L K K K S V B A M b ",
"% 1 6 q q c C D B c r q 6 v B v F U T $.:.{ i.X.R R 4.a.4.:.i.z.f.4.:.{ W E ( { ( Y { ( Y { ' / ' ' -.:. ...{ E K C K V S M M M ",
"$ 3 6 q 3 v C G B z 8 q q B N v H ! ' X.X.X.i.X.W { i.a.:.:.i.j.f.i.i.X.i.E W X.[ { $.' U ' @.! ! / ' -.$.{  .E L C S S V V V M ",
": : 2 e z c H H B r z r e v c f N Y ( ' { :.4.R P X.:.X.......i.i.i.{ :.X...X.:.:.' $.' { / } ~ T ' ( $.Y W { E P L K K C M M V ",
"1 1 % 6 q b G v e f f r e f f r N I K Y { 0.3.Y W X.:.{ X.{ ....i...:.i.<.:.:.i.-.X.:.:.~ / ~ ( U E ( ( ( E T ( U L S P K S m M ",
"& & & w w z v c 9 q q e e f f r N V N Y X.5.4.] X.{ i.{ { W W W i.:.i.p.i.i.:.4.i.{ :.[ E E E E E ( U E Y Y Y Y L I I P K S V M ",
"& , 5 8 5 s s 6 2 6 s w q s v f b B U ' { ] :.:.X.W P R Y P J W :.i.i.i.i.4.:.i.4.$.{ ! E L Y ( ~ U U Y L L U Y Y U Y P K V S b ",
"# 1 5 4 7 w w 6 w c j q 9 f b z c b Y ( $.$.i.X.{ P P ( Y l J W i.i...X...i.<.<.<.] ] R U L U E E ( Y U L G I G L L K K K K S b ",
"% < 0 0 7 0 d q e e r 9 q c B d N K P U { 3.3.$.{ P W { W S S ..i.:.......:.i.:.<...] Y Y Y U Y U E G L V G K K U J A V b S S V ",
"% : 4 u u u g s 6 q q q 7 v G B N F K Y ' :.' E Y ] W W W W W >.:.:.i.<.<.:.<.i.;...:.E E E ( E E Q U G V B K K J F b n b B n b ",
": , < 7 w d g f 6 r z e q s F B g b F Y Y { ' { W  . .S W  .W i.i.i...{ :.i.X... . ...{ ( E E E ~ E U G G B F K V b l b b h B b ",
"< < 4 5 u w c c 6 z q f s e c c u k V K Y Y { ' ..W { P S Y ` >.{ ..<.:...:.W W W ..{ W W { E ( ~ E E L V n F n V b g n g b b b ",
", < 9 s u u d b 0 k 6 e q q j d 9 v C C H E E | E E | E S W | ..W ..9.>...>...S ..>.>.S | S S | E U E I V V V V V k h b k h b g ",
", 9 t k g g j N k e 3 6 0 0 s w j C C B C C E E ~ W ~ W A V W W | ........>.....S S S | S | S S E E L C b C F V b l h b b b g g ",
"5 u b l k k b b N f 9 0 s s f s B C C B C C E ~ | E W W S E E W W | ..W >...S S S Z S S S S S | E E L S n V G M h g d g g b N d ",
"0 f N B c b N N k b 5 d z f z x C C S H L H E E E L W E E W S A S W | | >.S | S C Z S S ` S S S S L S V M B S M d i d h d b x u ",
"d j b b c b B c v g 6 p N c c b C B C C S S S E | ` E ~ E S C M W ` | S S ..| S C M C C S S S C M M M M z b n M h g h d b b x g ",
"d k k N k j c g c m w w B c r B v B C C L S | ~ E E E E E C m m S S ` S | S S S M M x M S S C M b z M M y z b n x x d d x x g i ",
"j N z c b d j c b B q p w w z v v C C S Y L E E P E E E S M b m M C W S S S x z x z x x Z Z M x x x M b a y M S n b b h g h u u ",
"N c g b g u d N f B z f f c b v B C C C C E E E E S L L C x x b m Z S C Z x z z z z z Z x x m x z x b x p y x C M M C n M x i u ",
"c c g c s p z v b N z z w v b r m C C S E E U E L L L C M x z g m M M C z x z y z z z x x x x m x m x m z p c c n M C b M x g u ",
"z f c z w p f c c v b v p z c v m c C C L L E U L L K C x a d b m M m m x z x x z z z x Z x x M m m x b p z z z a h a g x h a y ",
"z f c c w w e c m v z z f f f m v b v C C S L L C C S C m b z x z M M m x x x x M z x z x x M M x b b b p p p p a u a a a a u y ",
"c c g s 8 f r z m z c c c z p b b b m C C C C S C C C b b g p p z m C m x x x M M m M z z x M Z M m M z y z z p u a p a a a i u ",
"r z r e 8 e f z c z c z z z f z b b m m C C C C C C M b z p z y z x C M x x x M M M x z z b m C C b m z z 8 p p y p y a x z y a ",
"f f e w e f z z c z f f p w w z c z C m B C C C C M C z p p x z z z b x x b M x M x z z z b M m M b z b c z 8 p y y z z a a u y ",
"z r e e r z q r c z f f g s f p r p c C C m m C C C C z y z z 8 y z b x b b y x m z z z z z x b x z z z z z y p 8 p a a p a y u ",
"r e 8 8 p p w r z z f s p p f z f z z m m v m V m M M z p z p p p b M M b M y x z z z z z z z z z z y z m z p p p 8 a z y p y y "
};
