/* XPM */
static char *_613569422218[] = {
/* columns rows colors chars-per-pixel */
"64 64 54 1 ",
"  c #9C9591",
". c #A59F9C",
"X c #ACA59D",
"o c #A5A3A2",
"O c #A9A5A2",
"+ c #ADAAA5",
"@ c #AEACA9",
"# c #B1ACA6",
"$ c #B2AEAA",
"% c #B8AFAA",
"& c #B5B2AD",
"* c #B9B4AD",
"= c #BBB6B2",
"- c #BDBAB4",
"; c #BEBCB8",
": c #C2BCB6",
"> c #C3BEB9",
", c #C3C1B7",
"< c #C5C2BC",
"1 c #C9C4BE",
"2 c #CCC8BF",
"3 c #D0C7BE",
"4 c #C6C4C1",
"5 c #CBC6C1",
"6 c #CECAC4",
"7 c #C8C7CB",
"8 c #CFCCC9",
"9 c #D2CCC6",
"0 c #D3CEC9",
"q c #D6D0C7",
"w c #D6D1CC",
"e c #D9D4CE",
"r c #DDD8CF",
"t c #D1CDD0",
"y c #D6D4D1",
"u c #DBD6D1",
"i c #DED9D4",
"p c #D6D5DA",
"a c #D9D7DA",
"s c #DDDBD9",
"d c #E1DBD6",
"f c #E3DED9",
"g c #E5E1DC",
"h c #E9E3DE",
"j c #DDDCE3",
"k c #E3DEE0",
"l c #E6E2E1",
"z c #EAE5E1",
"x c #EDE9E4",
"c c #EFECE8",
"v c #F1EAE6",
"b c #F2EDE8",
"n c #F6F1ED",
"m c #F9F2ED",
/* pixels */
"ftifeteddd0eud30tkuukzfkhddd0ue3ddt333ktt3heu3:3dk3d3kukdk0hek3e",
"k0skeu9uueeeduuu=33uuhzhhuzhddd0k33t3tde33hddu3kkdeh3kduhhhdhdkf",
"ku0eeeuuuudkdhdk3t3t3kfhkdhdddduk3dttdedetdtte>eeuefddd0kdhk3ehk",
"dazdueutek3kuu3u3tt3thd0dkdhkdudut33eku30ehuuut00kedkdduddkdfkdh",
"dkzddud<3dtpt33133=3ehheddzk3deuututekdd7ud3ta19ffhddhhdfhkhduuu",
"fkfk1uu3%t33:37>>3t33euu3kkuueed0uu3ukk31ueu3u3dkfkhhhhkdhdufudd",
"kfffdut33>>333t>t:%>udduedudkddfhuk3htee%td3keXuudkdhvvzhhhhvddk",
"zkeuu30913>tddkut>%>3kudu3zudduud3d3duut3 hede%:qevhvhvnhvhzzkhf",
"kkd0eet3u333pdudu>X:33hk39d1eudhkke3fhfv03hkf>q3ukdhvkbmvhhhvhvd",
"ku33edd3up33dudte0>dt3t33ut3e0u9tddd0h3kuevkd0h9hehfhdvbvhkhkdvh",
"heudeeu%kt3eudtutt3d3=u1ku90de>3ekd3k0ut90ddkdd3dhzddhvhkhfvfdkd",
"hdudued>d3t33dke3t1d31t13dd:ee:etup33ekk3uhuduku0hzkudvfuhfhhhhh",
"ukkdeudkddduudked33kkuk=t0uqet:u:utuk0371ueudh9q0hkud39uud3kvvhh",
"uztuudddhkudetdede3tdu3%u03qt1:e3uu%f0u3ukeeekt33kuuf00eddtdkhvh",
"hkdehdddkddu0de3te3kut3ued3e313q>ekdkqe33teud33etfd3u0e3dffehdkd",
"kkh0ddkkhduuukuetu>333>33ut3q:udu33dd0d03edteuu0>vdedu3ukddudhfh",
"k7ueuetuw0id9duyii50>6>d5q9e>>qq0u0ude509>9wu95>9q3uuh33dtqqfhdf",
"jpadekeksuiiiiuf0ie05wO>*999>:dddd0dfuf1q0u3e9dqq>dthd33e<9hfuhe",
"jpkudd9fdufiefuu0659ed9>.6qd9:edid0ezdzhuddqfqfq0uuuuuqete>durfd",
"pkukkdehf0fidduuu0euqdeq%edfd0q9u<duu5kd9efdd>drh3eet10393>hddhh",
"kkuudduhgiiidgw4e99edd>90e9fqe9gfddaffdd3e9ddqd3u9d3u>fq:qqfdfhf",
"pudeduddffsfuueuu0e0q0>01q>dwre:0ddedddd0uufdgfq9udde:f0:rrdeudu",
"auffffufggds9ufwqd0d0eq950eurerd9ue9fdfde9dfrfqruhdfe3fd93eddfhf",
"ktdddduhfgzfifi00fdfeuqe0e613d9gi0ifkqdr9efdrrhghuufd33fqeeddehd",
"t0dfdfdzkddduuuue9euedd912e9qgd9uiu9q6hu5ddfferddf1fdrdeeddh3rwd",
"t0fuuufkzzdwdafheeu9rdrree5dqrrefugueuggqfeddgggd5df9drd9dffew0d",
"07ddtdwufdfdiifsutu9rhfd66e9rgegiux9qghg1qeqfdrf3>efdddddddfuq9e",
"0tt3w09dfduuuw0ifuf69eeqwwru3ggg6idduuee9d0wffdhr>qdddw9dqdqq9dd",
"ttf3dtefadda0fuudtdse9eru9uerhgdrgdgggue>reqf9df1=5q0qfwfzudfede",
"9e>eed0>=idduuwueduie2ee5ri2giedeursggdq0wefe9u106q5qwdwffd6ze9d",
"335ud69:>5duwduuuii9euedesw9gqgu99sqi9dweduffd1e6w:3q9>edfdefw3e",
"3<>adut956fi6ius9edud<fdqz;errgu91ufid9qwdeeeu30+qe>19ww5eudfdde",
"5365yf066wyuu8i8qirrswrrwr2rfdriw&weguieqeiigwd:1w196<e2firdierg",
"516q6u8068wiuiiw8qgwgrssq66rrzsy6:wieir06du009w913>:9qw3ddwgwiur",
":>>>61466eeuuyuuiigrwrrq8srrfghww%eus9q6w9:662weqqq36rwqrdgiqggq",
"7>5>56<6uw8wyisygssrwfwdzrxgxfs6w:deyg<i9w6w#990:d53wriugggzhdsw",
"13u:uw4<8e28usiy8gzsrsyslhcxlgr,2919&guqqu6egqq,06weduuucsghgfgw",
"tet:465q6468iiisyssisrsrgcxxcxw192*9+:rddue2rw62e>e9dwsrsggyg6if",
"wue05<<:<<6688iw4srqsywrclzxcxi299:wwurwiwq655qw05>w920qyrg6iuy7",
"et09q=<@4<<6wwsw8rsyglrsgxxgg2i49w1<redeq866216:dw009996r8ieai8y",
"0ua5f05:-14250i4rysir82hlglssrrq691=fwgre9<,62682&;rw6*2884r2681",
"t11eu>>-<6:<05w6w6w2i96iryiiqqw6w<6ww9dqwwde2:122-@q,2624-6,668,",
"3u39689>>44<<66>668yrwrr8iyiyqiw,w:126ww920u+:-,q,*q4w66=6w42,,8",
"3t7wuu6>4q<y6u4:68wwgwir,rrsiw6g90w<w1e69,19*12-2*62626q,<w26-14",
"5;6uu007<y<4<88-84wyy2ir42rqsrrrf<y=21<i:*=q*,21w2w&q,248268;288",
">>;w009<4q5q-6-18,wr&4r6wqrwrsr2d6<8q,,ie<$w$<:=868,q18,w&w62w6,",
"95w008w4;;<q,8,8,w8266w4qqswrqd2hq<wq6ry611e$,1<,,2,44@-w822qw88",
"=6y9y<65<;8;56688y8gw@i822rrwrs2y15689qq2ww6=2q24,2,2,,,2r,68ywq",
"954><>>5>0048y6466e68;w69wrrq4sr26898q88,yw6<yw<w4,142284r,,4wqy",
"9<u:t5>>859<<00>;;w8,2=60ws6w222616e6q2e66q8<,2222&2rq2,&w&,q6y2",
"5e9-5<;:5<45<6e6&6<;6>1q-qg9qwy2826ywe6ey8wq28,6,q2,,q6--w,,2w2w",
">67>>7><>9494<64&56;4<$=2qqq2r,8ww<ii66i688w6:2w44-2,42,4224&22w",
"5u6=<35<68944<66&><=<<<;2wiiww661w626q88q8666w86,428r282r42,2,4w",
"5w446t170064::<<<-+5&5<582wfr8wwqwwweyi68ywq&8i,,,8yy282y,8&2,2y",
"y6:>5:5>6966<>6@@;<59$85wi8iw44ywiq8yws8w<<886y-16r8wr82s,q&qwrq",
"6>5<>>4<>40<$>8&@O+65;w<61ryq6,wryqyww<8uy88682642rrrq4ww,4-44yr",
"->44O=4>545=>-<+@o;w<;4;44rr28qq884y6q86768868q6,q2wwry,,2,,r-yr",
"=>10>>168;8;>4>+&-<48;4=2wsyy4y2q4y484y,<<<,8yq62qw,,2rq264,y8gs",
"=>>945445586185;-@4-8;e-2sry6442884;,,4w2&6;q6q64rr2,6r4;sryqrws",
"=<>5>144>6-><y5$&-2-2=2;2wy84,w68,4q62@&6866968<,w2,2sr2-4wqyqqq",
"==76<=0>6>4>445-;-4=64,s28rq62426888868,wy46qww1,w42,2r,2,2y2swg",
"@>7>44884>>;9504-6=;8-,@r2w64812y44iy2282626,wq62r,,-2q,8r8y8srs",
"7ttu08y4w6->>6<&,4248o6&g8w42226844y82iy846w64fr1y,8,2w48sqwrrds",
"<3w94;wy;>4<666>;;84,q44y2w@q6,642;646yy6y,88q226wq8-42,q8wqsdsg"
};
