/* XPM */
static char *_613568753206[] = {
/* columns rows colors chars-per-pixel */
"64 64 107 2 ",
"   c #1B1A14",
".  c #211E1B",
"X  c #27231F",
"o  c #322F2D",
"O  c #33302C",
"+  c #3C392F",
"@  c #373330",
"#  c #393632",
"$  c #3D3A34",
"%  c #3E3F39",
"&  c #413C35",
"*  c #453F3B",
"=  c #444137",
"-  c #45423B",
";  c #49453D",
":  c #4F4A3E",
">  c #504B3F",
",  c #4A4641",
"<  c #4E4B43",
"1  c #4E4F4B",
"2  c #524D44",
"3  c #514E49",
"4  c #555146",
"5  c #5F5442",
"6  c #55524B",
"7  c #5A554D",
"8  c #5C594E",
"9  c #575651",
"0  c #595651",
"q  c #575852",
"w  c #5D5A53",
"e  c #5F5E59",
"r  c #645C4E",
"t  c #625D54",
"y  c #615E59",
"u  c #5F6055",
"i  c #5F605B",
"p  c #656156",
"a  c #696356",
"s  c #65625B",
"d  c #6A665C",
"f  c #6C695E",
"g  c #706756",
"h  c #716957",
"j  c #726B5E",
"k  c #7B6E5B",
"l  c #7A705C",
"z  c #676660",
"x  c #696661",
"c  c #676964",
"v  c #6D6B63",
"b  c #6F6F69",
"n  c #726D64",
"m  c #716E69",
"M  c #6F7066",
"N  c #6F706A",
"B  c #757165",
"V  c #7A7465",
"C  c #7C7865",
"Z  c #75726B",
"A  c #7A756C",
"S  c #77796E",
"D  c #7C796E",
"F  c #767671",
"G  c #797671",
"H  c #777873",
"J  c #7D7A73",
"K  c #7E7E79",
"L  c #817967",
"P  c #807668",
"I  c #827B6D",
"U  c #897F6C",
"Y  c #827E74",
"T  c #817E79",
"R  c #7F8176",
"E  c #7F807A",
"W  c #84806F",
"Q  c #8A806D",
"!  c #848176",
"~  c #8A8475",
"^  c #8C8876",
"/  c #85827B",
"(  c #8A867C",
")  c #8C897D",
"_  c #948875",
"`  c #928C7E",
"'  c #95917D",
"]  c #868681",
"[  c #898681",
"{  c #878883",
"}  c #8D8A83",
"|  c #8E8E89",
" . c #928E84",
".. c #918E89",
"X. c #949185",
"o. c #999386",
"O. c #9D9885",
"+. c #95928B",
"@. c #99958B",
"#. c #9D988C",
"$. c #999692",
"%. c #9D9A93",
"&. c #A19B8C",
"*. c #A19E95",
"=. c #A3A091",
"-. c #A3A09B",
";. c #A8A69E",
/* pixels */
"v Z H b Z B / [ T / / [ | | [ } $.%.*.+.G G A T I A I m K G y y , r S ^ ! W ! ^ ^ W p D S B B ( / D ) ~ ! ! B ) Y Z v S V D W D ",
"f s e i m s b J ( [ / ( Y G / ..} ..} T I Y [ P T T [ / / [ / G v a a V D R S B D S 4 S ! R f v Z M B ) ! ! J m R Y D I ) o.X.Z ",
"d v D Y Y %.$.s J [ G Z v Z n B U Y I / v j Y Y G I m G T G G m 0 p p u S D C R / ! d e / J D Z D / Z B S T Y n X.^ S ! ^ ~ ) ! ",
"; 3 S ! d w Z 6 $ w v v v n d d t t d B T t n n m V m m I T T F 4 f C V W ! ^ ' ~ C A   s D R ! J Z v 8 4 2 3 7 D R B B f j d B ",
"J m B v B v 0 e T P m j d j t t ; 7 2 w x Z v d n y y y v n m v 4 D ! S 8 d B R S Y D D ! ) R d 8 f I Y ) ` ( Y ~  .) I 4 u M s ",
"A m J ! } [ T b Y x j d t n n n 2 %.( ..G +.#.) ( } G A m v m Z K H ) 6 8 s M j D C C S D B B 6 d B B D I  .+.U ` ~ ~ ) v Z ! J ",
"} X.+.( / S v e 7 y j r r n B A Z t < d 3 m G Y I Z T G Z G m Z K S { / D D ! D B v B R D ^ ! 8 j ` ! V B d A B d d v w 7 } } } ",
"! s p ~ ~ ~ ! D r r y A 2 m m P Y Y 7 2 2 2 t 0 v s * m T T [ J Z 9 6 s ) X./ ( ) ! ! D S u u 4 d f n A ; 0 n I  .T v v J D ) ! ",
"[ ! Q ` L V P U U T Y Y T d Z B A A Z m d a r s v G ( d S Z J | +.E e s s B n t s w w & 7 R | ) X.B t a $ m b b b Z D m m d / ..",
"( ! j ^ ~ ' &.&. .U U o.` k C j j n g n P Y V V Y T d  .J K / ( { i G D T T D D D x v m f Z R R X.! U ~ s H Z K K [ | ( D K F Y ",
"v s a ` O.W ( X.*.) V Y B B V Y Y Y A Z ( / Y Z B D Z G } ( B m 1 o T ( T / T D Y / / / p w S S ! ! L ) a J S D B b J T G Z m Z ",
"< v ~ Z n r t d T I d Z n n V n n m D x y t d d J m s v ( ( [ Y d 1 ! / [ } } / J m m y < B Z R +.6 n s & e J n 7 7 t 4 < < 6 e ",
"e B s B B y 7 y y m F $.#.*.;.*.%...)  . .+.n y m Z v y 0 7 3 7 7 t s a m A m 7 G [ J / %.s G ( ) B m G F K 0 I A V U U B V n n ",
"m m B v n V 6 T [ ..[ K y 3 3 y 0 x , 3 x x m y G m G G y m s m s w y m T 0 K K { / H F c ( K Z m F J R J T 8 o.&.o.T ` #.( T t ",
"t Z ! ! ( y e T ..T [ / } T G J T G 3 y m Y G F Y m Z J Z [ m G K G T K [ m K ] { ] { | i F E | K F J S Z y y g n P T n Y  .@.n ",
"6 v m v m w c v m m m G [ ..[ G m T 6 Z G G G [ T T T G G ....[ } | [ / m 9 q c F N | ] s N i q 1 w w y 0 , r j g r r * 7 n ) T ",
"j I n j r & w 6 9 y w v s m n y x G ; t v J m J m m m d m [ G m c G m G m w x y e e z i o o t r < 0 d t 2 r t I V n w 8 4 d r a ",
"B D ) ` ` I d G ] ] ] } ..< y d x n Y Z w ..} [ [ T Y / / G v v G G F v K } { { F c c x 6 I ` ( / I ~ L ' 6 P Y B B C J D f S B ",
"B 0 w d n n y b b m [ G m v T T T / } ..y v Z G x v m m v v Z s G b c m E K F | | { { { c U U T  .A V B J n d D A B J G G Y / Y ",
"9 6 2 w t 6 1 w 7 m v v m s m v d w 3 m G F x v x v t T / A x m y 0 e x s b x s b z v G x y d j r r r m v v Z s ! v Z D Y B d 7 ",
"K Z S H } } ] Z Z m T [ } ..{ @.*.+.T n } } +.+.} { T Z } T B D c m m m v F G T ] F ] K J n Z T Y ) Y ( [ v G m / R N Z v D ! / ",
"H F K F Z z b { m m T ] K Z m T [ +...y G b G F v G v G ( } / ( / [ K / z K T F K K H K Y T Y G T T V } T Y K y E | | { ) ( ( K ",
"} | ( J J J d S d < v T m y t s m y Z t Z F m v v w 3 d v f Z A K [ T ..3 , y T T J F J G G Y A A m n n T J B 0 q d s N ) ) / | ",
"p s B A Y ( T B t y y y @ % * * * , t 0 y y 1 v Z Z w w 6 7 w * # * 0 x z v v 0 x m y w w w 7 6 0 y n T } [ G Z i c 9 1 e c e < ",
"v Z / ! N Z D J /  .Y ~ p ! Y I A Y (  .}  .G G Y T [ } G K } , c G K K T T K N Z ] T +./ } ....K F ! [ J | K ( | | } K G G G Z ",
"} +.S N E Z G G G | ( Z v X.` ( [ / [ [ } T m Z I T [ T G } T 0 T E F K ] { [ b 9 ] { [ ..../ [ ..+.] D G K z K v z v v z y x x ",
"v D G D s d Z R / } B w e p / v 0 0 t y m m & x v m T G Z d t t ] / G F H E K ] % m T m G [ } / [ ..[ [ ! F # < w w 4 9 z s w * ",
"Z J S ( Z R S S ! m f ..Y ! ) [ Y T y 0 y 0 0 y 2 t v x G Y ( G m G Z 0 e m b m G w x { } T n n v 6 ( / / [ R } +.} v | G / G G ",
"Y G M $ S S ) ) X.o.V J ! ) ( G Y / T r Y T T P m F ( } T B v Z F m w 3 w x s s d v v v t m / / T v G m B v f Z v Z + c G T / ! ",
"B v i u u M M v t 6 7 w s s p m T ( T I P B x n x t n B y I n y z s w d e * - 6 v y v m G x d G }  .K 4 u S R R R R v i w w w s ",
"d p i d v d s N t w t v v v u Z Y ( A B Y U Y A T ( U T m T T G G F T [ [ m s z n m F G +.} ..{ T G { 0 N H / E R R H Z q S S t ",
"M M c N Z v H E q / ! ( ( ) D v Y T  .Y T T [  . .T [ ( m [ Y A D x v B v / G T ........G m x v J v x , i u c S S R E F w F H Z ",
"/ ( [ D s s w t 4 J m B A J Y 6 a 7 8 ! D } B s d v y y x x y t 7 B w x D m 0 T ..T G m , , 0 6 0 0 * x x c Z 7 w w s d < F J ( ",
"Y  ...$./ 2 ( A s v m v s v ( @.) 6 8 7 6 w d J d m Y K ] Z Z G Z F 0 [ } T [ ....T m < G $.....T m [ } +.+.} $.[ x m v S Z Z Z ",
"v f 4 7 7 w f / B i Z G J v t m x v v J Z f 7 p v ../  .....} / / } x / [ $.T { { [ T v x G T T [ [ T { G T T J } n J / Y D S v ",
"A Z S D m s 7 m J v s m m - s v Y Y Z Z S s 0 0 d m - m x D B G T G v x y J Y y J m x G x T $.x 0 t 6 Z Z B D D s y d t 4 - < D ",
"~ L ! ) A Y ../ ( K e B } < 6 v J J T } ] [ [ +.( ] } m x J T T T T / T [ ..$.G T {  .T T K T m x y 7 7 t r f / ( ( ) ` Z B ! ) ",
"h j A U V  .%...+.} K J Y y F G / m T m G / K J J J G J x / T K T G T T [ T / v F m m T T T } s n n P a j V V B d n V D Y Z 2 j ",
"2 r d g ; 0 y Y J J G | &.B / m n s s y 8 7 w 4 p s x w b m D B x J D Z T G / t n m T G T [ m % 7 T +./ ( Y v p a f B ! } Y & 5 ",
"j y Z a a 0 7 ; ; 7 f n I I a n Y X./ A ) ) ! t v v x J B ! v s 6 a y y Y / } Y ( / T & m Y n D Y } I T D s ! ' ' I V r s A A D ",
"Y j n j Y ` U @.X._ A P v n V o.B ) ` o.' ^ ) D Y / Y ! ..X.) ) y ( T D / Y D G J T ( w Y Y / ! J ( B Z J 8 ~ ' C ^ ^ I M C V C ",
"( A V B j A U Y P P A g n t a P B ~ I ~ D ^ C J D ) ..} / ! ..@.T Z S v Y ) @.) ) ) [ ] T T  .+.J G ! ! / s I I I ^ ! C a S ) ) ",
"T ` V g d B Y Y T T Y P I Y Y I p V ! I j V p n Y Y v J B t 8 s x B G B ( Y A Y Y J T [ s ^ I I V L Q Q L > j I h B ! M C ) ' ~ ",
"n B  . .@.T Y ( [ +.T T Y Z / d I n D j I n d 8 2 > = 7 m s v s t 0 o 0 4 / J t , y v n 4 2 d / ! Z B Y I B t ! ! V ! ^ J ! @.X.",
".. .Y T ( Y G Z Y T ( T / / T Y Y m m G Y J / Y A d t s Z x s s G T v y m G Z D Y @.} / [ T D Y / ! ( D ! ../ V Y B Y ! ! J ! } ",
"7 v a t t 7 n v d v F [ K T G T T } } y G ! J ! / @.7 s K x w w x ( } T G T J [ T J  ... ./ ) J s 4 p m p 2 6 Y m Y n m d m s t ",
"d B P d 3 r a t v a t & 6 0 v G G T T I B Z D B f n s a v m D m Z Z D < w T m s m Z Y D G A 4 < B J ) ( ~ D v D Y B Y J B B n r ",
"Y V j I Y I n B m y r y < m n n n P Z v a d v d a a t g A t x / Y A Y 0 v n G m Z Z J Y ( } T v ! J ( +.......( ( [ [ Z ) I I Y ",
"B V P P I Y Y Z Z T `  .t A A B m Z n A A A d V P T o.o. .I B Y J } ) D J Y / } ) / ! ( J D / v ) J f v S D Y J / J m B 6 Y Z V ",
"7 < * < 0 y d 2 r n } ..G m I Y / Z T T T G d > 3 y r g ! B t D D D m 8 v d m t v v v m v t t < s s s s 7 t G 4 4 s V d 7 7 t 6 ",
"x x T T T G B Z Y Y Y ~ [ T T G P I Y I n j V P n A T A v v B J G S Z d d B D B B B 7 p Y / J T ! [ X.} ( @.@.D d k B J G d d t ",
"[ [ [ ..} T , V n A n j j g d B n n j d I L V g ( } +.Z Z B A I A n v D J J ! Y D ! v ..) J J d v v v C D m Y w / T ..+.[ ..$...",
"T [ v 3 < ,   > 4 2 ; 1 2 * d j n d g n m V y 6 a A } #.) Z Z D A Y ! D D f v d C n ; 4 r r 7 t t s p 7 t d p X x Z [ [ ..K / F ",
"3 , 0 I z z B t n D ! J I [ 7 a y 7 d Z m v y x Z # 2 2 < w / t : s n j I ( B a s d n n B B # m [ B p p j a p 7 < ; 7 w G v y y ",
" .Y I T x ; B ~ W ) ~ C D ) d a n y v v n n m x 0 y Y Y ) D ! ) D v m B B J B A Z j n B B I n  .e s Y ) ^ J B S A J n x ` +...T ",
"I Y V V U 0 g V V ~ n A V V Y Z G T T / I T G T I d x B I D ! o./ +.] K T J n x D J G ( ) A 7 Y D D ! ! ' D D D ( X.T y n A A B ",
"g P d y g 2 n n g j Z n r x v I m n T G G T G G v V  ._ X.( Y ~ v G Z K K T Z n ! } / T ( ! ; x p ! Y Q _ ` D / R B v w d p > 5 ",
"+.} / [ G s Y T K ) } { [ %...$.} T P P G P P G T T o.T ( m G m n T / Y A x f T w , ; w v s 7 t t 6 a v r B d 6 7 f j B g a p Z ",
"T T T T T [ T [ } ] F F G v m T G v P n m s T P x j n n n B T ( ( Y Z D G ] v D J Y 8 1 V ` ` o.~ ` X.@.8 j k V V I l k g g r s ",
"[ T x m T m T P ! / F G m T T [ ..0 x m m x m T m m n n v y y a v t t d v n 3 * y s 8 e A B V ! V p w 8 w d ^ L l ` L L V D V J ",
"T T T 0 , y y x m T P Y G n x v n 0 y s y y T Y T n 0 m G Y j n Z Y d f ~ ) +.) X.W - Z r 4 2 8 4 4 + p n 6 n Y I Y  .@.^ ( ! w ",
"m A m [ t t 0 y x m G m m A g P T A @ y x r r y a g 0 n Z Y T Z ( Y V D ) U ` I ^ W J M t n B D Y B s d F y 0 w w D m Z B ! ! B ",
"T [ T K w P r r d d j m n P I A P I r x I B I g n n t B n T / G Y Y D n C ~ ~ V B f Z D Z D C B n V n m } %.}  .J s Z S v A +. .",
"0 1 9 e m 0 3 x P n d d y a y 4 g n < Y T T T [ I I n x m T T Y T / D 7 B V f 8 4 ; - * 2 t j n a a D ( Y } 3 B A / X.) Y p n 8 "
};
