/* XPM */
static char *a67ab9fbc5a2406a84559ee05af772abMwSMeJlOoopC68I1[] = {
/* columns rows colors chars-per-pixel */
"64 64 194 2 ",
"   c #000000",
".  c #010906",
"X  c #03060A",
"o  c #010A0A",
"O  c #0C0B0C",
"+  c #00110F",
"@  c #050B11",
"#  c #011313",
"$  c #001A17",
"%  c #031618",
"&  c #001A1B",
"*  c #151515",
"=  c #191617",
"-  c #1B1B1B",
";  c #011F22",
":  c #012224",
">  c #052327",
",  c #002926",
"<  c #032B2C",
"1  c #0B2D2D",
"2  c #1A2021",
"3  c #03302F",
"4  c #022E32",
"5  c #033334",
"6  c #0D3536",
"7  c #013639",
"8  c #02393A",
"9  c #153939",
"0  c #232323",
"q  c #2C2C2C",
"w  c #30302E",
"e  c #2F3030",
"r  c #333333",
"t  c #383737",
"y  c #3B3B3B",
"u  c #403F3F",
"i  c #003E40",
"p  c #014344",
"a  c #0C4745",
"s  c #094847",
"d  c #034D4E",
"f  c #144A4A",
"g  c #004E53",
"h  c #025456",
"j  c #0E5354",
"k  c #065B5B",
"l  c #145655",
"z  c #3F4040",
"x  c #245C5D",
"c  c #016365",
"v  c #0C6968",
"b  c #166D6E",
"n  c #007474",
"m  c #017C7C",
"M  c #0E7D7C",
"N  c #14797A",
"B  c #267878",
"V  c #454445",
"C  c gray29",
"Z  c #555555",
"A  c #5C5C5C",
"S  c #636363",
"D  c #6B6B6B",
"F  c #68797B",
"G  c #747474",
"H  c #797977",
"J  c #7A7A7A",
"K  c #007E82",
"L  c #008282",
"P  c #0D8987",
"I  c #00878B",
"U  c #018B8D",
"Y  c #0D8C8A",
"T  c #148687",
"R  c #138B8C",
"E  c #008C90",
"W  c #138F90",
"Q  c #198F91",
"!  c #039695",
"~  c #0B9292",
"^  c #0A9B97",
"/  c #019799",
"(  c #069B9B",
")  c #129495",
"_  c #1C9895",
"`  c #119E9E",
"'  c #258887",
"]  c #348687",
"[  c #38908F",
"{  c #2B9091",
"}  c #279998",
"|  c #399799",
" . c #209FA4",
".. c #02A4A6",
"X. c #0BA4A2",
"o. c #01A7A9",
"O. c #00ABAD",
"+. c #17A9A8",
"@. c #0FB6B4",
"#. c #13B7B7",
"$. c #18B7B6",
"%. c #28AFB0",
"&. c #44888A",
"*. c #5B8E92",
"=. c #4C9596",
"-. c #66858B",
";. c #678C90",
":. c #629D9B",
">. c #719392",
",. c #79A09D",
"<. c #739FA4",
"1. c #51B0AF",
"2. c #4EB5B4",
"3. c #51BFBC",
"4. c #61A5A6",
"5. c #7BA5A4",
"6. c #02C4C3",
"7. c #0AC3C3",
"8. c #02C8C5",
"9. c #04C6C8",
"0. c #01CBCB",
"q. c #1FC4C6",
"w. c #02D3D2",
"e. c #00D8D6",
"r. c #02DADC",
"t. c #0FDADA",
"y. c #1CD0D2",
"u. c #39DFDF",
"i. c #02E3E4",
"p. c #00E8E5",
"a. c #00E3EB",
"s. c #03E9EA",
"d. c #18E6E3",
"f. c #03F3F3",
"g. c #01F9F7",
"h. c #01F6F8",
"j. c #03FCFD",
"k. c #0AFDFE",
"l. c #38EDEA",
"z. c #39F8FC",
"x. c #4AD0CF",
"c. c #62C0C4",
"v. c #77CCCC",
"b. c #7CCDD0",
"n. c #5FFEFF",
"m. c #7CE9E7",
"M. c #79EDED",
"N. c #78FAF8",
"B. c #848484",
"V. c #8C8B8C",
"C. c #8E8D92",
"Z. c #969696",
"A. c #9C9C9C",
"S. c #8AA7AA",
"D. c #8BB8B9",
"F. c #A4A4A4",
"G. c #ACACAC",
"H. c #B4B4B4",
"J. c gray75",
"K. c #90D1CE",
"L. c #9FDEE1",
"P. c #A0DAE1",
"I. c #86EEEB",
"U. c #94E5E4",
"Y. c #9BE5E6",
"T. c #94EBEC",
"R. c #86F9F8",
"E. c #99F8F8",
"W. c #ADE4E7",
"Q. c #B9ECEC",
"!. c #A4F5F6",
"~. c #B8F4F4",
"^. c #C3C3C3",
"/. c #CBCBCB",
"(. c #D7D7D7",
"). c #DDDDDD",
"_. c #D2DFE1",
"`. c #C9E6E7",
"'. c #CFEDEC",
"]. c #D7E8E9",
"[. c #C7EEF5",
"{. c #D3EDF0",
"}. c #CDF4F7",
"|. c #C3FAFB",
" X c #D2F4F5",
".X c #DBF1F1",
"XX c #D8FDFD",
"oX c #E1E1E1",
"OX c #EBEBEB",
"+X c #E7F4F3",
"@X c #E2FEFE",
"#X c #F3F3F3",
"$X c #FCF8F8",
"%X c #FCFEFE",
/* pixels */
"                                                                                                                                ",
"                                                            @X|.|.XX                                                            ",
"                                              |.U.5._ Y d &       . & b ~ { ,.Y. X                                              ",
"                                          M.` O o                             . o q.!.$X                                        ",
"                                    |.*.v                                             b v.~.                                    ",
"                                ].l.:                                                     j x._.                                ",
"                              I.f J                                                         2 x M.                              ",
"                          {. .o   H                                                         -   > 1.'.                          ",
"                        [.B       J               & #.n                 m @.&               =       ' ].                        ",
"                      L.j         J         8 n f.f.O.c                 c O.f.f.n 8         =         Y [.                      ",
"                    R.&           J     $ p.h.i.4 #                         # 4 i.h.p.$     =           j |.                    ",
"                  P.&             J 1 m k.E 5         V X               V         5 E j.K 1 =             l XX                  ",
"                }.j               -.k.g.&       X B.                        Z.O       & j.j.>               _ %X                ",
"              {.B           * O X.g.m X     * O O                             X * O       m h.` O *           ' .X              ",
"            #X .          = X 7.f.<.    O J                                         u O     a f.#.X *         o b.              ",
"            R.@           O 7.k.6 J   A.O                                             - S   = 6 k.7.*           6 I.            ",
"          ].f         0 S X.f.5   H =                       X 0 0 X                       O -   8 f.X.S 0         x             ",
"          u.X         z : j.4     G.                  Z /.(.J.oXa././.^.Z                   G.    < j.> V         o I.          ",
"        |.3         S 9 j.n     0   A G.O       q B.).                  ).a.H r       - G A   X     n j.9 A         M @X        ",
"        :.        O @ U h.    A.X   G %Xu     t $X                          #Xa.r     Z %XS     G     f.E O X         m.        ",
"        b         y a j.o     X     q * H O F.a.                                #XF.X J r q     * O   @ k.a t         B         ",
"      E.          C.s.I     G.          O a.                                      oXs.O           G     I s.C.        : `.      ",
"      #.        B.p g.5   V             F.                                          oXH.            =   3 j.p B.        z.      ",
"    }.o       X * L t.    -           t %X                                            OXt           O     e.L * X       p       ",
"    T..       r r k.:     *         q a.                                                ).r         O O   : k.w w       X Y.    ",
"    D.        O p p.+   Z           B.                                                  %XB.          J   # p.p O       X Y.    ",
"    [         Z.6.O.    *           a.                                                    OX          X     O.6.Z.        >.    ",
"    ~         A.9...  -           Z                                                       a.A           y   ..9.A.        {     ",
"    N         # w.T   S           /.                                                        ^.          q   T w.#         !     ",
"    5         < f.&   *           (.                                                        a.              & f.1         Q     ",
"    o       * 8 j.              X J.                                                        ^.X             . j.8 *       b     ",
"    .       V 8 j.              0 oX                                                        a.0               j.8 V       h     ",
"    .       V 7 j.              0 oX                                                        a.0               j.8 V       k     ",
"    o       * 8 j.              X /.                                                        (.O             . j.8 *       N     ",
"    p         1 f.:   *           /.                                                        a.              & f.<         ~     ",
"    R         # 0.R   D           ^.                                                        J.          q   R w.#         ~     ",
"    ~         A.8.o.  *           A ).                                                    a.A           r   o.9.A.        &.    ",
"    4.        Z.7.O.    =           a.                                                    a.          O     O.7.Z.        S.    ",
"    D..       O 8 s.#   C           J                                                     B.          D   # s.8 O       . U.    ",
"    T.o       e e j.<     =         e s.                                                a.y         *     < j.w r       o Q.    ",
"      :       X * m r.    -           t                                               a.y           *     r.m = X       +.      ",
"      z.        B.p h.5   Z             G.                                            H.            0   5 f.p B.        n.      ",
"      `.&         V.i.U     A.          O a.oX                                      a.O           Z.    U p.C.        v         ",
"      $XB         t , k.&     X     X A.S O H.                                  a.H.O D Z.e     O O   & j., t         &.        ",
"        R.        X O K j.    J X   G $XC     t ).                          a.oXy     ).#XO     A.    j.K O X         R.        ",
"        .XP         S 9 j.U     u X B.= q       r V.                      a.B.y       2 O H   =     U j.1 S         (           ",
"          !.#         u # f.4     ^.                  S ^.(.^.a.a././.^.S                   F.    4 f.# u         < .X          ",
"          ].]         0 S Y f.8   J r X                     * 0 0 *                       * =   7 h.Y S 0         3.            ",
"            U.8         . O $.j.7 J   A.                                              O A.  = 7 j.$.O           p {.            ",
"            $XK.&         = o +.f.4.      G.                                        C.X     s h.+.o =         1 ~.              ",
"              .X]           * O n h.X..     y * *                             O O 2     . X.h.n O *         . c.                ",
"                  (               F j.k.s       O A X                     O H X       s j.j.2               } %X                ",
"                    Q             J & m k...g         r q             q t         d o.k.m & =             W  X                  ",
"                      Q           J     . d.f.k.g $ o                     . & g k.f.d.X     =         . W                       ",
"                      XX^         H         5 c i.j.6.o.o.) k i p k ) O.o.6.j.i.c 6         -       o |  X                      ",
"                        %X| <     H               . P 9.8.0.e.p.i.e.9.9.9.P .               =     5 b.                          ",
"                            W.8   J                       . # & & # .                       =   g ~.                            ",
"                              }.2.;.                                                        f x..X                              ",
"                                  @X(                                                   O %.+X                                  ",
"                                    %Xm.=.v X                                     o n 4.E.  .                                   ",
"                                            N.y.% o .                       o ; t.E.                                            ",
"                                                '.!.K.>.| ) ! / / ! Q =.>.L.T..X                                                ",
"                                                                                                                                ",
"                                                                                                                                "
};
