/* XPM */
static char *_613568217885[] = {
/* columns rows colors chars-per-pixel */
"64 64 217 2 ",
"   c #3D2C1C",
".  c #3C2E23",
"X  c #3E3127",
"o  c #432E1D",
"O  c #462C16",
"+  c #45311E",
"@  c #4B331D",
"#  c #55371E",
"$  c #443325",
"%  c #4B3624",
"&  c #4D3926",
"*  c #45362B",
"=  c #493729",
"-  c #46382B",
";  c #4C3A2C",
":  c #543C25",
">  c #5A3D24",
",  c #533D2C",
"<  c #583B27",
"1  c #4D3D32",
"2  c #513E32",
"3  c #5C4126",
"4  c #55412D",
"5  c #5B432C",
"6  c #574025",
"7  c #544234",
"8  c #5A4534",
"9  c #5E4935",
"0  c #554539",
"q  c #5A4739",
"w  c #5D4A3A",
"e  c #644527",
"r  c #62452D",
"t  c #64492D",
"y  c #6B4A2B",
"u  c #6D4726",
"i  c #724924",
"p  c #7B4F2A",
"a  c #774B27",
"s  c #624632",
"d  c #634B35",
"f  c #6A4D34",
"g  c #634D3B",
"h  c #6A4F3A",
"j  c #6C5136",
"k  c #66513E",
"l  c #6C523C",
"z  c #6C563C",
"x  c #735336",
"c  c #7A5636",
"v  c #72553C",
"b  c #7C553A",
"n  c #75593D",
"m  c #7A5A3C",
"M  c #755130",
"N  c #5E4C41",
"B  c #5F5043",
"V  c #624E41",
"C  c #684F41",
"Z  c #655242",
"A  c #6B5543",
"S  c #6E5945",
"D  c #695649",
"F  c #6D5A4A",
"G  c #665749",
"H  c #715642",
"J  c #745A44",
"K  c #7A5D43",
"L  c #735D4B",
"P  c #795E49",
"I  c #6D5E51",
"U  c #745E51",
"Y  c #6F604F",
"T  c #7C6045",
"R  c #75614D",
"E  c #7B634C",
"W  c #7E684C",
"Q  c #756352",
"!  c #7B6552",
"~  c #7D6955",
"^  c #7B6758",
"/  c #7D6B5A",
"(  c #776854",
")  c #7A6C61",
"_  c #7E7063",
"`  c #825C3B",
"'  c #8D5E3A",
"]  c #885633",
"[  c #925B34",
"{  c #86633E",
"}  c #93643D",
"|  c #8C4D17",
" . c #815F42",
".. c #836344",
"X. c #8A6545",
"o. c #8B6944",
"O. c #82654C",
"+. c #89674C",
"@. c #84694D",
"#. c #8A6A4C",
"$. c #946B4B",
"%. c #9B6E4B",
"&. c #946844",
"*. c #8F704E",
"=. c #91714E",
"-. c #9D724C",
";. c #9F7147",
":. c #816651",
">. c #836B54",
",. c #8B6D53",
"<. c #836D5A",
"1. c #896E5A",
"2. c #926E51",
"3. c #857056",
"4. c #8C7255",
"5. c #85715C",
"6. c #8B735C",
"7. c #8F795F",
"8. c #937253",
"9. c #9A7452",
"0. c #92755B",
"q. c #98775C",
"w. c #94795D",
"e. c #9C7B5C",
"r. c #947856",
"t. c #A27E5E",
"y. c #A57954",
"u. c #A4764A",
"i. c #826F60",
"p. c #847463",
"a. c #8B7662",
"s. c #867966",
"d. c #8C7965",
"f. c #8C7C6B",
"g. c #877769",
"h. c #937B64",
"j. c #997E64",
"k. c #927E6A",
"l. c #927662",
"z. c #8B7F71",
"x. c #877E74",
"c. c #9B815D",
"v. c #A8835B",
"b. c #8E816D",
"n. c #9B8164",
"m. c #94816C",
"M. c #9A836C",
"N. c #9C886C",
"B. c #8D8172",
"V. c #948473",
"C. c #9A8572",
"Z. c #968975",
"A. c #9C8A75",
"S. c #958678",
"D. c #968A79",
"F. c #9B8C7B",
"G. c #988778",
"H. c #9E917C",
"J. c #A18262",
"K. c #A2866B",
"L. c #A3896C",
"P. c #AA8B69",
"I. c #A38C74",
"U. c #AA8E76",
"Y. c #A38E7B",
"T. c #A28770",
"R. c #AA9376",
"E. c #A3927D",
"W. c #AB947C",
"Q. c #AB957C",
"!. c #B79477",
"~. c #B28C6E",
"^. c #BCA27E",
"/. c #C59D77",
"(. c #C5A27D",
"). c #998F81",
"_. c #9D9281",
"`. c #A29483",
"'. c #A89683",
"]. c #AC9A84",
"[. c #A69B8A",
"{. c #AB9C8C",
"}. c #A59887",
"|. c #B39D84",
" X c #B39E8C",
".X c #AEA18F",
"XX c #B5A48E",
"oX c #BDA489",
"OX c #AEA293",
"+X c #B3A492",
"@X c #B7A995",
"#X c #BBAA95",
"$X c #B5A99B",
"%X c #BCAD9B",
"&X c #B7A798",
"*X c #BEB19C",
"=X c #BBB2A3",
"-X c #C2A88D",
";X c #C1AC96",
":X c #C0AE9C",
">X c #C3B29D",
",X c #D4AF8A",
"<X c #CBBDAC",
"1X c #C7B8A4",
"2X c #D3BFAC",
"3X c #CCC1B3",
"4X c #D2C4B2",
"5X c #D4C9BA",
"6X c #DFD1BF",
"7X c #D0C2A9",
"8X c #E5D3B9",
"9X c #DDCFC0",
"0X c #DBD4C9",
"qX c #E6D9C7",
"wX c #F1DCC0",
"eX c #E4DCD0",
"rX c #F6E3C6",
/* pixels */
"7 l 4 Q a.g ~ E 2.7 ; 5 , 0 0 4 ; 2 q q 7 q 8 q , ; 0 8 0 Q Q D 5.g P = ; < 4 > : 6 > e a.N.7 5 5 f T + O @ @ % $ @ : ; & ; 4 > ",
"8 9 t S W 4 q A l 7 3 s 3 5 > 5 q 1 2 2 1 F u 8 L g q r 7 S F V E A g 4 4 5 9 5 > 4 T R R.R k l i s @.5 9 4 g d g h w w 7 4 5 4 ",
"w h p d !.n.q 8 9 7 f h g > 6 4 Q V h ; 1 >.! g 0.A q p f 7 l , V 9 q e 9 d d 3 e l F.J N.O.F 1.A J R.8 g a 8 d z 8 d 9 5 u d k ",
"l A l ( !.T.8 d g 7 d q d 3 j 4 f.C.oXE 0 0 w > A F z f V ~ E q D 9 9 0 8 d l e K l H.>.N.:.S a.8.W 4.k h v U P S A w g 8 5 k l ",
"` T >.M.,XK.h b 8 ; l Z K s s L 5.I.rX;XZ ; & 3 H ! m x k.S.OX0 R F Z k 0 9 R t j R Z.}.K.T.L <.6.E 0.x ..K `.V./ z Y G d d h l ",
"8.7.6.:.c K 4 g L 7 g w H 5 A g g.!.wX2XL Z $ : f m h.J l.Y.l.q ! w S Z 9 w W t T R b.$X0X1X/ p.v.6.n.o.h.S F.}./ l ! R k S g l ",
"J.d.5.2.o + e Z l 8 0 7 T k D L V.-X8X'./ F R : +.E.w.h.! E.C.D >.g A 9 q l E n S G F.{.6X].p.~ @.h K.h.h.6.Y.`.I L F J l s k d ",
"n.k.6.6.;   m Z g 7 w w T w g B.F.|.8X<./ R Z @ K I.j.a.E C.^ C <.w g q q A n J 5.( V.[.4Xm.D d.E >.j.m.K.a.C._.G @.F k l 9 g J ",
"w./ J I.F   7 0 l g d 8 j g ~ _.[.M.6Xb.L / / g L h.! P l W.Q A ~ g g C 9 / t J p.Z.XX'.1X5.F }.E / m.M.d.! I.~ A T D A S d g k ",
",./ L >.9 & 7 Z K E y.l t 5 1.].`.A.0Xh.Q a.L g J 9.V / H >.! k U C j A k / f d F.N.C.#X5X~ ( f.R E n n.<.J A.m.A 1.k n E z k d ",
"x , S ,.v g q w ..0.u.n u x 6.{.].].8Xn E p.J J @.c & Q l 1.Y.A A w W A w / m z I.].I.$Xf.c ! S.P 6.{ *.A W.k.h.Q J F m ~ l D z ",
"f & d { r.h , Z p.! X.d b J <.D.Y.1X7Xl.b.E.0.+.P 8 5 k z j.'...V q g.<.9 ~ T K f.f.M.~ f.d.d.L.4.4.5.h ! U.h.k.V.g g f./ k h E ",
"f , s X.P.9 $ G f.1.J.l E K a.V.k.eX:XU C.A.~ ,.g % y 9 f /.q.9.! q d.U.A / @.#.h._.d.%X'.k a.C.W w.e 9 T '.N.6.5.L S f.Z.@.v J ",
"r = 5 =.v.k 7 A p.L q.L E l R M._.9X>XC.|.l.W >.3.5 7 7 T P.,Xe.! 0 m.A.d.d.J j V._.d.1X|.! |.<.5.m.R 3 x M.0.6.3.f L f.E.A.T L ",
"r 7 ; j ^.k ; A Z.R q.l P A / d.a.I.(.Y.j.V.L L A > 8 & H +.(.$.A g C.C.S.k.! l D.B.F.1X1Xl L.a.H W ! 3 6.I.W.m.h.A W D.E.F.A.J ",
"K & 7 5 J.g 0 0 h.l O.8 J J p.k.U S t.#XU f.T A P K 8 2 , 2 ~.!.s 7 ~ 1.6.U / E V.3.Z.OXqXL I.5.P P >.m j.A.%XZ.>.A R A.b.6.E L ",
"4.8 ; , y.8 2 w I.A d h P P d.`.U L 0.1XU z.P L 6.k.7 2 : ; j.O.0 g <.:.S 5.! ..`.n.D.=XeXp.E.D.T H d.1.w.k.}.F.E z Z N.d.:.T J ",
"T g 1 8 X.4 2 0 k.g 7 h L l O.p.G D ,.qX^ U :.1.2.h H 7 ; 1 O.q.2 0 <.O.g ! / m 7.S.).|.'.l.<.1.E O.4.P :.Z.`.V.P l Z V.3.:.l J ",
"L g ; d +.7 7 7 k.A 0 d P f W Q / F 1.>XF w +.y.h.J ! 2 * 2 ,.P 7 0 d.L h <.~ n 3.Z.z.h.L.L f.Q *.K.0.J 1.M.).g.A ,.g / >.K ..~ ",
"! A ; x n 1 0 1 z.A H l ` n 1.A 6.<.g S G I L.1.6.<.L ; = 8 ,.g 7 1 p.R j J X...k.k.x.h.j.L F.6.c.n.Y.E L L `.p.H L A p.W O.` f ",
"F L ; , K 7 g q :.C K x ` h 0.L F.U L 8 V G C.:.<.>.Q 1 & 8 /.P 2 ; :.V J K o.c N.'.z.T R.E ! p.m.n.h.>.R >._.V.L :.D ! L E b c ",
"S g = , K 2 N w :., f v X.m J F z.L <.q U V Q.P C.<.D 1 $ d 1.l P , ! V K ,.X...T F.g.! C.6.6.V.L.M.F.Q A 5.5.f.K P D J 1.K 8.b ",
"F q , v n., w q d @ a J ` J L 6.}.L ! g <.7 1.L L p.w & , #.>.7 h , s V g O.X.{ T F.x.1.f.6.T.N.>.E ~ L R F / Q s L L d ! v T M ",
"<.g < g :.2 1 = , o ` #.` h E M.{.1.:.V a.; L L J C.S = , O.6.$ $ , 2 w l 8.X.K @.5.p.#Xd.h.W n.>.S #.1.J f.p.f.d ! H f K A l.] ",
"( ^ , ; * g ; = 8 o m +.X.H O.'.+X<.:.V <.P P  .P 1.I 2 2 * 8 * $ & q 0 g ,.&.J >.h.~ >XA h.T.w.1.o...d.Q E ^ W v U 7 d H n 4.' ",
"/ <.7 * X 0 N 7 7   h A c A E 1.OX<.A q A :.W.1.H l.U A * X * * = , 2 ; D H ] n :.+.b.E.~ h.1XI.N.,.#.) 6.I 3.! f ~ 7 d A A v +.",
"p.:.U 0 = s 0 q h   w g ] g ,.<.=Xp.D g 0 H I.k.P.C.C L B - 2 ; A 2 J 1 h l ] v e.f.#X;XS.k.0X0X+Xj.P.<.g I O.W J L ; d O.J n ] ",
"F.A g.1 = 7 N 7 d 8 w g ' x E a.g.g.g g 2 A ! {.V.T.A L F 1 = h >.2 s 1 g d [ K >.E.+X Xk.>.5X<X<Xw.XXV.S S.L :.g ^ ; g L J v ] ",
"D.p.a.; A q q 7 h q g f +.j P 0.G.V.2 g 2 ! P F.L f.d.P S * h @.V A d 1 V d ' v E {..X].k.1.3X*X>XC.~ S.~ m.R S.8 L : 8 J h A $.",
"V.! ! 7 P Z q 7 l H J J ..d 1.6.{.f.= 2 = D q ! C.d.U A Z V h g * 9 J 1 A H { v n..XE.L.d.~ 3X#X+X/ 1.Y.^ L W V.h D , 8 H v J X.",
"e.L K 9 J V C < 5 ,XT J n d W L [._ 7 2 1 D = U >.a.K h g F g 9 = > w.~.J l ` x e.W N.,.k.F 4X<XF.6.6.h.W L J Y.h f., , C l K  .",
"..T d 0 A g H 2 h v.P l m 9 E >.}.) 2 ; 1 X * S h K H D 4 F 8 f w , v 9.A d ' f T L l @.L l %Xa.>.6.d o.,.R >.>.J C.h l P H K  .",
"O.1.g g P g 8 2 = O.E v n g S J }.) = * 2 X = H 8 i.s L d F C s 9 1 V H Z h { l R k S R S K R g.j E / J >.d.E E 5.a.S 8 L S z ` ",
"h.! 2 7 K J 8 , * e.E J ..h ,.>.`.g.2 ! J * q L j.p.L V , F O.f 9 % 8 W L H X.v r.E h.,.W J <X1XZ.4.6.7.W F S I.l f.g 8 A l T +.",
"Z.^ 2 q K w d 7 l y.T j 4.d ,.M.:.G.2 Y.C.= 2 p.i.k.>.V = C 2.h s & $.$.l h #.c n.E.U.6.h.E 4X:X+X/ 3.H.Q T ! m.h S ,.8 J v J 0.",
"D.L , q C 2 y 7 ..y.l k #.h P V.L {.g Y.L.X 1 {.i.d.^ V = w O.K g ; -.$.A g } x E .X{.N.A.N.3X%X@Xm.~ S.5.f.E F.5 F f g J l j ..",
"V.>.; g J 1 p , K ;.P H #.v P 5.%X>Xl R / = Z '.Y.W.L C 2 w :.L l = X.-.A l X.J >.E.@XD.! S.5X4X<Xh.].S.l D.J >.s ^ 8 g E n l 8.",
"/ L 2 g w 0 p 2 x o.J H &.l 6.:.+X<X9 g N = D i.,.1.V V : V F A l & j ..g h } z c.m.@X;X! [.0X0X@Xq.!.p.k Q E E J U < g a.J J $.",
"^ k.s q 8 1 d 7 9 t.l +.q.A +.P C.XX5 l D 2 ! ,.H l.F L 8 w C , j 8 h 0.V +.o.m @.O.k.{.p.{.1XR.A.#.#.<.5.Y 4.>.j ^ & V P A l t.",
"i.>.g 7 g = 8 2 7 w.g r.X.A J d.L O.4 6.V +.1.J P l.U L : w A 2 8 1 H :.9 ,.%.K 3.h./ +XA Y.R.h.1.$.T p.! ! / R l ! > g ,.x 4.9.",
"E ! w 7 V = 7 0 , 1.g @.&.v :.~ ~ A : h.9 ! 1.E J k.V U = g A q 7 = l P q >.&.m O.5.5.'.J m.T j.1.l #.<.A f._ d.f ! e d >.J h.;.",
"D P V 8 V 1 ; C ; J f ..%.K J k.+Xh 6 >.w >.m.S <.^ V U = V C V l 7 7 v d ..} ..O.A.z.L.j.Z.C.N.6.L E Q T F p.Q d R x S / j K &.",
"L L D 7 C 2 0 2 7 d f #.y.v  .h.%XE & ! 0 <.|.T f.a.L F 1 q L A ; 9 7 d J @.y...J E.g.R h ! a.f.N.m.'.R A / 1.s.K F r ~ ,.K $.%.",
"L E Z 2 U q q 7 7 8 d ` %.h 1.U..XJ : H D / N.5.1.<.! A 2 q L L ; 4 2 q l K u.x n.I.b.k E <.^ h.M.h.d.~ ! 1.Z.V.J D s 6.P P K $.",
"P O.0.7 Z 9 q 7 0 k d ....j 6.p.OXL < s 1.( J.,.h.>.L e.V 2 C L & 4 7 l s J #.X.m.m.B.B.S Z D.d.c.m.I.:.L H }.p.T k r k.! O.` X.",
"H 1.e.7 F 8 8 4 = O.d T d.g O.h.<X+XF F W Q +.n.,.h ~ ~.s 2 F ! 4 g 2 E g k.6.n 5.Z.B.d.w V V.L =.K.h.T ,.k.`.g.! k 4 <.1.m ..l.",
"! +.t., F C , 9 ; O.8 E 2.J P A.<X&XZ * A ! P ! l.! >.y.C 2 C U < g 1 +.2 E 6.n w.Z.F.6.q 9 ~ 5.E 1.4.J ,.A.G.m.0.S , m.@.,.S 1.",
"E 9.y.H L 9 9 g & >.>.v 8.n k.l.OX XF , P `.E J L 0.:.-. .F N D & g D J A ~ l...E.n.).b.9 0 Y.S.T J 0.5.l.z.[.C.a.N > C.a.~ c w.",
"f 2.%.8.L q s h 8 k.H.v j.P <.f.C.M.w 2 E p.J l L j #.-. .l.s >.8 8 6.k.f.~ h.W S.6.Z.E.h 8 E.p.P J 6.n j.m.#XA.N.7 , N.f.6.R 0.",
"> K b :.D s 8 K 8 A..Xd.N.g >.m.$Xm.0 = V f.P J ! > A ` C 6.w >.l h m.V.V.C.k.z F.b.D.H.~ l K.d.J T E e 6.W.XXM.K.9 W E.E.Z.M.L.",
"< f 1.E A d 9 h 4 3.A.l z.h <.V.$XU.V = A A 1.>.P = s ..A U 2 >.J 4 m.Y.<./ 4.z m.H.$X'.@.E W.5.w.m.( 5 n M.h.6.I.8 Z V.E.Y.E V.",
"s H 0.P H q 0 , 8 J T h I...5.Z.[.: F A 5 7 L M.d + l q.A <.w >.e w 5.M.g ~ n.#.d._.}.@XM.k d.d.M.h.3 s K '.K.6.I.8 d l.C.>.v C.",
"J g ,.h s Z 8 v , g g l K.J <.G.F.l A g | s z h.@.E 8 ,.g A ; V P w f.J q / 0.J b.b.Q.b.Z.M.d.d.3.3.:.d ~ W.M.h.%XJ A g.~ A g C.",
"@.V K s h F 1 9 7 7 l A ,.t 1.XXE.n G - i & k >.R } g E 8 h 7 Z f 9 n S Z / +.n E.].].7.w.n Q z m.N.o.=.S W.h.m.[.h S m ~ h l h.",
"0.L h 7 2 Z 2 r d 8 h k E r d.F.A.k S + 4 9 k E z r.S g , f g V v A g A k ( n t H.A.].S E.5.( S / @.m c./ ! M.h./ K / n ! n h E ",
"h.d.g , 8 9 j e 8 % 8 A H q S }._.k Q 8 ..Z Q 3.4.N.6.D 4 4 g g l.w Z g 0 ^ t z b.N.OX9 ].3.G ( A.>.7.M.<.E Y./ / #.k.l L d V L ",
"n.h./ 7 8 f 7 : : % , A l h R p.x.R 1.1.j.E Q ~ j.W.h.a.w ; q Z E S k q q Z d H W ( Z.~ b.E.G b.Z.a.m.m.I.6.C.D.Q 0.E.k l 8 g H ",
"h.6.d.Q ; 2 ; & < , , D f 9 g w g.L n ].:.Q E R K h.q.a._ D 1 w 8 g l q 9 Z x J Y G H.p.n @X( b.5.l P.M.h.a.E.'.! Z.V.J k d l f ",
"o.@.>.d.0 & f + # : 7 k y s Z L g.I w.-XD / p.! w.K ,.l V.! - S f A S L 7 g m t T G b.s.4.@XR b.f.6.n...h.J Z.}._ W./ R k Z g h ",
"j K P f.0 $ ; + @ : 9 g 8 4 s k ~ g h ! F S a.L v ! m x <.i.- N 7 A 9 q 8 8 J y M ~ Z./ N.R.g Y f.E 0.n ..T {.A.<.~ ( D d g h 8 ",
"k g f A 5 - > @ # 4 5 l f 6 9 3 L 9 7 0 0 A y S v A C g f Z 7 0 w 9 w 5 8 g v e T z H.~ n.@.z R T E 6.l z j Q W J d 5 k 8 d h h ",
"9 9 p g 7 $ o @ 5 d t f 9 7 8 e q 0 9 g 7 w 9 8 6.A q u d 7 7 1 w 9 8 u s s d 3 y t H.K =.O.k j k j L.5 g p d d z 8 w g t y d d ",
"g E A L ~ F q w k 8 3 9 ; - 4 4 4 9 8 w 7 q 9 0 q S l L k Z Z B k w ; 7 4 4 8 5 8 u W f &.n z R z y 5.4 9 y k d k k d 9 0 5 s 4 ",
"- & . $ $ $ ; $ ; 4 4 7 8           + +   . + = , 7 ; $ X X X * ; ; & 7 4 5 t 3 6 3 3 y v.R.5 d t j T & # @ % & $ % ; & = & : 4 "
};
