/* XPM */
static char *result[] = {
/* columns rows colors chars-per-pixel */
"64 64 163 2 ",
"   c #000000",
".  c #0B0100",
"X  c #020B04",
"o  c #00010A",
"O  c #060B09",
"+  c #0A0E09",
"@  c #130400",
"#  c #1C0300",
"$  c #140900",
"%  c #190900",
"&  c #031206",
"*  c #001B07",
"=  c #0E1F03",
"-  c #061309",
";  c #0E1A0E",
":  c #0B140C",
">  c #000112",
",  c #00061C",
"<  c #1E1014",
"1  c #141F13",
"2  c #1E1A15",
"3  c #230400",
"4  c #2A0500",
"5  c #230D00",
"6  c #2B0A00",
"7  c #320E00",
"8  c #2C1300",
"9  c #351500",
"0  c #371900",
"q  c #3C1B00",
"w  c #201112",
"e  c #2D1F15",
"r  c #00250B",
"t  c #002A0D",
"y  c #132304",
"u  c #022C12",
"i  c #162515",
"p  c #1C2714",
"a  c #172518",
"s  c #043115",
"d  c #06361B",
"f  c #0A351A",
"g  c #07381C",
"h  c #0B391E",
"j  c #13331B",
"k  c #1B331F",
"l  c #12391F",
"z  c #3C2302",
"x  c #2B2E17",
"c  c #000127",
"v  c #010A21",
"b  c #00012B",
"n  c #13142A",
"m  c #000334",
"M  c #030E36",
"N  c #00053A",
"B  c #000A3E",
"V  c #011232",
"C  c #0D3A21",
"Z  c #143B21",
"A  c #1B3C23",
"S  c #1F372C",
"D  c #233624",
"F  c #293522",
"G  c #233D25",
"H  c #2C3A25",
"J  c #263F28",
"K  c #283F28",
"L  c #333F2B",
"P  c #440B05",
"I  c #45040A",
"U  c #4B050C",
"Y  c #45090E",
"T  c #56090D",
"R  c #5D0C0E",
"E  c #401F00",
"W  c #4B0710",
"Q  c #440C11",
"!  c #490910",
"~  c #4F151A",
"^  c #4E1C1F",
"/  c #620E0E",
"(  c #6D1310",
")  c #6F1E17",
"_  c #701411",
"`  c #781712",
"'  c #771910",
"]  c #422100",
"[  c #402B06",
"{  c #4B2A00",
"}  c #4E2524",
"|  c #552325",
" . c #1D452A",
".. c #24442C",
"X. c #2A412A",
"o. c #25492E",
"O. c #2F4530",
"+. c #264B31",
"@. c #2D4B33",
"#. c #284D38",
"$. c #314731",
"%. c #3A4734",
"&. c #364D36",
"*. c #384E37",
"=. c #31433A",
"-. c #324A3D",
";. c #394E39",
":. c #2D553C",
">. c #30573D",
",. c #3C533D",
"<. c #4B4736",
"1. c #434E3C",
"2. c #021A43",
"3. c #032355",
"4. c #03245D",
"5. c #052A63",
"6. c #062E6A",
"7. c #06306B",
"8. c #3E5740",
"9. c #345B41",
"0. c #3D5A42",
"q. c #415741",
"w. c #455C45",
"e. c #4C5844",
"r. c #525F4F",
"t. c #4A624B",
"y. c #476A52",
"u. c #4A6C53",
"i. c #506750",
"p. c #556C55",
"a. c #5A6C5A",
"s. c #53745B",
"d. c #5B725B",
"f. c #60775F",
"g. c #5E7B62",
"h. c #637663",
"j. c #657C67",
"k. c #687568",
"l. c #697C69",
"z. c #6C846D",
"x. c #76826E",
"c. c #78816E",
"v. c #6F8670",
"b. c #6F8870",
"n. c #738570",
"m. c #758B75",
"M. c #7C857B",
"N. c #7B8E7A",
"B. c #7C947D",
"V. c #CDDB37",
"C. c #80917B",
"Z. c #7E9580",
"A. c #839984",
"S. c #88938D",
"D. c #8C9C8D",
"F. c #97A19A",
"G. c #9BA39C",
"H. c #9BA99B",
"J. c #A3A7A5",
"K. c #A2ABA2",
"L. c #B2B3B2",
"P. c #B8B8B7",
"I. c None",
/* pixels */
"V.V.V.V.V.V.V.V.V.V.V.V.V.V.V.V.V.V.V.V.V.V.V.V.V.V.V.V.V.V.V.V.V.V.V.V.V.V.V.V.V.V.V.V.V.V.V.V.V.V.V.V.V.V.V.V.V.V.V.V.V.V.V.V.",
"V.V.V.V.V.V.V.V.V.V.V.V.V.V.V.V.V.V.V.V.V.V.V.V.V.V.V.V.V.V.V.V.V.V.V.V.V.V.V.V.V.V.V.V.V.V.V.V.V.V.V.V.V.V.V.V.V.V.V.V.V.V.V.V.",
"V.V.V.V.V.V.V.V.V.V.V.V.V.V.V.V.V.V.V.V.V.V.V.V.V.V.V.V.V.V.V.V.V.V.V.V.V.V.V.V.V.V.V.V.V.V.V.V.V.V.V.V.V.V.V.V.V.V.V.V.V.V.V.V.",
"V.V.V.V.V.V.V.V.V.V.V.V.V.V.V.V.V.V.V.V.V.V.V.V.V.V.V.V.V.V.V.V.V.V.V.V.V.V.V.V.V.V.V.V.V.V.V.V.V.V.V.V.V.V.V.V.V.V.V.V.V.V.V.V.",
"V.V.V.V.V.V.V.V.V.V.V.V.V.V.V.V.V.V.V.V.V.V.V.V.V.V.V.V.V.V.V.V.V.V.V.V.V.V.V.V.V.V.V.V.V.V.V.V.V.V.V.V.V.V.V.V.V.V.V.V.V.V.V.V.",
"V.V.V.V.V.V.V.V.V.V.V.V.V.V.V.V.V.V.V.V.V.V.V.V.V.V.V.V.V.V.V.V.V.V.V.V.V.V.V.V.V.V.V.V.V.V.V.V.V.V.V.V.V.V.V.V.V.V.V.V.V.V.V.V.",
"V.V.V.V.V.V.V.V.V.V.V.V.V.V.V.V.V.V.V.V.V.V.V.V.V.V.V.V.V.V.V.V.V.V.V.V.V.V.V.V.V.V.V.V.V.V.V.V.V.V.V.V.V.V.V.V.V.V.V.V.V.V.V.V.",
"V.V.V.V.V.V.V.V.V.V.V.V.V.V.V.V.V.V.V.V.V.V.V.V.V.V.V.V.V.V.V.V.V.V.V.V.V.V.V.V.V.V.V.V.V.V.V.V.V.V.V.V.V.V.V.V.V.V.V.V.V.V.V.V.",
"V.V.V.V.V.V.V.V.V.V.V.V.V.V.V.V.V.V.V.V.V.V.V.V.V.V.V.V.V.V.V.V.V.V.V.V.V.V.V.V.V.V.V.V.V.V.V.V.V.V.V.V.V.V.V.V.V.V.V.V.V.V.V.V.",
"V.V.V.V.V.V.V.V.V.V.V.V.V.V.V.V.V.V.V.V.V.V.V.V.V.V.V.V.V.V.V.V.V.V.V.V.V.V.V.V.V.V.V.V.V.V.V.V.V.V.V.V.V.V.V.V.V.V.V.V.V.V.V.V.",
"V.V.V.V.V.V.V.V.V.V.V.V.V.V.V.V.V.V.V.V.V.V.V.V.V.V.V.V.V.V.V.V.V.V.V.V.V.V.V.V.V.V.V.V.V.V.V.V.V.V.V.V.V.V.V.V.V.V.V.V.V.V.V.V.",
"V.V.V.V.V.V.V.V.V.V.V.V.V.V.V.V.V.V.V.V.V.V.V.V.V.V.V.V.V.V.V.V.V.V.V.V.V.V.V.V.V.V.V.V.V.V.V.V.V.V.V.V.V.V.V.V.V.V.V.V.V.V.V.V.",
"V.V.V.V.V.V.V.V.V.V.V.V.V.V.V.V.V.V.V.V.V.V.V.V.V.V.V.V.V.V.V.V.V.V.V.V.V.V.V.V.V.V.V.V.V.V.V.V.V.V.V.V.V.V.V.V.V.V.V.V.V.V.V.V.",
"V.V.V.V.V.V.V.V.V.V.V.V.V.V.V.V.V.V.V.V.V.V.V.V.V.V.V.V.V.V.V.V.V.V.V.V.V.V.V.V.V.V.V.V.V.V.V.V.V.V.V.V.V.V.V.V.V.V.V.V.V.V.V.V.",
"V.V.V.V.V.V.V.V.V.V.V.V.V.V.V.V.V.V.V.V.V.V.V.V.V.V.V.V.V.V.V.V.V.V.V.V.V.V.V.V.V.V.V.V.V.V.V.V.V.V.V.V.V.V.V.V.V.V.V.V.V.V.V.V.",
"V.V.V.V.V.V.V.V.V.V.V.V.V.V.V.V.V.V.V.V.V.V.V.V.V.V.V.V.V.V.V.V.V.V.V.V.V.V.V.V.V.V.V.V.V.V.V.V.V.V.V.V.V.V.V.V.V.V.V.V.V.V.V.V.",
"V.V.V.V.V.V.V.V.V.V.V.V.V.V.V.V.V.V.V.V.V.V.V.V.V.V.V.V.V.V.V.V.V.V.V.V.V.V.V.V.V.V.V.V.V.V.V.V.V.V.V.V.V.V.V.V.V.V.V.V.V.V.V.V.",
"V.V.V.V.V.V.V.V.V.V.V.V.V.V.V.V.V.V.V.V.V.V.V.V.V.V.V.V.V.V.V.V.V.V.V.V.V.V.V.V.V.V.V.V.V.V.V.V.V.V.V.V.V.V.V.V.V.V.V.V.V.V.V.V.",
"V.V.V.V.V.V.V.V.V.V.V.V.V.V.V.V.V.V.V.V.V.V.V.V.V.V.V.V.V.V.V.V.V.V.V.V.V.V.V.V.V.V.V.V.V.V.V.V.V.V.V.V.V.V.V.V.V.V.V.V.V.V.V.V.",
"V.V.V.V.V.V.V.V.V.V.V.V.V.V.V.V.V.V.V.V.V.V.V.V.V.V.V.V.V.V.V.V.V.V.V.V.V.V.V.V.V.V.V.V.V.V.V.V.V.V.V.V.V.V.V.V.V.V.V.V.V.V.V.V.",
"V.V.V.V.V.V.V.V.V.V.V.V.V.V.V.V.V.V.V.V.V.V.V.V.V.V.V.V.V.V.V.V.V.V.V.V.V.V.V.V.V.V.V.V.V.V.V.V.V.V.V.V.V.V.V.V.V.V.V.V.V.V.V.V.",
"V.V.V.V.V.V.V.V.V.V.V.V.V.V.V.V.V.V.V.V.V.V.V.V.V.V.V.V.V.V.V.V.V.V.V.V.V.V.V.V.V.V.V.V.V.V.V.V.V.V.V.V.V.V.V.V.V.V.V.V.V.V.V.V.",
"V.V.V.V.V.V.V.V.V.V.V.V.V.V.V.V.V.V.V.V.V.V.V.V.V.V.V.V.V.V.V.V.V.V.V.V.V.V.V.V.V.V.V.V.V.V.V.V.V.V.V.V.V.V.V.V.V.V.V.V.V.V.V.V.",
"V.V.V.V.V.V.V.V.V.V.V.V.V.V.V.V.V.V.V.V.V.V.V.V.V.V.V.V.V.V.V.V.V.V.V.V.V.V.V.V.V.V.V.V.V.V.V.V.V.V.V.V.V.V.V.V.V.V.V.V.V.V.V.V.",
"V.V.V.V.V.V.V.V.V.V.V.V.V.V.V.V.V.V.V.V.I.I.I.V.V.V.V.V.V.V.V.V.V.V.V.V.V.V.V.V.V.V.V.V.V.V.V.V.V.V.V.V.V.V.V.V.V.V.V.V.V.V.V.V.",
"V.V.V.V.V.V.V.V.V.V.V.V.V.V.V.V.V.V.I.I.I.  I.V.V.V.V.V.V.V.V.V.V.V.V.V.V.V.V.V.V.V.V.V.V.V.V.V.V.V.V.V.V.V.V.V.V.V.V.V.V.V.V.V.",
"V.V.V.V.V.V.I.I.I.V.V.V.V.I.I.I.I.I.I.    I.I.I.I.I.I.I.V.I.I.I.I.I.V.V.V.V.V.V.V.V.V.V.V.V.V.V.V.V.V.V.V.V.V.V.V.V.V.V.V.V.V.V.",
"V.V.V.V.V.V.    I.V.I.r r d u.s.s.@...+.+.o.o...D i i       I.I.I.I.V.V.V.V.V.V.V.V.V.V.V.V.V.V.V.V.V.V.V.V.V.V.V.V.V.V.V.V.V.V.",
"V.V.V.V.V.V.    I.I.I.>.9.9.z.z.b.t.w.w.t.w.w.w.w.,.X.; - X I.I.I.I.V.V.V.V.V.V.V.V.V.V.V.V.V.V.V.V.V.V.V.V.V.V.V.V.V.V.V.V.V.V.",
"V.V.V.V.V.V.V.I.  X #.n.B.m.t.t.w.w.w.w.w.w.w.t.w.w.w.&.X.r       I.V.V.V.V.V.V.V.V.V.V.V.V.V.V.V.V.V.V.V.V.V.V.V.V.V.V.V.V.V.V.",
"V.V.V.V.V.V.V.I.t s i.w.t.w.@.X.X.X.$.w.t.B.B.m.t.w.w.X.X.G r *           V.V.V.V.V.V.V.V.V.V.V.V.V.V.V.V.V.V.V.V.V.V.V.V.V.V.V.",
"V.V.V.V.V.V.t d s.s.w.w.,.Z X.G X.,.w.z.n.t.t.w.&.w.w.X.X.X.A j   I.I.I.I.  I.V.V.V.V.V.V.V.V.V.V.V.V.V.V.V.V.V.V.V.V.V.V.V.V.V.",
"V.V.V.V.V.V.t g B.B.w.w.,. .$.&.*.w.t.d.d.p.k.k.p.o...X.X.X.X.D   I.I.I.I.I.I.V.V.V.V.V.V.V.V.V.V.V.V.V.V.V.V.V.V.V.V.V.V.V.V.V.",
"V.V.V.V.V.V.t s s.z.1.p.p.w.t.w.w.,.,.w.t.H.P.L.H.:. .A k X.X.D X I.I.I.V.V.V.V.V.V.V.V.V.V.V.V.V.V.V.V.V.V.V.V.V.V.V.V.V.V.V.V.",
"V.V.V.V.I.t z.B.H.F.m.,.*.t.w.t.w.X.*.G.L.J.#.#.J.L.G.h t X.X.G u         I.I.V.V.V.V.V.V.V.V.V.V.V.V.V.V.V.V.V.V.V.V.V.V.V.V.V.",
"V.V.V.V.I.r G.J.a.a.F. .s 0.w.w.w.X.&.D.H.L.S.S.L.H.A.g t X.G ..t     I.I.  I.V.V.V.V.V.V.V.V.V.V.V.V.V.V.V.V.V.V.V.V.V.V.V.V.V.",
"V.V.V.V.I.t D.H.M.M.D.C u w.*.*.*.;.,.9.y.K.P.P.K.y.>.l j X.X.D &   I.I.I.I.I.V.V.V.V.V.V.V.V.V.V.V.V.V.V.V.V.V.V.V.V.V.V.V.V.V.",
"V.V.V.V.V.V.t t t u g 8.8.d ,.0.g 0.w.$.X.t s u u ..X.G G D r *   I.V.V.V.V.V.V.V.V.V.V.V.V.V.V.V.V.V.V.V.V.V.V.V.V.V.V.V.V.V.V.",
"V.V.V.V.V.V.I.I.r t 8.w.r.w.q.q.w.w.w.w.w...G G G X.G t u D     I.I.V.V.V.V.V.V.V.V.V.V.V.V.V.V.V.V.V.V.V.V.V.V.V.V.V.V.V.V.V.V.",
"V.V.V.V.V.V.V.I.  o 1 z.B.n.| } x.} } x.m.,.X.X.X.X.X.t r X     I.V.V.V.V.V.V.V.V.V.V.V.V.V.V.V.V.V.V.V.V.V.V.V.V.V.V.V.V.V.V.V.",
"V.V.V.V.V.V.V.V.V.V.I.    4 I I I U U I I I H K X.* & . % 0 ] q % I.I.I.V.V.V.V.V.V.V.V.V.V.V.V.V.V.V.V.V.V.V.V.V.V.V.V.V.V.V.V.",
"V.V.V.V.V.V.V.V.V.V.I.I.I.2 Y U U I W | | Q H X.G     z z 9 q E ] .   I.I.V.V.V.V.V.V.V.V.V.V.V.V.V.V.V.V.V.V.V.V.V.V.V.V.V.V.V.",
"V.V.V.V.V.V.V.V.V.V.I.  O x.^ W U U ~ c.n.Q F G t X + &.;.  0 E ] q 0     I.I.V.V.V.V.V.V.V.V.V.V.V.V.V.V.V.V.V.V.V.V.V.V.V.V.V.",
"V.V.V.V.V.V.V.V.V.V.I.    ;.1.<.' W Q %.*.F u r   f.j. .u   0 ] E E E 3 #   I.V.V.V.V.V.V.V.V.V.V.V.V.V.V.V.V.V.V.V.V.V.V.V.V.V.",
"V.V.V.V.V.V.V.V.V.V.V.V.I.    . R / R .   # # 3 I F O.f.a.  0 E E 5 5 E 0 .   I.V.V.V.V.V.V.V.V.V.V.V.V.V.V.V.V.V.V.V.V.V.V.V.V.",
"V.V.V.V.V.V.V.V.V.V.V.V.V.V.V.I.U ` ` I.I.U T T U L ,.C.N.  0 E E     0 E 6     V.V.V.V.V.V.V.V.V.V.V.V.V.V.V.V.V.V.V.V.V.V.V.V.",
"V.V.V.V.V.V.V.V.V.V.V.V.V.V.V.I.I.I.I.  . W _ ( U e.p.n.l.. 0 E q     0 E 0     I.I.V.V.V.V.V.V.V.V.V.V.V.V.V.V.V.V.V.V.V.V.V.V.",
"V.V.V.V.V.V.V.V.V.V.V.V.V.V.V.V.V.V.I.U W ( W I 4 N.N.O   0 E z x     0 E E q 9 @     I.V.V.V.V.V.V.V.V.V.V.V.V.V.V.V.V.V.V.V.V.",
"V.V.V.V.V.V.V.V.V.V.V.V.V.V.V.V.V.V.I.U U R U I 4 C.N.O   E E z H     0 E E E q 3     I.V.V.V.V.V.V.V.V.V.V.V.V.V.V.V.V.V.V.V.V.",
"V.V.V.V.V.V.V.V.V.V.V.V.V.V.V.V.V.V.I.U U I P P 4 r.r.@ . E E ] p $ $ q E q 8 5 @     I.V.V.V.V.V.V.V.V.V.V.V.V.V.V.V.V.V.V.V.V.",
"V.V.V.V.V.V.V.V.V.V.V.V.V.V.V.V.V.    3 4 6 E q 4     0 q 4 4 3       0 0 o 4.4.c     I.V.V.V.V.V.V.V.V.V.V.V.V.V.V.V.V.V.V.V.V.",
"V.V.V.V.V.V.V.V.V.V.V.V.V.V.V.V.V.    9 q q E q 4     0 E 0 0 0 3     .   3.6.5.b     I.V.V.V.V.V.V.V.V.V.V.V.V.V.V.V.V.V.V.V.V.",
"V.V.V.V.V.V.V.V.V.V.V.V.V.V.V.V.V.I.I.@ $ @ $ @ .     y y y $ @ .     V 2.7.7.5.b     I.V.V.V.V.V.V.V.V.V.V.V.V.V.V.V.V.V.V.V.V.",
"V.V.V.V.V.V.V.V.V.V.V.V.V.V.V.V.V.I.I.X X 1 : +   X X u d u X X   v V 5.7.6.6.5.b     I.V.V.V.V.V.V.V.V.V.V.V.V.V.V.V.V.V.V.V.V.",
"V.V.V.V.V.V.V.V.V.V.V.V.V.V.V.V.V.    * u 8.u r   D X.,.8.w.w.;.X     r u G M m b     I.V.V.V.V.V.V.V.V.V.V.V.V.V.V.V.V.V.V.V.V.",
"V.V.V.V.V.V.V.V.V.V.V.V.V.V.V.V.V.    A A J u r   *.,.g f w.w.q.D     r t s -.=.  I.I.I.V.V.V.V.V.V.V.V.V.V.V.V.V.V.V.V.V.V.V.V.",
"V.V.V.V.V.V.V.V.V.V.V.V.V.V.V.V.V.I.I.O - f Z j   ,.0.u r i $.X.f     I.I.I.l l i     I.V.V.V.V.V.V.V.V.V.V.V.V.V.V.V.V.V.V.V.V.",
"V.V.V.V.V.V.V.V.V.V.V.V.V.V.V.V.V.V.V.V.I.      o a i     5.> o   I.I.I.I.I.I.I.o > , B         V.V.V.V.V.V.V.V.V.V.V.V.V.V.V.V.",
"V.V.V.V.V.V.V.V.V.V.V.V.V.V.V.V.V.V.V.V.I.I.I.I.m o o   o 4.m b   I.I.I.I.  c b N 4.5.5.o   I.I.V.V.V.V.V.V.V.V.V.V.V.V.V.V.V.V.",
"V.V.V.V.V.V.V.V.V.V.V.V.V.V.V.V.V.V.V.V.V.I.m m 4.4.3.m b m m b o             o 5.N m m     I.I.V.V.V.V.V.V.V.V.V.V.V.V.V.V.V.V.",
"V.V.V.V.V.V.V.V.V.V.V.V.V.V.V.V.V.V.V.V.V.I.> > n < w e e % @ $ { ] E E E 7 4 3 . @ @ @ o >     V.V.V.V.V.V.V.V.V.V.V.V.V.V.V.V.",
"V.V.V.V.V.V.V.V.V.V.V.V.V.V.V.V.V.V.V.V.V.I.    3 0 q { ]   6 7 9 9 9 0 0 9 4 4 3 # @ #         V.V.V.V.V.V.V.V.V.V.V.V.V.V.V.V.",
"V.V.V.V.V.V.V.V.V.V.V.V.V.V.V.V.V.V.V.V.V.I.    # 3 3 # #   8 9 7 4 4 6 6 3 # 3 #           I.V.V.V.V.V.V.V.V.V.V.V.V.V.V.V.V.V.",
"V.V.V.V.V.V.V.V.V.V.V.V.V.V.V.V.V.V.V.V.V.I.I.I.                0 q q q 0 #       I.I.I.I.I.I.V.V.V.V.V.V.V.V.V.V.V.V.V.V.V.V.V."
};
