/* XPM */
static char *result[] = {
/* columns rows colors chars-per-pixel */
"64 64 188 2 ",
"   c #010101",
".  c #0B0100",
"X  c #030C04",
"o  c #0B0A06",
"O  c #00010A",
"+  c #080D09",
"@  c #130300",
"#  c #1B0300",
"$  c #1C0B00",
"%  c #140900",
"&  c #021105",
"*  c #011B07",
"=  c #001F08",
"-  c #0D1A0D",
";  c #0A1708",
":  c #000213",
">  c #00061C",
",  c #0E1A11",
"<  c #141E14",
"1  c #1E1A13",
"2  c #1B1716",
"3  c #230400",
"4  c #2A0600",
"5  c #230D00",
"6  c #2C0A00",
"7  c #320E00",
"8  c #38070C",
"9  c #2C1300",
"0  c #271309",
"q  c #351500",
"w  c #381700",
"e  c #361901",
"r  c #3C1B00",
"t  c #351709",
"y  c #2D1F15",
"u  c #201112",
"i  c #00250B",
"p  c #00290C",
"a  c #132304",
"s  c #032C12",
"d  c #152314",
"f  c #192C1A",
"g  c #1A2616",
"h  c #043115",
"j  c #07361B",
"k  c #0B351A",
"l  c #0A391E",
"z  c #07381C",
"x  c #13331B",
"c  c #1A331E",
"v  c #12391F",
"b  c #3B2302",
"n  c #272C17",
"m  c #000124",
"M  c #010C24",
"N  c #00012B",
"B  c #021029",
"V  c #16162A",
"C  c #000334",
"Z  c #00043A",
"A  c #000A3C",
"S  c #030E36",
"D  c #011232",
"F  c #0D3A21",
"G  c #133C22",
"H  c #1B3B23",
"J  c #1F372C",
"K  c #223523",
"L  c #293522",
"P  c #233D25",
"I  c #2C3A25",
"U  c #263F28",
"Y  c #293F28",
"T  c #323C29",
"R  c #2F3930",
"E  c #383E34",
"W  c #420507",
"Q  c #440B05",
"!  c #44040A",
"~  c #4B050C",
"^  c #45090E",
"/  c #56090D",
"(  c #5E0D0E",
")  c #401F00",
"_  c #4B0710",
"`  c #450B11",
"'  c #4B0A12",
"]  c #4E1B1E",
"[  c #4A1316",
"{  c #620E0E",
"}  c #640E10",
"|  c #6D1310",
" . c #6F1E17",
".. c #751A11",
"X. c #761612",
"o. c #422100",
"O. c #402A04",
"+. c #4C2B00",
"@. c #4E2524",
"#. c #482C26",
"$. c #552325",
"%. c #613E3A",
"&. c #174028",
"*. c #1D442A",
"=. c #24432B",
"-. c #2A412A",
";. c #25492E",
":. c #2F4630",
">. c #264B31",
",. c #2C4B33",
"<. c #284D38",
"1. c #314731",
"2. c #354C35",
"3. c #384E37",
"4. c #384E39",
"5. c #344739",
"6. c #2D553C",
"7. c #3C543D",
"8. c #30573D",
"9. c #474B39",
"0. c #60423E",
"q. c #000941",
"w. c #031D45",
"e. c #001049",
"r. c #021F58",
"t. c #032355",
"y. c #042D56",
"u. c #03245D",
"i. c #05295E",
"p. c #0C325C",
"a. c #052A64",
"s. c #062E6A",
"d. c #06306B",
"f. c #3E5740",
"g. c #335A40",
"h. c #3D5A42",
"j. c #5F4540",
"k. c #435741",
"l. c #445C44",
"z. c #4C5844",
"x. c #525F4F",
"c. c #476047",
"v. c #47614A",
"b. c #4B624B",
"n. c #4F6750",
"m. c #476A52",
"M. c #4B6C54",
"N. c #506750",
"B. c #556C55",
"V. c #5A6C5A",
"C. c #4E7056",
"Z. c #4F7258",
"A. c #53745B",
"S. c #5B725B",
"D. c #60775F",
"F. c #5D7B64",
"G. c #687568",
"H. c #667A66",
"J. c #6B836C",
"K. c #76826E",
"L. c #78816E",
"P. c #6E8870",
"I. c #6F8670",
"U. c #738570",
"Y. c #758B75",
"T. c #75867C",
"R. c #7C857B",
"E. c #778A7C",
"W. c #7B8E7A",
"Q. c #7C937C",
"!. c #CDDB37",
"~. c #80917B",
"^. c #7E9580",
"/. c #819682",
"(. c #839984",
"). c #88938D",
"_. c #8C9C8D",
"`. c #879B89",
"'. c #92A292",
"]. c #97A19A",
"[. c #9BA49C",
"{. c #9BA99B",
"}. c #A2A7A5",
"|. c #A2ABA2",
" X c #AFB2AF",
".X c #B2B4B2",
"XX c #B8B8B7",
"oX c None",
/* pixels */
"!.!.!.!.!.!.!.!.!.!.!.!.!.!.!.!.!.!.!.!.!.!.!.!.!.!.!.!.!.!.!.!.!.!.!.!.!.!.!.!.!.!.!.!.!.!.!.!.!.!.!.!.!.!.!.!.!.!.!.!.!.!.!.!.",
"!.!.!.!.!.!.!.!.!.!.!.!.!.!.!.!.!.!.!.!.!.!.!.!.!.!.!.!.!.!.!.!.!.!.!.!.!.!.!.!.!.!.!.!.!.!.!.!.!.!.!.!.!.!.!.!.!.!.!.!.!.!.!.!.",
"!.!.!.!.!.!.!.!.!.!.!.!.!.!.!.!.!.!.!.!.!.!.!.!.!.!.!.!.!.!.!.!.!.!.!.!.!.!.!.!.!.!.!.!.!.!.!.!.!.!.!.!.!.!.!.!.!.!.!.!.!.!.!.!.",
"!.!.!.!.!.!.!.!.!.!.!.!.!.!.!.!.!.!.!.!.!.!.!.!.!.oXoXoXoX!.!.!.!.!.!.!.!.!.!.!.!.!.!.!.!.!.!.!.!.!.!.!.!.!.!.!.!.!.!.!.!.!.!.!.",
"!.!.!.!.!.!.!.!.!.!.!.!.!.!.!.!.!.!.!.!.!.!.!.oXoXoX    oX!.!.!.!.!.!.!.!.!.!.!.!.!.!.!.!.!.!.!.!.!.!.!.!.!.!.!.!.!.!.!.!.!.!.!.",
"!.!.!.!.!.!.!.oXoXoXoX!.!.!.!.!.!.oXoXoXoXoXoXoX    oXoXoXoXoXoXoXoXoX!.!.oXoXoXoXoXoX!.!.!.!.!.!.!.!.!.!.!.!.!.!.!.!.!.!.!.!.!.",
"!.!.!.!.!.!.!.oX    oX!.!.!.!.!.!.oXp p p p p i i = p i p i         oX!.!.oX        oX!.!.!.!.!.!.!.!.!.!.!.!.!.!.!.!.!.!.!.!.!.",
"!.!.!.!.!.!.!.oX    oX!.!.oXi i i h M.A.A.M.>.;.;.;.;.;.;.;.K K d <         oXoXoXoXoX!.!.!.!.!.!.!.!.!.!.!.!.!.!.!.!.!.!.!.!.!.",
"!.!.!.!.!.!.!.oX    oXoXoXoX8.g.8.g.J.P.P.J.c.c.c.l.c.c.l.c.c.l.3.-.- ; X   oXoXoXoXoX!.!.!.!.!.!.!.!.!.!.!.!.!.!.!.!.!.!.!.!.!.",
"!.!.!.!.!.!.!.!.!.oX  X G >.P.Q.Q.Y.b.c.l.c.c.c.l.l.l.l.l.l.l.l.l.l.2.-.h p         oX!.!.!.!.!.!.!.!.!.!.!.!.!.!.!.!.!.!.!.!.!.",
"!.!.!.!.!.!.!.!.!.oXi j J.Q.n.v.c.c.c.9.9.9.c.c.l.c.b.b.b.b.c.l.l.l.h.f.-.K     oXoXoXoXoXoXoX!.!.!.!.!.!.!.!.!.!.!.!.!.!.!.!.!.",
"!.!.!.!.!.!.!.!.!.oXp h v.N.l.l.c.c.,.-.,.,.;.1.l.b.W.Q.Q.W.b.l.l.l.1.-.-.P p *             oX!.!.!.!.!.!.!.!.!.!.!.!.!.!.!.!.!.",
"!.!.!.!.!.!.!.oXp z Z.A.v.l.l.h.&.v =.-.-.-.4.l.J.P.b.b.v.l.2.2.l.l.-.-.-.Y v x     oXoXoXoX    oX!.!.!.!.!.!.!.!.!.!.!.!.!.!.!.",
"!.!.!.!.!.!.!.oXp z Q.^.n.l.l.k.*.*.1.2.2.4.l.b.S.S.B.B.G.G.V.b.;.=.-.Y Y -.-.K     oXoXoXoXoXoXoX!.!.!.!.!.!.!.!.!.!.!.!.!.!.!.",
"!.!.!.!.!.!.!.oXp h A.J.h.9.B.B.c.c.l.c.l.l.h.7.k.b._.{..X.X{.`.6.*.G G Y -.Y K X   oXoXoX!.!.!.!.!.!.!.!.!.!.!.!.!.!.!.!.!.!.!.",
"!.!.!.!.!.oXoXoXz z &.&.2.h.Y.Y.v.l.c.v.v.9.-.4.~.'. X.X}.}..X X'.W.F s P -.-.P p i     oXoXoX!.!.!.!.!.!.!.!.!.!.!.!.!.!.!.!.!.",
"!.!.!.!.!.oXp z P.^.].]./.E.7.2.l.l.l.l.l.l.-.4.[..XXX}.<.<.}.XX.X[.F p P -.-.P p i         oXoXoX!.!.!.!.!.!.!.!.!.!.!.!.!.!.!.",
"!.!.!.!.!.oXp F ].}.V.V.}.].H j h.l.l.l.l.l.-.3._.{..X X).)..X.X{.(.l p P P -.=.s i     oXoX    oX!.!.!.!.!.!.!.!.!.!.!.!.!.!.!.",
"!.!.!.!.!.oXp l _.[.R.R.{._.F s f.l.3.3.3.3.4.7.h.m.'.|.XXXX|.'.m.g.v x P -.-.K & X   oXoXoXoXoXoX!.!.!.!.!.!.!.!.!.!.!.!.!.!.!.",
"!.!.!.!.!.oXp z M.F.^.E.F.C.&.G >.,.1.,.G H k.7.k l C.F.T.T.F.C.v h P -.-.-.H x     oX!.!.!.!.!.!.!.!.!.!.!.!.!.!.!.!.!.!.!.!.!.",
"!.!.!.!.!.!.!.oXp p p p h F h.k.k k 7.k.k k 7.l.1.-.h s h s s h P -.H P -.P i *     oX!.!.!.!.!.!.!.!.!.!.!.!.!.!.!.!.!.!.!.!.!.",
"!.!.!.!.!.!.!.oXoXoXp s 2.f.l.l.c.l.l.l.l.l.l.l.l.l.-.U P P U P -.P h p K K     oXoXoX!.!.!.!.!.!.!.!.!.!.!.!.!.!.!.!.!.!.!.!.!.",
"!.!.!.!.!.!.!.!.!.oX    + < J.Q.Q.U.@.@.U.K.@.@.U.E.l.f.:.U Y -.-.P p i X       oX!.!.!.!.!.!.!.!.!.!.!.!.!.!.!.!.!.!.!.!.!.!.!.",
"!.!.!.!.!.!.!.!.!.oXoXoXoXoXR E j.%.' _ %.0._ _ %.0.#.#.Y U Y U k s X X . @ 5 5     oX!.!.!.!.!.!.!.!.!.!.!.!.!.!.!.!.!.!.!.!.!.",
"!.!.!.!.!.!.!.!.!.!.!.!.!.oX    3 4 ! _ ~ ~ ~ ~ ! ! ~ ~ I Y Y K * & o # 6 q r r % @ oXoXoX!.!.!.!.!.!.!.!.!.!.!.!.!.!.!.!.!.!.!.",
"!.!.!.!.!.!.!.!.!.!.!.!.!.oXoXoX< 1 ! ~ ~ ~ ! ~ $.$.~ ` I Y P H     b O.e e ) b o.w .   oXoXoX!.!.!.!.!.!.!.!.!.!.!.!.!.!.!.!.!.",
"!.!.!.!.!.!.!.!.!.!.!.!.!.oX  + H.U.] _ ~ ~ ~ ] L.L.] 8 I H s i X o 2.2.    e ) ) o.r e     oXoXoX!.!.!.!.!.!.!.!.!.!.!.!.!.!.!.",
"!.!.!.!.!.!.!.!.!.!.!.!.!.oX    5.4.9.9...| ~ ` 5.4.T L s p   + H.H.G s     w ) ) o.o.r 4 #     oX!.!.!.!.!.!.!.!.!.!.!.!.!.!.!.",
"!.!.!.!.!.!.!.!.!.!.!.!.!.oXoXoX+ + , 1 ..X./ 8 o o + X   X 3 8 l.v.,.=.    w o.o.) o.r e q     oX!.!.!.!.!.!.!.!.!.!.!.!.!.!.!.",
"!.!.!.!.!.!.!.!.!.!.!.!.!.!.!.oXoX    . ( } { ( .   # # # 3 ~ ` L -.H.V.o   e o.o.r 5 5 r w @ .   oXoX!.!.!.!.!.!.!.!.!.!.!.!.!.",
"!.!.!.!.!.!.!.!.!.!.!.!.!.!.!.!.!.!.!.oX~ ~ X.X.oXoX! ~ / / ~ ` T 7./.W.o   e o.) w     e r 7 4     oX!.!.!.!.!.!.!.!.!.!.!.!.!.",
"!.!.!.!.!.!.!.!.!.!.!.!.!.!.!.!.!.!.!.oXoXoXoXoX  . ! ~ | | ~ ` z.B.Y.H.o   e o.r e     e o.o.w     oXoXoX!.!.!.!.!.!.!.!.!.!.!.",
"!.!.!.!.!.!.!.!.!.!.!.!.!.!.!.!.!.!.!.!.!.!.!.oX8 ! ! ~ ~ ~ 4 t U.Y.< o # 3 r ) 7 3     w o.) r 3 #     oXoXoX!.!.!.!.!.!.!.!.!.",
"!.!.!.!.!.!.!.!.!.!.!.!.!.!.!.!.!.!.!.!.!.!.!.oX~ ~ | | ~ ! 4 t ~.W.+   q w ) r n n     w ) ) ) w w 3 @     oX!.!.!.!.!.!.!.!.!.",
"!.!.!.!.!.!.!.!.!.!.!.!.!.!.!.!.!.!.!.!.!.!.!.oX~ ~ ( } ~ ! 4 t ~.W.+   w ) o.b I P     r ) ) o.) r 4 3     oX!.!.!.!.!.!.!.!.!.",
"!.!.!.!.!.!.!.!.!.!.!.!.!.!.!.!.!.!.!.!.!.!.!.oX~ ~ ~ ~ Q Q 4 9 x.x.@ . w ) ) b g d % @ r b ) r 9 5 # @     oX!.!.!.!.!.!.!.!.!.",
"!.!.!.!.!.!.!.!.!.!.!.!.!.!.!.!.!.!.!.!.!.oXoXoX8 ! ! W ) r 4 3     4 6 r r r q     9 e o.o.w 9 O O         oX!.!.!.!.!.!.!.!.!.",
"!.!.!.!.!.!.!.!.!.!.!.!.!.!.!.!.!.!.!.!.!.oX    4 4 4 4 r r 4 3     e r 6 4 6 3         e w   X t.t.C m     oX!.!.!.!.!.!.!.!.!.",
"!.!.!.!.!.!.!.!.!.!.!.!.!.!.!.!.!.!.!.!.!.oX    q r r r o.r 4 3     r o.r r w w 3 #       . w.t.s.a.Z N     oX!.!.!.!.!.!.!.!.!.",
"!.!.!.!.!.!.!.!.!.!.!.!.!.!.!.!.!.!.!.!.!.oXoXoX@ @ @ @ @ @ .       ; a a a % @ .     O D w.a.d.d.a.Z N     oX!.!.!.!.!.!.!.!.!.",
"!.!.!.!.!.!.!.!.!.!.!.!.!.!.!.!.!.!.!.!.!.oXoXoX  X , d ; &       & s k h s X X     M D a.s.s.d.d.a.Z N     oX!.!.!.!.!.!.!.!.!.",
"!.!.!.!.!.!.!.!.!.!.!.!.!.!.!.!.!.!.!.!.!.oX    i h 7.l.P c     p h -.1.:.-.l s     w.t.y.y.a.p.u.r.Z N     oX!.!.!.!.!.!.!.!.!.",
"!.!.!.!.!.!.!.!.!.!.!.!.!.!.!.!.!.!.!.!.!.oX    i h 7.7.h i     P -.7.f.l.l.l.4.X       i s J P S Z N N     oX!.!.!.!.!.!.!.!.!.",
"!.!.!.!.!.!.!.!.!.!.!.!.!.!.!.!.!.!.!.!.!.oX    c P -.-.s i     4.7.j k f.l.l.k.K f     i p s h 5.5.O   oXoXoX!.!.!.!.!.!.!.!.!.",
"!.!.!.!.!.!.!.!.!.!.!.!.!.!.!.!.!.!.!.!.!.oXoXoX+ & s k v x     7.f.s i - d :.,.k s     oXoXoXoXl v f d O   oX!.!.!.!.!.!.!.!.!.",
"!.!.!.!.!.!.!.!.!.!.!.!.!.!.!.!.!.!.!.!.!.!.!.oXoX  & & < -     1.1.* & M B , - & X   oXoXoXoXoXoXp d -     m oXoXoXoXoXoX!.!.!.",
"!.!.!.!.!.!.!.!.!.!.!.!.!.!.!.!.!.!.!.!.!.!.!.!.!.oX        O O g d   O i.u.:       oXoXoXoXoXoXoXoXO   : > A Z         oX!.!.!.",
"!.!.!.!.!.!.!.!.!.!.!.!.!.!.!.!.!.!.!.!.!.!.!.!.!.oXoXoXoXoXZ C O O   O t.a.Z N     oXoXoXoX    m N Z Z t.i.a.t.O   oXoXoX!.!.!.",
"!.!.!.!.!.!.!.!.!.!.!.!.!.!.!.!.!.!.!.!.!.!.!.!.!.!.!.oXC Z u.a.u.r.C N C Z C N                   O t.u.Z Z Z C     oXoXoX!.!.!.",
"!.!.!.!.!.!.!.!.!.!.!.!.!.!.!.!.!.!.!.!.!.!.!.!.!.!.!.oXC Z a.a.e.q.C N 0 0   O b O.9 9 9 9 # # # @ : : O O   O m >     oX!.!.!.",
"!.!.!.!.!.!.!.!.!.!.!.!.!.!.!.!.!.!.!.!.!.!.!.!.!.!.!.oX: : V V u u y y $ % @ @ +.+.o.) ) ) w q 4 3 @ @ @ . @ . O :     oX!.!.!.",
"!.!.!.!.!.!.!.!.!.!.!.!.!.!.!.!.!.!.!.!.!.!.!.!.!.!.!.oX    3 4 q r +.+.    6 7 q q w q w q w q 4 4 3 3 # # @ @         oX!.!.!.",
"!.!.!.!.!.!.!.!.!.!.!.!.!.!.!.!.!.!.!.!.!.!.!.!.!.!.!.oX    # # 3 # 3 #     9 q 6 6 6 6 4 6 4 3 # 3 # #             oX!.!.!.!.!.",
"!.!.!.!.!.!.!.!.!.!.!.!.!.!.!.!.!.!.!.!.!.!.!.!.!.!.!.oXoXoX                    e w r w r w 4 #         oXoXoXoXoXoXoX!.!.!.!.!.",
"!.!.!.!.!.!.!.!.!.!.!.!.!.!.!.!.!.!.!.!.!.!.!.!.!.!.!.!.!.oXoXoXoXoXoXoXoXoXoXoX.     . .       oXoXoXoXoX!.!.!.!.!.!.!.!.!.!.!.",
"!.!.!.!.!.!.!.!.!.!.!.!.!.!.!.!.!.!.!.!.!.!.!.!.!.!.!.!.!.!.!.!.!.!.!.!.!.!.!.oXoXoXoXoXoXoXoXoXoX!.!.!.!.!.!.!.!.!.!.!.!.!.!.!.",
"!.!.!.!.!.!.!.!.!.!.!.!.!.!.!.!.!.!.!.!.!.!.!.!.!.!.!.!.!.!.!.!.!.!.!.!.!.!.!.!.!.!.!.!.!.!.!.!.!.!.!.!.!.!.!.!.!.!.!.!.!.!.!.!.",
"!.!.!.!.!.!.!.!.!.!.!.!.!.!.!.!.!.!.!.!.!.!.!.!.!.!.!.!.!.!.!.!.!.!.!.!.!.!.!.!.!.!.!.!.!.!.!.!.!.!.!.!.!.!.!.!.!.!.!.!.!.!.!.!.",
"!.!.!.!.!.!.!.!.!.!.!.!.!.!.!.!.!.!.!.!.!.!.!.!.!.!.!.!.!.!.!.!.!.!.!.!.!.!.!.!.!.!.!.!.!.!.!.!.!.!.!.!.!.!.!.!.!.!.!.!.!.!.!.!.",
"!.!.!.!.!.!.!.!.!.!.!.!.!.!.!.!.!.!.!.!.!.!.!.!.!.!.!.!.!.!.!.!.!.!.!.!.!.!.!.!.!.!.!.!.!.!.!.!.!.!.!.!.!.!.!.!.!.!.!.!.!.!.!.!.",
"!.!.!.!.!.!.!.!.!.!.!.!.!.!.!.!.!.!.!.!.!.!.!.!.!.!.!.!.!.!.!.!.!.!.!.!.!.!.!.!.!.!.!.!.!.!.!.!.!.!.!.!.!.!.!.!.!.!.!.!.!.!.!.!.",
"!.!.!.!.!.!.!.!.!.!.!.!.!.!.!.!.!.!.!.!.!.!.!.!.!.!.!.!.!.!.!.!.!.!.!.!.!.!.!.!.!.!.!.!.!.!.!.!.!.!.!.!.!.!.!.!.!.!.!.!.!.!.!.!.",
"!.!.!.!.!.!.!.!.!.!.!.!.!.!.!.!.!.!.!.!.!.!.!.!.!.!.!.!.!.!.!.!.!.!.!.!.!.!.!.!.!.!.!.!.!.!.!.!.!.!.!.!.!.!.!.!.!.!.!.!.!.!.!.!.",
"!.!.!.!.!.!.!.!.!.!.!.!.!.!.!.!.!.!.!.!.!.!.!.!.!.!.!.!.!.!.!.!.!.!.!.!.!.!.!.!.!.!.!.!.!.!.!.!.!.!.!.!.!.!.!.!.!.!.!.!.!.!.!.!."
};
