/* XPM */
static char *result[] = {
/* columns rows colors chars-per-pixel */
"64 64 102 2 ",
"   c #0A0807",
".  c #0E0D0B",
"X  c #120E0C",
"o  c #0F100D",
"O  c #12120E",
"+  c #1B110D",
"@  c #0E1211",
"#  c #141611",
"$  c #1A1612",
"%  c #161914",
"&  c #1A1B15",
"*  c #151C18",
"=  c #1C1F18",
"-  c #221511",
";  c #221C16",
":  c #221E19",
">  c #281E1B",
",  c #1F2016",
"<  c #1D2119",
"1  c #262116",
"2  c #23241C",
"3  c #2B251D",
"4  c #24281D",
"5  c #2B2B1B",
"6  c #31251F",
"7  c #342A1D",
"8  c #2E331C",
"9  c #34351D",
"0  c #272620",
"q  c #242921",
"w  c #2B2B23",
"e  c #302E21",
"r  c #3A2B20",
"t  c #332F28",
"y  c #382D28",
"u  c #2A3026",
"i  c #2E3228",
"p  c #353423",
"a  c #383C26",
"s  c #34332A",
"d  c #3A3628",
"f  c #3A3B2A",
"g  c #343930",
"h  c #3D3930",
"j  c #6B1212",
"k  c #423F2E",
"l  c #413D34",
"z  c #503E33",
"x  c #5F3F32",
"c  c #47432F",
"v  c #48402E",
"b  c #434631",
"n  c #44443A",
"m  c #4B463C",
"M  c #544C3C",
"N  c #58573C",
"B  c #634234",
"V  c #634A3C",
"C  c #6C483A",
"Z  c #724735",
"A  c #7C4633",
"S  c #4E4B40",
"D  c #4F4E48",
"F  c #574F43",
"G  c #555248",
"H  c #5A584D",
"J  c #5D5B54",
"K  c #615342",
"L  c #625D47",
"P  c #6B5A4D",
"I  c #605F54",
"U  c #626246",
"Y  c #6C624D",
"T  c #616156",
"R  c #696651",
"E  c #64655C",
"W  c #6E6C5D",
"Q  c #776B56",
"!  c #70675B",
"~  c #7B6F5C",
"^  c #777363",
"/  c #797664",
"(  c #B71C1C",
")  c #805644",
"_  c #8B634A",
"`  c #9B6349",
"'  c #856756",
"]  c #806858",
"[  c #887964",
"{  c #847C69",
"}  c #8E7F6A",
"|  c #947A65",
" . c #837E71",
".. c #CDDC39",
"X. c #9C8749",
"o. c #AB8B48",
"O. c #8B856D",
"+. c #8D8C69",
"@. c #918670",
"#. c #A0967E",
"$. c #A4A268",
"%. c #A39C8B",
/* pixels */
"................................................................................................................................",
"................................................................................................................................",
"................................................................................................................................",
"................................................................................................................................",
"................................................................................................................................",
"................................................................................................................................",
"................................................................................................................................",
"................................................................................................................................",
"................................................................................................................................",
".............................................._ _ ..............................................................................",
"............................................$.#.| _ o...........................................................................",
"..........................................e L P ] ' _ X.........................................................................",
"..........................................e f M P K B _ ........................................................................",
"..........................................e e w y V ) ` ........................................................................",
"..........................................e d 3 > k C A Z F h n ^ f ............................................................",
"............................................c k 6 $ - x ) I S w w n l ..........................................................",
"..............................................c w .   r z F I m n S E ..........................................................",
"................................................t $ o > y m G J T h b g ........................................................",
"..............................................N 0 : X o $ w l D J %.n g O.......................................................",
"..............................................< # o o .   $ > t D W G * g %.....................................................",
"............................................s # # . .     # > s S E / q < g ^ ..................................................",
"............................................= % # # . .   o : y m H +...q 8 a R ................................................",
"..........................................i 2 = & & o X o X # ; j s U ......R a R ..............................................",
"..........................................i q 2 < = & % o o . X % j f ........R a R ............................................",
"..........................................u u q < 2 2 < $ % @ . j j a ..........R f ............................................",
"..........................................u u q q q u q = $ # @ @ * f ..........R f R ..........................................",
"..........................................q q j ( ..u q $ $ # # @ % w / %.........R f ..........................................",
"..........................................j j ( ....s * X X X # * * < g / ..........Y ..........................................",
"..........................................j ( ........# . X . X * * * < f ......................................................",
"..........................................( ( ........o o X + X @ % % < < a ....................................................",
"............................................( ........& j j j + o % % < < 4 ....................................................",
"........................................................( ( j - $ O % < < < ....................................................",
"............................................................( - 1 O O < < & ....................................................",
"..........................................................( X $ 1 O O * < & ....................................................",
"........................................................( ( # + % % O & % < ....................................................",
"........................................................# + # # O % O % # & a ..................................................",
"........................................................$ X j O o O O O # j 3 ..................................................",
"........................................................l X j # O O O O O # , ..................................................",
"........................................................l X j j % O o o O # & p ................................................",
"........................................................f & j # , j & % o O % j ................................................",
"..........................................................h j = k h h e % O O & ................................................",
"..........................................................h & s R W f e < O % & 4 ..............................................",
"..........................................................h & j ~ O.h e u 7 O & p ..............................................",
"............................................................= d Q @.@.....1 % % 2 ..............................................",
"............................................................p w Y } @.......% % & q ............................................",
"............................................................c 4 M [ @.......5 % % q ............................................",
"............................................................h 3 v ~ @.........% # 5 ............................................",
"............................................................h < 3 K @.........& % & 2 ..........................................",
"............................................................h # ; M @.........% % & q ..........................................",
"............................................................h # & p f ........5 & < q ..........................................",
"..........................................................h & % = 9 ............< < q ..........................................",
"..........................................................h & & & 8 ............, 2 q ..........................................",
"..........................................................h $ & & l ..........5 & ; q ..........................................",
"..........................................................h % & & ............2 & = q ..........................................",
"..........................................................h % & 1 ............3 & < q ..........................................",
"..........................................................h # & 6 ............5 & & ............................................",
"..........................................................h & $ 7 ............9 , 5 ............................................",
"..........................................................h & : k ............k 3 e ............................................",
"..........................................................h & 3 k ............f 5 e ............................................",
"..........................................................h $ 0 Y ..........0 r h e ............................................",
"..........................................................y & y { ..........h r f e ............................................",
"............................................................s S  .f ..........h u 7 e ..........................................",
"..............................................................S ! %.h ........w e e 9 7 ........................................",
"..............................................................l 0 l h ..........e e w u ........................................"
};
