/* XPM */
static char *_41ff66f26524df1e022ab5b9b793da7hhkr5uIMMNHFYtiF[] = {
/* columns rows colors chars-per-pixel */
"64 64 181 2 ",
"   c #040303",
".  c #090606",
"X  c #0C0907",
"o  c #0E0D0A",
"O  c #130D0B",
"+  c #190F0C",
"@  c #0E110E",
"#  c #12120E",
"$  c #1D120E",
"%  c #1C180F",
"&  c #0E1210",
"*  c #141611",
"=  c #1A1611",
"-  c #161914",
";  c #1A1B15",
":  c #151C18",
">  c #1D1F19",
",  c #210E0A",
"<  c #21120E",
"1  c #221512",
"2  c #221C15",
"3  c #2A1D16",
"4  c #231F19",
"5  c #2C1D19",
"6  c #1F2017",
"7  c #1D221A",
"8  c #232017",
"9  c #272515",
"0  c #23241B",
"q  c #2B241C",
"w  c #2B2A1D",
"e  c #332517",
"r  c #30251D",
"t  c #2F321E",
"y  c #32341D",
"u  c #38381F",
"i  c #3B3B1E",
"p  c #272621",
"a  c #282420",
"s  c #262B23",
"d  c #2B2B23",
"f  c #322E23",
"g  c #332A25",
"h  c #3F2E28",
"j  c #2A3027",
"k  c #2D3229",
"l  c #343323",
"z  c #3B3D23",
"x  c #33332B",
"c  c #3B352B",
"v  c #3A3B32",
"b  c #42221A",
"n  c #483827",
"m  c #433B2E",
"M  c #423D33",
"N  c #62372A",
"B  c #773D2A",
"V  c #3F401B",
"C  c #3F4126",
"Z  c #4A431F",
"A  c #4D4D1D",
"S  c #595B1F",
"D  c #4C4C23",
"F  c #484729",
"G  c #5B462E",
"H  c #5B4F28",
"J  c #4D5222",
"K  c #535423",
"L  c #595624",
"P  c #5B5C23",
"I  c #57592B",
"U  c #454133",
"Y  c #4B4534",
"T  c #4F4B35",
"R  c #44433A",
"E  c #4B463D",
"W  c #4C4B3D",
"Q  c #534C39",
"!  c #545634",
"~  c #595436",
"^  c #5E543D",
"/  c #6E4437",
"(  c #724C3D",
")  c #5D6022",
"_  c #5D6332",
"`  c #676C25",
"'  c #696B24",
"]  c #65672A",
"[  c #6C6C2D",
"{  c #766F25",
"}  c #697024",
"|  c #73762D",
" . c #747A2C",
".. c #656232",
"X. c #6C6C37",
"o. c #6B6B38",
"O. c #736D36",
"+. c #736A3E",
"@. c #6D7236",
"#. c #787A35",
"$. c #4D4941",
"%. c #514D41",
"&. c #555245",
"*. c #5C5544",
"=. c #54534B",
"-. c #5A564A",
";. c #5C5B4E",
":. c #575850",
">. c #5E5C53",
",. c #645645",
"<. c #6E5648",
"1. c #675D48",
"2. c #615F52",
"3. c #6F5F51",
"4. c #666546",
"5. c #746F40",
"6. c #726C4A",
"7. c #787949",
"8. c #636155",
"9. c #6C6456",
"0. c #646259",
"q. c #6D6A5B",
"w. c #776854",
"e. c #7A6C5C",
"r. c #707052",
"t. c #72715E",
"y. c #6B6C60",
"u. c #797569",
"i. c #807D2E",
"p. c #867B35",
"a. c #865945",
"s. c #847F43",
"d. c #8B6B59",
"f. c #887757",
"g. c #8B735D",
"h. c #A5694C",
"j. c #AF7B4F",
"k. c #A67450",
"l. c #867763",
"z. c #8E7E66",
"x. c #847B6D",
"c. c #8B7E6B",
"v. c #9F7C61",
"b. c #827C70",
"n. c #7C8428",
"m. c #84882C",
"M. c #878E37",
"N. c #838A3A",
"B. c #898D39",
"V. c #8A9039",
"C. c #CDDC39",
"Z. c #888A46",
"A. c #918D4B",
"S. c #988F5C",
"D. c #A68651",
"F. c #99A14B",
"G. c #A9A658",
"H. c #AAB05D",
"J. c #898267",
"K. c #999A64",
"L. c #848072",
"P. c #8D8A75",
"I. c #8F8A7F",
"U. c #938572",
"Y. c #9B9474",
"T. c #A5A763",
"R. c #B8BE62",
"E. c #A3A376",
"W. c #A9A572",
"Q. c #B5C045",
"!. c #C0C068",
"~. c #969286",
"^. c #A79D80",
"/. c #A49A8B",
"(. c #A8A783",
"). c #B8B28D",
"_. c #A8A494",
"`. c #ABA598",
"'. c #BAB9A5",
"]. c #C4C39B",
"[. c #C8C1A6",
/* pixels */
"C.C.C.C.C.C.C.C.C.C.C.C.C.C.C.C.C.C.C.C.C.C.C.C.C.C.C.C.C.C.C.C.C.C.C.C.C.C.C.C.C.C.C.C.C.C.C.C.C.C.C.C.C.C.C.C.C.C.C.C.C.C.C.C.",
"C.C.C.C.C.C.C.C.C.C.C.C.C.C.C.C.C.C.C.C.C.C.C.C.C.C.C.C.C.C.C.C.C.C.C.C.C.C.C.C.C.C.C.C.C.C.C.C.C.C.C.C.C.C.C.C.C.C.C.C.C.C.C.C.",
"C.C.C.C.C.C.C.C.C.C.C.C.C.C.C.C.C.C.C.C.C.C.C.C.C.C.C.C.C.C.C.C.C.C.C.C.C.C.C.C.C.C.C.C.C.C.C.C.C.C.C.C.C.C.C.C.C.C.C.C.C.C.C.C.",
"C.C.C.C.C.C.C.C.C.C.C.C.C.C.C.C.C.C.C.C.C.C.C.C.C.C.C.C.C.C.C.C.C.C.C.C.C.C.C.C.C.C.C.C.C.C.C.C.C.C.C.C.C.C.C.C.C.C.C.C.C.C.C.C.",
"C.C.C.C.C.C.C.C.C.C.C.C.C.C.C.C.C.C.C.C.C.C.C.C.C.C.C.C.C.C.C.C.C.C.C.C.C.C.C.C.C.C.C.C.C.C.C.C.C.C.C.C.C.C.C.C.C.C.C.C.C.C.C.C.",
"C.C.C.C.C.C.C.C.C.C.C.C.C.C.C.C.C.C.C.C.C.C.C.C.C.C.C.C.C.C.C.C.C.C.C.C.C.C.C.C.C.C.C.C.C.C.C.C.C.C.C.C.C.C.C.C.C.C.C.C.C.C.C.C.",
"C.C.C.C.C.C.C.C.C.C.C.C.C.C.C.C.C.C.C.C.C.).[.v.D.C.C.C.C.C.C.C.C.C.C.C.C.C.C.C.C.C.C.C.C.C.C.C.C.C.C.C.C.C.C.C.C.C.C.C.C.C.C.C.",
"C.C.C.C.C.C.C.C.C.C.C.C.C.C.C.C.C.C.C.C.Y.b.Y./ a.j.G.C.C.C.C.C.C.C.C.C.C.C.C.C.C.C.C.C.C.C.C.C.C.C.C.C.C.C.C.C.C.C.C.C.C.C.C.C.",
"C.C.C.C.C.C.C.C.C.C.C.C.C.C.C.C.C.C.C.B.W Y w.d.g.a.f.C.C.C.C.C.C.C.C.C.C.C.C.C.C.C.C.C.C.C.C.C.C.C.C.C.C.C.C.C.C.C.C.C.C.C.C.C.",
"C.C.C.C.C.C.C.C.C.C.C.C.C.C.C.C.C.C.C.[ l M -.<.m N k.C.C.C.C.C.C.C.C.C.C.C.C.C.C.C.C.C.C.C.C.C.C.C.C.C.C.C.C.C.C.C.C.C.C.C.C.C.",
"C.C.C.C.C.C.C.C.C.C.C.C.C.C.C.C.C.C.C.] t w ; 5 d.a.h.f.z.P._.].C.C.C.C.C.C.C.C.C.C.C.C.C.C.C.C.C.C.C.C.C.C.C.C.C.C.C.C.C.C.C.C.",
"C.C.C.C.C.C.C.C.C.C.C.C.C.C.C.C.C.C.C.n.m d q w b a.B / E x v q.P.C.C.C.C.C.C.C.C.C.C.C.C.C.C.C.C.C.C.C.C.C.C.C.C.C.C.C.C.C.C.C.",
"C.C.C.C.C.C.C.C.C.C.C.C.C.C.C.C.C.C.C.C.F U m 4 # 3 ( d.9.E p a R -.C.C.C.C.C.C.C.C.C.C.C.C.C.C.C.C.C.C.C.C.C.C.C.C.C.C.C.C.C.C.",
"C.C.C.C.C.C.C.C.C.C.C.C.C.C.C.C.C.C.C.C.P v c >   X n M &.2.R R E :.'.C.C.C.C.C.C.C.C.C.C.C.C.C.C.C.C.C.C.C.C.C.C.C.C.C.C.C.C.C.",
"C.C.C.C.C.C.C.C.C.C.C.C.C.C.C.C.C.C.C.C.C.C.v g . = 5 n %.-.0.2.7.C 5._.C.C.C.C.C.C.C.C.C.C.C.C.C.C.C.C.C.C.C.C.C.C.C.C.C.C.C.C.",
"C.C.C.C.C.C.C.C.C.C.C.C.C.C.C.C.C.C.C.C.C.K.4 x * O * = c R =.>.~.R s u.'.C.C.C.C.C.C.C.C.C.C.C.C.C.C.C.C.C.C.C.C.C.C.C.C.C.C.C.",
"C.C.C.C.C.C.C.C.C.C.C.C.C.C.C.C.C.C.C.C.T.v o * @ # o o - 4 g =.L.=.7 x ~.'.C.C.C.C.C.C.C.C.C.C.C.C.C.C.C.C.C.C.C.C.C.C.C.C.C.C.",
"C.C.C.C.C.C.C.C.C.C.C.C.C.C.C.C.C.C.C.H.&.: & O o o . X = 0 x $.q.u.j 7 l y.(.C.C.C.C.C.C.C.C.C.C.C.C.C.C.C.C.C.C.C.C.C.C.C.C.C.",
"C.C.C.C.C.C.C.C.C.C.C.C.C.C.C.C.C.C.Q.4.0 - * * @ o X o * q M %.8.I.n.z ; 7 -.E.C.C.C.C.C.C.C.C.C.C.C.C.C.C.C.C.C.C.C.C.C.C.C.C.",
"C.C.C.C.C.C.C.C.C.C.C.C.C.C.C.C.C.C.F.C 0 ; : - * o X o o = q x v 0.R.C.D J d -.C.C.C.C.C.C.C.C.C.C.C.C.C.C.C.C.C.C.C.C.C.C.C.C.",
"C.C.C.C.C.C.C.C.C.C.C.C.C.C.C.C.C.C.Z.k p 0 7 7 > * & O o o O - 7 k E.C.C.C.| Y 6.C.C.C.C.C.C.C.C.C.C.C.C.C.C.C.C.C.C.C.C.C.C.C.",
"C.C.C.C.C.C.C.C.C.C.C.C.C.C.C.C.C.C.#.j j p 7 7 > > - * o o o & s 7 t.C.C.C.C.M.^ S.C.C.C.C.C.C.C.C.C.C.C.C.C.C.C.C.C.C.C.C.C.C.",
"C.C.C.C.C.C.C.C.C.C.C.C.C.C.C.C.C.C.@.s j j 7 7 s s 0 ; : * & & : s 5.W.C.C.C.C.O.e.!.C.C.C.C.C.C.C.C.C.C.C.C.C.C.C.C.C.C.C.C.C.",
"C.C.C.C.C.C.C.C.C.C.C.C.C.C.C.C.C.C._ s j j J 7 j k p * ; - & & * 0 L.(.C.C.C.C.s.,.S.C.C.C.C.C.C.C.C.C.C.C.C.C.C.C.C.C.C.C.C.C.",
"C.C.C.C.C.C.C.C.C.C.C.C.C.C.C.C.C.C.! s s 7 C.C.k s 7 = & * * - : > ;.`.r.C.C.C.F.Q W C.C.C.C.C.C.C.C.C.C.C.C.C.C.C.C.C.C.C.C.C.",
"C.C.C.C.C.C.C.C.C.C.C.C.C.C.C.C.C.C.C 7 7 0 C.C.! j o O O O * : : : ; ;.P.C.C.C.C.} A m.C.C.C.C.C.C.C.C.C.C.C.C.C.C.C.C.C.C.C.C.",
"C.C.C.C.C.C.C.C.C.C.C.C.C.C.C.C.C.C.t 7 0 l C.C.] > & o o o o : : : > 7 ;._ C.C.C.C.J C.C.C.C.C.C.C.C.C.C.C.C.C.C.C.C.C.C.C.C.C.",
"C.C.C.C.C.C.C.C.C.C.C.C.C.C.C.C.C.n.7 7 ; K C.C.C.1 o o + $ O * : # > 7 7 z C.C.C.C.C.C.C.C.C.C.C.C.C.C.C.C.C.C.C.C.C.C.C.C.C.C.",
"C.C.C.C.C.C.C.C.C.C.C.C.C.C.C.C.C.} - - 2  .C.C.C.U O O + , < O # # 7 7 7 l C.C.C.C.C.C.C.C.C.C.C.C.C.C.C.C.C.C.C.C.C.C.C.C.C.C.",
"C.C.C.C.C.C.C.C.C.C.C.C.C.C.C.C.C.) % # = C.C.C.C.=.+ + $ < 1 = * @ 7 7 : 0 C.C.C.C.C.C.C.C.C.C.C.C.C.C.C.C.C.C.C.C.C.C.C.C.C.C.",
"C.C.C.C.C.C.C.C.C.C.C.C.C.C.C.C.C.L < $ % C.C.C.C.>.$ 1 , < 1 8 % @ 7 7 ; 8 @.C.C.C.C.C.C.C.C.C.C.C.C.C.C.C.C.C.C.C.C.C.C.C.C.C.",
"C.C.C.C.C.C.C.C.C.C.C.C.C.C.C.C.C.I % O O C.C.C.C.8.8 2 $ # $ 2 # @ 7 7 - 0 ..C.C.C.C.C.C.C.C.C.C.C.C.C.C.C.C.C.C.C.C.C.C.C.C.C.",
"C.C.C.C.C.C.C.C.C.C.C.C.C.C.C.C.C.L + X X C.C.C.C.4.w 2 1 # # ; - # : - ; d 4.C.C.C.C.C.C.C.C.C.C.C.C.C.C.C.C.C.C.C.C.C.C.C.C.C.",
"C.C.C.C.C.C.C.C.C.C.C.C.C.C.C.C.C.' O O O C.C.C.C.V.0 # # = - * - # ; * - w ^ C.C.C.C.C.C.C.C.C.C.C.C.C.C.C.C.C.C.C.C.C.C.C.C.C.",
"C.C.C.C.C.C.C.C.C.C.C.C.C.C.C.C.C.| = X . C.C.C.C.C.h # # # @ o # - * @ - ; F A.C.C.C.C.C.C.C.C.C.C.C.C.C.C.C.C.C.C.C.C.C.C.C.C.",
"C.C.C.C.C.C.C.C.C.C.C.C.C.C.C.C.C. .= X . C.C.C.C.C.P ; o # * # # # # # * = w +.C.C.C.C.C.C.C.C.C.C.C.C.C.C.C.C.C.C.C.C.C.C.C.C.",
"C.C.C.C.C.C.C.C.C.C.C.C.C.C.C.C.C.C.9 O X C.C.C.C.C.C.; # * * * * @ @ # * * w ^ C.C.C.C.C.C.C.C.C.C.C.C.C.C.C.C.C.C.C.C.C.C.C.C.",
"C.C.C.C.C.C.C.C.C.C.C.C.C.C.C.C.C.C.P $ + C.C.C.C.C.C.f @ & * * * # @ @ @ * 6 c Z.C.C.C.C.C.C.C.C.C.C.C.C.C.C.C.C.C.C.C.C.C.C.C.",
"C.C.C.C.C.C.C.C.C.C.C.C.C.C.C.C.C.C.C.D 3 C.C.C.C.C.C.^ : * * 8 ; 9 7 @ @ # * 0 +.C.C.C.C.C.C.C.C.C.C.C.C.C.C.C.C.C.C.C.C.C.C.C.",
"C.C.C.C.C.C.C.C.C.C.C.C.C.C.C.C.C.C.C.A 2 { C.C.C.C.C.] 0 ; q -.;.u C.7 * * * 9 ,.C.C.C.C.C.C.C.C.C.C.C.C.C.C.C.C.C.C.C.C.C.C.C.",
"C.C.C.C.C.C.C.C.C.C.C.C.C.C.C.C.C.C.C.Z 8 b C.C.C.C.C.C.p ; v e.J.k C.7 # * - 2 Q C.C.C.C.C.C.C.C.C.C.C.C.C.C.C.C.C.C.C.C.C.C.C.",
"C.C.C.C.C.C.C.C.C.C.C.C.C.C.C.C.C.C.C.V ; e G C.C.C.C.C.x ; m e.Y.*.C.@.; * * ; c A.C.C.C.C.C.C.C.C.C.C.C.C.C.C.C.C.C.C.C.C.C.C.",
"C.C.C.C.C.C.C.C.C.C.C.C.C.C.C.C.C.C.C.n O S Z C.C.C.C.C.F ; l w.U.g.C.C.y * - - w +.C.C.C.C.C.C.C.C.C.C.C.C.C.C.C.C.C.C.C.C.C.C.",
"C.C.C.C.C.C.C.C.C.C.C.C.C.C.C.C.C.C.C.' %  .C.C.C.C.C.C.o.d d 1.c.J.C.C.' 7 * - 8 Q C.C.C.C.C.C.C.C.C.C.C.C.C.C.C.C.C.C.C.C.C.C.",
"C.C.C.C.C.C.C.C.C.C.C.C.C.C.C.C.C.C.C.C.S C.C.C.C.C.C.C.N.v 0 T l.z.C.C.C.F - - ; c C.C.C.C.C.C.C.C.C.C.C.C.C.C.C.C.C.C.C.C.C.C.",
"C.C.C.C.C.C.C.C.C.C.C.C.C.C.C.C.C.C.C.C.C.C.C.C.C.C.C.C.C.Q 0 m e.z.C.C.C.| - * * 0 #.C.C.C.C.C.C.C.C.C.C.C.C.C.C.C.C.C.C.C.C.C.",
"C.C.C.C.C.C.C.C.C.C.C.C.C.C.C.C.C.C.C.C.C.C.C.C.C.C.C.C.C.W 7 q ^ w.C.C.C.C.- # = ; X.C.C.C.C.C.C.C.C.C.C.C.C.C.C.C.C.C.C.C.C.C.",
"C.C.C.C.C.C.C.C.C.C.C.C.C.C.C.C.C.C.C.C.C.C.C.C.C.C.C.C.C.d * 2 Q 3.C.C.C.C.- - - 6 ..C.C.C.C.C.C.C.C.C.C.C.C.C.C.C.C.C.C.C.C.C.",
"C.C.C.C.C.C.C.C.C.C.C.C.C.C.C.C.C.C.C.C.C.C.C.C.C.C.C.C.@.> * ; l Y C.C.C.C.0 ; 6 0 P C.C.C.C.C.C.C.C.C.C.C.C.C.C.C.C.C.C.C.C.C.",
"C.C.C.C.C.C.C.C.C.C.C.C.C.C.C.C.C.C.C.C.C.C.C.C.C.C.C.C.D ; - ; 8 [ C.C.C.C.~ 8 > > L C.C.C.C.C.C.C.C.C.C.C.C.C.C.C.C.C.C.C.C.C.",
"C.C.C.C.C.C.C.C.C.C.C.C.C.C.C.C.C.C.C.C.C.C.C.C.C.C.C.C.d ; ; ; 7 C.C.C.C.C...; 7 0 L C.C.C.C.C.C.C.C.C.C.C.C.C.C.C.C.C.C.C.C.C.",
"C.C.C.C.C.C.C.C.C.C.C.C.C.C.C.C.C.C.C.C.C.C.C.C.C.C.C.C.p - - ; 0 C.C.C.C.C.i = ; 4 A C.C.C.C.C.C.C.C.C.C.C.C.C.C.C.C.C.C.C.C.C.",
"C.C.C.C.C.C.C.C.C.C.C.C.C.C.C.C.C.C.C.C.C.C.C.C.C.C.C.C.; = ; ; J C.C.C.C.C.w - > 0 K C.C.C.C.C.C.C.C.C.C.C.C.C.C.C.C.C.C.C.C.C.",
"C.C.C.C.C.C.C.C.C.C.C.C.C.C.C.C.C.C.C.C.C.C.C.C.C.C.C.C.- ; - 2 #.C.C.C.C.C.w 7 7 ; P C.C.C.C.C.C.C.C.C.C.C.C.C.C.C.C.C.C.C.C.C.",
"C.C.C.C.C.C.C.C.C.C.C.C.C.C.C.C.C.C.C.C.C.C.C.C.C.C.C.C.* - ; 9 B.C.C.C.C.C.y 2 ; 7 K C.C.C.C.C.C.C.C.C.C.C.C.C.C.C.C.C.C.C.C.C.",
"C.C.C.C.C.C.C.C.C.C.C.C.C.C.C.C.C.C.C.C.C.C.C.C.C.C.C.C.* - - q i.C.C.C.C.C.u 2 ; 0 | C.C.C.C.C.C.C.C.C.C.C.C.C.C.C.C.C.C.C.C.C.",
"C.C.C.C.C.C.C.C.C.C.C.C.C.C.C.C.C.C.C.C.C.C.C.C.C.C.C.C.- ; ; r i.C.C.C.C.C.I 0 8 D C.C.C.C.C.C.C.C.C.C.C.C.C.C.C.C.C.C.C.C.C.C.",
"C.C.C.C.C.C.C.C.C.C.C.C.C.C.C.C.C.C.C.C.C.C.C.C.C.C.C.C.- ; q m C.C.C.C.C.C.X.0 w C.C.C.C.C.C.C.C.C.C.C.C.C.C.C.C.C.C.C.C.C.C.C.",
"C.C.C.C.C.C.C.C.C.C.C.C.C.C.C.C.C.C.C.C.C.C.C.C.C.C.C.C.; = q M C.C.C.C.C.C.n 4 y C.C.C.C.C.C.C.C.C.C.C.C.C.C.C.C.C.C.C.C.C.C.C.",
"C.C.C.C.C.C.C.C.C.C.C.C.C.C.C.C.C.C.C.C.C.C.C.C.C.C.C.C.- = f e.C.C.C.C.C.A.a r H C.C.C.C.C.C.C.C.C.C.C.C.C.C.C.C.C.C.C.C.C.C.C.",
"C.C.C.C.C.C.C.C.C.C.C.C.C.C.C.C.C.C.C.C.C.C.C.C.C.C.C.C.0 ; x x.C.C.C.C.C.~ r n p.C.C.C.C.C.C.C.C.C.C.C.C.C.C.C.C.C.C.C.C.C.C.C.",
"C.C.C.C.C.C.C.C.C.C.C.C.C.C.C.C.C.C.C.C.C.C.C.C.C.C.C.C.' x $.b.^.C.C.C.C.P e [ C.C.C.C.C.C.C.C.C.C.C.C.C.C.C.C.C.C.C.C.C.C.C.C.",
"C.C.C.C.C.C.C.C.C.C.C.C.C.C.C.C.C.C.C.C.C.C.C.C.C.C.C.C.C.~ $.9./.).C.C.C.C.C.C.C.C.C.C.C.C.C.C.C.C.C.C.C.C.C.C.C.C.C.C.C.C.C.C.",
"C.C.C.C.C.C.C.C.C.C.C.C.C.C.C.C.C.C.C.C.C.C.C.C.C.C.C.C.C.C.n a c 9.C.C.C.C.C.C.C.C.C.C.C.C.C.C.C.C.C.C.C.C.C.C.C.C.C.C.C.C.C.C."
};
