/* XPM */
static char *_8bcbc3dd7704988f2ff14cdfeeccbf6E2MgxKX9Oxt9pO1L[] = {
/* columns rows colors chars-per-pixel */
"64 64 211 2 ",
"   c #040303",
".  c #0B0706",
"X  c #0C0907",
"o  c #0D0C0A",
"O  c #130D0C",
"+  c #1B0E0B",
"@  c #120A07",
"#  c #0F110D",
"$  c #12120E",
"%  c #1C120E",
"&  c #0D1110",
"*  c #141611",
"=  c #1A1612",
"-  c #161913",
";  c #1A1B15",
":  c #1C1E18",
">  c #141C18",
",  c #210D09",
"<  c #29130F",
"1  c #221412",
"2  c #221C16",
"3  c #211F19",
"4  c #2C1D15",
"5  c #1D211A",
"6  c #1B2119",
"7  c #222117",
"8  c #23241C",
"9  c #29241B",
"0  c #24281F",
"q  c #2C2B1D",
"w  c #282B16",
"e  c #322E1E",
"r  c #36271C",
"t  c #2E3117",
"y  c #3A391C",
"u  c #35361D",
"i  c #242720",
"p  c #2B2622",
"a  c #252B22",
"s  c #2B2C23",
"d  c #2F2F2A",
"f  c #322C23",
"g  c #362724",
"h  c #2A3127",
"j  c #2D332A",
"k  c #333122",
"l  c #34342B",
"z  c #3A382A",
"x  c #3C3B33",
"c  c #383731",
"v  c #4D251D",
"b  c #492E20",
"n  c #40342A",
"m  c #423B2B",
"M  c #493E2B",
"N  c #443D32",
"B  c #443E36",
"V  c #5B342C",
"C  c #723826",
"Z  c #3F401F",
"A  c #4E531D",
"S  c #59531F",
"D  c #4B432C",
"F  c #4D4E2D",
"G  c #494724",
"H  c #544726",
"J  c #4D5223",
"K  c #555A23",
"L  c #5A5A29",
"P  c #4C4533",
"I  c #44453C",
"U  c #4B443A",
"Y  c #4C493C",
"T  c #464436",
"R  c #504332",
"E  c #534936",
"W  c #514A3F",
"Q  c #594D3B",
"!  c #5C4437",
"~  c #595B36",
"^  c #6C5537",
"/  c #6B4839",
"(  c #5B6226",
")  c #5F613C",
"_  c #6D6D27",
"`  c #6D7224",
"'  c #7C792C",
"]  c #74792A",
"[  c #6B6A35",
"{  c #787936",
"}  c #4D4C45",
"|  c #4B4A47",
" . c #5A4F43",
".. c #5B5343",
"X. c #5A554A",
"o. c #5C5A4D",
"O. c #555246",
"+. c #5D5D57",
"@. c #635944",
"#. c #635C4C",
"$. c #7C5447",
"%. c #705F56",
"&. c #5F6154",
"*. c #6C664B",
"=. c #73634D",
"-. c #777246",
";. c #646255",
":. c #6E695C",
">. c #676559",
",. c #746B59",
"<. c #796B55",
"1. c #767955",
"2. c #786D61",
"3. c #7A7463",
"4. c #787768",
"5. c #7F7F73",
"6. c #817E39",
"7. c #9C6E3B",
"8. c #87594A",
"9. c #805F54",
"0. c #8A684A",
"q. c #857756",
"w. c #AE6847",
"e. c #A36F5B",
"r. c #8A7763",
"t. c #867B6B",
"y. c #8A7C64",
"u. c #A57C62",
"i. c #C17A58",
"p. c #7E862E",
"a. c #7E8140",
"s. c #8A922C",
"d. c #8A9427",
"f. c #939C2B",
"g. c #838433",
"h. c #8A8838",
"j. c #8C9331",
"k. c #899335",
"l. c #979D38",
"z. c #8B892A",
"x. c #9EA92E",
"c. c #9AA42D",
"v. c #9AA23D",
"b. c #9BA433",
"n. c #A6AB3D",
"m. c #A4AA37",
"M. c #AAB531",
"N. c #ABB736",
"B. c #B2BD38",
"V. c #BAC536",
"C. c #BDCA36",
"Z. c #BDC93A",
"A. c #B8C336",
"S. c #C1CE36",
"D. c #C1CD3A",
"F. c #C6D33B",
"G. c #C8D63B",
"H. c #CDDC39",
"J. c #C4D237",
"K. c #878C45",
"L. c #86885F",
"P. c #979B53",
"I. c #9E9758",
"U. c #98934C",
"Y. c #A6994A",
"T. c #9EA544",
"R. c #A4A745",
"E. c #B0AF4F",
"W. c #ACB246",
"Q. c #B9BD4B",
"!. c #B3B945",
"~. c #A9A95A",
"^. c #938367",
"/. c #8D8B7C",
"(. c #888477",
"). c #968876",
"_. c #9D9E7A",
"`. c #948E66",
"'. c #A49D60",
"]. c #A0987D",
"[. c #B79E77",
"{. c #A18978",
"}. c #A9A77B",
"|. c #B7B67A",
" X c #ACB16A",
".X c #BBC641",
"XX c #BDC944",
"oX c #BAC44D",
"OX c #BEC559",
"+X c #BFC17D",
"@X c #C2CC47",
"#X c #CBD749",
"$X c #C6D242",
"%X c #C3CA53",
"&X c #CBD655",
"*X c #C1C86D",
"=X c #CCD56C",
"-X c #989284",
";X c #958F89",
":X c #AA9A8D",
">X c #A09D90",
",X c #ACA79A",
"<X c #B8B499",
"1X c #BAA896",
"2X c #B0ACA0",
"3X c #BFBCA9",
"4X c #BFBCB0",
"5X c #C6BAA7",
"6X c #CFD584",
"7X c #CECBAA",
"8X c #CFCCC1",
/* pixels */
"H.H.H.H.H.H.H.H.H.H.H.H.H.H.H.H.H.H.H.H.H.H.H.H.G.J.H.H.H.H.H.H.H.H.H.H.H.H.H.H.H.H.H.H.H.H.H.H.H.H.H.H.H.H.H.H.H.H.H.H.H.H.H.H.",
"H.H.H.H.H.H.H.H.H.H.H.H.H.H.H.H.H.H.H.H.H.H.W.}.7X[.Y.H.H.H.H.H.H.H.H.H.H.H.H.H.H.H.H.H.H.H.H.H.H.H.H.H.H.H.H.H.H.H.H.H.H.H.H.H.",
"H.H.H.H.H.H.H.H.H.H.H.H.H.H.H.H.H.H.H.H.H.$X5X5X5X8.e.7.%X#XH.H.H.H.H.H.H.H.H.H.H.H.H.H.H.H.H.H.H.H.H.H.H.H.H.H.H.H.H.H.H.H.H.H.",
"H.H.H.H.H.H.H.H.H.H.H.H.H.H.H.H.H.H.H.H.H.P.3.U q.V / i.r.oXH.H.H.H.H.H.H.H.H.H.H.H.H.H.H.H.H.H.H.H.H.H.H.H.H.H.H.H.H.H.H.H.H.H.",
"H.H.H.H.H.H.H.H.H.H.H.H.H.H.H.H.H.H.H.H.H.F f P %.{.)./ 0.K.G.H.H.H.H.H.H.H.H.H.H.H.H.H.H.H.H.H.H.H.H.H.H.H.H.H.H.H.H.H.H.H.H.H.",
"H.H.H.H.H.H.H.H.H.H.H.H.H.H.H.H.H.H.H.H..Xk k N X.! 9 v w.[.$X|.7X7X&X$XH.H.H.H.H.H.H.H.H.H.H.H.H.H.H.H.H.H.H.H.H.H.H.H.H.H.H.H.",
"H.H.H.H.H.H.H.H.H.H.H.H.H.H.H.H.H.H.H.H.Z.t f 8 o 1 u.8.w.9.r.2./.,X7X XG.H.H.H.H.H.H.H.H.H.H.H.H.H.H.H.H.H.H.H.H.H.H.H.H.H.H.H.",
"H.H.H.H.H.H.H.H.H.H.H.H.H.H.H.H.H.H.H.H.H.K z s p q r $.C C  .d 0 l 3./.k.H.H.H.H.H.H.H.H.H.H.H.H.H.H.H.H.H.H.H.H.H.H.H.H.H.H.H.",
"H.H.H.H.H.H.H.H.H.H.H.H.H.H.H.H.H.H.H.H.H.p.l P m 3 o % / 8.2.X.c : p I X.&XH.H.H.H.H.H.H.H.H.H.H.H.H.H.H.H.H.H.H.H.H.H.H.H.H.H.",
"H.H.H.H.H.H.H.H.H.H.H.H.H.H.H.H.H.H.H.H.H.C.q x z :     g ! U >.o.d Y I +.4X&XH.H.H.H.H.H.H.H.H.H.H.H.H.H.H.H.H.H.H.H.H.H.H.H.H.",
"H.H.H.H.H.H.H.H.H.H.H.H.H.H.H.H.H.H.H.H.H.H.C.x.c p   $ g g ..E >.+.;.a.h a.,X6XH.H.H.H.H.H.H.H.H.H.H.H.H.H.H.H.H.H.H.H.H.H.H.H.",
"H.H.H.H.H.H.H.H.H.H.H.H.H.H.H.H.H.H.H.H.H.H.H.}.= x = @ * O B x +.+.+.,Xh h (.4X=XH.H.H.H.H.H.H.H.H.H.H.H.H.H.H.H.H.H.H.H.H.H.H.",
"H.H.H.H.H.H.H.H.H.H.H.H.H.H.H.H.H.H.H.H.H.H.|.d o * & % & . * = g c >.-XB > x 2X8X=XH.H.H.H.H.H.H.H.H.H.H.H.H.H.H.H.H.H.H.H.H.H.",
"H.H.H.H.H.H.H.H.H.H.H.H.H.H.H.H.H.H.H.H.H.+X| & & O o o .   ; = s s X.4.>.* 5 l /.3X&XH.H.H.H.H.H.H.H.H.H.H.H.H.H.H.H.H.H.H.H.H.",
"H.H.H.H.H.H.H.H.H.H.H.H.H.H.H.H.H.H.H.H..X+.= * * * o & X o X 3 f Y O.:.-XJ > ; > ;.<X#XH.H.H.H.H.H.H.H.H.H.H.H.H.H.H.H.H.H.H.H.",
"H.H.H.H.H.H.H.H.H.H.H.H.H.H.H.H.H.H.H.H.L.5 ; = * * * . X X o = f N O.;.;XXX( ; ; ; ;.<XF.H.H.H.H.H.H.H.H.H.H.H.H.H.H.H.H.H.H.H.",
"H.H.H.H.H.H.H.H.H.H.H.H.H.H.H.H.H.H.H.H.&.5 0 : 6 - - # o $ o X = = 5 > Y +XG.] s.k 3 X.&XH.H.H.H.H.H.H.H.H.H.H.H.H.H.H.H.H.H.H.",
"H.H.H.H.H.H.H.H.H.H.H.H.H.H.H.H.H.H.H.F.I a s 0 5 0 : ; * $ # X o o > i w _.H.H.H.V.) N r.D.H.H.H.H.H.H.H.H.H.H.H.H.H.H.H.H.H.H.",
"H.H.H.H.H.H.H.H.H.H.H.H.H.H.H.H.H.H.H.@Xj h j a 6 5 5 6 ; - & o o o & a 6 >.%XH.H.H.J.~ ! 1XH.H.H.H.H.H.H.H.H.H.H.H.H.H.H.H.H.H.",
"H.H.H.H.H.H.H.H.H.H.H.H.H.H.H.H.H.H.H.oXa a h h 5 6 h h a ; 0 - & & & > d a.].$XH.H.H.R.b :X&XH.H.H.H.H.H.H.H.H.H.H.H.H.H.H.H.H.",
"H.H.H.H.H.H.H.H.H.H.H.H.H.H.H.H.H.H.H.R.a a h a ( 5 h j d O = 2 & - & * 0 /.:XP.H.H.H.W.U =.'.H.H.H.H.H.H.H.H.H.H.H.H.H.H.H.H.H.",
"H.H.H.H.H.H.H.H.H.H.H.H.H.H.H.H.H.H.H.K.a a a 5 N.h.j a 5 1 & O * - - * 5 o.,X;.C.H.H.$X,.t ..G.H.H.H.H.H.H.H.H.H.H.H.H.H.H.H.H.",
"H.H.H.H.H.H.H.H.H.H.H.H.H.H.H.H.H.H.H.[ 5 0 5 a Z.H.~ d & @ O O O > > > > : o./.s.H.H.H.Z f.= V.H.H.H.H.H.H.H.H.H.H.H.H.H.H.H.H.",
"H.H.H.H.H.H.H.H.H.H.H.H.H.H.H.H.H.H.H.G : 8 0 k H.H._ : & o O o o & > - > 5 5 ;.F H.H.H.M.z.; C.H.H.H.H.H.H.H.H.H.H.H.H.H.H.H.H.",
"H.H.H.H.H.H.H.H.H.H.H.H.H.H.H.H.H.H.H.u ; : ; K G.H.' % o & O % % X > > * 5 6 0 5 XXH.H.H.G.M.H.H.H.H.H.H.H.H.H.H.H.H.H.H.H.H.H.",
"H.H.H.H.H.H.H.H.H.H.H.H.H.H.H.H.H.H.C.- = ; 7 p.H.H.v.T @ O O , , + & - $ 5 5 ; 6 ~.H.H.H.H.H.H.H.H.H.H.H.H.H.H.H.H.H.H.H.H.H.H.",
"H.H.H.H.H.H.H.H.H.H.H.H.H.H.H.H.H.H.x.= - $ ; M.H.H.Z.+.$ O % % < ; O * $ 0 5 > * L.H.H.H.H.H.H.H.H.H.H.H.H.H.H.H.H.H.H.H.H.H.H.",
"H.H.H.H.H.H.H.H.H.H.H.H.H.H.H.H.H.H.s.1 1 % - G.H.H.H.;.% % , < 1 < 9 O $ 5 6 ; * Q H.H.H.H.H.H.H.H.H.H.H.H.H.H.H.H.H.H.H.H.H.H.",
"H.H.H.H.H.H.H.H.H.H.H.H.H.H.H.H.H.H.g.r @ @ % V.H.H.H.4.% 2 % $ + = w # # 6 6 - - D Z.H.H.H.H.H.H.H.H.H.H.H.H.H.H.H.H.H.H.H.H.H.",
"H.H.H.H.H.H.H.H.H.H.H.H.H.H.H.H.H.H.h.= + X @ M.H.H.H.;.l 4 < O * % : # $ > 6 ; 7 U R.H.H.H.H.H.H.H.H.H.H.H.H.H.H.H.H.H.H.H.H.H.",
"H.H.H.H.H.H.H.H.H.H.H.H.H.H.H.H.H.H.b.+ . . @ c.H.H.H.1.8 ; 1 = * * ; ; # ; * * 0 @.I.H.H.H.H.H.H.H.H.H.H.H.H.H.H.H.H.H.H.H.H.H.",
"H.H.H.H.H.H.H.H.H.H.H.H.H.H.H.H.H.H.C.% O + X f.H.H.H.B.f # $ * ; * # * * ; * > ; m q.G.H.H.H.H.H.H.H.H.H.H.H.H.H.H.H.H.H.H.H.H.",
"H.H.H.H.H.H.H.H.H.H.H.H.H.H.H.H.H.H..Xp . X   d.H.H.H.H.H $ o o o o o $ * * # * * e *.Q.H.H.H.H.H.H.H.H.H.H.H.H.H.H.H.H.H.H.H.H.",
"H.H.H.H.H.H.H.H.H.H.H.H.H.H.H.H.H.H.Z.f @ . X ` H.H.H.H.{ 9 o $ * * * $ # # $ * - ; H I.H.H.H.H.H.H.H.H.H.H.H.H.H.H.H.H.H.H.H.H.",
"H.H.H.H.H.H.H.H.H.H.H.H.H.H.H.H.H.H.H.y % X X ` H.H.H.H.R.3 O * * * * * # # $ * $ 6 D <.$XH.H.H.H.H.H.H.H.H.H.H.H.H.H.H.H.H.H.H.",
"H.H.H.H.H.H.H.H.H.H.H.H.H.H.H.H.H.H.H.c.e X % m.H.H.H.H.#XM $ & * * * * $ # $ # * - 9 Q Q.H.H.H.H.H.H.H.H.H.H.H.H.H.H.H.H.H.H.H.",
"H.H.H.H.H.H.H.H.H.H.H.H.H.H.H.H.H.H.H.H.l.2 4 D.H.H.H.H.H.-.- * * * 9 = w ; # # $ - - D ~.H.H.H.H.H.H.H.H.H.H.H.H.H.H.H.H.H.H.H.",
"H.H.H.H.H.H.H.H.H.H.H.H.H.H.H.H.H.H.H.H.V.O 4 z.H.H.H.H.#Xp.i : - p ,.} t K 6 * * * * n ^.H.H.H.H.H.H.H.H.H.H.H.H.H.H.H.H.H.H.H.",
"H.H.H.H.H.H.H.H.H.H.H.H.H.H.H.H.H.H.H.H.R.= 9 v @XH.H.H.H.v.l * ; ..t.t.6 m.> $ $ - = f q.$XH.H.H.H.H.H.H.H.H.H.H.H.H.H.H.H.H.H.",
"H.H.H.H.H.H.H.H.H.H.H.H.H.H.H.H.H.H.H.H.{ 9 1 < ^ H.H.H.H.Z.x - 7 ..t._.m S.~ - * * - 3 =.oXH.H.H.H.H.H.H.H.H.H.H.H.H.H.H.H.H.H.",
"H.H.H.H.H.H.H.H.H.H.H.H.H.H.H.H.H.H.H.H.' * O K r H.H.H.H.H.Q - ; E y.).<.S.n.0 * - - * E Y.H.H.H.H.H.H.H.H.H.H.H.H.H.H.H.H.H.H.",
"H.H.H.H.H.H.H.H.H.H.H.H.H.H.H.H.H.H.H.H.V.$ O d.` H.H.H.H.H.K.p * m r.).y.@XH.H * * - ; e q.H.H.H.H.H.H.H.H.H.H.H.H.H.H.H.H.H.H.",
"H.H.H.H.H.H.H.H.H.H.H.H.H.H.H.H.H.H.H.H.H.` O x.H.H.H.H.H.H.b.} 8 q *.r.^.!.H.N.0 * - ; ; =.@XH.H.H.H.H.H.H.H.H.H.H.H.H.H.H.H.H.",
"H.H.H.H.H.H.H.H.H.H.H.H.H.H.H.H.H.H.H.H.H.H.] b.H.H.H.H.H.H.S.} p = @.).r.!.H.H.] ; * * - M !.H.H.H.H.H.H.H.H.H.H.H.H.H.H.H.H.H.",
"H.H.H.H.H.H.H.H.H.H.H.H.H.H.H.H.H.H.H.H.H.H.H.H.H.H.H.H.H.H.H.L.l 8 D <.^.R.H.H.l.> * * - 7 E.H.H.H.H.H.H.H.H.H.H.H.H.H.H.H.H.H.",
"H.H.H.H.H.H.H.H.H.H.H.H.H.H.H.H.H.H.H.H.H.H.H.H.H.H.H.H.H.G.H.*.: $ 2 @.=.g.H.H.A.: * * - ; U.H.H.H.H.H.H.H.H.H.H.H.H.H.H.H.H.H.",
"H.H.H.H.H.H.H.H.H.H.H.H.H.H.H.H.H.H.H.H.H.H.H.H.H.H.H.H.H.H.XXd * * 9 @.%.!.H.H.B.; - - ; 8 h.H.H.H.H.H.H.H.H.H.H.H.H.H.H.H.H.H.",
"H.H.H.H.H.H.H.H.H.H.H.H.H.H.H.H.H.H.H.H.H.H.H.H.H.H.H.H.H.H.v.5 * * ; q M S.H.H.C.q ; 6 5 w ' G.H.H.H.H.H.H.H.H.H.H.H.H.H.H.H.H.",
"H.H.H.H.H.H.H.H.H.H.H.H.H.H.H.H.H.H.H.H.H.H.H.H.H.H.H.H.H.H.[ ; * ; 6 9 g.H.H.H.H.-.7 : 3 : ' H.H.H.H.H.H.H.H.H.H.H.H.H.H.H.H.H.",
"H.H.H.H.H.H.H.H.H.H.H.H.H.H.H.H.H.H.H.H.H.H.H.H.H.H.H.H.H.G.x - ; ; ; 6 m.H.H.H.H.6.; 6 0 3 ' H.H.H.H.H.H.H.H.H.H.H.H.H.H.H.H.H.",
"H.H.H.H.H.H.H.H.H.H.H.H.H.H.H.H.H.H.H.H.H.H.H.H.H.H.H.H.H.XXc * ; ; ; q J.H.H.H.H.G - ; 3 2 _ H.H.H.H.H.H.H.H.H.H.H.H.H.H.H.H.H.",
"H.H.H.H.H.H.H.H.H.H.H.H.H.H.H.H.H.H.H.H.H.H.H.H.H.H.H.H.H.!.3 * ; - ; L H.H.H.H.H.k % ; : 9 _ H.H.H.H.H.H.H.H.H.H.H.H.H.H.H.H.H.",
"H.H.H.H.H.H.H.H.H.H.H.H.H.H.H.H.H.H.H.H.H.H.H.H.H.H.H.H.H.R.* ; ; - 2 h.H.H.H.H.H.f ; 6 6 2 d.H.H.H.H.H.H.H.H.H.H.H.H.H.H.H.H.H.",
"H.H.H.H.H.H.H.H.H.H.H.H.H.H.H.H.H.H.H.H.H.H.H.H.H.H.H.H.H.h.* * ; 6 9 n.H.H.H.H.H.u : 2 ; 6 [ H.H.H.H.H.H.H.H.H.H.H.H.H.H.H.H.H.",
"H.H.H.H.H.H.H.H.H.H.H.H.H.H.H.H.H.H.H.H.H.H.H.H.H.H.H.H.H._ & ; $ = r m.H.H.H.H.H.y 9 = ; 8 j.H.H.H.H.H.H.H.H.H.H.H.H.H.H.H.H.H.",
"H.H.H.H.H.H.H.H.H.H.H.H.H.H.H.H.H.H.H.H.H.H.H.H.H.H.H.H.H.p.* * 6 ; r z.H.H.H.H.H.K 5 ; 7 z J.H.H.H.H.H.H.H.H.H.H.H.H.H.H.H.H.H.",
"H.H.H.H.H.H.H.H.H.H.H.H.H.H.H.H.H.H.H.H.H.H.H.H.H.H.H.H.H.n.: = 7 ; n n.H.H.H.H.H.K.0 q p N.H.H.H.H.H.H.H.H.H.H.H.H.H.H.H.H.H.H.",
"H.H.H.H.H.H.H.H.H.H.H.H.H.H.H.H.H.H.H.H.H.H.H.H.H.H.H.H.H.l.; * ; n Q F.H.H.H.H.H.0.8 = Z H.H.H.H.H.H.H.H.H.H.H.H.H.H.H.H.H.H.H.",
"H.H.H.H.H.H.H.H.H.H.H.H.H.H.H.H.H.H.H.H.H.H.H.H.H.H.H.H.H.K : ; ; 9 N l.H.H.H.H.n.g 2 w L H.H.H.H.H.H.H.H.H.H.H.H.H.H.H.H.H.H.H.",
"H.H.H.H.H.H.H.H.H.H.H.H.H.H.H.H.H.H.H.H.H.H.H.H.H.H.H.H.G.A $ ; $ Q 1X%XH.H.H.H.'.p 2 V p.H.H.H.H.H.H.H.H.H.H.H.H.H.H.H.H.H.H.H.",
"H.H.H.H.H.H.H.H.H.H.H.H.H.H.H.H.H.H.H.H.H.H.H.H.H.H.H.H.H.A.0 8 = B -X!.H.H.H.H.D 9 b ^ D.H.H.H.H.H.H.H.H.H.H.H.H.H.H.H.H.H.H.H.",
"H.H.H.H.H.H.H.H.H.H.H.H.H.H.H.H.H.H.H.H.H.H.H.H.H.H.H.H.H.H.M.q | X.-X:XH.H.H.H.` 4 H B.H.H.H.H.H.H.H.H.H.H.H.H.H.H.H.H.H.H.H.H.",
"H.H.H.H.H.H.H.H.H.H.H.H.H.H.H.H.H.H.H.H.H.H.H.H.H.H.H.H.H.H.H.] | U 2.,X<XG.H.H.H.S.H.H.H.H.H.H.H.H.H.H.H.H.H.H.H.H.H.H.H.H.H.H.",
"H.H.H.H.H.H.H.H.H.H.H.H.H.H.H.H.H.H.H.H.H.H.H.H.H.H.H.H.H.H.H.H.( 3 9 c ,.D.H.H.H.H.H.H.H.H.H.H.H.H.H.H.H.H.H.H.H.H.H.H.H.H.H.H."
};
